<svg xmlns="http://www.w3.org/2000/svg" width="125" height="115" viewBox="0 0 125 115" fill="none">
  <path d="M97.1091 109.434C95.4297 109.434 93.7502 109.419 92.0707 109.442C91.366 109.454 90.6613 109.552 89.9567 109.614C89.6591 109.642 89.3538 109.736 89.068 109.689C87.4903 109.438 85.9518 109.873 84.4015 109.92C80.5257 110.041 76.6461 109.986 72.7665 110.041C69.0004 110.096 65.2264 109.896 61.4799 110.44C59.6008 110.714 57.7295 111.043 55.8464 111.317C54.3744 111.529 52.8907 111.673 51.4148 111.877C50.3852 112.022 49.3673 112.237 48.3416 112.39C47.4569 112.523 46.5682 112.609 45.6795 112.719C42.6102 113.091 39.541 113.463 36.4717 113.834C34.3655 114.089 32.2672 114.433 30.1531 114.586C27.2914 114.794 24.5314 114.058 21.7753 113.412C20.4012 113.091 19.0506 112.652 17.7038 112.214C16.8935 111.947 16.1144 111.576 15.3197 111.258C14.8382 111.067 14.3488 110.883 13.8594 110.718C10.9037 109.712 8.36298 108.103 6.40163 105.641C5.31329 104.274 4.20147 102.928 3.1562 101.526C2.67076 100.876 2.26361 100.152 1.92301 99.4121C0.533237 96.4133 0.0712822 93.2148 0.00864435 89.9459C-0.0226746 88.3056 0.0438782 86.6614 0.00864435 85.021C-0.0305043 83.3925 0.267024 81.8382 0.82685 80.3193C0.865999 80.2136 0.889489 80.104 0.912978 79.9983C1.50412 77.344 2.1031 74.6936 2.68641 72.0393C3.24624 69.4868 4.11143 67.0322 4.98444 64.5737C5.54035 63.0117 6.05712 61.4379 6.26852 59.7349C6.5543 57.4604 7.24724 55.2328 7.79923 52.9896C8.04978 51.9796 8.33557 50.9734 8.68008 49.9947C9.67054 47.1721 11.1386 44.6901 13.5893 42.8423C15.7895 41.1823 18.0914 39.6359 20.0058 37.6276C20.9062 36.6841 21.7714 35.7054 22.5935 34.6954C24.1242 32.8162 25.9995 31.3873 28.0939 30.1933C30.666 28.7291 33.3868 27.6291 36.2329 26.8539C38.4566 26.2471 40.7037 25.7147 42.9626 25.2684C44.1605 25.0296 45.4289 25.1627 46.623 24.92C49.5865 24.3171 52.5736 24.5911 55.5528 24.5128C56.8447 24.4776 56.8173 24.5011 56.9935 23.2679C57.2636 21.3888 57.4163 19.4744 57.9095 17.654C58.4028 15.8414 58.6495 14.0014 58.9039 12.1653C59.1584 10.3214 59.1936 8.45012 59.3659 6.59447C59.542 4.73882 59.8905 2.91449 60.6891 1.20761C60.9906 0.56557 61.4212 0.299372 62.1768 0.291542C63.6644 0.275883 65.1521 0.0409775 66.6397 0.0331478C69.0982 0.0174883 71.5607 0.12712 74.0192 0.146694C75.0997 0.154524 76.1802 0.0997092 77.2568 0.0174969C78.6114 -0.0842897 79.0538 0.236739 79.132 1.54431C79.2847 4.08114 79.5666 6.60622 80.2713 9.0491C80.929 11.3393 81.7276 13.5864 82.4675 15.8531C82.859 17.055 83.2427 18.2608 83.6537 19.4548C84.1118 20.7781 84.1509 20.7937 85.5838 20.735C85.8461 20.7233 86.1162 20.7311 86.3628 20.6606C88.7783 19.9951 91.2133 20.3044 93.574 20.7898C95.7546 21.24 97.8569 22.066 99.7752 23.2601C101.294 24.2036 102.809 25.1588 104.273 26.1805C104.97 26.666 105.604 27.2689 106.176 27.9031C108.22 30.1698 110.588 32.1312 112.42 34.6093C113.959 36.6881 115.219 38.9234 116.496 41.1588C118.105 43.9854 119.412 46.9568 120.524 49.9986C121.941 53.8822 123.296 57.8049 124 61.892C124.392 64.1626 124.591 66.4724 124.799 68.7704C124.94 70.3285 125.03 71.8984 124.991 73.4604C124.924 76.103 124.732 78.7455 124.611 81.388C124.576 82.2062 124.588 83.0284 124.615 83.8466C124.678 85.6357 124.842 87.4248 124.822 89.2099C124.799 91.3475 124.286 93.4184 123.613 95.4424C123.378 96.151 123.065 96.8283 122.814 97.5329C121.957 99.9093 120.301 101.663 118.316 103.104C116.053 104.744 113.771 106.388 111.132 107.379C109.821 107.872 108.419 108.13 107.057 108.491C106.806 108.557 106.52 108.542 106.301 108.659C105.205 109.238 104.003 109.313 102.817 109.348C100.914 109.407 99.0078 109.364 97.1052 109.364C97.1052 109.383 97.1052 109.403 97.1052 109.422L97.1091 109.434ZM43.5811 28.7879C43.2288 28.6978 43.0918 28.6273 42.9587 28.6352C42.0308 28.69 41.103 28.7644 40.1752 28.8309C37.5796 29.0188 35.1328 29.653 32.8466 30.9723C30.2549 32.4717 27.816 34.163 25.514 36.0617C24.6253 36.7938 23.6505 37.4515 22.891 38.2971C20.777 40.6499 18.7335 43.0732 16.6977 45.5005C15.8404 46.5262 15.0535 47.6105 14.2744 48.6989C13.1978 50.2061 12.5206 51.9952 11.076 53.2519C10.9977 53.3223 10.9546 53.4398 10.9116 53.5416C10.5044 54.5399 10.0464 55.5225 9.70577 56.5443C9.11854 58.3099 8.47259 60.0716 8.08893 61.8842C7.51736 64.5893 6.77745 67.2319 5.81439 69.8235C5.21934 71.4247 4.73389 73.0729 4.25628 74.7132C3.92351 75.8524 3.64164 77.0151 3.42632 78.1818C3.06224 80.1236 2.67859 82.0653 2.4711 84.0227C2.26361 85.9488 2.24403 87.8946 2.17357 89.8324C2.00914 94.4285 3.74734 98.3747 6.56996 101.847C7.71702 103.26 9.25165 104.364 10.6336 105.586C10.8685 105.793 11.2247 105.864 11.5223 106.001C11.949 106.2 12.5049 106.302 12.7633 106.635C13.143 107.117 13.6167 107.391 14.1022 107.688C15.4097 108.499 16.7917 109.101 18.3067 109.45C19.72 109.775 21.0941 110.268 22.4956 110.656C23.4274 110.914 24.363 111.243 25.3144 111.309C27.4714 111.458 29.6403 111.466 31.8013 111.521C32.6234 111.54 33.4495 111.454 34.2637 111.536C37.2234 111.846 40.1517 111.529 43.0839 111.219C44.2701 111.094 45.4564 110.926 46.6269 110.71C49.0071 110.268 51.3678 109.736 53.752 109.321C56.4689 108.851 59.1975 108.459 61.9262 108.068C62.7327 107.95 63.5587 107.849 64.3652 107.903C67.8298 108.142 71.2945 108.134 74.767 108.009C79.3904 107.841 84.0139 107.704 88.6374 107.551C90.3129 107.496 92.008 107.571 93.664 107.367C96.8821 106.976 100.084 106.478 103.279 105.934C106.145 105.445 108.928 104.74 111.629 103.542C114.017 102.485 115.893 100.841 117.78 99.1928C119.209 97.944 119.901 96.1236 120.516 94.3697C121.769 90.7916 122.399 87.092 122.387 83.2867C122.384 82.171 122.579 81.0592 122.642 79.9435C122.759 77.8255 123.026 75.6919 122.912 73.5818C122.716 69.9018 122.262 66.2336 121.949 62.5575C121.761 60.3574 121.287 58.212 120.637 56.1215C119.941 53.8822 119.06 51.7016 118.269 49.4936C117.513 47.3835 116.672 45.3282 115.407 43.4491C113.743 40.9749 112.162 38.4498 110.525 35.9599C109.586 34.5271 108.623 33.1177 107.311 31.9785C106.411 31.1955 105.534 30.3851 104.669 29.5708C102.946 27.9462 101.094 26.4624 98.8865 25.6168C96.5689 24.7282 94.1612 24.0665 91.6361 23.9804C90.7436 23.9491 89.8549 23.769 88.9584 23.7494C87.1693 23.7142 85.3802 23.7416 83.5911 23.7533C83.4658 23.7533 83.3366 23.8551 82.9765 24.0117C83.4541 24.2192 83.732 24.3641 84.0256 24.458C84.6246 24.642 85.2471 24.7555 85.8343 24.9709C86.6369 25.2684 87.4081 25.6482 88.1989 25.9692C90.8297 27.0418 93.2765 28.3964 95.5823 30.0954C97.896 31.8023 99.4111 34.0182 100.664 36.5002C100.938 37.0404 100.809 37.4632 100.339 37.7529C99.9004 38.023 99.3954 37.9291 99.0627 37.475C98.8669 37.2049 98.7416 36.8877 98.5733 36.5941C98.3697 36.2379 98.2131 35.8385 97.943 35.541C96.193 33.6071 94.4274 31.7123 92.2547 30.209C90.0232 28.6665 87.69 27.4177 85.0396 26.7835C83.916 26.5172 82.7572 26.345 81.6885 25.9378C80.099 25.3389 78.4783 25.2175 76.8419 25.3898C74.215 25.6599 71.5998 26.0435 68.9808 26.3802C68.8712 26.3959 68.7655 26.4428 68.6598 26.4702C67.8337 26.6895 67.0194 26.9557 66.1817 27.1162C65.1207 27.3198 64.0481 27.4725 62.9754 27.5899C62.0202 27.6956 61.0532 27.7387 60.094 27.7935C59.2837 27.8365 58.7865 28.2633 58.5281 29.0071C58.3089 29.6413 58.0348 30.2599 57.8665 30.9058C57.5063 32.2721 57.2519 33.6658 56.8525 35.0164C56.5198 36.1517 56.0578 37.2479 55.6194 38.348C55.4862 38.6808 55.1613 38.9313 54.8168 38.7081C54.6289 38.5868 54.488 38.207 54.5232 37.9721C54.6641 37.056 54.8599 36.1478 55.083 35.2513C55.5645 33.3017 56.0813 31.3638 56.5785 29.4181C56.7977 28.5569 56.5589 28.0871 55.682 27.9853C55.0321 27.907 54.3509 28.0127 53.6932 28.0871C52.8868 28.181 52.0412 28.5608 51.2895 28.416C49.3008 28.0284 47.4725 28.506 45.7813 29.3555C44.3993 30.0485 43.1544 31.0546 41.933 32.0215C40.1517 33.4309 38.4448 34.9342 36.7066 36.3945C36.3073 36.7312 35.8884 37.0287 35.3168 36.9308C34.9254 36.3083 35.172 35.7994 35.5791 35.3922C36.2368 34.7385 36.9298 34.1121 37.6579 33.5405C39.4392 32.1312 41.2518 30.761 43.0448 29.3712C43.2092 29.2459 43.3267 29.0619 43.5929 28.7683L43.5811 28.7879ZM63.3904 2.23722C62.6074 2.22156 62.5878 2.66004 62.5134 3.06328C62.2042 4.71144 61.891 6.35568 61.5817 8.00384C61.4721 8.58715 61.3625 9.17046 61.2724 9.75769C60.8849 12.3337 60.509 14.9097 60.1254 17.4856C59.8787 19.1377 59.5969 20.7898 59.3855 22.4458C59.3032 23.0917 59.3737 23.7573 59.3737 24.4972H64.8036C64.878 24.2897 64.9407 24.1879 64.9446 24.0861C65.0385 22.1874 65.1951 20.2926 65.1912 18.3939C65.1873 16.3464 65.1012 14.295 64.9132 12.2554C64.7841 10.8617 64.3965 9.49149 64.1538 8.10563C63.9228 6.79023 63.7036 5.46699 63.5196 4.14376C63.4334 3.52913 63.4334 2.90275 63.3904 2.24114V2.23722ZM73.8313 2.16284C73.8313 2.47603 73.8117 2.65612 73.8313 2.83229C73.9723 3.9402 74.1797 5.04419 74.262 6.15993C74.5321 9.81641 75.687 13.3085 76.239 16.9141C76.466 18.4135 76.9475 19.8698 77.2921 21.3535C77.4604 22.0817 77.6405 22.2501 78.3608 22.113C79.1634 21.9604 79.9659 21.7724 80.7567 21.561C81.1365 21.4592 81.4888 21.2557 81.9194 21.0717C81.7746 20.6175 81.6963 20.2534 81.5436 19.9207C80.5688 17.7871 79.4492 15.7161 78.7915 13.4455C78.3765 12.0166 77.8245 10.619 77.523 9.16654C77.1081 7.16213 76.8732 5.12248 76.5639 3.09458C76.5013 2.69135 76.5208 2.20591 75.961 2.17459C75.272 2.13544 74.5751 2.16676 73.8313 2.16676V2.16284ZM71.0752 23.6946C70.8756 22.6611 70.7033 21.9055 70.5898 21.1421C70.3784 19.7054 70.261 18.253 70.0026 16.828C69.5171 14.115 68.926 11.4215 68.4484 8.70851C68.1469 6.98988 67.959 5.24776 67.7359 3.51347C67.685 3.10241 67.548 2.80879 67.1369 2.75399C66.1308 3.46258 66.1112 4.42955 66.2834 5.47091C66.855 8.93165 67.223 12.412 67.2857 15.9236C67.3326 18.5583 67.3757 21.1891 67.4227 23.8864C68.6754 24.137 69.7364 23.3619 71.0713 23.6946H71.0752ZM70.0848 2.03758C70.1318 2.52303 70.1553 2.93017 70.214 3.32948C70.6172 6.08947 71.0909 8.8416 71.408 11.6094C71.6507 13.7156 71.8465 15.8179 72.3946 17.8771C72.8056 19.4196 73.1188 20.9895 73.4986 22.5397C73.5455 22.7316 73.7491 23.0409 73.8548 23.033C74.4655 22.9743 75.1154 22.9352 75.6596 22.6885C76.1137 22.481 75.824 21.9525 75.73 21.5689C75.2015 19.4392 74.6613 17.3134 74.1249 15.1876C73.6982 13.4964 73.2793 11.8013 72.8526 10.1061C72.4807 8.6263 72.0696 7.15821 71.7486 5.66665C71.5176 4.58615 71.4158 3.47432 71.2358 2.38207C71.1222 1.7048 70.6838 1.83401 70.0848 2.03366V2.03758Z" fill="black"/>
  <path d="M43.5772 28.7839C43.3149 29.0776 43.1936 29.2616 43.0291 29.3868C41.2361 30.7805 39.4236 32.1508 37.6423 33.5562C36.9141 34.1317 36.2251 34.758 35.5635 35.4079C35.1563 35.8111 34.9058 36.3201 35.3012 36.9464C35.8728 37.0404 36.2917 36.7468 36.691 36.4101C38.4292 34.9459 40.1361 33.4466 41.9173 32.0372C43.1427 31.0663 44.3837 30.0641 45.7656 29.3712C47.4569 28.5216 49.2851 28.044 51.2739 28.4316C52.0255 28.5764 52.8711 28.1967 53.6776 28.1028C54.3392 28.0245 55.0165 27.9227 55.6663 28.001C56.5433 28.1028 56.786 28.5726 56.5629 29.4338C56.0657 31.3795 55.5489 33.3174 55.0674 35.267C54.8442 36.1674 54.6485 37.0756 54.5075 37.9878C54.4723 38.2227 54.6132 38.6024 54.8012 38.7238C55.1457 38.9469 55.4706 38.6964 55.6037 38.3636C56.0422 37.2635 56.5041 36.1635 56.8369 35.0321C57.2362 33.6776 57.4907 32.2839 57.8508 30.9215C58.0231 30.2755 58.2932 29.657 58.5125 29.0227C58.7708 28.2789 59.268 27.8522 60.0784 27.8091C61.0415 27.7543 62.0045 27.7152 62.9597 27.6056C64.0324 27.4842 65.1051 27.3355 66.166 27.1319C67.0038 26.9714 67.8181 26.7051 68.6441 26.4859C68.7537 26.4585 68.8555 26.4115 68.9651 26.3959C71.5842 26.0592 74.1993 25.6755 76.8262 25.4054C78.4626 25.2371 80.0834 25.3545 81.6728 25.9535C82.7455 26.3567 83.9043 26.529 85.0239 26.7991C87.6743 27.4294 90.0076 28.6783 92.2391 30.2246C94.4118 31.7279 96.1813 33.6267 97.9274 35.5567C98.1975 35.8542 98.3541 36.2535 98.5576 36.6098C98.7221 36.8995 98.8513 37.2205 99.047 37.4906C99.3758 37.9486 99.8809 38.0387 100.323 37.7686C100.797 37.4789 100.922 37.06 100.648 36.5158C99.3954 34.0338 97.8804 31.818 95.5667 30.1111C93.2608 28.412 90.814 27.0575 88.1832 25.9848C87.3885 25.6638 86.6212 25.2841 85.8187 24.9865C85.2314 24.7712 84.609 24.6577 84.01 24.4737C83.7164 24.3836 83.4423 24.2349 82.9608 24.0274C83.3249 23.8708 83.4502 23.769 83.5754 23.769C85.3645 23.7573 87.1536 23.7299 88.9427 23.7651C89.8353 23.7808 90.724 23.9647 91.6205 23.9961C94.1456 24.0822 96.5532 24.7438 98.8708 25.6325C101.079 26.4781 102.934 27.9618 104.653 29.5865C105.522 30.4047 106.395 31.2151 107.296 31.9942C108.607 33.1334 109.57 34.5466 110.51 35.9756C112.146 38.4654 113.728 40.9944 115.392 43.4647C116.656 45.3399 117.498 47.3992 118.253 49.5093C119.044 51.7173 119.925 53.9017 120.622 56.1371C121.272 58.2277 121.749 60.373 121.933 62.5732C122.243 66.2493 122.697 69.9175 122.896 73.5974C123.01 75.7075 122.744 77.8372 122.626 79.9591C122.564 81.0748 122.368 82.1906 122.372 83.3024C122.387 87.1077 121.753 90.8111 120.5 94.3854C119.886 96.1393 119.193 97.9597 117.764 99.2085C115.873 100.857 114.002 102.505 111.614 103.558C108.912 104.752 106.125 105.461 103.263 105.95C100.069 106.494 96.8625 106.991 93.6484 107.383C91.9885 107.586 90.2973 107.512 88.6217 107.567C83.9982 107.716 79.3748 107.853 74.7513 108.025C71.2828 108.15 67.8181 108.158 64.3495 107.919C63.5431 107.864 62.717 107.966 61.9106 108.084C59.1819 108.475 56.4532 108.866 53.7363 109.336C51.3522 109.747 48.9915 110.284 46.6112 110.726C45.4407 110.945 44.2545 111.11 43.0683 111.235C40.1361 111.544 37.2077 111.861 34.2481 111.552C33.4377 111.466 32.6078 111.552 31.7856 111.536C29.6207 111.482 27.4558 111.474 25.2987 111.325C24.3474 111.258 23.4117 110.93 22.48 110.671C21.0785 110.284 19.7044 109.79 18.2911 109.465C16.776 109.117 15.3941 108.514 14.0865 107.704C13.6011 107.402 13.1274 107.132 12.7476 106.651C12.4853 106.318 11.9333 106.216 11.5066 106.016C11.2091 105.876 10.8528 105.809 10.618 105.601C9.236 104.384 7.70138 103.276 6.55432 101.863C3.73561 98.3903 1.9935 94.4441 2.15792 89.8481C2.22839 87.9102 2.24796 85.9645 2.45545 84.0384C2.66685 82.077 3.05051 80.1353 3.41068 78.1974C3.62991 77.0308 3.91178 75.8681 4.24063 74.7288C4.71824 73.0846 5.20369 71.4403 5.79875 69.8392C6.76181 67.2475 7.50172 64.6089 8.07329 61.8998C8.45694 60.0872 9.09898 58.3256 9.69013 56.56C10.0307 55.5382 10.4888 54.5555 10.8959 53.5572C10.939 53.4555 10.982 53.338 11.0603 53.2675C12.501 52.0109 13.1783 50.2218 14.2588 48.7145C15.0378 47.6262 15.8247 46.5379 16.6821 45.5161C18.7178 43.0889 20.7575 40.6695 22.8754 38.3127C23.6349 37.4671 24.6136 36.8094 25.4984 36.0773C27.8003 34.1747 30.2432 32.4874 32.8309 30.988C35.1172 29.6648 37.564 29.0345 40.1595 28.8466C41.0874 28.78 42.0152 28.7057 42.943 28.6508C43.0761 28.643 43.2131 28.7135 43.5655 28.8035L43.5772 28.7839ZM33.9897 77.3283V77.3361C33.4299 77.3361 32.8701 77.3127 32.3102 77.3401C29.8165 77.4732 27.3188 77.5319 24.8994 78.2796C23.0085 78.863 21.1803 79.5872 19.3599 80.3584C16.0635 81.7521 13.5854 84.011 11.8316 87.0881C11.491 87.6871 11.2326 88.3917 11.1465 89.0729C10.982 90.3609 10.8411 91.6763 10.9233 92.9643C11.0525 94.957 11.5928 96.8361 12.9434 98.4255C16.087 102.121 20.2564 103.534 24.9151 103.852C25.8781 103.918 26.8607 103.863 27.8199 103.75C28.779 103.636 29.7186 103.386 30.666 103.182C31.9383 102.908 33.2224 102.658 34.483 102.329C36.3191 101.847 38.1356 101.299 39.9638 100.79C42.2579 100.148 44.5246 99.4395 46.8814 99.0089C49.2929 98.5665 51.7006 98.4451 54.1239 98.5586C57.5142 98.7191 60.9005 98.9736 64.2869 99.2124C65.4379 99.2907 66.5888 99.4121 67.7359 99.5491C69.1374 99.7174 70.535 99.9563 71.9405 100.101C73.4986 100.262 75.0723 100.277 76.6187 100.489C80.5884 101.033 84.5111 100.426 88.4299 99.9915C90.309 99.784 92.1529 99.2946 94.0399 99.048C96.5454 98.7152 99.0392 98.222 101.502 97.6465C104.978 96.8322 108.204 95.5168 110.846 92.933C112.89 90.9403 114.385 88.6501 114.906 85.898C115.364 83.4786 115.313 80.9887 114.049 78.7063C112.8 76.4553 111.242 74.5683 108.568 73.9615C108.392 73.9224 108.231 73.801 108.059 73.7345C106.239 73.0337 104.356 72.5717 102.398 72.6344C99.0861 72.744 95.9503 73.6875 92.8498 74.7641C91.8671 75.1047 90.9236 75.5823 89.9214 75.8289C88.0815 76.2831 86.1984 76.5532 84.3623 77.0112C82.0565 77.5828 79.7115 77.618 77.3704 77.6924C76.0276 77.7355 74.6848 77.6806 73.342 77.6689C69.0904 77.6258 64.8389 77.6023 60.5912 77.5241C57.2362 77.4653 53.8851 77.3127 50.53 77.2618C48.8975 77.2383 47.2611 77.3831 45.6286 77.3988C43.9139 77.4145 42.1992 77.3596 40.4845 77.344C39.588 77.3362 38.6954 77.3322 37.7989 77.3322C36.5305 77.3322 35.266 77.3322 33.9975 77.3322L33.9897 77.3283ZM56.5394 60.0755C56.5394 60.0755 56.5668 60.0755 56.5824 60.0794C56.5824 60.4161 56.5668 60.7528 56.5824 61.0855C56.7194 63.6615 56.9152 66.2258 58.4655 68.4337C59.3111 69.6395 60.3368 70.6574 61.754 71.1702C63.1829 71.687 64.6118 72.2194 66.0721 72.6305C67.912 73.1472 69.7599 73.1433 71.5529 72.3604C71.6899 72.3016 71.823 72.2233 71.9679 72.1959C74.1054 71.8201 75.8749 70.6065 77.7305 69.616C78.8071 69.0406 79.7624 68.238 80.7959 67.5725C82.0643 66.7543 83.4736 66.2179 84.9613 66.0809C86.9187 65.9047 88.8879 65.7012 90.861 66.0418C91.2956 66.1161 91.7536 66.0535 92.1999 66.0731C92.7206 66.0965 93.2647 66.0574 93.7541 66.1944C95.6959 66.7308 97.6729 66.5585 99.646 66.6094C102.038 66.6681 103.584 65.2823 105.002 63.6459C105.33 63.2661 105.569 62.7885 105.761 62.3187C106.587 60.2947 106.689 58.1611 106.399 56.0432C106.176 54.3989 106 52.7351 105.323 51.1613C104.403 49.0317 103.052 47.1878 101.462 45.5983C99.599 43.7388 97.4732 42.1297 95.3788 40.5168C93.9342 39.4089 92.333 38.5085 90.8336 37.4711C88.8448 36.0969 86.6721 35.1065 84.3545 34.5232C82.4871 34.0534 80.561 33.791 78.6466 33.5209C76.0119 33.149 73.4438 33.4152 70.993 34.5232C70.6603 34.6719 70.2845 34.7502 69.9204 34.8168C67.5323 35.2357 65.5162 36.3749 63.778 38.0269C62.3255 39.405 61.2646 41.0531 60.4386 42.8696C58.857 46.346 57.5964 49.9203 57.0992 53.7178C56.8251 55.824 56.7194 57.9497 56.5394 60.0677V60.0755ZM51.9629 58.2042C51.8963 57.3155 51.9316 56.4033 51.7436 55.5381C51.1838 52.9778 50.2443 50.5428 49.062 48.2056C48.2203 46.5379 47.3198 44.8858 45.793 43.727C42.8256 41.476 39.4157 40.8457 35.8414 41.4642C32.874 41.9771 29.9496 42.7757 27.2052 44.095C25.1147 45.1011 23.0868 46.2208 21.4386 47.8768C19.8649 49.4584 18.3851 51.1378 16.8426 52.7586C14.3371 55.3894 12.4853 58.4312 11.2248 61.8176C10.7628 63.0625 10.4692 64.3975 10.3008 65.7207C10.0111 67.9992 10.6062 70.1406 11.5419 72.2234C12.0899 73.4448 12.9512 74.2982 14.0395 74.9872C14.3841 75.2065 14.7286 75.4335 15.0887 75.6293C16.7682 76.5453 18.5456 77.1287 20.456 76.6471C21.7127 76.33 22.9615 75.8837 24.1203 75.3121C25.7528 74.5018 27.3932 73.6483 28.8612 72.5835C30.7913 71.1898 33.1089 71.0724 35.219 70.2933C35.3521 70.2463 35.5165 70.3011 35.6653 70.2815C36.1429 70.2228 36.6205 70.1602 37.0942 70.0897C37.6814 70.0036 38.2687 69.8352 38.8559 69.8274C40.8447 69.7922 42.7786 69.5064 44.693 68.9583C47.6487 68.1127 49.6962 66.2571 51.0311 63.548C51.865 61.8568 52.0059 60.0481 51.959 58.2003L51.9629 58.2042ZM115.658 58.259C115.642 58.8071 115.944 59.2142 116.359 59.2025C116.77 59.1908 117.463 58.6309 117.498 58.2864C117.533 57.9184 116.926 57.1941 116.566 57.1746C116.143 57.1511 115.673 57.7148 115.658 58.259ZM117.239 55.3581C116.832 54.9392 116.836 54.1875 115.979 54.3206C115.544 54.3872 115.341 54.6456 115.247 55.041C115.129 55.5264 115.395 55.8827 115.767 56.0393C116.394 56.2976 116.766 55.8161 117.239 55.362V55.3581Z" fill="#FF9439"/>
  <path d="M63.3903 2.23721C63.4334 2.89882 63.4295 3.52522 63.5195 4.13985C63.7074 5.46308 63.9228 6.7863 64.1537 8.1017C64.3965 9.48756 64.784 10.8578 64.9132 12.2514C65.1051 14.2872 65.1873 16.3425 65.1912 18.39C65.1951 20.2887 65.0385 22.1835 64.9445 24.0822C64.9406 24.184 64.878 24.2858 64.8036 24.4932H59.3737C59.3737 23.7533 59.3032 23.0878 59.3854 22.4419C59.5968 20.782 59.8787 19.1338 60.1253 17.4817C60.509 14.9057 60.8848 12.3297 61.2724 9.75376C61.3585 9.16653 61.4721 8.58322 61.5817 7.9999C61.891 6.35175 62.2041 4.7075 62.5134 3.05934C62.5878 2.65611 62.6113 2.22157 63.3903 2.23331V2.23721Z" fill="#8B9463"/>
  <path d="M73.8314 2.15894C74.5752 2.15894 75.2681 2.1276 75.9611 2.16675C76.5209 2.19807 76.5052 2.68353 76.5639 3.08676C76.8732 5.11074 77.1081 7.15429 77.5231 9.1587C77.8245 10.6111 78.3765 12.0087 78.7915 13.4377C79.4492 15.7083 80.5689 17.7792 81.5437 19.9128C81.6963 20.2456 81.7746 20.6097 81.9195 21.0638C81.4888 21.2478 81.1365 21.4514 80.7568 21.5532C79.966 21.7685 79.1673 21.9525 78.3609 22.1052C77.6405 22.2422 77.4604 22.0739 77.2921 21.3457C76.9476 19.8659 76.4661 18.4056 76.239 16.9062C75.687 13.3006 74.5321 9.80857 74.262 6.15208C74.1798 5.04026 73.9723 3.93627 73.8314 2.82444C73.8079 2.65219 73.8314 2.47212 73.8314 2.15502V2.15894Z" fill="#6C7249"/>
  <path d="M71.0791 23.6907C69.7402 23.3579 68.6832 24.1331 67.4305 23.8825C67.3835 21.1852 67.3443 18.5544 67.2935 15.9197C67.2308 12.412 66.8628 8.92772 66.2912 5.46698C66.119 4.42563 66.1386 3.45865 67.1447 2.75006C67.5558 2.80487 67.6928 3.09849 67.7437 3.50955C67.9668 5.24383 68.1508 6.98204 68.4562 8.70458C68.9338 11.4176 69.5249 14.111 70.0104 16.824C70.2648 18.253 70.3862 19.7014 70.5976 21.1382C70.7111 21.9016 70.8834 22.6572 71.083 23.6907H71.0791Z" fill="#6C7249"/>
  <path d="M70.0848 2.03368C70.6838 1.83402 71.1223 1.70481 71.2358 2.38209C71.4159 3.47433 71.5177 4.58616 71.7487 5.66667C72.0697 7.15823 72.4807 8.62632 72.8526 10.1061C73.2794 11.7974 73.6983 13.4925 74.125 15.1876C74.6613 17.3134 75.2016 19.4392 75.7301 21.5689C75.824 21.9486 76.1137 22.4771 75.6596 22.6885C75.1154 22.9391 74.4656 22.9743 73.8549 23.033C73.7492 23.0448 73.5456 22.7316 73.4986 22.5398C73.1189 20.9895 72.8018 19.4196 72.3946 17.8771C71.8465 15.8179 71.6508 13.7156 71.4081 11.6094C71.091 8.84162 70.6133 6.08948 70.214 3.3295C70.1553 2.93019 70.1318 2.52304 70.0848 2.0376V2.03368Z" fill="#8B9463"/>
  <path d="M33.9936 77.3322C35.2621 77.3322 36.5266 77.3322 37.795 77.3322C38.6915 77.3322 39.5841 77.3322 40.4806 77.3439C42.1953 77.3635 43.91 77.4144 45.6247 77.3987C47.2572 77.3831 48.8936 77.2382 50.5261 77.2617C53.8812 77.3126 57.2323 77.4653 60.5874 77.524C64.8389 77.5984 69.0865 77.6219 73.3381 77.6688C74.6809 77.6845 76.0237 77.7354 77.3665 77.6923C79.7115 77.618 82.0526 77.5827 84.3584 77.0112C86.1945 76.5531 88.0776 76.283 89.9175 75.8289C90.9197 75.5822 91.8632 75.1046 92.8459 74.764C95.9464 73.6874 99.0823 72.74 102.394 72.6343C104.356 72.5717 106.235 73.0337 108.055 73.7344C108.227 73.801 108.388 73.9223 108.564 73.9615C111.238 74.5683 112.796 76.4552 114.045 78.7063C115.309 80.9887 115.356 83.4785 114.902 85.8979C114.382 88.65 112.886 90.9363 110.843 92.9329C108.196 95.5128 104.974 96.8321 101.498 97.6464C99.0353 98.2219 96.5415 98.7191 94.036 99.0479C92.149 99.2985 90.3051 99.7839 88.426 99.9914C84.5072 100.426 80.5884 101.029 76.6148 100.489C75.0645 100.277 73.4908 100.262 71.9366 100.101C70.5311 99.9562 69.1374 99.7174 67.732 99.549C66.5849 99.412 65.434 99.2907 64.283 99.2124C60.8966 98.9775 57.5103 98.7191 54.12 98.5586C51.6967 98.445 49.289 98.5664 46.8775 99.0088C44.5207 99.4394 42.254 100.148 39.9599 100.79C38.1317 101.303 36.3152 101.847 34.4791 102.329C33.2185 102.657 31.9383 102.908 30.6621 103.182C29.7147 103.386 28.7751 103.636 27.816 103.75C26.8568 103.863 25.8742 103.914 24.9112 103.851C20.2525 103.534 16.0831 102.121 12.9395 98.4255C11.5889 96.836 11.0525 94.9569 10.9194 92.9643C10.8372 91.6763 10.9781 90.3608 11.1426 89.0728C11.2287 88.3917 11.4871 87.6909 11.8277 87.088C13.5815 84.0149 16.0596 81.752 19.356 80.3583C21.1803 79.5871 23.0046 78.8629 24.8955 78.2796C27.3149 77.5318 29.8126 77.4731 32.3063 77.34C32.8623 77.3087 33.426 77.3361 33.9858 77.3361V77.3282L33.9936 77.3322ZM27.0487 91.6684C26.4732 90.9951 25.929 90.3843 25.4123 89.754C23.9324 87.9375 22.6444 85.9488 20.6165 84.6412C20.1937 84.3672 19.8766 83.7251 19.4695 83.6899C18.9919 83.6468 18.436 84.0187 17.9779 84.3124C15.7425 85.7452 13.7225 87.3856 13.1274 90.1651C12.9747 90.8815 12.963 91.6371 12.963 92.3731C12.9551 95.2779 14.2314 97.572 16.549 99.2202C18.7766 100.806 21.2703 101.542 24.0381 100.864C24.3983 100.778 24.7741 100.763 25.146 100.72C26.3636 100.575 27.5811 100.43 28.7986 100.289C29.2253 100.242 29.6521 100.207 30.0788 100.168C29.1236 101.217 27.722 100.665 26.6494 101.311C26.9273 101.487 27.2053 101.612 27.4636 101.585C28.4972 101.471 29.5346 101.373 30.5486 101.158C32.0793 100.833 33.5787 100.367 35.1094 100.062C36.139 99.8544 36.8554 98.8405 38.0025 99.0166C39.4823 98.1436 41.1931 98.1005 42.8021 97.7208C44.6812 97.2784 46.6269 97.1375 48.5296 96.793C50.9372 96.3545 53.3605 96.3976 55.7877 96.4132C56.9035 96.4211 58.027 96.4524 59.1388 96.5659C61.2881 96.7812 63.4256 97.1023 65.5749 97.3097C68.284 97.5681 71.0166 97.6033 73.6904 98.1788C73.9449 98.2336 74.2111 98.2337 74.4695 98.2376C78.8659 98.3041 83.2583 98.539 87.643 97.8265C89.804 97.4741 92.0003 97.3411 94.1652 96.9261C96.2909 96.519 98.4363 96.2019 100.472 95.4659C102.359 94.7808 104.246 94.0408 106.027 93.1169C108.329 91.9229 109.95 89.9302 111.426 87.8553C112.264 86.677 112.651 85.2989 112.526 83.8308C112.436 82.7542 112.408 81.6542 112.154 80.6167C111.947 79.7711 111.606 78.8394 111.027 78.2248C109.296 76.3809 107.116 75.2573 104.59 74.901C103.561 74.7562 103.169 75.0224 102.79 75.9855C101.94 78.1308 101.325 80.3466 100.817 82.5938C100.777 82.766 100.711 82.9696 100.586 83.0792C99.8222 83.733 98.3776 83.5294 97.7903 82.7269C97.1757 81.8852 96.518 81.0748 95.9229 80.2213C94.9873 78.8825 93.574 78.1856 92.2195 77.4066C92.1138 77.3439 91.9376 77.3987 91.8476 77.3987C91.6009 78.213 91.3934 78.9803 91.1351 79.732C90.5557 81.4271 90.2503 83.181 89.9136 84.9349C89.4713 87.2368 88.9427 89.5231 88.426 91.8133C88.3398 92.2047 88.2107 92.6197 87.9836 92.9407C87.3416 93.8451 86.5077 93.7903 85.9753 92.8272C85.5799 92.1108 85.3019 91.32 84.8439 90.6466C83.3601 88.4621 81.8255 86.3129 80.2987 84.1558C80.1382 83.9287 79.9151 83.7447 79.6567 83.4746C79.551 83.7056 79.4609 83.8269 79.4414 83.9601C79.2926 84.9153 79.1908 85.8822 79.0068 86.8296C78.8737 87.5187 78.6897 88.2116 78.4274 88.8653C78.0672 89.7697 77.2569 89.8754 76.5718 89.1551C76.3408 88.9124 76.1098 88.6579 75.9375 88.3721C74.5947 86.1406 72.5786 84.4846 70.9265 82.5194C70.8639 82.445 70.7347 82.4293 70.5155 82.3315C70.3745 82.766 70.2453 83.1771 70.1161 83.5881C69.5681 85.2872 69.0552 86.998 68.4641 88.6814C68.1822 89.4839 67.2505 89.6053 66.675 88.9711C66.5262 88.8105 66.4244 88.6031 66.3148 88.4113C64.9837 86.0741 63.1359 84.1401 61.4721 82.0927C61.3703 82.1357 61.3077 82.1396 61.3038 82.1631C60.6696 84.4885 60.0158 86.8101 59.4325 89.1473C59.3111 89.6288 59.1819 90.0868 58.716 90.1534C58.3246 90.2082 57.8665 90.032 57.4907 89.8519C57.2401 89.7345 57.0835 89.4252 56.8761 89.2099C56.5707 88.8888 56.2614 88.5718 55.9482 88.2547C54.5389 86.8218 53.0042 85.5142 51.7985 83.8817C51.2934 83.1966 50.6827 82.582 50.0916 81.9634C49.9193 81.7833 49.6414 81.6973 49.2342 81.4663C49.0111 82.7621 48.7801 83.8426 48.6431 84.9349C48.4669 86.3011 48.4199 87.687 48.2164 89.0455C48.005 90.4392 48.326 91.872 47.8288 93.2422C47.7544 93.4419 47.9032 93.7355 47.9815 93.9743C48.189 94.6085 47.9149 95.5128 47.3942 95.8495C46.9362 96.147 46.3529 96.0648 45.7657 95.5559C45.4916 95.3171 45.2528 95.0195 45.0453 94.7142C43.9139 93.0425 42.622 91.4962 41.1305 90.1494C38.668 87.9258 36.1586 85.7609 33.9193 83.3023C33.5043 82.8443 33.011 82.4567 32.4903 81.9791C30.1453 84.7508 29.7538 88.2507 28.3132 91.2887C27.9334 91.4061 27.5459 91.5275 27.0487 91.6841V91.6684ZM46.9479 79.4814C46.1806 79.3992 45.3663 79.1996 44.5716 79.2465C41.9761 79.4031 39.3844 79.6419 36.7928 79.869C36.3504 79.9081 35.9158 80.0374 35.4735 80.0922C35.0233 80.147 34.5691 80.1548 33.9467 80.1979C36.7458 84.0462 40.5511 86.5752 43.6281 89.8284C44.2036 90.4352 44.8613 90.9637 45.5229 91.5666C46.3764 89.2999 47.3394 81.0787 46.944 79.4814H46.9479ZM88.9271 78.5497C88.8762 78.4401 88.8253 78.3344 88.7744 78.2248C87.5647 78.722 86.2767 78.6397 85.0279 78.996C83.8064 79.3444 82.5106 79.4188 81.2304 79.6145C82.0604 82.5507 85.02 87.4169 86.5782 88.4622C86.7622 87.8906 86.9736 87.3386 87.1106 86.7709C87.2554 86.1641 87.3024 85.5299 87.4394 84.9192C87.8701 83.0009 88.3203 81.0904 88.7666 79.176C88.8135 78.9646 88.8762 78.7572 88.9271 78.5497ZM21.5248 82.5233C23.4352 84.5159 25.1186 86.2737 26.8999 88.1333C27.8199 86.8923 28.3758 85.6552 28.8847 84.3946C29.3819 83.1614 30.0592 81.983 30.2549 80.511C29.5894 80.7068 29.104 80.9064 28.6029 80.9847C27.3579 81.1765 26.0895 81.2431 24.8563 81.4976C23.8189 81.7129 22.8206 82.1161 21.5248 82.5272V82.5233ZM57.6042 86.9197C58.5947 85.3811 58.4381 83.7056 58.904 82.1905C59.0449 81.7325 59.1193 81.251 59.2171 80.7773C59.315 80.2957 59.1741 80.0452 58.6377 79.9238C57.616 79.685 56.602 79.591 55.5489 79.6263C54.3627 79.6654 53.1687 79.5754 51.9786 79.5558C51.7867 79.5558 51.591 79.638 51.2856 79.7085C53.2861 82.2845 55.1183 84.8252 57.6042 86.9197ZM63.1712 80.1548C64.3965 81.9869 65.4692 83.8465 67.1526 85.6317C67.5754 83.4903 68.5502 81.7403 68.5228 79.7829C66.6867 79.9121 65.0033 80.0256 63.1672 80.1548H63.1712ZM72.7352 79.7359C72.6843 79.8259 72.6373 79.916 72.5864 80.0099C73.8509 81.7951 74.9745 83.6782 76.4895 85.3381C76.5796 83.4472 77.3352 81.6542 77.0963 79.7359H72.7352ZM100.633 75.1398C98.7025 75.5979 97.0152 76.0011 95.1282 76.4513C96.3418 77.7589 97.4028 78.902 98.5811 80.1744C99.5207 78.5419 100.116 77.0072 100.629 75.1398H100.633Z" fill="black"/>
  <path d="M56.5432 60.0794C56.7233 57.9615 56.829 55.8357 57.103 53.7295C57.6002 49.9321 58.8608 46.3578 60.4424 42.8814C61.2685 41.0649 62.3294 39.4167 63.7818 38.0387C65.52 36.3905 67.5362 35.2513 69.9242 34.8285C70.2883 34.7659 70.6641 34.6876 70.9969 34.5349C73.4515 33.427 76.0197 33.1608 78.6505 33.5327C80.5648 33.8028 82.491 34.0651 84.3584 34.5349C86.6799 35.1182 88.8526 36.1126 90.8375 37.4828C92.3368 38.5202 93.942 39.4167 95.3826 40.5285C97.4771 42.1376 99.6028 43.7505 101.466 45.61C103.06 47.1956 104.41 49.0434 105.326 51.1731C106.008 52.7469 106.18 54.4107 106.403 56.0549C106.693 58.1729 106.591 60.3065 105.765 62.3305C105.573 62.8003 105.334 63.2779 105.005 63.6576C103.588 65.294 102.042 66.6799 99.6498 66.6212C97.6767 66.5703 95.6997 66.7425 93.7579 66.2062C93.2647 66.0691 92.7244 66.1083 92.2037 66.0848C91.7574 66.0653 91.2994 66.1279 90.8649 66.0535C88.8957 65.709 86.9226 65.9126 84.9652 66.0927C83.4775 66.2258 82.0682 66.766 80.7997 67.5842C79.7662 68.2497 78.811 69.0523 77.7344 69.6278C75.8787 70.6183 74.1092 71.8358 71.9717 72.2077C71.8269 72.2312 71.6937 72.3094 71.5567 72.3721C69.7637 73.1511 67.912 73.159 66.0759 72.6422C64.6157 72.2312 63.1867 71.7027 61.7578 71.182C60.3406 70.6691 59.3149 69.6513 58.4693 68.4455C56.919 66.2336 56.7233 63.6694 56.5863 61.0973C56.5667 60.7645 56.5863 60.4278 56.5863 60.0911C56.5706 60.0911 56.5589 60.0912 56.5432 60.0873V60.0794ZM68.8594 70.2385C71.2201 70.4695 73.4085 69.8392 75.4364 68.6217C76.8379 67.78 78.2394 66.9422 79.59 66.0222C81.7667 64.5424 84.0921 63.5871 86.7699 63.6459C86.9931 63.6498 87.2162 63.6067 87.4394 63.6145C89.3655 63.7085 91.3112 63.4854 93.202 64.0922C93.6836 64.2488 94.2356 64.2057 94.7562 64.2253C95.3513 64.2448 95.9581 64.1666 96.5453 64.2409C98.3853 64.4758 99.9708 63.9042 101.509 62.9412C102.617 62.2482 103.361 61.3283 103.741 60.1264C103.995 59.3199 104.191 58.4665 104.238 57.6248C104.359 55.6086 104.375 53.5729 103.279 51.7642C102.551 50.5585 101.819 49.3214 100.891 48.2761C99.5089 46.718 97.9782 45.2929 96.4631 43.8562C94.8306 42.3098 92.834 41.2607 90.9823 40.0157C88.4572 38.3167 85.6268 37.4828 82.718 36.8016C81.2069 36.4492 79.6723 36.4532 78.1572 36.5432C76.0079 36.6763 73.8508 36.8799 71.7251 37.2205C70.7229 37.381 69.752 37.8664 68.8281 38.3245C66.9959 39.2288 65.9506 40.8652 65.1168 42.6426C64.6587 43.6135 64.279 44.6235 63.8484 45.61C62.8227 47.959 62.0201 50.394 60.9944 52.7508C59.773 55.5538 59.1936 58.5722 59.3658 61.6845C59.5224 64.5345 60.7439 66.8286 62.9675 68.5786C64.6783 69.9253 66.6514 70.4969 68.8633 70.2385H68.8594Z" fill="black"/>
  <path d="M51.9668 58.2082C52.0137 60.056 51.8689 61.8686 51.0389 63.5559C49.704 66.265 47.6526 68.1206 44.7008 68.9662C42.7864 69.5143 40.8485 69.8001 38.8637 69.8353C38.2765 69.847 37.6892 70.0115 37.102 70.0976C36.6283 70.1681 36.1507 70.2307 35.6731 70.2894C35.5243 70.3051 35.3599 70.2503 35.2268 70.3012C33.1167 71.0802 30.7952 71.1977 28.869 72.5914C27.397 73.6562 25.7606 74.5096 24.1281 75.32C22.9693 75.8955 21.7205 76.3418 20.4638 76.655C18.5534 77.1365 16.776 76.5532 15.0965 75.6372C14.7364 75.4414 14.3958 75.2143 14.0473 74.9951C12.9629 74.3022 12.0977 73.4487 11.5497 72.2312C10.614 70.1485 10.015 68.0071 10.3086 65.7286C10.477 64.4093 10.7706 63.0704 11.2326 61.8255C12.4892 58.4391 14.341 55.3934 16.8504 52.7665C18.3928 51.1496 19.8688 49.4702 21.4464 47.8846C23.0946 46.2287 25.1186 45.109 27.213 44.1029C29.9574 42.7796 32.8818 41.981 35.8492 41.4721C39.4235 40.8575 42.8334 41.4838 45.8008 43.7349C47.3276 44.8937 48.2281 46.5457 49.0698 48.2135C50.252 50.5507 51.1916 52.9857 51.7514 55.546C51.9394 56.4112 51.9041 57.3234 51.9707 58.2121L51.9668 58.2082ZM13.7459 65.9596C13.879 66.9579 13.9025 67.9836 14.1765 68.9427C14.4388 69.8549 14.9556 70.6966 15.3627 71.5657C16.7486 72.2899 18.0953 73.2256 19.7552 72.9593C21.8144 72.6305 23.8345 72.1294 25.7058 71.1507C26.4575 70.7592 27.2522 70.4421 28.0469 70.1446C28.7438 69.8862 29.4876 69.7531 30.1727 69.4791C31.4803 68.9506 32.7996 68.559 34.2011 68.2733C36.3817 67.827 38.5779 67.8701 40.7585 67.6156C41.8272 67.4903 42.8686 67.459 43.906 67.0362C46.439 66.0105 48.0832 64.1157 49.3516 61.8059C49.473 61.5867 49.5004 61.3087 49.5239 61.0504C49.7353 58.999 49.5826 56.9671 49.2381 54.9392C48.7761 52.2223 47.9658 49.6542 46.2393 47.4462C44.8691 45.6923 43.0878 44.4239 41.0521 43.6918C38.7071 42.8501 36.2603 43.1751 33.8957 43.8719C30.8108 44.7802 28.1683 46.5575 25.514 48.2722C22.7658 50.0496 20.5813 52.4572 18.6395 55.088C17.0853 57.1942 15.7621 59.4374 14.752 61.8451C14.2079 63.1448 13.6833 64.4837 13.7498 65.9596H13.7459Z" fill="black"/>
  <path d="M115.662 58.2629C115.677 57.7187 116.151 57.1549 116.57 57.1784C116.93 57.198 117.537 57.9222 117.502 58.2902C117.466 58.6387 116.773 59.1985 116.362 59.2064C115.944 59.2181 115.642 58.8109 115.662 58.2629Z" fill="black"/>
  <path d="M117.243 55.362C116.77 55.82 116.394 56.3015 115.771 56.0393C115.399 55.8827 115.133 55.5303 115.251 55.041C115.345 54.6456 115.548 54.3872 115.983 54.3206C116.84 54.1875 116.836 54.9392 117.243 55.3581V55.362Z" fill="black"/>
  <path d="M27.0486 91.6684C27.5458 91.5118 27.9334 91.3905 28.3131 91.273C29.7577 88.239 30.1453 84.7352 32.4903 81.9635C33.011 82.4411 33.5003 82.8286 33.9192 83.2867C36.1585 85.7452 38.6679 87.9141 41.1304 90.1338C42.6259 91.4805 43.9178 93.023 45.0453 94.6985C45.2488 95.0039 45.4877 95.2975 45.7656 95.5402C46.3489 96.0492 46.9362 96.1314 47.3942 95.8339C47.9149 95.4933 48.1889 94.5928 47.9814 93.9586C47.9031 93.7198 47.7583 93.4262 47.8287 93.2265C48.3259 91.8563 48.0049 90.4235 48.2163 89.0298C48.4238 87.6674 48.4708 86.2855 48.643 84.9192C48.784 83.8269 49.011 82.7425 49.2342 81.4506C49.6413 81.6816 49.9154 81.7638 50.0915 81.9478C50.6827 82.5664 51.2895 83.181 51.7984 83.8661C53.0003 85.4986 54.5349 86.8101 55.9482 88.239C56.2614 88.5561 56.5706 88.8732 56.876 89.1943C57.0835 89.4096 57.2401 89.7189 57.4906 89.8363C57.8704 90.0164 58.3284 90.1925 58.716 90.1377C59.1819 90.0711 59.3111 89.6131 59.4324 89.1316C60.0157 86.7944 60.6734 84.4729 61.3037 82.1475C61.3115 82.124 61.3703 82.1201 61.4721 82.077C63.1359 84.1245 64.9837 86.0584 66.3148 88.3956C66.4244 88.5874 66.5301 88.7949 66.6749 88.9555C67.2543 89.5897 68.1861 89.4683 68.464 88.6658C69.0552 86.9824 69.5719 85.2716 70.1161 83.5725C70.2492 83.1614 70.3784 82.7543 70.5154 82.3158C70.7346 82.4137 70.8638 82.4293 70.9265 82.5037C72.5785 84.469 74.5947 86.125 75.9375 88.3565C76.1098 88.6422 76.3407 88.8967 76.5717 89.1394C77.2568 89.8598 78.0672 89.7541 78.4274 88.8497C78.6857 88.196 78.8697 87.503 79.0068 86.814C79.1908 85.8666 79.2925 84.8996 79.4413 83.9444C79.4609 83.8152 79.5509 83.6939 79.6566 83.459C79.915 83.733 80.1382 83.9131 80.2987 84.1401C81.8255 86.2972 83.3601 88.4465 84.8438 90.631C85.3019 91.3043 85.5798 92.0952 85.9752 92.8116C86.5076 93.7746 87.3415 93.8294 87.9835 92.9251C88.2106 92.6041 88.3359 92.1891 88.4259 91.7976C88.9388 89.5075 89.4712 87.2211 89.9136 84.9192C90.2503 83.1653 90.5556 81.4115 91.135 79.7163C91.3934 78.9647 91.6009 78.1974 91.8475 77.3831C91.9415 77.3831 92.1137 77.3283 92.2194 77.3909C93.574 78.1661 94.9872 78.8668 95.9229 80.2057C96.518 81.0591 97.1757 81.8695 97.7903 82.7112C98.3775 83.5138 99.8182 83.7173 100.586 83.0636C100.711 82.9579 100.777 82.7504 100.816 82.5781C101.325 80.331 101.94 78.1152 102.79 75.9698C103.169 75.0068 103.561 74.7405 104.59 74.8854C107.116 75.2416 109.296 76.3652 111.026 78.2091C111.602 78.8237 111.943 79.7555 112.154 80.6011C112.412 81.6385 112.436 82.7386 112.526 83.8152C112.651 85.2872 112.264 86.6613 111.426 87.8397C109.95 89.9146 108.329 91.9072 106.027 93.1013C104.246 94.0252 102.363 94.7651 100.472 95.4502C98.4362 96.1901 96.2909 96.5072 94.1651 96.9104C92.0002 97.3254 89.804 97.4585 87.643 97.8109C83.2583 98.5234 78.8658 98.2885 74.4694 98.2219C74.2071 98.218 73.9409 98.218 73.6904 98.1632C71.0165 97.5877 68.2839 97.5564 65.5748 97.2941C63.4256 97.0866 61.2881 96.7695 59.1388 96.5503C58.027 96.4367 56.9073 96.4054 55.7877 96.3976C53.3644 96.382 50.9371 96.3428 48.5295 96.7773C46.6269 97.1219 44.6812 97.2628 42.8021 97.7052C41.193 98.0849 39.4783 98.128 38.0024 99.001C36.8515 98.8287 36.1389 99.8427 35.1093 100.046C33.5786 100.352 32.0753 100.821 30.5485 101.142C29.5346 101.358 28.4932 101.456 27.4636 101.569C27.2052 101.597 26.9273 101.475 26.6493 101.295C27.722 100.649 29.1235 101.201 30.0787 100.152C29.652 100.191 29.2253 100.226 28.7986 100.273C27.581 100.414 26.3635 100.559 25.146 100.704C24.7741 100.747 24.3983 100.763 24.0381 100.849C21.2703 101.526 18.7804 100.79 16.5489 99.2045C14.2313 97.5564 12.9551 95.2623 12.9629 92.3574C12.9629 91.6215 12.9747 90.8659 13.1274 90.1495C13.7224 87.3699 15.7425 85.7296 17.9779 84.2967C18.4359 84.0031 18.9918 83.6312 19.4694 83.6743C19.8766 83.7134 20.1937 84.3515 20.6165 84.6256C22.6444 85.9371 23.9324 87.9258 25.4122 89.7384C25.929 90.3726 26.4731 90.9794 27.0486 91.6528V91.6684Z" fill="#ED1C24"/>
  <path d="M46.944 79.4815C47.3355 81.0788 46.3724 89.3 45.5229 91.5667C44.8574 90.9599 44.1997 90.4353 43.6281 89.8285C40.5471 86.5753 36.7419 84.0463 33.9467 80.198C34.5691 80.1588 35.0232 80.1471 35.4735 80.0923C35.9158 80.0375 36.3504 79.9082 36.7928 79.8691C39.3844 79.6459 41.9761 79.4032 44.5716 79.2466C45.3702 79.1997 46.1806 79.3993 46.9479 79.4815H46.944Z" fill="white"/>
  <path d="M88.9232 78.5497C88.8684 78.7572 88.8097 78.9647 88.7627 79.1761C88.3164 81.0905 87.8662 83.0049 87.4355 84.9192C87.2985 85.53 87.2515 86.1602 87.1067 86.771C86.9697 87.3425 86.7583 87.8906 86.5743 88.4622C85.0162 87.4169 82.0604 82.5468 81.2266 79.6146C82.5067 79.4188 83.8025 79.3445 85.024 78.996C86.2767 78.6398 87.5608 78.7259 88.7705 78.2248C88.8214 78.3344 88.8723 78.4401 88.9232 78.5497Z" fill="white"/>
  <path d="M21.5209 82.5233C22.8167 82.1122 23.815 81.709 24.8524 81.4937C26.0817 81.2392 27.354 81.1727 28.599 80.9809C29.104 80.9026 29.5855 80.7029 30.251 80.5071C30.0553 81.983 29.3819 83.1575 28.8808 84.3907C28.3719 85.6513 27.8199 86.8883 26.896 88.1294C25.1108 86.2698 23.4274 84.512 21.5209 82.5194V82.5233Z" fill="white"/>
  <path d="M57.6002 86.9197C55.1143 84.8292 53.2782 82.2845 51.2816 79.7086C51.587 79.6381 51.7827 79.552 51.9745 79.5559C53.1647 79.5715 54.3548 79.6655 55.5449 79.6263C56.5941 79.5911 57.612 79.685 58.6337 79.9239C59.1701 80.0491 59.3149 80.2997 59.2131 80.7773C59.1153 81.251 59.0409 81.7286 58.8999 82.1906C58.4341 83.7017 58.5907 85.3812 57.6002 86.9197Z" fill="white"/>
  <path d="M63.1672 80.1548C65.0033 80.0296 66.6828 79.9121 68.5228 79.7829C68.5502 81.7404 67.5715 83.4864 67.1526 85.6318C65.4692 83.8466 64.3926 81.987 63.1711 80.1548H63.1672Z" fill="white"/>
  <path d="M72.7313 79.732H77.0924C77.3313 81.6503 76.5757 83.4433 76.4856 85.3342C74.9667 83.6743 73.8431 81.7912 72.5825 80.006C72.6334 79.916 72.6804 79.826 72.7313 79.732Z" fill="white"/>
  <path d="M100.629 75.1399C100.116 77.0033 99.5167 78.5419 98.5811 80.1744C97.4027 78.902 96.3418 77.7589 95.1282 76.4513C97.0112 76.0011 98.7025 75.5979 100.632 75.1399H100.629Z" fill="white"/>
  <path d="M68.8594 70.2346C66.6475 70.493 64.6783 69.9214 62.9636 68.5747C60.74 66.8247 59.5185 64.5306 59.3619 61.6806C59.1897 58.5683 59.7691 55.5539 60.9905 52.7469C62.0162 50.3901 62.8188 47.955 63.8444 45.6061C64.2751 44.6196 64.6548 43.6135 65.1129 42.6387C65.9507 40.8613 66.992 39.2249 68.8242 38.3206C69.752 37.8625 70.7229 37.3771 71.7212 37.2166C73.8469 36.876 76.004 36.6724 78.1533 36.5393C79.6723 36.4454 81.2069 36.4414 82.7141 36.7977C85.6229 37.4789 88.4533 38.3128 90.9784 40.0118C92.8301 41.2607 94.8267 42.3059 96.4592 43.8523C97.9743 45.2851 99.505 46.7141 100.887 48.2722C101.815 49.3174 102.547 50.5546 103.275 51.7603C104.371 53.569 104.356 55.6047 104.234 57.6209C104.183 58.4626 103.991 59.316 103.737 60.1225C103.357 61.3244 102.609 62.2443 101.505 62.9373C99.9669 63.9042 98.3814 64.4719 96.5414 64.237C95.9542 64.1626 95.3474 64.2409 94.7523 64.2213C94.2317 64.2057 93.6836 64.2448 93.1981 64.0883C91.3073 63.4814 89.3616 63.7046 87.4354 63.6106C87.2123 63.5989 86.9892 63.6459 86.766 63.642C84.0882 63.5793 81.7628 64.5384 79.5861 66.0183C78.2355 66.9382 76.834 67.776 75.4325 68.6177C73.4006 69.8353 71.2122 70.4695 68.8555 70.2346H68.8594ZM71.5763 61.0151C73.0092 61.0386 73.6669 60.2673 73.4085 58.8658C73.1814 57.6404 72.375 56.8575 71.3336 56.2977C71.1104 56.1763 70.7307 56.2155 70.4723 56.3133C69.9595 56.513 69.474 56.7948 68.9886 57.0689C68.8359 57.155 68.6793 57.2921 68.601 57.4447C68.3191 57.9967 68.5854 59.5235 69.1021 59.9463C69.8146 60.5296 70.5428 61.1482 71.5763 61.0151Z" fill="white"/>
  <path d="M13.746 65.9595C13.6794 64.4836 14.204 63.1447 14.7482 61.845C15.7582 59.4374 17.0814 57.1941 18.6356 55.0879C20.5774 52.4611 22.758 50.0495 25.5101 48.2721C28.1605 46.5574 30.807 44.7801 33.8919 43.8718C36.2604 43.175 38.7032 42.8501 41.0483 43.6918C43.084 44.4238 44.8692 45.6922 46.2355 47.4461C47.9619 49.6541 48.7723 52.2222 49.2342 54.9392C49.5788 56.9671 49.7314 58.9989 49.52 61.0503C49.4926 61.3047 49.4652 61.5866 49.3478 61.8058C48.0794 64.1156 46.4351 66.0104 43.9022 67.0361C42.8647 67.455 41.8234 67.4902 40.7546 67.6155C38.5741 67.87 36.3778 67.8269 34.1972 68.2732C32.7957 68.559 31.4764 68.9505 30.1688 69.479C29.4837 69.757 28.7399 69.8861 28.0431 70.1445C27.2483 70.442 26.4536 70.7552 25.702 71.1506C23.8267 72.1293 21.8067 72.6304 19.7514 72.9593C18.0915 73.2255 16.7408 72.2899 15.3589 71.5656C14.9517 70.6926 14.4311 69.8548 14.1727 68.9427C13.8986 67.9874 13.8752 66.9578 13.742 65.9595H13.746ZM43.863 58.0984C42.8804 57.9888 42.07 58.4116 41.2597 58.7679C40.739 58.9988 40.5589 59.5078 40.5824 60.0794C40.6254 61.2108 41.9174 62.6828 43.0409 62.812C44.693 62.9999 45.6717 62.4518 46.6074 61.0385C46.9675 60.4943 46.9245 59.9424 46.5056 59.3865C45.8205 58.4743 44.9396 58.0476 43.8591 58.0984H43.863Z" fill="white"/>
  <path d="M71.5724 61.015C70.5388 61.152 69.8107 60.5295 69.0982 59.9462C68.5814 59.5234 68.3191 57.9967 68.5971 57.4447C68.6754 57.292 68.832 57.1549 68.9846 57.0688C69.4701 56.7987 69.9516 56.5129 70.4684 56.3133C70.7228 56.2154 71.1026 56.1762 71.3296 56.2976C72.371 56.8574 73.1775 57.6404 73.4045 58.8657C73.6668 60.2672 73.0052 61.0385 71.5724 61.015Z" fill="black"/>
  <path d="M43.863 58.0984C44.9435 58.0475 45.8243 58.4742 46.5094 59.3864C46.9283 59.9462 46.9714 60.4943 46.6112 61.0385C45.6756 62.4517 44.6929 62.9998 43.0448 62.8119C41.9173 62.6827 40.6293 61.2107 40.5862 60.0794C40.5627 59.5078 40.7428 58.9988 41.2635 58.7678C42.0739 58.4077 42.8843 57.9849 43.8669 58.0984H43.863Z" fill="black"/>
  <path d="M116.362 61.8762C116.774 61.8645 117.466 61.3047 117.502 60.9602C117.537 60.5922 116.93 59.8679 116.57 59.8483C116.147 59.8248 115.677 60.3886 115.662 60.9327C115.646 61.4808 115.948 61.888 116.362 61.8762Z" fill="#FFC34F"/>
  <path d="M56.5864 62.7532C56.5864 63.0899 56.5707 63.4266 56.5864 63.7593C56.7234 66.3353 56.9192 68.8996 58.4694 71.1075C59.3151 72.3133 60.3408 73.3312 61.7579 73.844C63.1869 74.3608 64.6158 74.8933 66.076 75.3043C67.916 75.8211 69.7638 75.8171 71.5569 75.0342C71.6939 74.9755 71.827 74.8971 71.9718 74.8697C74.1093 74.4939 75.8789 73.2803 77.7345 72.2898C78.8111 71.7144 79.7663 70.9118 80.7999 70.2463C82.0683 69.4281 83.4776 68.8917 84.9653 68.7547C86.9227 68.5785 88.8919 68.375 90.865 68.7156C91.2995 68.79 91.7576 68.7273 92.2039 68.7469C92.7245 68.7704 93.2687 68.7312 93.7581 68.8683C95.6998 69.4046 97.6769 69.2324 99.65 69.2833C102.042 69.342 103.588 67.9561 105.005 66.3197C105.334 65.9399 105.573 65.4623 105.765 64.9925C106.501 63.1878 106.658 61.293 106.481 59.4021C106.38 60.3926 106.156 61.3713 105.765 62.3265C105.573 62.7963 105.334 63.2739 105.005 63.6537C103.588 65.2901 102.042 66.6759 99.65 66.6172C97.6769 66.5663 95.6998 66.7386 93.7581 66.2023C93.2648 66.0652 92.7245 66.1044 92.2039 66.0809C91.7576 66.0613 91.2995 66.124 90.865 66.0496C88.8958 65.7051 86.9227 65.9086 84.9653 66.0887C83.4776 66.2218 82.0683 66.762 80.7999 67.5802C79.7663 68.2458 78.8111 69.0484 77.7345 69.6238C75.8789 70.6143 74.1093 71.8318 71.9718 72.2037C71.827 72.2272 71.6939 72.3055 71.5569 72.3682C69.7638 73.1472 67.9121 73.155 66.076 72.6383C64.6158 72.2272 63.1869 71.6987 61.7579 71.178C60.3408 70.6652 59.3151 69.6473 58.4694 68.4415C57.0484 66.4136 56.7665 64.0843 56.6255 61.7236C56.5981 62.0642 56.5747 62.4048 56.5433 62.7454H56.5864V62.7532Z" fill="#FFC34F"/>
  <path d="M85.8265 24.9786C86.629 25.2762 87.4003 25.6559 88.1911 25.9769C88.5591 26.1257 88.9192 26.2823 89.2794 26.4428C90.0624 26.4898 90.8454 26.6268 91.6283 26.6542C94.1534 26.7403 96.5611 27.4019 98.8787 28.2906C101.087 29.1362 102.938 30.6199 104.661 32.2446C105.53 33.0628 106.403 33.8732 107.303 34.6523C108.615 35.7915 109.578 37.2048 110.518 38.6337C112.154 41.1235 113.736 43.6526 115.399 46.1228C116.664 47.9981 117.506 50.0573 118.261 52.1674C119.052 54.3754 119.933 56.5599 120.63 58.7953C121.28 60.8858 121.757 63.0311 121.941 65.2313C122.247 68.8525 122.689 72.466 122.892 76.095C122.932 75.2573 122.947 74.4234 122.904 73.5896C122.708 69.9096 122.254 66.2413 121.941 62.5653C121.753 60.3651 121.28 58.2198 120.63 56.1292C119.933 53.8899 119.052 51.7094 118.261 49.5014C117.506 47.3913 116.664 45.3359 115.399 43.4568C113.736 40.9826 112.154 38.4575 110.518 35.9676C109.578 34.5348 108.615 33.1255 107.303 31.9863C106.403 31.2033 105.526 30.3929 104.661 29.5786C102.938 27.9539 101.087 26.4702 98.8787 25.6246C96.5611 24.7359 94.1534 24.0743 91.6283 23.9882C90.7357 23.9568 89.8471 23.7768 88.9505 23.7572C87.1615 23.722 85.3724 23.7494 83.5833 23.7611C83.458 23.7611 83.3288 23.8629 82.9686 24.0195C83.4462 24.227 83.7242 24.3718 84.0178 24.4658C84.6168 24.6498 85.2393 24.7633 85.8265 24.9786Z" fill="#FFC34F"/>
  <path d="M110.843 92.9369C108.196 95.5168 104.974 96.8361 101.498 97.6504C99.0353 98.2259 96.5415 98.723 94.036 99.0519C92.149 99.3024 90.3051 99.7879 88.426 99.9954C84.5072 100.43 80.5884 101.033 76.6148 100.493C75.0645 100.281 73.4908 100.266 71.9366 100.105C70.5311 99.9602 69.1374 99.7213 67.732 99.553C66.5849 99.416 65.434 99.2946 64.283 99.2163C60.8966 98.9814 57.5103 98.723 54.12 98.5625C51.6967 98.449 49.289 98.5704 46.8775 99.0127C44.5207 99.4434 42.254 100.152 39.9599 100.794C38.1317 101.307 36.3152 101.851 34.4791 102.333C33.2185 102.661 31.9384 102.912 30.6621 103.186C29.7147 103.39 28.7751 103.64 27.816 103.754C26.8569 103.867 25.8742 103.918 24.9112 103.855C20.2525 103.538 16.0831 102.125 12.9395 98.4294C11.6946 96.9614 11.1426 95.2466 10.9625 93.4223C10.8998 94.1622 10.8724 94.9021 10.9194 95.6342C11.0486 97.6269 11.5889 99.506 12.9395 101.095C16.0831 104.791 20.2525 106.204 24.9112 106.521C25.8742 106.588 26.8569 106.533 27.816 106.42C28.7751 106.306 29.7147 106.056 30.6621 105.852C31.9344 105.578 33.2185 105.327 34.4791 104.999C36.3152 104.517 38.1317 103.969 39.9599 103.46C42.254 102.818 44.5207 102.109 46.8775 101.679C49.289 101.236 51.6967 101.115 54.12 101.229C57.5103 101.389 60.8966 101.644 64.283 101.882C65.434 101.961 66.5849 102.082 67.732 102.219C69.1335 102.387 70.5311 102.626 71.9366 102.771C73.4947 102.932 75.0685 102.947 76.6148 103.159C80.5845 103.703 84.5072 103.096 88.426 102.661C90.3051 102.454 92.149 101.965 94.036 101.718C96.5415 101.385 99.0353 100.892 101.498 100.316C104.974 99.5021 108.2 98.1867 110.843 95.6029C112.886 93.6102 114.382 91.32 114.902 88.5679C115.149 87.2682 115.247 85.9449 115.09 84.6452C115.043 85.0641 114.984 85.483 114.902 85.8979C114.382 88.6501 112.886 90.9364 110.843 92.9329V92.9369Z" fill="#FFC34F"/>
  <path d="M11.5458 74.8971C12.0939 76.1185 12.9552 76.9719 14.0435 77.6609C14.388 77.8802 14.7325 78.1072 15.0927 78.303C16.7722 79.2191 18.5495 79.8024 20.46 79.3208C21.7167 79.0037 22.9655 78.5575 24.1243 77.9859C25.7568 77.1755 27.3971 76.3221 28.8652 75.2572C30.7952 73.8636 33.1128 73.7461 35.223 72.967C35.3561 72.92 35.5205 72.9749 35.6693 72.9553C36.1469 72.8966 36.6245 72.8339 37.0982 72.7634C37.6854 72.6773 38.2726 72.509 38.8599 72.5012C40.8486 72.4659 42.7826 72.1802 44.6969 71.6321C47.6487 70.7865 49.7001 68.9308 51.0351 66.2217C51.869 64.5305 52.0099 62.7218 51.9629 60.874C51.9434 60.6078 51.9316 60.3416 51.9199 60.0754C51.8259 61.2733 51.5832 62.44 51.0312 63.5557C49.6962 66.2648 47.6448 68.1204 44.693 68.966C42.7787 69.5141 40.8408 69.7999 38.856 69.8351C38.2687 69.8469 37.6815 70.0113 37.0943 70.0974C36.6206 70.1679 36.143 70.2305 35.6653 70.2893C35.5166 70.3049 35.3521 70.2501 35.219 70.301C33.1089 71.0801 30.7874 71.1975 28.8613 72.5912C27.3893 73.656 25.7529 74.5095 24.1204 75.3199C22.9616 75.8953 21.7127 76.3416 20.4561 76.6548C18.5456 77.1364 16.7683 76.5531 15.0888 75.637C14.7286 75.4412 14.388 75.2142 14.0396 74.9949C12.9552 74.302 12.09 73.4485 11.5419 72.231C10.9586 70.9352 10.5084 69.6159 10.3205 68.2535C10.3126 68.3005 10.3048 68.3475 10.3009 68.3945C10.0112 70.6729 10.6063 72.8144 11.5419 74.8971H11.5458Z" fill="#FFC34F"/>
  <path d="M2.46722 86.6926C2.67862 84.7312 3.06228 82.7895 3.42245 80.8516C3.64168 79.685 3.92355 78.5222 4.2524 77.383C4.73001 75.7388 5.21546 74.0945 5.81052 72.4934C6.77358 69.9017 7.51349 67.2631 8.08506 64.554C8.46871 62.7414 9.11075 60.9797 9.7019 59.2141C10.0425 58.1923 10.5005 57.2097 10.9077 56.2114C10.9507 56.1096 10.9938 55.9922 11.0721 55.9217C12.5128 54.6651 13.19 52.876 14.2706 51.3687C15.0496 50.2804 15.8365 49.1921 16.6939 48.1703C18.7296 45.7431 20.7692 43.3237 22.8872 40.9669C23.6467 40.1213 24.6254 39.4636 25.5101 38.7315C27.8121 36.8289 30.255 35.1416 32.8427 33.6422C35.129 32.319 37.5758 31.6887 40.1713 31.5008C40.2183 31.5008 40.2653 31.4929 40.3123 31.489C41.2205 30.7922 42.1288 30.0953 43.0331 29.3907C43.1975 29.2654 43.315 29.0814 43.5812 28.7878C43.2288 28.6977 43.0918 28.6272 42.9587 28.6351C42.0309 28.6899 41.1031 28.7643 40.1752 28.8308C37.5797 29.0187 35.1329 29.6529 32.8466 30.9722C30.255 32.4716 27.816 34.1629 25.514 36.0616C24.6254 36.7936 23.6506 37.4514 22.8911 38.297C20.7771 40.6498 18.7335 43.0731 16.6978 45.5004C15.8404 46.5261 15.0535 47.6104 14.2745 48.6988C13.1979 50.206 12.5206 51.9951 11.076 53.2518C10.9977 53.3222 10.9547 53.4397 10.9116 53.5415C10.5044 54.5398 10.0464 55.5224 9.70581 56.5442C9.11858 58.3098 8.47263 60.0715 8.08897 61.8841C7.5174 64.5892 6.77749 67.2318 5.81444 69.8234C5.21938 71.4246 4.73393 73.0728 4.25632 74.7131C3.92355 75.8523 3.64168 77.015 3.42636 78.1817C3.06228 80.1234 2.67863 82.0652 2.47114 84.0226C2.26365 85.9487 2.24407 87.8945 2.17361 89.8323C2.15403 90.4235 2.16186 91.0028 2.20493 91.5705C2.25582 89.9419 2.29888 88.3094 2.47505 86.6887L2.46722 86.6926Z" fill="#FFC34F"/>
  <path d="M42.9548 31.2973C43.0879 31.2895 43.2249 31.3599 43.5772 31.45C43.3149 31.7436 43.1936 31.9276 43.0292 32.0528C41.2361 33.4465 39.4236 34.8167 37.6423 36.2222C36.9141 36.7977 36.2251 37.424 35.5635 38.0739C35.1563 38.4771 34.9058 38.9861 35.3012 39.6125C35.8728 39.7064 36.2917 39.4128 36.691 39.0761C38.4292 37.612 40.1361 36.1126 41.9173 34.7032C43.1427 33.7323 44.3837 32.7301 45.7656 32.0372C47.4569 31.1877 49.2851 30.7101 51.2739 31.0976C52.0255 31.2425 52.8711 30.8627 53.6776 30.7688C54.3392 30.6905 55.0165 30.5887 55.6663 30.667C55.8856 30.6944 56.0657 30.7414 56.2066 30.8118C56.324 30.3538 56.4454 29.8918 56.5629 29.4299C56.7821 28.5686 56.5433 28.0988 55.6663 27.997C55.0165 27.9187 54.3353 28.0244 53.6776 28.0988C52.8711 28.1928 52.0255 28.5725 51.2739 28.4277C49.2851 28.0401 47.4569 28.5177 45.7656 29.3672C44.7282 29.8879 43.773 30.5809 42.8412 31.3051C42.8765 31.3051 42.9156 31.3012 42.9509 31.2973H42.9548Z" fill="#FFC34F"/>
  <path d="M54.8834 38.7628C54.7425 39.3931 54.6133 40.0234 54.5154 40.6576C54.4802 40.8925 54.6211 41.2723 54.809 41.3936C55.1536 41.6168 55.4785 41.3662 55.6116 41.0335C56.0501 39.9334 56.512 38.8333 56.8448 37.7019C57.2441 36.3474 57.4986 34.9537 57.8587 33.5913C58.031 32.9453 58.3011 32.3268 58.5203 31.6926C58.7787 30.9488 59.2759 30.522 60.0863 30.479C61.0494 30.4242 62.0124 30.385 62.9676 30.2754C64.0403 30.154 65.113 30.0052 66.1739 29.8017C67.0117 29.6412 67.826 29.375 68.652 29.1558C68.7616 29.1284 68.8634 29.0813 68.973 29.0657C71.5921 28.729 74.2072 28.3454 76.8341 28.0753C78.4705 27.9069 80.0913 28.0243 81.6807 28.6233C82.7534 29.0265 83.9122 29.1988 85.0318 29.4689C87.6822 30.0992 90.0155 31.3481 92.2469 32.8944C94.4197 34.3977 96.1892 36.2964 97.9352 38.2265C98.2054 38.524 98.362 38.9233 98.5655 39.2796C98.7299 39.5693 98.8591 39.8903 99.0549 40.1604C99.3837 40.6185 99.8888 40.7085 100.331 40.4384C100.805 40.1487 100.93 39.7298 100.656 39.1856C100.437 38.7511 100.202 38.3244 99.9631 37.9055C99.6304 37.9603 99.2937 37.8232 99.0549 37.4905C98.8591 37.2204 98.7339 36.9033 98.5655 36.6096C98.362 36.2534 98.2054 35.8541 97.9352 35.5566C96.8273 34.3312 95.7077 33.1215 94.4862 32.0136C92.5014 30.6669 90.4109 29.559 88.1911 28.6507C87.3964 28.3297 86.6291 27.9499 85.8266 27.6524C85.2432 27.4371 84.6169 27.3236 84.0179 27.1396C83.7243 27.0496 83.4502 26.9008 82.9687 26.6933C83.2349 26.5798 83.3719 26.4936 83.4776 26.4584C82.8669 26.3253 82.2601 26.1726 81.6807 25.9534C80.0913 25.3544 78.4705 25.233 76.8341 25.4053C74.2072 25.6754 71.5921 26.0591 68.973 26.3958C68.8634 26.4114 68.7577 26.4584 68.652 26.4858C67.826 26.705 67.0117 26.9712 66.1739 27.1318C65.113 27.3353 64.0403 27.488 62.9676 27.6054C62.0124 27.7111 61.0454 27.7542 60.0863 27.809C59.2759 27.8521 58.7787 28.2788 58.5203 29.0226C58.3011 29.6568 58.0271 30.2754 57.8587 30.9214C57.4986 32.2877 57.2441 33.6814 56.8448 35.032C56.512 36.1673 56.0501 37.2634 55.6116 38.3635C55.4902 38.6728 55.2005 38.9037 54.8834 38.7628Z" fill="#FFC34F"/>
  <path d="M115.72 58.6817C115.681 58.5565 115.658 58.4155 115.662 58.2629C115.677 57.7187 116.151 57.1549 116.57 57.1784C116.613 57.1784 116.66 57.1941 116.707 57.2137C116.554 57.0414 116.351 56.9318 115.983 56.9905C115.548 57.0571 115.345 57.3154 115.251 57.7108C115.137 58.1728 115.376 58.5173 115.72 58.6817Z" fill="#FFC34F"/>
  <path d="M13.1273 93.0738C13.7224 90.2943 15.7424 88.654 17.9778 87.2211C18.4359 86.9275 18.9918 86.5556 19.4694 86.5987C19.8765 86.6378 20.1936 87.2759 20.6164 87.55C22.6444 88.8615 23.9323 90.8502 25.4122 92.6628C25.9289 93.297 26.4731 93.9038 27.0486 94.5772C27.5458 94.4206 27.9333 94.2992 28.3131 94.1818C29.7577 91.1478 30.1452 87.6439 32.4902 84.8722C33.0109 85.3498 33.5003 85.7374 33.9192 86.1954C36.1585 88.654 38.6679 90.8228 41.1304 93.0425C42.5358 94.311 43.7612 95.7595 44.8417 97.3215C45.8869 97.161 46.9361 97.0357 47.9814 96.8674C47.9031 96.6286 47.7582 96.335 47.8287 96.1353C48.3259 94.7651 48.0049 93.3323 48.2163 91.9386C48.4238 90.5762 48.4707 89.1943 48.643 87.828C48.7839 86.7357 49.011 85.6513 49.2341 84.3594C49.6413 84.5904 49.9153 84.6725 50.0915 84.8565C50.6826 85.4751 51.2894 86.0897 51.7984 86.7748C53.0002 88.4073 54.5349 89.7188 55.9481 91.1478C56.2613 91.4649 56.5706 91.7819 56.876 92.103C57.0834 92.3183 57.24 92.6276 57.4906 92.745C57.8703 92.9251 58.3284 93.1013 58.716 93.0465C59.1818 92.9799 59.311 92.5219 59.4324 92.0404C60.0157 89.7032 60.6734 87.3816 61.3037 85.0562C61.3115 85.0327 61.3702 85.0288 61.472 84.9858C63.1358 87.0332 64.9836 88.9672 66.3147 91.3044C66.4243 91.4962 66.53 91.7037 66.6749 91.8642C67.2543 92.4984 68.186 92.377 68.464 91.5745C69.0551 89.8911 69.5719 88.1803 70.116 86.4812C70.2492 86.0702 70.3783 85.663 70.5154 85.2246C70.7346 85.3224 70.8638 85.3381 70.9264 85.4125C72.5785 87.3777 74.5947 89.0337 75.9375 91.2652C76.1097 91.551 76.3407 91.8054 76.5717 92.0482C77.2568 92.7685 78.0671 92.6628 78.4273 91.7585C78.6857 91.1047 78.8697 90.4118 79.0067 89.7227C79.1907 88.7753 79.2925 87.8084 79.4413 86.8532C79.4608 86.724 79.5509 86.6026 79.6566 86.3677C79.915 86.6417 80.1381 86.8218 80.2986 87.0489C81.8254 89.206 83.36 91.3552 84.8438 93.5397C85.3018 94.2131 85.5798 95.0039 85.9752 95.7203C86.5076 96.6834 87.3415 96.7382 87.9835 95.8338C88.2106 95.5128 88.3358 95.0979 88.4259 94.7064C88.9387 92.4162 89.4712 90.1299 89.9135 87.828C90.2502 86.0741 90.5556 84.3202 91.135 82.6251C91.3934 81.8734 91.6008 81.1061 91.8475 80.2918C91.9414 80.2918 92.1137 80.237 92.2194 80.2996C93.5739 81.0748 94.9872 81.7756 95.9229 83.1144C96.5179 83.9679 97.1756 84.7783 97.7903 85.62C98.3775 86.4225 99.8181 86.6261 100.585 85.9723C100.711 85.8666 100.777 85.6591 100.816 85.4868C101.325 83.2397 101.94 81.0239 102.79 78.8786C103.169 77.9155 103.561 77.6493 104.59 77.7942C107.115 78.1504 109.296 79.274 111.026 81.1179C111.602 81.7325 111.943 82.6642 112.154 83.5098C112.314 84.1597 112.381 84.8331 112.436 85.5064C112.545 84.9583 112.577 84.3907 112.53 83.8074C112.44 82.7308 112.412 81.6307 112.158 80.5932C111.95 79.7476 111.61 78.8159 111.03 78.2013C109.3 76.3574 107.119 75.2338 104.594 74.8775C103.565 74.7327 103.173 74.9989 102.793 75.962C101.944 78.1073 101.329 80.3231 100.82 82.5703C100.781 82.7425 100.715 82.9461 100.589 83.0557C99.826 83.7095 98.3814 83.5059 97.7942 82.7034C97.1795 81.8617 96.5218 81.0513 95.9268 80.1979C94.9911 78.859 93.5779 78.1621 92.2233 77.3831C92.1176 77.3204 91.9414 77.3752 91.8514 77.3752C91.6048 78.1895 91.3973 78.9569 91.1389 79.7085C90.5595 81.4037 90.2541 83.1575 89.9174 84.9114C89.4751 87.2133 88.9466 89.4996 88.4298 91.7898C88.3437 92.1813 88.2145 92.5963 87.9874 92.9173C87.3454 93.8216 86.5115 93.7668 85.9791 92.8037C85.5837 92.0873 85.3057 91.2965 84.8477 90.6232C83.364 88.4387 81.8293 86.2894 80.3025 84.1323C80.142 83.9052 79.9189 83.7212 79.6605 83.4511C79.5548 83.6821 79.4647 83.8035 79.4452 83.9366C79.2964 84.8918 79.1946 85.8588 79.0106 86.8062C78.8775 87.4952 78.6935 88.1881 78.4312 88.8419C78.0711 89.7462 77.2607 89.8519 76.5756 89.1316C76.3446 88.8889 76.1136 88.6344 75.9414 88.3486C74.5986 86.1171 72.5824 84.4612 70.9303 82.4959C70.8677 82.4215 70.7385 82.4058 70.5193 82.308C70.3783 82.7425 70.2491 83.1536 70.12 83.5647C69.5719 85.2637 69.059 86.9745 68.4679 88.6579C68.186 89.4605 67.2543 89.5818 66.6788 88.9476C66.53 88.7871 66.4282 88.5796 66.3186 88.3878C64.9876 86.0506 63.1397 84.1166 61.4759 82.0692C61.3741 82.1122 61.3115 82.1162 61.3076 82.1396C60.6734 84.4651 60.0196 86.7866 59.4363 89.1238C59.3149 89.6053 59.1857 90.0634 58.7199 90.1299C58.3284 90.1847 57.8703 90.0085 57.4945 89.8285C57.244 89.711 57.0874 89.4017 56.8799 89.1864C56.5745 88.8654 56.2652 88.5483 55.952 88.2312C54.5427 86.7983 53.0081 85.4908 51.8023 83.8583C51.2973 83.1732 50.6866 82.5585 50.0954 81.94C49.9232 81.756 49.6452 81.6738 49.2381 81.4428C49.0149 82.7386 48.7839 83.8191 48.6469 84.9114C48.4707 86.2776 48.4238 87.6635 48.2202 89.022C48.0088 90.4157 48.3298 91.8485 47.8326 93.2187C47.7582 93.4184 47.907 93.712 47.9853 93.9508C48.1928 94.585 47.9187 95.4893 47.3981 95.826C46.94 96.1235 46.3567 96.0413 45.7695 95.5324C45.4954 95.2936 45.2566 94.996 45.0491 94.6907C43.9177 93.019 42.6258 91.4727 41.1343 90.126C38.6718 87.9023 36.1624 85.7374 33.9231 83.2789C33.5081 82.8208 33.0148 82.4333 32.4942 81.9557C30.1492 84.7274 29.7577 88.2272 28.317 91.2652C27.9373 91.3826 27.5497 91.504 27.0525 91.6606C26.477 90.9872 25.9328 90.3765 25.4161 89.7462C23.9363 87.9297 22.6483 85.941 20.6204 84.6334C20.1976 84.3594 19.8805 83.7173 19.4733 83.6821C18.9957 83.639 18.4398 84.011 17.9817 84.3046C15.7464 85.7374 13.7263 87.3777 13.1312 90.1573C12.9785 90.8737 12.9668 91.6293 12.9668 92.3653C12.9668 92.7842 12.9942 93.1874 13.0451 93.5828C13.0686 93.4105 13.0921 93.2422 13.1312 93.0738H13.1273Z" fill="#870B20"/>
</svg>