<svg xmlns="http://www.w3.org/2000/svg" width="125" height="107" viewBox="0 0 125 107" fill="none">
  <path d="M22.326 41.143C19.3154 38.43 16.412 35.6535 13.333 33.0869C11.5227 31.5791 9.43918 30.4031 7.48248 29.0662C5.34525 27.6072 3.19825 26.1677 1.08542 24.6697C-0.0954309 23.8304 -0.329647 23.1814 0.465717 21.9127C1.71976 19.9073 3.04699 17.9164 4.60356 16.1451C6.77983 13.6663 9.19032 11.3925 11.5179 9.05031C12.6304 7.92801 13.3282 7.82064 14.47 8.84534C15.7972 10.0359 17.1684 11.2558 18.1882 12.6953C20.1254 15.4181 22.5114 17.6724 24.8975 19.9658C27.4837 22.4495 29.9771 25.0405 32.4413 27.6511C33.1147 28.3684 33.5538 29.3101 34.0759 30.1641C34.7883 31.3303 35.3934 31.4571 36.989 30.652C36.3254 29.0125 35.5349 27.4022 35.0177 25.709C34.2077 23.0399 33.4855 20.3318 32.9244 17.5993C32.7048 16.516 32.8853 15.2961 33.1244 14.1884C33.7588 11.2509 34.2565 8.22566 36.1546 5.75174C36.8817 4.80511 37.6917 3.77063 38.7066 3.23388C41.161 1.93593 43.7033 0.935628 46.5431 0.433036C50.681 -0.303773 54.7017 0.0328834 58.7761 0.462282C61.5623 0.755054 64.3632 0.911221 67.1396 1.27719C69.9893 1.64803 72.2046 3.19483 73.971 5.41502C74.1515 5.63948 74.2735 5.90789 74.4346 6.18114C75.0445 5.92252 75.4788 5.83954 75.7862 5.59556C79.7142 2.46778 84.3888 1.78469 89.1707 1.55535C91.3226 1.45288 93.4842 1.64315 95.641 1.7017C98.5882 1.77977 101.531 1.95054 104.478 1.92614C110.065 1.88711 113.456 4.80999 115.52 9.66025C116.701 12.4465 117.121 15.4522 116.735 18.5459C116.408 21.1808 116.33 23.8499 116.052 26.4946C115.935 27.612 116.233 28.466 117.072 29.1637C117.184 29.2564 117.257 29.3882 117.374 29.4711C120.858 31.8719 121.849 35.4681 122.088 39.401C122.2 41.265 122.273 43.1387 122.283 45.0027C122.293 47.9499 122.337 50.8532 122.918 53.7907C123.523 56.8746 123.591 60.0707 123.791 63.2229C124.025 66.8825 123.869 70.5861 124.396 74.1969C125.006 78.3543 124.928 82.5068 124.996 86.6641C125.074 91.3387 123.928 95.7791 121.786 99.9267C121.39 100.693 120.6 101.425 119.814 101.776C118.253 102.484 116.603 103.191 114.925 103.401C111.368 103.85 107.772 103.986 104.19 104.226C103.331 104.284 102.463 104.187 101.604 104.245C95.5629 104.655 89.5221 104.479 83.5105 103.986C78.0747 103.538 72.6779 102.63 67.2616 101.952C65.3391 101.713 63.4068 101.405 61.4794 101.371C57.9564 101.308 54.4285 101.474 50.9054 101.459C47.0945 101.444 43.5569 102.64 39.9558 103.645C36.4328 104.631 32.8902 105.826 29.2842 106.192C24.7512 106.651 20.2425 105.968 16.3242 103.211C15.4996 102.63 14.5968 102.166 13.782 101.576C10.3663 99.1069 7.96556 92.2317 9.1952 88.1426C9.87833 85.8785 10.6786 83.6242 11.674 81.4772C13.4502 77.6419 13.8064 73.6212 13.699 69.498C13.6307 66.8435 13.2403 64.15 13.5575 61.5394C13.8161 59.3924 14.7383 57.2649 15.6606 55.2692C17.7051 50.8337 19.9351 46.491 22.0869 42.1043C22.1796 41.9188 22.1943 41.6992 22.3309 41.1478L22.326 41.143ZM21.111 28.7099C21.1696 29.6273 21.6087 30.1591 22.4383 30.3104C22.5456 30.1884 22.6578 30.0664 22.7652 29.9396C22.1992 29.5443 21.6331 29.1491 21.0671 28.7539C20.789 27.1339 19.2763 26.602 18.276 25.6212C15.9729 23.3668 13.6941 21.093 11.3373 18.8923C10.7225 18.3165 9.91737 17.8969 9.12689 17.5748C8.02411 17.1259 7.38977 17.4919 6.66272 18.7557C10.1565 21.2491 13.6356 23.7621 17.1488 26.2214C18.4224 27.1143 19.7838 27.8804 21.1061 28.705L21.111 28.7099ZM119.478 61.959C119.624 61.9444 119.77 61.9347 119.912 61.92C119.531 56.4062 119.238 50.8825 118.741 45.3784C118.472 42.3824 117.843 39.4254 117.418 36.444C117.106 34.2385 115.769 33.1698 113.661 32.9795C109.445 32.5891 105.229 32.0671 101.004 31.9158C94.7529 31.6913 88.4925 31.6279 82.2418 31.6962C73.5416 31.7938 64.8414 32.0475 56.1461 32.2964C52.34 32.4038 48.5291 32.594 44.7328 32.8917C43.6349 32.9795 42.5468 33.4919 41.5123 33.9359C40.3998 34.4092 39.4093 35.2241 38.2723 35.551C33.4855 36.9075 30.0894 39.9865 27.7472 44.1878C25.1952 48.7599 22.7847 53.4247 20.5792 58.1774C18.9787 61.6272 17.8417 65.2479 18.0076 69.1954C18.154 72.6501 17.6758 76.0707 16.7634 79.4278C16.5877 80.0768 16.6219 80.8233 16.7341 81.4967C17.0805 83.5461 17.627 85.5711 17.8808 87.6302C18.1589 89.909 18.3882 92.1146 19.33 94.3006C20.6914 97.4625 24.434 100.488 27.9131 100.473C33.6905 100.449 39.3458 99.3314 44.9915 98.253C46.8847 97.8919 48.7389 96.9697 50.6224 96.9307C54.1308 96.8575 57.6636 97.1161 61.1573 97.4772C66.4468 98.0237 71.5703 99.5314 76.8743 100.136C82.8908 100.82 88.9024 101.381 94.9383 101.322C101.043 101.259 107.152 100.893 113.246 100.454C116.335 100.234 118.99 98.8971 120.117 95.7254C120.585 94.4031 120.61 92.9294 120.976 91.5583C121.976 87.7767 121.503 83.9852 121.171 80.1938C120.639 74.114 120.053 68.0438 119.492 61.9688L119.478 61.959ZM73.6148 28.0122C73.6929 27.8609 73.7709 27.7145 73.8539 27.5632C72.351 26.7971 72.473 25.6797 72.7755 24.372C73.1268 22.8398 73.2879 21.2491 73.4098 19.6731C73.4586 19.0631 73.2244 18.4141 73.0439 17.8042C72.6633 16.5062 72.146 15.2473 71.8435 13.9347C71.4434 12.1927 70.6578 10.8069 69.2818 9.58216C66.8566 7.42541 63.8557 6.85451 60.9036 6.5471C56.5511 6.09819 52.1497 6.16159 47.7679 6.02985C47.2751 6.01521 46.7774 6.17135 46.2845 6.26894C42.1418 7.0643 39.3849 9.61145 37.516 13.2516C36.7158 14.813 36.3352 16.4916 36.5303 18.258C36.9597 22.0591 38.6334 25.3919 40.4096 28.6953C40.7707 29.3687 41.2684 29.637 41.9808 29.5346C43.469 29.3248 44.9671 28.8319 46.4309 28.9246C50.8664 29.2028 55.2092 27.2656 59.6642 28.422C60.0058 28.5099 60.3815 28.4806 60.7377 28.4757C64.3339 28.4171 67.935 28.3586 71.5312 28.2708C72.2241 28.2562 72.9121 28.0951 73.605 28.0024L73.6148 28.0122ZM77.4452 27.978C79.4995 27.7828 81.6221 27.5974 83.7447 27.3729C87.9557 26.9338 92.1619 26.4507 96.3729 26.031C99.4422 25.7236 102.521 25.4553 105.6 25.2357C106.947 25.1381 108.313 25.1186 109.66 25.2259C111.524 25.3772 111.934 25.1235 111.748 23.3181C111.27 18.7606 110.85 14.1836 109.04 9.89934C108.508 8.63554 107.898 7.36684 106.469 6.88376C105.249 6.47388 104.014 6.08351 102.755 5.83465C99.1152 5.11736 95.4653 5.61022 91.8057 5.80052C87.3263 6.03474 83.4666 7.60105 80.0216 10.4214C78.0942 11.9975 77.2403 13.8224 77.3915 16.3842C77.6062 20.078 77.4452 23.7913 77.4452 27.9731V27.978ZM32.1827 32.4184C30.0259 29.0906 27.3129 26.4653 24.5657 23.8889C21.9552 21.4394 19.208 19.1363 17.1098 16.1793C16.373 15.14 15.4605 14.1982 14.5139 13.3394C13.3818 12.3049 12.1522 12.6221 11.1031 14.0811C10.5224 14.8911 10.6347 15.1156 12.1376 16.1354C12.3132 16.2574 12.5084 16.3647 12.6645 16.5062C18.3004 21.5858 24.0827 26.5092 29.0891 32.2476C30.0845 33.3845 30.4358 33.4089 32.1778 32.4232L32.1827 32.4184ZM23.9802 38.5617C24.5169 38.0591 24.9024 37.698 25.4489 37.1856C23.6874 35.634 22.3407 34.3751 20.9207 33.204C18.5444 31.2473 16.1339 29.3198 13.7039 27.4315C11.7814 25.9335 9.8149 24.494 7.83869 23.0643C7.20435 22.6056 6.51146 22.186 5.78441 21.903C5.39405 21.7517 4.67675 21.7517 4.45717 21.9957C3.9497 22.5666 4.45718 23.0643 4.95001 23.3913C6.08694 24.1427 7.29218 24.7917 8.39984 25.5822C12.362 28.4172 16.6267 30.8618 20.0717 34.3799C21.272 35.6047 22.4187 36.8831 23.9802 38.5617ZM19.1202 100.029C18.0808 97.7504 17.022 95.906 16.3925 93.9249C15.7631 91.9486 15.7728 89.787 14.953 87.4302C12.9622 92.8612 14.5383 97.3357 19.1202 100.029Z" fill="black"/>
  <path d="M119.478 61.959C120.039 68.034 120.624 74.1091 121.156 80.1841C121.488 83.9755 121.966 87.7669 120.961 91.5485C120.6 92.9197 120.575 94.3933 120.102 95.7157C118.975 98.8874 116.32 100.219 113.232 100.444C107.137 100.883 101.033 101.249 94.9237 101.312C88.8877 101.376 82.8762 100.815 76.8597 100.127C71.5556 99.5217 66.4321 98.0139 61.1427 97.4674C57.6441 97.1063 54.1162 96.8477 50.6078 96.9209C48.7243 96.9599 46.875 97.8821 44.9768 98.2432C39.3312 99.3216 33.6807 100.439 27.8985 100.463C24.4242 100.478 20.6767 97.4528 19.3154 94.2908C18.3736 92.1048 18.1443 89.8993 17.8661 87.6205C17.6124 85.5614 17.0659 83.5363 16.7194 81.4869C16.6072 80.8135 16.5682 80.067 16.7487 79.418C17.6612 76.0609 18.1443 72.6404 17.993 69.1856C17.8222 65.243 18.9592 61.6175 20.5645 58.1676C22.7701 53.4198 25.1806 48.755 27.7326 44.178C30.0747 39.9768 33.466 36.8977 38.2577 35.5412C39.3995 35.2192 40.3901 34.3995 41.4977 33.9261C42.5371 33.4821 43.6252 32.9697 44.7182 32.8819C48.5145 32.5843 52.3254 32.394 56.1314 32.2866C64.8268 32.0378 73.527 31.784 82.2272 31.6865C88.4827 31.6181 94.7432 31.6815 100.989 31.906C105.215 32.0573 109.431 32.5794 113.646 32.9698C115.759 33.165 117.091 34.2336 117.404 36.4342C117.828 39.4156 118.458 42.3775 118.726 45.3686C119.219 50.8727 119.517 56.3964 119.897 61.9102C119.751 61.9249 119.604 61.9346 119.463 61.9493L119.478 61.959ZM70.3553 64.6818C70.3455 64.5696 70.3406 64.4622 70.3309 64.35C66.032 64.6086 61.7283 64.8575 57.4294 65.1356C52.9256 65.4235 48.4023 65.5016 44.079 67.146C39.541 68.8733 36.2815 71.8108 34.3931 76.3195C33.6417 78.1103 33.7783 79.9792 33.5392 81.8139C32.7048 88.1475 36.2327 91.2509 41.5904 92.1926C45.0939 92.8075 48.7585 92.705 52.34 92.6025C59.8838 92.3829 67.4178 91.8852 74.9616 91.6315C79.4117 91.4802 83.8716 91.49 88.3217 91.5827C92.118 91.6657 95.9143 91.9975 99.7105 92.1731C102.394 92.2951 104.571 90.8898 105.966 88.938C107.732 86.4689 108.967 83.5803 109.05 80.4037C109.157 76.1097 108.128 71.9914 106.825 67.9658C106.405 66.6678 105.834 65.2332 104.473 64.4671C102.692 63.4668 100.779 62.8032 98.7346 62.8764C95.2897 63.0032 91.8496 63.2765 88.4095 63.501C82.3931 63.8913 76.3717 64.2866 70.3553 64.677V64.6818Z" fill="#FF9439"/>
  <path d="M73.6148 28.017C72.9219 28.1097 72.2339 28.2659 71.541 28.2854C67.9447 28.3732 64.3436 28.4269 60.7474 28.4903C60.3863 28.4952 60.0106 28.5245 59.6739 28.4367C55.2189 27.2802 50.8761 29.2174 46.4406 28.9393C44.9768 28.8466 43.4739 29.3394 41.9905 29.5492C41.2781 29.6517 40.7804 29.3833 40.4193 28.7099C38.6431 25.4064 36.9695 22.0688 36.5401 18.2726C36.34 16.5062 36.7206 14.8277 37.5257 13.2662C39.3946 9.63096 42.1515 7.08382 46.2943 6.28357C46.7871 6.19086 47.2848 6.02984 47.7776 6.04448C52.1595 6.17135 56.5657 6.10788 60.9133 6.56168C63.8606 6.86909 66.8664 7.44004 69.2915 9.5968C70.6675 10.8216 71.4531 12.2073 71.8532 13.9493C72.1558 15.2619 72.673 16.5257 73.0536 17.8188C73.2342 18.4287 73.4684 19.0777 73.4196 19.6876C73.2976 21.2637 73.1366 22.8496 72.7852 24.3866C72.4876 25.6895 72.3607 26.8069 73.8636 27.5779C73.7855 27.7291 73.7075 27.8755 73.6245 28.0268L73.6148 28.017ZM55.1945 17.1454C55.2287 15.6328 54.7944 15.0912 53.472 15.0326C51.6032 14.9496 50.5882 15.5742 50.6126 16.799C50.6419 18.0189 52.1546 19.595 53.3745 19.6682C54.6578 19.7462 55.1457 19.0631 55.1945 17.1503V17.1454Z" fill="white"/>
  <path d="M77.4452 27.9828C77.4452 23.7961 77.6063 20.0828 77.3916 16.3939C77.2403 13.8321 78.0942 12.0072 80.0216 10.4311C83.4666 7.61075 87.3263 6.04443 91.8057 5.81022C95.4653 5.61991 99.1152 5.12705 102.755 5.84435C104.014 6.0932 105.254 6.48358 106.469 6.89346C107.898 7.37653 108.508 8.64524 109.04 9.90903C110.851 14.1933 111.27 18.7751 111.748 23.3277C111.939 25.1332 111.524 25.3869 109.66 25.2356C108.313 25.1283 106.947 25.1478 105.6 25.2454C102.521 25.465 99.447 25.7333 96.3729 26.0407C92.1619 26.4604 87.9557 26.9435 83.7447 27.3826C81.6221 27.6022 79.4995 27.7925 77.4452 27.9877V27.9828ZM98.6712 17.2039C98.3345 16.4769 98.1881 15.7254 97.7343 15.2911C97.0414 14.6275 95.1335 14.9691 94.3772 15.7156C93.7575 16.3305 93.4745 18.2384 94.0308 18.8971C94.2894 19.1996 94.9091 19.4534 95.275 19.3607C96.1485 19.1509 97.0024 18.7849 97.7929 18.3555C98.154 18.1603 98.3443 17.6577 98.6761 17.2039H98.6712Z" fill="white"/>
  <path d="M32.1826 32.4233C30.4358 33.4089 30.0844 33.3845 29.0939 32.2476C24.0875 26.5142 18.3053 21.5858 12.6694 16.5062C12.5132 16.3647 12.3181 16.2574 12.1424 16.1354C10.6395 15.1156 10.5273 14.8911 11.1079 14.0811C12.1522 12.627 13.3818 12.3098 14.5187 13.3394C15.4654 14.1982 16.3778 15.14 17.1146 16.1793C19.2128 19.1315 21.96 21.4346 24.5706 23.889C27.3177 26.4654 30.0259 29.0906 32.1875 32.4184L32.1826 32.4233Z" fill="#8B9463"/>
  <path d="M23.985 38.5616C22.4236 36.888 21.2769 35.6095 20.0765 34.3798C16.6316 30.8617 12.3718 28.4171 8.4047 25.5821C7.29704 24.7916 6.0918 24.1426 4.95487 23.3912C4.46203 23.0643 3.95457 22.5665 4.46204 21.9956C4.68162 21.7516 5.39891 21.7516 5.78927 21.9029C6.51632 22.1859 7.20433 22.6056 7.84355 23.0642C9.81976 24.4939 11.7862 25.9334 13.7087 27.4314C16.1388 29.3247 18.5444 31.2472 20.9256 33.2039C22.3455 34.375 23.6972 35.6339 25.4538 37.1856C24.9073 37.6979 24.5218 38.0542 23.985 38.5616Z" fill="#8B9463"/>
  <path d="M21.1109 28.71C19.7885 27.8853 18.4272 27.1193 17.1536 26.2263C13.6403 23.767 10.1612 21.254 6.66748 18.7606C7.38965 17.4919 8.02887 17.126 9.13165 17.5798C9.91725 17.9018 10.7273 18.3215 11.3421 18.8972C13.694 21.0979 15.9776 23.3718 18.2808 25.6261C19.2811 26.6069 20.7888 27.1388 21.0719 28.7588L21.1207 28.7149L21.1109 28.71Z" fill="#8B9463"/>
  <path d="M19.1249 100.029C14.5431 97.3357 12.967 92.8612 14.9578 87.4302C15.7776 89.7822 15.7678 91.9487 16.3973 93.9249C17.0267 95.906 18.0856 97.7504 19.1249 100.029Z" fill="white"/>
  <path d="M21.0671 28.7539C21.6332 29.1491 22.1992 29.5443 22.7652 29.9396C22.6579 30.0615 22.5456 30.1835 22.4383 30.3104C21.6136 30.1591 21.1696 29.6273 21.1111 28.7099L21.0671 28.7539Z" fill="white"/>
  <path d="M70.3553 64.6819C76.3718 64.2866 82.3931 63.8914 88.4096 63.5059C91.8497 63.2814 95.2897 63.0081 98.7347 62.8813C100.779 62.8032 102.692 63.4717 104.473 64.472C105.834 65.2381 106.405 66.6727 106.825 67.9707C108.128 72.0011 109.157 76.1195 109.05 80.4086C108.972 83.5803 107.733 86.4738 105.966 88.9429C104.571 90.8947 102.394 92.3 99.7106 92.178C95.9143 92.0023 92.1229 91.6705 88.3218 91.5875C83.8716 91.49 79.4117 91.4851 74.9616 91.6364C67.4178 91.8901 59.8838 92.3878 52.3401 92.6074C48.7585 92.7099 45.094 92.8123 41.5905 92.1975C36.2328 91.2557 32.7048 88.1475 33.5392 81.8188C33.7783 79.9841 33.6466 78.1201 34.3932 76.3244C36.2815 71.8108 39.5411 68.8782 44.079 67.1509C48.4023 65.5065 52.9256 65.4284 57.4294 65.1405C61.7283 64.8672 66.0321 64.6184 70.3309 64.3549C70.3407 64.4671 70.3456 64.5745 70.3553 64.6867V64.6819ZM38.9653 83.4387C39.4288 83.0581 39.7607 82.8874 39.951 82.619C41.0196 81.0868 42.0296 79.5108 43.1031 77.9835C44.3474 76.2122 44.9134 76.1682 46.4798 77.637C46.6896 77.8322 46.8701 78.0566 47.0604 78.2713C49.9735 81.526 52.9012 84.7708 55.785 88.0548C56.5706 88.9477 57.4343 89.2991 58.62 89.2308C61.4209 89.0746 64.2266 89.0356 67.0324 88.9282C71.9168 88.7379 76.8012 88.5232 81.6856 88.3232C82.7884 88.2792 83.652 88.0401 83.735 86.6543C83.7643 86.142 84.1595 85.6248 84.4621 85.1612C86.6334 81.8676 88.8683 78.6129 90.9762 75.2802C91.4203 74.5824 91.6398 73.826 92.6206 73.8992C93.6551 73.9773 94.3041 74.5922 94.7383 75.5046C95.4166 76.9197 96.0997 78.3299 96.8414 79.7108C97.7588 81.4137 98.8811 83.0191 98.9933 85.0539C99.047 86.0005 99.7399 86.2006 100.545 86.0835C102.926 85.737 104.956 85.0295 105.688 82.2921C106.088 80.7941 106.371 79.3448 106.093 77.8419C105.595 75.1631 105.049 72.494 104.449 69.8346C104.127 68.4 103.204 67.551 101.731 67.0777C98.7444 66.1213 95.7728 66.4385 92.7963 66.9411C92.2108 67.0387 91.5862 67.4242 91.1616 67.8535C89.8588 69.1905 88.6048 70.5812 87.4142 72.0157C85.8088 73.948 84.2913 75.9536 82.7201 77.9151C81.71 79.1741 80.4804 79.2033 79.5044 77.9444C78.9335 77.2125 78.4651 76.3976 77.9869 75.5925C76.5084 73.1039 75.7082 73.0697 74.0003 75.4412C73.9174 75.5583 73.8491 75.6852 73.7759 75.812C72.8536 77.3491 71.9314 78.8862 71.0092 80.4183C70.1992 81.7553 69.1501 81.8481 68.0668 80.6672C67.7789 80.35 67.5593 79.9743 67.3056 79.623C66.0028 77.8176 64.739 75.9877 63.3825 74.2213C62.4456 73.0014 61.6941 72.977 60.8061 74.1725C59.3081 76.1878 57.8344 78.2274 56.4926 80.3451C55.7802 81.4674 54.9506 81.9359 53.5307 81.7895C52.2181 79.2619 51.008 76.6659 49.5441 74.2213C48.6756 72.7721 47.7972 71.4546 48.5487 69.7322C43.596 68.322 37.4087 77.0417 38.9555 83.4339L38.9653 83.4387ZM52.3303 88.3817C49.3489 85.8297 47.9436 82.3116 44.4499 80.6672C43.1519 82.4287 41.9174 84.0048 40.8 85.659C40.0632 86.752 40.3316 87.4595 41.6149 87.9865C42.4639 88.333 43.3764 88.6501 44.2791 88.7281C46.348 88.9087 48.4267 88.977 50.5054 89.0063C50.9836 89.0112 51.4666 88.6891 52.3352 88.3817H52.3303ZM97.2562 86.3226C96.6072 83.5412 94.953 81.648 93.4599 79.6815C93.0012 79.0813 92.3181 79.1301 91.8253 79.7986C90.3907 81.7651 88.9415 83.7267 87.5508 85.7224C87.341 86.02 87.2141 86.6056 87.3703 86.8593C87.5362 87.1277 88.0924 87.2838 88.4682 87.2643C90.542 87.1423 92.6157 86.9764 94.6847 86.7763C95.5044 86.6983 96.3096 86.4934 97.2611 86.3226H97.2562ZM52.3157 69.2491C51.8326 71.6937 52.4133 73.9236 53.5551 76.0414C54.043 76.949 54.6969 77.0563 55.4435 76.2219C57.1123 74.353 58.7128 72.4208 60.2498 70.4446C60.8744 69.6394 60.4645 69.0637 59.3617 68.8685C57.0147 68.4586 54.7018 68.6245 52.3157 69.2491ZM69.072 76.827C71.3215 74.3335 72.7512 71.9182 74.3321 69.5516C73.083 68.9905 68.6719 68.8197 65.6612 69.1563C65.2952 69.1954 64.9586 69.4833 64.3925 69.7663C65.9393 72.0987 67.3788 74.2701 69.072 76.827ZM77.7917 68.3805C77.7088 68.5708 77.6307 68.7563 77.5477 68.9466C78.4944 70.4397 79.3971 71.9621 80.4023 73.4113C80.8073 73.9919 81.4709 73.8456 81.9003 73.3625C83.2958 71.7913 84.6475 70.1762 86.3065 68.2439C83.1787 67.9072 80.4852 68.2341 77.7868 68.3854L77.7917 68.3805ZM98.8713 88.8941C98.7737 89.0551 98.6761 89.2113 98.5785 89.3723C98.7005 89.4406 98.8713 89.5919 98.9298 89.5577C99.0811 89.465 99.1787 89.2893 99.2958 89.1478C99.1787 89.0795 99.0665 89.0112 98.8762 88.8941H98.8713Z" fill="black"/>
  <path d="M55.1946 17.1405C55.1506 19.0533 54.6578 19.7364 53.3745 19.6584C52.1595 19.5852 50.642 18.014 50.6127 16.7892C50.5834 15.5693 51.5983 14.9398 53.4721 15.0228C54.7944 15.0814 55.2287 15.6181 55.1946 17.1356V17.1405Z" fill="black"/>
  <path d="M98.676 17.204C98.3442 17.6529 98.1539 18.1604 97.7928 18.3556C97.0023 18.785 96.1484 19.151 95.2749 19.3608C94.909 19.4486 94.2893 19.1997 94.0307 18.8972C93.4744 18.2384 93.7574 16.3305 94.3771 15.7157C95.1334 14.9692 97.0413 14.6276 97.7342 15.2912C98.188 15.7255 98.3344 16.4818 98.6711 17.204H98.676Z" fill="black"/>
  <path d="M38.9652 83.4387C37.4233 77.0514 43.6057 68.3268 48.5584 69.737C47.807 71.4595 48.6853 72.7721 49.5538 74.2262C51.0177 76.6708 52.2278 79.2667 53.5404 81.7943C54.9603 81.9407 55.7947 81.4723 56.5023 80.35C57.8442 78.2323 59.3178 76.1878 60.8158 74.1774C61.7039 72.9819 62.4553 73.0063 63.3922 74.2262C64.7438 75.9926 66.0125 77.8224 67.3153 79.6278C67.5691 79.9792 67.7886 80.3548 68.0765 80.672C69.1598 81.8529 70.2089 81.7602 71.0189 80.4232C71.946 78.891 72.8634 77.354 73.7856 75.8169C73.8588 75.6949 73.9271 75.5632 74.01 75.4461C75.713 73.0746 76.5132 73.1088 77.9966 75.5973C78.4748 76.3976 78.9433 77.2124 79.5142 77.9493C80.4901 79.2082 81.7197 79.1789 82.7298 77.92C84.301 75.9584 85.8185 73.9529 87.4239 72.0206C88.6145 70.5811 89.8734 69.1954 91.1714 67.8584C91.591 67.4241 92.2205 67.0435 92.806 66.9459C95.7825 66.4433 98.7542 66.1261 101.74 67.0825C103.209 67.5558 104.131 68.4049 104.458 69.8395C105.059 72.4988 105.605 75.1679 106.103 77.8468C106.381 79.3497 106.103 80.7989 105.698 82.2969C104.966 85.0344 102.936 85.7419 100.555 86.0883C99.7496 86.2055 99.0567 86.0054 99.003 85.0588C98.8908 83.024 97.7685 81.4186 96.8511 79.7156C96.1095 78.3347 95.4263 76.9246 94.7481 75.5095C94.3089 74.597 93.6648 73.9822 92.6303 73.9041C91.6544 73.8309 91.43 74.5873 90.9859 75.285C88.878 78.6178 86.6432 81.8724 84.4718 85.1661C84.1643 85.6297 83.774 86.1469 83.7447 86.6592C83.6618 88.045 82.7981 88.2841 81.6953 88.328C76.8109 88.5281 71.9265 88.7379 67.0421 88.9331C64.2363 89.0453 61.4306 89.0795 58.6298 89.2356C57.444 89.3039 56.5804 88.9526 55.7948 88.0596C52.9158 84.7757 49.9832 81.5357 47.0701 78.2762C46.8798 78.0615 46.6993 77.837 46.4895 77.6418C44.9231 76.1731 44.3571 76.217 43.1128 77.9883C42.0393 79.5156 41.0293 81.0917 39.9607 82.6238C39.7704 82.8971 39.4386 83.0679 38.975 83.4436L38.9652 83.4387Z" fill="#ED1C24"/>
  <path d="M52.3302 88.3769C51.4665 88.6843 50.9786 89.0112 50.5004 89.0015C48.4217 88.9722 46.343 88.9087 44.2741 88.7233C43.3714 88.6452 42.4589 88.3281 41.6098 87.9817C40.3265 87.4547 40.0582 86.752 40.795 85.6541C41.9124 84 43.1469 82.4239 44.4449 80.6624C47.9435 82.3068 49.3439 85.8249 52.3253 88.3769H52.3302Z" fill="white"/>
  <path d="M97.256 86.3177C96.3094 86.4884 95.4994 86.6933 94.6797 86.7714C92.6107 86.9715 90.5369 87.1374 88.4631 87.2594C88.0874 87.2789 87.5311 87.1228 87.3652 86.8544C87.2091 86.6007 87.336 86.0151 87.5458 85.7175C88.9413 83.7218 90.3857 81.7602 91.8203 79.7937C92.3082 79.1252 92.9962 79.0764 93.4549 79.6766C94.948 81.6431 96.6071 83.5363 97.2512 86.3177H97.256Z" fill="white"/>
  <path d="M52.3157 69.2442C54.7018 68.6196 57.0098 68.4537 59.3618 68.8636C60.4645 69.0539 60.8744 69.6345 60.2498 70.4397C58.7128 72.4159 57.1123 74.353 55.4435 76.217C54.6969 77.0514 54.0431 76.9441 53.5551 76.0365C52.4133 73.9188 51.8327 71.6888 52.3157 69.2442Z" fill="white"/>
  <path d="M69.072 76.8221C67.3788 74.2653 65.9394 72.0938 64.3926 69.7614C64.9586 69.4784 65.2953 69.1954 65.6613 69.1515C68.6719 68.8099 73.0781 68.9856 74.3322 69.5467C72.7512 71.9133 71.3215 74.3287 69.072 76.8221Z" fill="white"/>
  <path d="M77.7916 68.3805C80.49 68.2292 83.1835 67.9023 86.3112 68.239C84.6522 70.1761 83.3006 71.7864 81.905 73.3576C81.4756 73.8407 80.812 73.9871 80.407 73.4064C79.4018 71.9572 78.4991 70.4348 77.5525 68.9416C77.6354 68.7513 77.7135 68.5659 77.7965 68.3756L77.7916 68.3805Z" fill="white"/>
  <path d="M98.8711 88.8892C99.0614 89.0063 99.1785 89.0746 99.2908 89.143C99.1737 89.2845 99.0761 89.4601 98.9248 89.5528C98.8711 89.587 98.6955 89.4357 98.5735 89.3674C98.6711 89.2064 98.7687 89.0502 98.8663 88.8892H98.8711Z" fill="white"/>
  <path d="M119.916 66.7996C119.77 66.8142 119.624 66.824 119.482 66.8386C120.043 72.9136 120.629 78.9886 121.161 85.0637C121.268 86.2787 121.385 87.4986 121.468 88.7136C121.741 85.8737 121.41 83.0289 121.161 80.189C120.756 75.5339 120.317 70.8789 119.882 66.2287C119.897 66.419 119.907 66.6142 119.921 66.8045L119.916 66.7996Z" fill="#FFC34F"/>
  <path d="M88.3264 96.4622C92.1227 96.5452 95.9189 96.877 99.7152 97.0526C102.399 97.1746 104.575 95.7693 105.971 93.8175C107.737 91.3485 108.972 88.4598 109.055 85.2832C109.084 84.156 109.03 83.0386 108.913 81.9359C108.542 84.5122 107.449 86.8739 105.971 88.938C104.575 90.8898 102.399 92.2951 99.7152 92.1731C95.9189 91.9974 92.1276 91.6656 88.3264 91.5827C83.8763 91.4851 79.4164 91.4802 74.9662 91.6315C67.4225 91.8852 59.8885 92.3829 52.3447 92.6025C48.7631 92.705 45.0986 92.8075 41.5951 92.1926C37.4768 91.4705 34.4466 89.4601 33.6415 85.6931C33.6171 86.0249 33.5829 86.3567 33.5439 86.6885C32.7095 93.0221 36.2374 96.1255 41.5951 97.0673C43.5323 97.4089 45.5231 97.526 47.5189 97.5455C48.5485 97.2283 49.5731 96.9404 50.6125 96.9209C53.3011 96.8672 56.0044 97.0087 58.693 97.2381C64.1142 96.999 69.5402 96.6916 74.9662 96.5061C79.4164 96.3549 83.8763 96.3646 88.3264 96.4573V96.4622Z" fill="#FFC34F"/>
  <path d="M17.0511 83.1557C17.7733 80.1646 18.1393 77.1295 18.0075 74.0652C17.8367 70.1225 18.9737 66.497 20.579 63.0472C22.7846 58.2994 25.1951 53.6346 27.7471 49.0576C30.0892 44.8563 33.4805 41.7773 38.2722 40.4208C39.414 40.0987 40.4046 39.279 41.5122 38.8057C42.5516 38.3616 43.6397 37.8493 44.7376 37.7614C48.5339 37.4638 52.3448 37.2735 56.1508 37.1662C64.8461 36.9173 73.5463 36.6636 82.2466 36.566C88.5021 36.4977 94.7626 36.5611 101.008 36.7855C105.234 36.9368 109.45 37.4589 113.666 37.8493C115.779 38.0445 117.111 39.1131 117.423 41.3138C117.848 44.2952 118.477 47.257 118.745 50.2481C119.097 54.142 119.346 58.0408 119.594 61.9395C119.702 61.9298 119.809 61.92 119.912 61.9102C119.531 56.3964 119.238 50.8727 118.741 45.3686C118.472 42.3726 117.843 39.4156 117.418 36.4342C117.106 34.2287 115.769 33.1601 113.661 32.9698C109.445 32.5794 105.229 32.0573 101.003 31.906C94.7528 31.6815 88.4924 31.6181 82.2417 31.6865C73.5415 31.784 64.8413 32.0378 56.1459 32.2866C52.3399 32.394 48.529 32.5843 44.7327 32.8819C43.6348 32.9697 42.5467 33.4821 41.5073 33.9261C40.3997 34.3995 39.4043 35.2143 38.2673 35.5412C33.4805 36.8977 30.0844 39.9768 27.7422 44.178C25.1902 48.7502 22.7797 53.415 20.5741 58.1676C18.9737 61.6175 17.8367 65.2381 18.0026 69.1856C18.149 72.6404 17.6708 76.0609 16.7583 79.418C16.5827 80.067 16.6168 80.8135 16.7291 81.4869C16.8218 82.0432 16.934 82.5995 17.0462 83.1557H17.0511Z" fill="#FFC34F"/>
  <path d="M48.5633 73.831C47.8118 75.5534 48.6901 76.866 49.5587 78.3201C50.8566 80.4915 51.9594 82.78 53.111 85.0343C53.3696 85.3271 53.6282 85.615 53.8868 85.9078C55.1018 85.9468 55.863 85.4735 56.512 84.4439C57.8539 82.3262 59.3275 80.2817 60.8255 78.2713C61.7136 77.0758 62.465 77.1002 63.4019 78.3201C64.7535 80.0865 66.0222 81.9163 67.3251 83.7217C67.5788 84.073 67.7984 84.4488 68.0863 84.7659C69.1695 85.9468 70.2186 85.8541 71.0286 84.5171C71.9557 82.9849 72.8731 81.4479 73.7953 79.9108C73.8685 79.7888 73.9368 79.6571 74.0198 79.54C75.7227 77.1685 76.523 77.2027 78.0063 79.6913C78.4845 80.4915 78.953 81.3064 79.5239 82.0432C80.4998 83.3021 81.7294 83.2728 82.7395 82.0139C84.3107 80.0523 85.8282 78.0468 87.4336 76.1145C88.6242 74.6751 89.8831 73.2893 91.1811 71.9523C91.6007 71.518 92.2302 71.1374 92.8157 71.0398C95.7922 70.5372 98.7639 70.2201 101.75 71.1765C103.219 71.6498 104.141 72.4988 104.468 73.9334C105.015 76.3488 105.507 78.7788 105.971 81.2137C106.21 80.0914 106.322 78.9837 106.112 77.8468C105.615 75.1679 105.068 72.4988 104.468 69.8395C104.146 68.4049 103.224 67.5558 101.75 67.0825C98.7639 66.1261 95.7922 66.4433 92.8157 66.9459C92.2302 67.0435 91.6056 67.429 91.1811 67.8584C89.8783 69.1954 88.6242 70.586 87.4336 72.0206C85.8282 73.9529 84.3107 75.9584 82.7395 77.92C81.7294 79.1789 80.4998 79.2082 79.5239 77.9493C78.953 77.2173 78.4845 76.4025 78.0063 75.5973C76.5278 73.1088 75.7276 73.0746 74.0198 75.4461C73.9368 75.5632 73.8685 75.69 73.7953 75.8169C72.8731 77.354 71.9508 78.891 71.0286 80.4232C70.2186 81.7602 69.1695 81.8529 68.0863 80.672C67.7984 80.3548 67.5788 79.9792 67.3251 79.6278C66.0222 77.8224 64.7584 75.9926 63.4019 74.2262C62.465 73.0063 61.7136 72.9819 60.8255 74.1774C59.3275 76.1926 57.8539 78.2323 56.512 80.35C55.7996 81.4723 54.9701 81.9407 53.5501 81.7943C52.2375 79.2667 51.0274 76.6708 49.5636 74.2262C48.695 72.7769 47.8167 71.4595 48.5681 69.737C43.6496 68.3366 37.5209 76.9245 38.9457 83.3021C39.9802 77.92 44.6547 72.7184 48.5681 73.831H48.5633Z" fill="#870B20"/>
</svg>