<svg xmlns="http://www.w3.org/2000/svg" width="125" height="143" viewBox="0 0 125 143" fill="none">
  <path d="M68.2747 22.5245C68.6138 22.6313 68.7583 22.7318 68.8902 22.713C72.7843 22.1917 76.7036 22.4303 80.6103 22.3047C82.3627 22.2482 84.1213 22.2042 85.8737 22.2608C87.0671 22.2984 88.2856 22.4052 89.4412 22.6816C92.4058 23.3976 95.452 23.8561 98.1214 25.5142C101.143 27.386 104.377 28.931 107.153 31.1984C110.413 33.8678 112.454 37.4605 114.54 41.0029C115.45 42.5543 116.229 44.181 117.077 45.7701C118.823 49.0424 119.684 52.5848 120.305 56.2152C120.651 58.2376 121.21 60.2287 121.53 62.2574C121.989 65.178 122.347 68.1175 122.699 71.0506C123.314 76.2324 124.017 81.4078 124.445 86.6084C124.947 92.7071 125.267 98.8184 124.696 104.955C124.275 109.471 123.144 113.836 122.322 118.27C121.606 122.146 119.847 125.474 117.467 128.483C116.336 129.915 114.847 131.115 113.359 132.208C111.632 133.476 109.76 134.569 107.882 135.606C106.846 136.177 105.684 136.617 104.522 136.855C102.669 137.239 100.766 137.615 98.8814 137.634C90.2954 137.735 81.7032 137.653 73.1172 137.772C71.3397 137.798 69.5685 138.357 67.8036 138.721C64.2172 139.462 60.6246 140.165 57.0696 141.026C50.6254 142.59 44.0996 143.048 37.4984 142.791C37.3476 142.791 37.1969 142.803 37.0461 142.778C32.4925 142.1 27.8698 141.61 23.7244 139.418C21.9218 138.463 20.2762 137.182 18.6432 135.945C17.1295 134.795 15.7288 133.501 14.2842 132.27C12.5947 130.838 11.1878 129.186 9.84993 127.396C8.22318 125.223 7.2308 122.799 6.20702 120.362C5.10786 117.73 4.00871 115.092 3.07914 112.398C2.40081 110.425 1.96742 108.365 1.49636 106.33C1.13835 104.773 0.912238 103.184 0.591913 101.613C-0.0298941 98.5923 -0.161793 95.5335 0.196217 92.4873C0.416048 90.603 0.912238 88.7565 1.28909 86.891C1.35818 86.5456 1.47124 86.2064 1.49008 85.861C1.6157 83.6564 1.6785 81.4518 1.83553 79.2472C2.05536 76.0942 2.34428 72.9475 2.56411 69.7945C2.62064 69.0093 2.62692 68.1803 2.45105 67.4203C1.75388 64.3615 1.45239 61.3027 1.84809 58.1623C2.09932 56.1398 2.87815 54.3812 3.96475 52.7544C6.62784 48.7472 9.39771 44.8028 12.1048 40.827C15.4839 35.8589 19.5665 31.5125 24.0133 27.5053C24.5974 26.9777 25.3135 26.5506 26.0358 26.2303C28.8936 24.9741 31.9209 24.2455 34.9672 23.63C35.8465 23.4541 36.7635 23.4667 37.6679 23.4604C41.179 23.4541 44.7025 23.2217 48.1696 24.0194C48.9358 24.1953 49.3001 23.7933 49.4509 23.1087C49.7649 21.6892 50.0036 20.2446 50.3867 18.844C51.1656 15.9924 52.026 13.166 52.8426 10.3208C53.3262 8.63752 53.791 6.95426 54.2809 5.27099C54.5321 4.40422 54.8336 3.55632 55.0974 2.69584C55.4617 1.53388 56.2593 0.836697 57.4213 0.5729C58.1059 0.415878 58.8031 0.258832 59.494 0.233708C62.2513 0.139495 65.0212 0.189751 67.7722 0.00760587C69.1854 -0.0866073 70.0459 0.711081 70.9252 1.47735C71.5156 1.9861 71.2644 2.77119 71.0257 3.4558C70.429 5.20817 69.7381 6.93542 69.2922 8.72547C68.4568 12.0606 68.4882 15.49 68.5008 18.9068C68.5008 19.7484 68.4128 20.5963 68.3626 21.438C68.3438 21.7771 68.3124 22.1163 68.281 22.5183L68.2747 22.5245ZM87.1424 134.318C87.9841 134.437 88.4928 134.569 89.0016 134.575C91.0115 134.619 93.0213 134.601 95.0249 134.651C99.0761 134.751 103.058 134.331 106.827 132.767C110.419 131.272 113.422 129.004 115.595 125.707C116.43 124.444 117.083 123.1 117.529 121.662C118.164 119.608 118.848 117.567 119.363 115.482C119.696 114.125 119.803 112.712 119.954 111.317C120.167 109.333 120.387 107.342 120.5 105.351C120.594 103.705 120.481 102.041 120.557 100.395C120.827 94.8363 121.537 89.284 121.141 83.7066C121.028 82.0924 120.362 80.5159 119.922 78.9331C119.885 78.8075 119.64 78.7447 119.294 78.5249C119.25 79.8941 119.332 81.0875 119.137 82.2369C118.955 83.336 119.112 84.6362 117.837 85.5846C117.781 85.013 117.718 84.6299 117.711 84.2531C117.68 83.2544 117.705 82.2557 117.642 81.2634C117.41 77.5325 116.82 73.8142 116.989 70.0583C116.995 69.8573 116.983 69.6563 116.97 69.4553C116.87 67.86 116.694 66.2646 116.688 64.6693C116.681 62.4584 116.738 60.2538 116.298 58.0681C116.235 57.7415 116.349 57.3771 116.355 57.0317C116.361 56.4978 116.43 55.9388 116.33 55.4238C115.406 50.7006 113.497 46.3479 111.248 42.1272C110.777 41.2479 110.419 40.2994 109.892 39.4578C108.02 36.4367 105.388 34.0688 102.826 31.6947C98.4292 27.6184 92.8518 26.4124 87.1362 25.9916C82.0926 25.6147 77.0114 25.7027 71.949 25.9853C70.9315 26.0418 68.8211 26.6008 68.0611 27.0468C68.394 27.2478 68.6641 27.455 68.9656 27.5932C72.7467 29.3267 76.5843 30.9535 80.3088 32.8064C84.0899 34.6906 87.5947 37.0459 90.8984 39.6776C91.4762 40.1361 92.0667 40.6323 91.9285 41.6059C91.3758 41.7315 90.8482 41.8257 90.3331 41.9764C88.9325 42.391 88.0846 41.1537 86.9226 40.8396C86.8158 40.8082 86.7342 40.3811 86.7719 40.155C86.8786 39.5395 86.5395 39.2066 86.0998 38.9302C84.9127 38.1765 83.7005 37.4668 82.5386 36.688C77.6709 33.4156 72.1877 31.4309 66.874 29.0692C63.3693 27.5116 60.1347 28.6924 56.9251 29.3079C57.0884 31.8831 57.2455 34.3201 57.3962 36.7633C57.459 37.7683 57.4841 38.7669 57.5532 39.7719C57.6663 41.5117 56.8121 42.1083 55.0409 41.4991C55.3047 37.2155 54.9404 31.0226 54.3248 29.3456C53.7156 29.3456 53.1189 29.3519 52.5222 29.3456C49.3629 29.3016 46.2037 29.2765 43.0444 29.1886C42.1902 29.1635 41.5118 29.3958 40.8209 29.8858C39.3889 30.9033 38.3714 32.2725 37.536 33.7548C36.707 35.2308 35.9344 36.7759 35.388 38.3775C34.8855 39.8535 33.868 41.2541 34.3265 42.9877C34.3893 43.2201 34.1004 43.6849 33.8492 43.8356C33.0578 44.3067 32.2036 44.5328 31.2489 43.7853C31.8393 42.0895 32.3606 40.3685 33.0389 38.7167C33.7047 37.0962 34.4647 35.5071 35.3001 33.9746C36.148 32.4295 37.1404 30.9661 38.183 29.2891C35.9972 29.4838 34.069 29.6973 32.1282 29.823C29.5028 29.9925 26.9528 30.3694 24.7419 31.9584C23.85 32.6054 22.9142 33.2021 22.06 33.893C20.6216 35.0549 19.0703 36.1352 17.8581 37.5108C15.9989 39.6148 14.3345 41.8948 12.7015 44.181C11.954 45.2237 11.2568 46.4108 10.9554 47.6355C10.7292 48.5839 10.4026 49.4193 9.97555 50.2672C9.11507 51.9505 8.644 53.7217 8.86383 55.6374C9.02085 56.9815 9.09622 58.3381 9.27209 59.676C9.45423 61.0578 9.24697 62.3642 8.75078 63.6518C8.24831 64.9645 7.70815 66.2709 7.37526 67.6338C6.80998 69.9703 6.32008 72.3319 5.95579 74.7061C5.74852 76.0753 5.85529 77.4948 5.79876 78.8892C5.74224 80.2835 5.74223 81.6905 5.55381 83.0723C5.26489 85.258 4.6682 87.4123 4.51118 89.5981C4.28507 92.7951 4.30391 96.0109 4.26623 99.2204C4.25366 100.42 4.24738 101.639 4.45465 102.813C4.86291 105.131 5.36538 107.429 5.92438 109.716C6.62784 112.58 7.15543 115.488 8.38649 118.22C10.076 121.982 11.8724 125.675 14.5292 128.866C15.2578 129.745 16.1371 130.512 17.0101 131.253C17.6947 131.837 18.4547 132.333 19.2147 132.817C21.1115 134.029 22.9832 135.298 24.9554 136.378C27.5306 137.791 30.4449 138.225 33.2525 138.972C34.829 139.393 36.4055 139.537 38.0134 139.544C39.1816 139.544 40.3499 139.468 41.5181 139.424C41.537 139.305 41.5558 139.179 41.5746 139.06C41.1287 138.909 40.6828 138.777 40.2431 138.608C39.5899 138.357 38.9053 138.156 38.3149 137.804C35.947 136.397 33.5791 134.977 31.274 133.483C29.6347 132.421 27.964 131.353 26.5257 130.047C24.3399 128.062 22.3175 125.889 20.2762 123.747C19.7988 123.251 19.2964 122.629 19.7172 121.662C21.2058 122.686 22.732 123.49 23.9505 124.627C26.0797 126.618 28.2529 128.546 30.6585 130.185C33.5603 132.164 36.506 134.073 39.4392 136.001C39.6841 136.165 39.9856 136.259 40.2745 136.34C41.5244 136.68 42.7743 137 44.0933 137.345C44.2377 137.76 44.3948 138.212 44.6146 138.834C49.9596 138.099 54.9906 136.177 60.3922 135.398C58.5896 134.18 57.0947 132.735 55.8699 131.039C54.6389 129.325 53.4706 127.553 52.2773 125.807C52.7609 125.688 53.1126 125.732 53.3325 125.92C54.0862 126.58 54.8336 127.258 55.5056 127.993C57.5344 130.223 59.5254 132.453 62.3958 133.702C64.0665 134.437 65.6493 134.996 67.4205 134.136C67.7722 133.966 68.1993 133.96 68.595 133.885C70.2846 133.564 71.2078 132.327 71.0069 130.593C70.9315 129.946 70.7493 129.312 70.6677 128.665C70.6363 128.408 70.7493 128.131 70.8561 127.541C71.346 128.006 71.7417 128.232 71.9302 128.577C72.6964 129.972 72.9414 131.466 72.3761 132.993C73.2994 133.552 74.1599 133.351 74.9889 133.307C76.4963 133.219 77.9472 133.282 79.4484 133.64C81.1191 134.035 82.9594 134.362 84.5798 133.37C87.2367 131.755 89.8621 130.097 92.4498 128.376C93.4422 127.717 94.2336 126.762 95.1883 126.04C98.7307 123.37 101.023 119.897 102.022 115.576C102.154 114.998 102.38 114.433 102.989 114.382C103.422 114.345 103.981 114.533 104.302 114.822C104.748 115.218 104.647 115.789 104.383 116.348C103.981 117.209 103.705 118.126 103.309 118.993C102.204 121.411 101.105 123.841 99.0196 125.631C95.5902 128.571 92.1671 131.51 88.072 133.533C87.8271 133.652 87.6386 133.878 87.1236 134.305L87.1424 134.318ZM61.931 3.31764C61.9938 4.59266 62.0566 5.67296 62.1069 6.75955C62.1822 8.40514 62.2011 10.0633 62.333 11.7026C62.5591 14.4913 62.8543 17.2737 63.1118 20.0625C63.206 21.0611 63.2877 22.0598 63.363 23.0522C63.4007 23.5546 63.5703 23.944 64.1293 23.988C65.2222 24.0697 66.0073 23.2783 65.9382 22.1728C65.8314 20.4833 65.6116 18.7875 65.6179 17.0979C65.6241 15.0566 65.7498 13.0028 65.957 10.974C66.1957 8.6878 66.5726 6.4204 66.9117 4.14672C67.0059 3.51235 66.8929 2.94705 66.1769 2.94705C64.7448 2.94705 63.2814 2.7712 61.931 3.31135V3.31764ZM57.5344 4.39165C57.4276 4.36652 57.3208 4.34769 57.214 4.32257C56.0458 5.77973 51.5927 21.7332 51.756 23.9566C52.8049 24.4025 53.9166 24.591 55.0848 24.5281C55.782 24.4905 56.0521 24.1513 56.0521 23.473C56.0521 21.7206 56.0144 19.962 56.1149 18.2096C56.3033 14.8053 56.5734 11.4011 56.8246 8.00315C56.856 7.60746 57.0382 7.23062 57.1135 6.84121C57.2706 6.03097 57.4025 5.20816 57.5406 4.39165H57.5344ZM61.0454 24.4779C60.4613 18.5551 59.7452 12.8018 59.7955 6.99194C59.7955 6.93541 59.6573 6.87889 59.3872 6.68418C59.2114 8.02829 58.9601 9.26564 58.9099 10.5093C58.7152 15.1885 58.2001 19.8615 58.533 24.7103C59.4563 24.6287 60.1786 24.5596 61.0517 24.4842L61.0454 24.4779Z" fill="black"/>
  <path d="M87.1426 134.318C87.6576 133.891 87.8523 133.665 88.091 133.545C92.1798 131.523 95.6092 128.583 99.0386 125.644C101.124 123.854 102.223 121.423 103.328 119.005C103.724 118.138 104 117.221 104.402 116.361C104.666 115.802 104.767 115.23 104.321 114.835C103.994 114.546 103.435 114.357 103.008 114.395C102.399 114.445 102.173 115.01 102.041 115.588C101.048 119.91 98.7559 123.383 95.2072 126.052C94.2525 126.775 93.4611 127.729 92.4688 128.389C89.8873 130.11 87.2556 131.768 84.5988 133.382C82.9721 134.374 81.1318 134.048 79.4673 133.652C77.9599 133.294 76.509 133.231 75.0079 133.319C74.1788 133.363 73.3184 133.564 72.3951 133.005C72.9603 131.479 72.7091 129.99 71.9491 128.59C71.7607 128.244 71.3713 128.018 70.8751 127.553C70.7746 128.138 70.6553 128.414 70.6867 128.678C70.7683 129.325 70.9505 129.959 71.0258 130.606C71.2268 132.346 70.3035 133.583 68.614 133.897C68.2183 133.972 67.7912 133.972 67.4394 134.148C65.662 135.009 64.0792 134.45 62.4147 133.715C59.5507 132.459 57.5533 130.229 55.5246 128.006C54.8526 127.264 54.1051 126.592 53.3514 125.933C53.1316 125.738 52.7799 125.701 52.2962 125.82C53.4896 127.566 54.6516 129.331 55.8889 131.052C57.1074 132.748 58.6085 134.186 60.4111 135.411C55.0096 136.19 49.9786 138.112 44.6336 138.846C44.4137 138.218 44.2567 137.766 44.1123 137.358C42.7933 137.012 41.5371 136.692 40.2935 136.353C40.0046 136.278 39.7031 136.177 39.4581 136.014C36.525 134.086 33.5792 132.176 30.6775 130.198C28.2719 128.558 26.0987 126.63 23.9695 124.639C22.751 123.502 21.2185 122.692 19.7362 121.675C19.3153 122.635 19.8178 123.257 20.2952 123.76C22.3427 125.895 24.3589 128.075 26.5446 130.059C27.983 131.366 29.6537 132.434 31.293 133.495C33.6043 134.996 35.966 136.409 38.3339 137.816C38.9305 138.168 39.6152 138.369 40.2621 138.62C40.7017 138.79 41.1477 138.922 41.5936 139.073C41.5748 139.192 41.5559 139.317 41.5371 139.437C40.3689 139.481 39.2006 139.562 38.0324 139.556C36.4245 139.556 34.848 139.405 33.2715 138.985C30.4639 138.237 27.5496 137.804 24.9744 136.391C23.0022 135.31 21.1305 134.042 19.2337 132.829C18.4737 132.346 17.7137 131.843 17.0291 131.265C16.1561 130.524 15.2767 129.758 14.5482 128.879C11.8913 125.688 10.1013 121.995 8.40546 118.233C7.17441 115.5 6.64681 112.592 5.94335 109.728C5.38436 107.442 4.88189 105.143 4.47363 102.826C4.26636 101.651 4.27264 100.433 4.2852 99.2329C4.32289 96.0234 4.30404 92.8075 4.53016 89.6106C4.68718 87.4186 5.27758 85.2642 5.57278 83.0848C5.75493 81.703 5.75493 80.296 5.81774 78.9017C5.87426 77.5073 5.76749 76.0879 5.97476 74.7186C6.33905 72.3445 6.82896 69.9828 7.39424 67.6464C7.72084 66.2897 8.26728 64.977 8.76975 63.6643C9.26594 62.3704 9.47321 61.0703 9.29106 59.6885C9.1152 58.3444 9.03355 56.994 8.88281 55.6499C8.66297 53.7342 9.13404 51.963 9.99452 50.2797C10.4279 49.4381 10.7482 48.5964 10.9743 47.648C11.2695 46.4233 11.973 45.2362 12.7204 44.1935C14.3535 41.9073 16.0179 39.6273 17.877 37.5232C19.0892 36.1477 20.6406 35.0737 22.0789 33.9055C22.9331 33.2146 23.8627 32.6116 24.7609 31.971C26.9655 30.3819 29.5218 30.005 32.1472 29.8355C34.0817 29.7098 36.0099 29.4963 38.202 29.3016C37.1593 30.9786 36.1607 32.442 35.319 33.9871C34.4774 35.5196 33.7174 37.115 33.0579 38.7292C32.3796 40.3811 31.8583 42.102 31.2679 43.7979C32.2226 44.539 33.0705 44.3192 33.8681 43.8481C34.1194 43.6974 34.4083 43.2326 34.3455 43.0002C33.887 41.2667 34.9045 39.866 35.407 38.39C35.9534 36.7884 36.7259 35.2496 37.555 33.7673C38.3904 32.285 39.4016 30.9158 40.8399 29.8983C41.5308 29.4084 42.2092 29.176 43.0634 29.2011C46.2226 29.289 49.3819 29.3141 52.5412 29.3581C53.1379 29.3644 53.7409 29.3581 54.3438 29.3581C54.9593 31.0414 55.3236 37.2281 55.0598 41.5116C56.831 42.1146 57.6852 41.5242 57.5722 39.7844C57.5094 38.7794 57.478 37.7808 57.4152 36.7758C57.2644 34.3326 57.1074 31.8893 56.9441 29.3204C60.1536 28.7049 63.3883 27.5241 66.893 29.0817C72.2066 31.4434 77.6898 33.4281 82.5575 36.7005C83.7195 37.4856 84.938 38.189 86.1188 38.9427C86.5584 39.2254 86.8976 39.5583 86.7908 40.1675C86.7532 40.3873 86.8285 40.8207 86.9416 40.8521C88.1035 41.1599 88.9515 42.3972 90.3521 41.989C90.8671 41.8382 91.3947 41.744 91.9474 41.6184C92.0856 40.6386 91.4889 40.1487 90.9174 39.6902C87.6136 37.0585 84.1026 34.7031 80.3278 32.8189C76.6032 30.966 72.7656 29.3393 68.9845 27.6057C68.6831 27.4676 68.4067 27.2603 68.0801 27.0593C68.8464 26.6071 70.9567 26.0544 71.968 25.9978C77.0303 25.7215 82.1116 25.6336 87.1551 26.0041C92.8707 26.425 98.4482 27.6309 102.845 31.7072C105.414 34.0876 108.039 36.4555 109.911 39.4703C110.438 40.3183 110.796 41.2604 111.267 42.1397C113.516 46.3605 115.425 50.7131 116.349 55.4363C116.449 55.9576 116.386 56.5104 116.374 57.0442C116.374 57.3897 116.254 57.7477 116.317 58.0806C116.757 60.2663 116.694 62.4709 116.707 64.6818C116.713 66.2771 116.889 67.8725 116.989 69.4678C117.002 69.6688 117.021 69.8698 117.008 70.0708C116.839 73.8267 117.429 77.5388 117.661 81.2759C117.724 82.2683 117.699 83.2732 117.73 84.2656C117.743 84.6487 117.8 85.0256 117.856 85.5971C119.131 84.6487 118.974 83.3548 119.156 82.2494C119.345 81.1 119.263 79.9067 119.313 78.5374C119.659 78.751 119.904 78.82 119.941 78.9457C120.381 80.5284 121.04 82.105 121.16 83.7192C121.562 89.2903 120.846 94.8426 120.576 100.407C120.494 102.059 120.613 103.717 120.519 105.363C120.406 107.354 120.186 109.345 119.973 111.33C119.822 112.724 119.715 114.144 119.382 115.494C118.867 117.579 118.183 119.621 117.548 121.675C117.102 123.113 116.449 124.457 115.614 125.719C113.441 129.017 110.438 131.284 106.846 132.779C103.077 134.343 99.0951 134.77 95.0439 134.663C93.034 134.613 91.0241 134.632 89.0205 134.588C88.5118 134.575 88.0031 134.45 87.1614 134.33L87.1426 134.318ZM101.972 87.1422C102.028 85.4715 101.934 83.8196 101.281 82.262C100.69 80.8676 100.201 80.5285 98.7559 80.6855C98.021 80.7671 97.3113 81.0623 96.5827 81.2382C93.8066 81.8977 91.0053 82.463 88.2606 83.2292C85.7042 83.9452 83.2296 84.9251 80.6921 85.7165C78.3054 86.4576 75.9814 87.3809 73.444 87.6447C70.5548 87.9399 67.6907 88.4612 64.814 88.8946C62.4399 89.2526 60.0783 89.7299 57.6915 89.9686C56.3725 90.1005 54.9656 89.6232 53.6843 89.8681C52.3591 90.1194 51.0652 90.4837 49.7022 90.5025C48.3958 90.5213 47.0831 90.5339 45.7955 90.6909C42.4478 91.1055 39.1001 91.3064 35.7336 91.2687C34.0817 91.2499 32.4235 91.4007 30.7654 91.4132C28.812 91.4321 26.8524 91.4195 24.899 91.3441C23.3916 91.2876 22.7824 91.9471 23.1844 93.4545C23.4293 94.3715 23.869 95.2445 24.0637 96.1678C24.541 98.4729 25.5774 100.539 26.865 102.449C29.5092 106.355 32.3545 110.099 35.8027 113.365C39.5963 116.964 43.8233 119.834 48.7099 121.725C49.5955 122.07 50.456 122.497 51.3604 122.774C53.1756 123.32 55.0159 123.791 56.8562 124.275C59.1361 124.871 61.4286 125.405 63.8154 125.311C64.4686 125.286 65.1281 125.273 65.7687 125.361C69.2546 125.826 72.6903 125.399 76.0819 124.689C79.9321 123.885 83.6316 122.617 86.8851 120.324C88.0721 119.489 89.1462 118.496 90.2893 117.598C90.7541 117.234 91.3068 116.983 91.7716 116.618C92.2301 116.26 92.7263 115.884 93.0278 115.406C93.7689 114.219 94.4095 112.963 95.0942 111.744C96.9847 108.384 99.0762 105.118 99.698 101.193C99.9618 99.5155 100.295 97.8386 100.709 96.193C101.457 93.2158 101.821 90.1885 101.978 87.136L101.972 87.1422ZM54.0675 65.1968C53.9732 65.1968 53.8727 65.1968 53.7785 65.2031C53.6592 64.9581 53.4394 64.7195 53.4268 64.4682C53.3012 61.8868 52.6291 59.431 51.7875 57.0128C51.4609 56.0833 51.0778 55.116 50.4936 54.3435C48.6847 51.9442 46.1724 50.7068 43.2204 50.3488C42.0773 50.2107 40.9153 49.9971 39.7722 50.041C37.4231 50.129 35.0427 50.1541 32.7564 50.6126C30.5142 51.0648 28.5043 52.2457 26.507 53.4453C23.7622 55.1035 22.0789 57.6283 20.3831 60.1407C19.2086 61.8805 18.7061 63.9909 18.3669 66.0887C18.2225 66.9743 18.0529 67.885 18.1031 68.7706C18.3167 72.6396 19.0955 76.4145 20.2449 80.1076C20.8856 82.1741 21.6895 84.1839 23.1404 85.8232C24.3526 87.1987 25.8286 88.166 27.738 88.4109C31.9964 88.9574 36.1167 88.4172 40.1616 87.048C45.3873 85.2768 49.4133 82.1489 51.6996 77.0111C52.045 76.2323 52.3151 75.4033 52.761 74.6872C54.3061 72.2 54.9154 69.4113 55.3927 66.5975C55.5937 65.4229 55.5372 64.1981 55.5121 62.9985C55.5121 62.7661 55.1226 62.54 54.9154 62.3076C54.7332 62.5086 54.4632 62.6845 54.3815 62.9231C54.2747 63.2435 54.3375 63.6203 54.2936 63.9658C54.237 64.374 54.1428 64.7823 54.0675 65.1906V65.1968ZM63.8217 48.3766C63.5893 48.7284 63.4951 48.9733 63.3192 49.1241C62.5341 49.8024 62.0002 50.6377 61.7239 51.6238C61.3219 53.0684 60.744 54.5005 60.6121 55.9765C60.4237 58.112 60.4991 60.2789 60.6121 62.427C60.6561 63.3502 60.9387 64.3112 61.3219 65.1591C62.622 68.0232 64.613 70.4288 66.7925 72.6397C68.8338 74.7061 71.0509 76.6029 73.2681 78.4872C74.6562 79.6617 76.2201 80.585 78.1421 80.585C80.3969 80.585 82.658 80.5661 84.9129 80.5473C85.1076 80.5473 85.3148 80.4908 85.497 80.4217C87.5194 79.6931 89.5544 78.9959 91.558 78.2171C94.0704 77.2373 96.1996 75.6419 98.1592 73.8268C98.624 73.3997 99.0197 72.8218 99.2458 72.2314C99.8299 70.6863 100.351 69.1161 100.785 67.5207C100.979 66.8173 101.111 65.9757 100.917 65.3036C100.031 62.3327 99.5661 59.2363 98.0587 56.4475C96.8026 54.1173 95.5338 51.8751 92.9021 50.8324C92.3997 50.6314 91.9349 50.2986 91.4952 49.9657C89.768 48.6718 87.7707 48.0563 85.7042 47.5538C84.2031 47.1895 82.7271 46.6745 81.2637 46.1657C78.9272 45.3492 76.5656 44.6583 74.0595 44.8782C71.6162 45.0917 69.1793 45.4686 66.7297 45.613C64.255 45.7638 62.264 46.9885 60.2353 48.1756C59.9464 48.3452 59.7705 48.6907 59.4376 49.0738C61.1083 49.5386 62.22 48.3452 63.8217 48.3829V48.3766ZM106.99 125.795C106.971 125.16 106.205 124.469 105.577 124.526C105.118 124.57 104.591 125.28 104.591 125.851C104.591 126.41 105.175 127.013 105.728 127.026C106.337 127.038 107.003 126.391 106.99 125.795ZM27.0974 34.3577C27.6626 34.3577 28.5043 33.5098 28.454 32.9948C28.4163 32.5425 27.6815 31.927 27.179 31.9144C26.5384 31.9019 25.9731 32.5111 25.9982 33.1769C26.0233 33.8364 26.5132 34.364 27.0974 34.3577ZM109.025 122.906C109.773 122.893 110.187 122.516 110.175 121.85C110.162 121.134 109.647 120.557 109.019 120.538C108.447 120.519 107.844 121.197 107.844 121.85C107.844 122.478 108.328 122.912 109.025 122.906ZM25.2319 36.8387C25.188 36.2545 24.4657 35.6076 23.8941 35.6516C23.3414 35.6892 22.8955 36.3236 22.9771 36.9768C23.0525 37.63 23.5738 38.0257 24.2396 37.9503C24.83 37.8813 25.2759 37.3851 25.2382 36.8449L25.2319 36.8387Z" fill="#FF9439"/>
  <path d="M61.9248 3.31131C63.2752 2.77116 64.7386 2.95329 66.1707 2.94701C66.8867 2.94701 66.9998 3.51231 66.9055 4.14668C66.5664 6.42036 66.1832 8.69403 65.9509 10.974C65.7373 13.009 65.618 15.0566 65.6117 17.0979C65.6054 18.7874 65.8252 20.4832 65.932 22.1728C66.0011 23.2782 65.216 24.0696 64.1231 23.988C63.5641 23.944 63.3945 23.5546 63.3568 23.0521C63.2815 22.0535 63.1998 21.0548 63.1056 20.0624C62.8481 17.2737 62.5529 14.4913 62.3268 11.7026C62.1949 10.057 62.176 8.4051 62.1007 6.75951C62.0504 5.67292 61.9876 4.59262 61.9248 3.3176V3.31131Z" fill="#8B9463"/>
  <path d="M57.5281 4.38538C57.3899 5.2019 57.258 6.01839 57.101 6.8349C57.0256 7.22432 56.8435 7.60748 56.8121 7.99689C56.5545 11.4011 56.2907 14.7991 56.1023 18.2033C56.0018 19.9557 56.0395 21.7143 56.0395 23.4667C56.0395 24.145 55.7694 24.4779 55.0722 24.5219C53.904 24.5847 52.7923 24.3962 51.7434 23.9503C51.5801 21.7269 56.0395 5.77971 57.2015 4.31627C57.3082 4.34139 57.415 4.36026 57.5218 4.38538H57.5281Z" fill="#8B9463"/>
  <path d="M61.0391 24.4716C60.1661 24.5533 59.4501 24.6161 58.5205 24.6977C58.1876 19.8489 58.7027 15.1759 58.8974 10.4967C58.9476 9.25306 59.2051 8.0157 59.3747 6.6716C59.6385 6.87258 59.783 6.92911 59.783 6.97935C59.7327 12.7829 60.4487 18.5425 61.0329 24.4653L61.0391 24.4716Z" fill="#6C7249"/>
  <path d="M101.972 87.1359C101.814 90.1947 101.45 93.2158 100.703 96.1929C100.288 97.8385 99.9554 99.5155 99.6916 101.192C99.0698 105.112 96.9719 108.378 95.0877 111.744C94.4031 112.969 93.7624 114.219 93.0213 115.406C92.7198 115.883 92.2236 116.26 91.7651 116.618C91.3003 116.983 90.7476 117.24 90.2828 117.598C89.1334 118.49 88.0594 119.489 86.8786 120.324C83.6251 122.617 79.9256 123.885 76.0754 124.689C72.6838 125.393 69.2481 125.82 65.7622 125.361C65.1216 125.273 64.4558 125.286 63.8089 125.311C61.4222 125.405 59.1296 124.871 56.8497 124.275C55.0157 123.797 53.1754 123.32 51.3539 122.774C50.4495 122.504 49.589 122.07 48.7034 121.725C43.8231 119.834 39.5898 116.97 35.7962 113.365C32.348 110.092 29.5027 106.355 26.8585 102.449C25.5709 100.539 24.5345 98.4729 24.0572 96.1678C23.8625 95.2445 23.4228 94.3715 23.1779 93.4545C22.7759 91.9471 23.3851 91.2812 24.8926 91.3441C26.8459 91.4194 28.8055 91.4257 30.7589 91.4132C32.4171 91.4006 34.0689 91.2436 35.7271 91.2687C39.0999 91.3064 42.4476 91.1054 45.789 90.6909C47.0829 90.5338 48.3956 90.5213 49.6957 90.5024C51.065 90.4836 52.3526 90.113 53.6778 89.8681C54.9591 89.6294 56.366 90.1067 57.685 89.9685C60.0718 89.7236 62.4334 89.2525 64.8075 88.8945C67.6842 88.4612 70.5483 87.9398 73.4375 87.6446C75.975 87.3871 78.2989 86.4638 80.6856 85.7164C83.2231 84.925 85.704 83.9452 88.2541 83.2292C90.9988 82.4566 93.8001 81.8976 96.5762 81.2381C97.3048 81.0623 98.0146 80.7671 98.7494 80.6854C100.194 80.5284 100.69 80.8676 101.274 82.2619C101.934 83.8259 102.028 85.4714 101.965 87.1421L101.972 87.1359ZM49.1305 103.341C48.7913 102.869 48.4835 102.417 48.1507 101.99C46.2475 99.5343 44.2691 97.1476 42.0708 94.9367C41.2354 94.0951 40.4252 93.7245 39.2883 93.8627C37.3538 94.0951 35.413 94.2898 33.4722 94.472C31.3367 94.6729 29.2326 95.301 27.0532 95.0435C26.9778 95.0372 26.8899 95.1377 26.7768 95.2068C26.7517 95.3324 26.67 95.4957 26.7077 95.6151C27.675 98.7304 29.2012 101.513 31.5377 103.824C32.0088 104.289 32.4233 104.371 32.9949 104.025C34.1883 103.303 35.4256 102.65 36.6127 101.927C38.3211 100.885 39.3135 101.211 39.8976 103.058C39.929 103.152 39.9541 103.253 39.9729 103.347C40.1928 104.528 40.4126 105.708 40.6262 106.896C40.802 107.85 40.9653 108.805 41.1977 110.118C41.9828 109.132 42.6298 108.459 43.1134 107.687C43.5405 107.002 44.1623 106.581 44.8343 106.77C45.2866 106.896 45.7451 107.555 45.9021 108.064C46.279 109.301 46.4799 110.595 46.75 111.864C46.8254 112.203 46.9133 112.542 47.0766 113.227C47.7801 112.102 48.3328 111.336 48.7536 110.513C49.1305 109.772 49.5764 109.219 50.462 109.333C51.2471 109.433 51.3853 110.168 51.6365 110.758C51.6931 110.896 51.7496 111.041 51.781 111.185C51.9757 112.115 52.1202 113.057 52.3714 113.968C52.5598 114.646 52.8802 115.293 53.2507 116.235C54.1175 114.891 54.7958 113.848 55.4679 112.812C55.8259 112.259 55.8636 111.393 56.8183 111.405C57.7667 111.418 57.9928 112.228 58.4073 112.831C58.5518 113.038 58.6711 113.258 58.7905 113.478C59.8582 115.557 61.441 117.24 62.9547 118.974C63.1682 119.219 63.4823 119.369 63.9533 119.715C64.079 119.47 64.1418 119.263 64.2674 119.106C65.4294 117.655 66.5034 116.172 67.0938 114.357C67.5963 112.818 68.4316 112.73 69.4554 113.943C69.5496 114.056 69.6375 114.181 69.738 114.294C70.9377 115.639 72.1311 116.995 73.3495 118.327C73.5254 118.521 73.8269 118.597 74.1786 118.785C74.2791 118.44 74.3608 118.22 74.4047 117.988C74.7502 116.166 75.0642 114.338 75.4536 112.529C75.5353 112.146 75.8179 111.65 76.1383 111.506C76.691 111.261 77.1935 111.562 77.5138 112.109C77.7148 112.454 77.9346 112.793 78.1795 113.114C79.0337 114.225 79.8817 115.343 80.7735 116.424C80.9117 116.593 81.2509 116.606 81.6152 116.731C81.7408 115.243 81.9229 113.911 81.9418 112.573C81.9606 111.173 81.8413 109.766 81.7534 108.365C81.7031 107.561 81.8915 106.902 82.6892 106.368C85.2141 108.284 86.8848 111.204 89.9562 112.511C90.0567 112.209 90.1697 112.052 90.1383 111.933C89.5103 109.615 88.857 107.304 88.2415 104.986C88.0908 104.415 87.984 103.805 87.984 103.215C87.984 102.034 88.229 101.821 89.3972 101.839C91.1558 101.871 92.9082 101.908 94.6669 101.94C95.2384 101.952 95.8163 101.921 96.0738 101.306C96.7395 99.6914 97.5749 98.1086 97.9643 96.4253C98.8374 92.6631 98.3537 88.8443 97.9769 85.0506C97.8576 83.8384 97.4304 83.6123 96.281 83.9515C93.8441 84.6801 91.4071 85.4086 88.9638 86.1058C87.582 86.5015 87.5757 86.4764 87.5757 87.8959C87.5757 90.9546 87.5318 94.0197 87.5946 97.0785C87.6197 98.1839 87.3119 99.0256 86.263 99.8107C84.9566 98.5043 83.7256 97.0848 82.2998 95.8914C80.8175 94.6541 79.5237 93.1467 77.6268 92.1983C77.3505 92.7573 77.0427 93.1718 76.9359 93.6366C76.4586 95.6779 76.0315 97.7317 75.6169 99.7918C75.5165 100.301 75.2715 100.564 74.7753 100.715C74.0656 100.929 73.5945 100.828 73.1297 100.15C71.4339 97.6564 69.3863 95.4832 66.8111 93.5549C64.9269 96.6577 64.3742 100.2 62.8354 103.585C62.0565 103.064 61.3217 102.782 60.882 102.254C58.9915 99.9803 57.2014 97.6312 55.3485 95.3262C55.0847 94.9995 54.6953 94.7797 54.2808 94.4468C52.585 97.223 52.1641 100.307 50.9771 103.083C50.3238 103.184 49.746 103.271 49.1305 103.366V103.341ZM61.8367 99.3836C62.9107 96.6263 63.7649 94.2082 64.5186 91.7272C62.7411 91.4383 57.8295 92.1103 56.6298 92.8138C58.0619 95.144 59.9524 97.0848 61.843 99.3836H61.8367ZM78.4622 89.039C78.4245 89.1709 78.3805 89.3091 78.3428 89.441C79.442 90.3517 80.4909 91.3315 81.6529 92.1543C82.796 92.9645 83.6753 94.1453 85.2267 94.9744C85.2581 93.2786 85.3021 91.9031 85.2895 90.5275C85.2895 89.8806 85.2267 89.2274 85.0948 88.5993C84.8687 87.4939 84.5295 87.3055 83.399 87.5253C83.2043 87.563 83.0095 87.6195 82.8211 87.676C81.722 88.0026 80.6291 88.323 79.5362 88.6621C79.1719 88.7752 78.8202 88.9134 78.4622 89.0453V89.039ZM68.3374 90.8039C68.3123 90.9358 68.2809 91.074 68.2558 91.2059C70.027 92.9708 71.7982 94.7357 73.7641 96.6891C74.5241 94.271 75.0203 92.1103 75.1836 89.7675C72.7906 90.1318 70.5671 90.471 68.3374 90.8039ZM49.3252 99.5155C50.4181 97.223 51.222 95.1629 51.8501 92.7761C49.3629 93.153 47.1708 93.4921 44.7401 93.8627C46.2978 95.7846 47.6984 97.5119 49.3252 99.5155ZM88.8319 114.998C87.4438 113.943 86.2316 112.994 84.9817 112.084C84.7808 111.933 84.3662 111.845 84.1903 111.952C84.0019 112.071 83.9203 112.454 83.9014 112.724C83.8135 114.024 83.7632 115.318 83.7004 116.618C83.6753 117.14 83.6502 117.661 83.6125 118.396C85.9804 117.937 87.4941 116.706 88.8256 114.992L88.8319 114.998ZM54.0798 119.665C55.2669 120.425 60.1409 121.266 61.5352 120.94C59.5881 119.407 58.5581 117.19 56.6926 115.557C55.7568 117.027 54.9214 118.346 54.0798 119.665ZM33.7926 106.324C35.5135 107.995 36.9833 109.42 38.453 110.846C38.5535 110.783 38.654 110.721 38.7545 110.658C38.3525 108.522 38.4907 106.274 37.3224 104.094C36.1605 104.829 35.1304 105.482 33.7926 106.324ZM68.5384 116.97C67.0121 119.093 66.3212 120.406 66.2836 121.272C68.2432 121.455 70.1714 121.367 72.4074 120.776C70.9879 119.382 69.8134 118.22 68.5384 116.97ZM91.941 110.124C92.0854 110.13 92.2362 110.136 92.3806 110.143C93.059 108.673 93.7624 107.21 94.4156 105.727C94.6669 105.162 94.4282 104.741 93.7875 104.66C93.2976 104.597 92.7952 104.597 92.299 104.584C90.7099 104.54 90.5529 104.754 90.9988 106.255C91.0993 106.588 91.1056 106.939 91.1935 107.279C91.4322 108.233 91.696 109.175 91.9472 110.13L91.941 110.124ZM77.0992 115.965C76.8103 117.498 76.5591 118.641 76.3895 119.79C76.3204 120.268 76.647 120.538 77.1369 120.45C78.1481 120.268 79.1468 120.054 80.4784 119.784C79.3038 118.459 78.324 117.347 77.0992 115.959V115.965ZM47.6984 117.535C48.8101 118.063 49.7648 118.521 50.7572 118.999C50.9645 117.686 50.3427 115.243 49.589 114.213C48.5338 114.973 48.383 116.229 47.6922 117.535H47.6984ZM44.0492 110.909C43.9362 110.878 43.8231 110.846 43.7101 110.815C43.195 111.525 42.6423 112.215 42.1964 112.963C42.0582 113.195 42.0582 113.717 42.2215 113.892C42.9124 114.627 43.6724 115.299 44.8218 115.695C44.5454 113.974 44.3005 112.442 44.0555 110.909H44.0492Z" fill="black"/>
  <path d="M54.0673 65.1969C54.1427 64.7886 54.2369 64.3804 54.2934 63.9722C54.3374 63.6267 54.2809 63.2498 54.3814 62.9295C54.4567 62.6908 54.7268 62.515 54.9152 62.314C55.1225 62.5464 55.5119 62.7725 55.5119 63.0049C55.5371 64.2045 55.5936 65.4293 55.3926 66.6039C54.9153 69.4177 54.306 72.2064 52.7609 74.6936C52.315 75.4096 52.0449 76.2387 51.6994 77.0175C49.4132 82.1553 45.3872 85.2832 40.1615 87.0544C36.1166 88.4236 31.9963 88.9638 27.7379 88.4173C25.8285 88.1724 24.3525 87.1988 23.1403 85.8296C21.6894 84.1903 20.8854 82.1741 20.2448 80.114C19.0954 76.4208 18.3166 72.646 18.103 68.777C18.0528 67.8914 18.2223 66.9807 18.3668 66.0951C18.706 64.0036 19.2084 61.8869 20.383 60.1471C22.0788 57.641 23.7621 55.1098 26.5068 53.4517C28.5041 52.2458 30.514 51.0712 32.7563 50.619C35.0425 50.1605 37.4293 50.1354 39.7721 50.0474C40.9152 50.0035 42.0709 50.217 43.2203 50.3552C46.1785 50.7132 48.6909 51.9506 50.4935 54.3498C51.0776 55.1287 51.4608 56.0897 51.7874 57.0192C52.629 59.4311 53.3073 61.8932 53.4267 64.4746C53.4392 64.7259 53.6528 64.9645 53.7784 65.2095C53.8726 65.2095 53.9731 65.2095 54.0673 65.2032V65.1969ZM37.8124 54.3059C35.4508 54.6513 32.3732 55.0596 29.3081 55.5558C26.9402 55.9389 25.4014 57.4526 24.3336 59.5064C22.8451 62.3768 22.4117 65.4858 22.2986 68.6514C22.2358 70.4477 22.3991 72.2189 22.7885 74.0153C23.2722 76.2199 24.0698 78.123 25.8725 79.4859C27.6185 80.8112 29.44 82.036 31.2426 83.2859C31.4813 83.4492 31.7953 83.5559 32.0843 83.5748C33.4346 83.669 34.7976 83.7381 36.0852 83.1665C37.737 82.4379 39.414 81.7722 41.0219 80.9619C43.3522 79.7874 45.2615 78.1167 46.4989 75.7676C47.7048 73.4688 48.9233 71.1763 50.0915 68.8587C50.3805 68.2871 50.5689 67.6527 50.6945 67.0247C51.2598 64.1606 50.6631 61.4409 49.4509 58.8469C48.603 57.0318 47.5603 55.3736 45.1924 55.3987C45.0982 55.3987 44.9977 55.3485 44.9035 55.3108C42.8622 54.4503 40.6828 54.5508 37.8061 54.3059H37.8124ZM27.7316 84.8875C28.1085 85.2329 28.3597 85.547 28.6863 85.7291C28.8308 85.8045 29.2202 85.6726 29.3144 85.5219C29.4086 85.3774 29.3144 85.0508 29.2013 84.8623C29.1134 84.7116 28.8684 84.6613 28.7051 84.5483C27.2919 83.5434 25.885 82.5321 24.4781 81.5272C24.2269 81.345 23.9756 81.1566 23.7244 80.9682C23.6553 81.0499 23.5862 81.1252 23.5171 81.2069C24.365 82.4945 24.9366 84.0521 26.8711 84.1652C26.7832 84.5357 26.7204 84.7995 26.6199 85.2266C27.0847 85.0885 27.3924 84.9942 27.719 84.9L27.7316 84.8875Z" fill="black"/>
  <path d="M63.8216 48.3767C62.2199 48.3391 61.1082 49.5324 59.4375 49.0676C59.7704 48.6845 59.9462 48.339 60.2352 48.1695C62.2639 46.9824 64.2612 45.7576 66.7296 45.6069C69.1791 45.4561 71.6098 45.0856 74.0594 44.872C76.5655 44.6522 78.9271 45.3431 81.2636 46.1596C82.727 46.6746 84.1967 47.1834 85.7041 47.5477C87.7705 48.0501 89.7616 48.6657 91.4951 49.9595C91.9348 50.2924 92.3996 50.6253 92.902 50.8263C95.54 51.8689 96.8024 54.1174 98.0586 56.4414C99.566 59.2301 100.031 62.3266 100.916 65.2974C101.117 65.9695 100.979 66.8111 100.785 67.5146C100.351 69.1036 99.8298 70.6801 99.2457 72.2252C99.0259 72.8156 98.6239 73.3935 98.1591 73.8206C96.1995 75.6358 94.0703 77.2311 91.5579 78.2109C89.5543 78.9897 87.5193 79.6869 85.4969 80.4155C85.3084 80.4846 85.1075 80.5349 84.9127 80.5411C82.6579 80.56 80.3968 80.5788 78.142 80.5788C76.22 80.5788 74.6498 79.6555 73.268 78.481C71.0508 76.5967 68.8274 74.6999 66.7924 72.6335C64.6129 70.4226 62.6219 68.0171 61.3218 65.153C60.9386 64.3051 60.656 63.3441 60.612 62.4208C60.5052 60.2727 60.4299 58.1058 60.612 55.9703C60.7439 54.5006 61.3218 53.0623 61.7237 51.6177C62.0001 50.6316 62.534 49.7899 63.3191 49.1179C63.4949 48.9671 63.5892 48.7285 63.8216 48.3705V48.3767ZM81.1945 77.6519C82.1366 77.5075 83.7696 77.2185 85.4089 77.0238C87.2367 76.8103 88.9011 76.1696 90.4713 75.2526C92.5503 74.0341 94.5036 72.6712 96.1367 70.8309C96.8276 70.0521 97.4808 69.3423 97.6504 68.3311C97.9833 66.3652 98.4543 64.3867 97.7257 62.402C97.418 61.5603 97.1165 60.7124 96.8401 59.8582C96.1178 57.6096 94.6984 55.8698 92.7262 54.6639C89.2466 52.5347 85.5848 50.8137 81.4708 50.2547C80.0325 50.06 78.6193 49.6141 77.1747 49.5073C74.0029 49.2749 70.8561 48.3579 67.6278 49.256C66.6542 49.5261 66.0638 49.9846 65.599 50.8263C64.7825 52.3023 64.4371 53.8976 64.1733 55.5369C63.5829 59.2175 64.412 62.6783 66.1266 65.8376C67.9481 69.1979 70.6677 71.93 73.2052 74.7753C75.1774 76.9799 77.6521 77.7273 81.1945 77.6519Z" fill="black"/>
  <path d="M106.99 125.795C107.009 126.385 106.337 127.038 105.728 127.026C105.181 127.013 104.597 126.41 104.591 125.851C104.591 125.28 105.112 124.57 105.577 124.526C106.205 124.469 106.971 125.154 106.99 125.795Z" fill="black"/>
  <path d="M27.0973 34.3577C26.5194 34.3577 26.0232 33.8364 25.9981 33.1769C25.973 32.5049 26.5383 31.9019 27.1789 31.9145C27.6814 31.9207 28.4163 32.5426 28.4539 32.9948C28.4979 33.5161 27.6626 34.3514 27.0973 34.3577Z" fill="black"/>
  <path d="M109.031 122.906C108.334 122.918 107.844 122.479 107.85 121.85C107.85 121.197 108.46 120.519 109.025 120.538C109.659 120.557 110.168 121.141 110.181 121.85C110.193 122.51 109.772 122.893 109.031 122.906Z" fill="black"/>
  <path d="M25.2381 36.8449C25.2757 37.3851 24.8298 37.8813 24.2394 37.9504C23.5736 38.032 23.0523 37.63 22.9769 36.9768C22.9016 36.3236 23.3412 35.6893 23.894 35.6516C24.4655 35.6139 25.1941 36.2545 25.2318 36.8387L25.2381 36.8449Z" fill="black"/>
  <path d="M49.1305 103.347C49.746 103.253 50.3239 103.165 50.9771 103.064C52.1642 100.288 52.585 97.198 54.2808 94.4281C54.6954 94.761 55.0848 94.9808 55.3486 95.3074C57.2015 97.6125 58.9915 99.9615 60.882 102.235C61.3217 102.763 62.0503 103.052 62.8354 103.567C64.3742 100.188 64.9269 96.6452 66.8112 93.5362C69.3864 95.4644 71.4402 97.6313 73.1298 100.131C73.5945 100.809 74.0593 100.91 74.7754 100.696C75.2715 100.546 75.5165 100.282 75.617 99.7731C76.0315 97.7193 76.4649 95.6654 76.936 93.6178C77.0428 93.1531 77.3505 92.7385 77.6269 92.1795C79.5237 93.1279 80.8176 94.6354 82.2999 95.8727C83.7256 97.0661 84.9567 98.4855 86.2631 99.792C87.3183 99.0068 87.6198 98.1589 87.5946 97.0598C87.5318 94.001 87.5758 90.9359 87.5758 87.8771C87.5758 86.4577 87.5821 86.4828 88.9639 86.0871C91.4071 85.3836 93.8441 84.655 96.2811 83.9327C97.4305 83.5873 97.8576 83.8197 97.9769 85.0319C98.3538 88.8255 98.8374 92.6443 97.9644 96.4065C97.575 98.0898 96.7333 99.6726 96.0738 101.287C95.8226 101.909 95.2385 101.934 94.6669 101.921C92.9083 101.89 91.1559 101.852 89.3972 101.821C88.229 101.802 87.9778 102.015 87.984 103.196C87.984 103.787 88.0908 104.396 88.2416 104.967C88.8571 107.285 89.5166 109.596 90.1384 111.914C90.1698 112.033 90.0567 112.19 89.9562 112.492C86.8912 111.185 85.2142 108.265 82.6893 106.349C81.8853 106.883 81.6969 107.543 81.7534 108.347C81.8413 109.747 81.9607 111.154 81.9418 112.555C81.923 113.893 81.7409 115.23 81.6152 116.713C81.2509 116.587 80.9118 116.581 80.7736 116.405C79.8817 115.325 79.0338 114.207 78.1796 113.095C77.9346 112.775 77.7148 112.442 77.5138 112.09C77.1935 111.543 76.691 111.236 76.1383 111.487C75.818 111.631 75.5353 112.128 75.4537 112.511C75.0643 114.32 74.7502 116.147 74.4048 117.969C74.3608 118.201 74.2792 118.421 74.1787 118.767C73.8269 118.578 73.5255 118.503 73.3496 118.308C72.1311 116.976 70.9377 115.626 69.7381 114.276C69.6376 114.163 69.5559 114.037 69.4554 113.924C68.4317 112.712 67.5963 112.8 67.0938 114.338C66.5034 116.154 65.4294 117.636 64.2674 119.087C64.1418 119.244 64.079 119.445 63.9534 119.696C63.476 119.351 63.162 119.2 62.9547 118.955C61.4348 117.221 59.852 115.538 58.7905 113.459C58.6775 113.239 58.5518 113.019 58.4074 112.812C57.9928 112.209 57.7667 111.405 56.8183 111.386C55.8636 111.374 55.8259 112.241 55.4679 112.793C54.7896 113.836 54.1175 114.879 53.2508 116.216C52.8802 115.274 52.5599 114.627 52.3715 113.949C52.1202 113.038 51.9758 112.096 51.7811 111.167C51.7497 111.022 51.6994 110.878 51.6366 110.74C51.3791 110.149 51.2472 109.421 50.4621 109.314C49.5765 109.201 49.1305 109.753 48.7537 110.495C48.3328 111.324 47.7801 112.084 47.0767 113.208C46.9134 112.523 46.8254 112.184 46.7501 111.845C46.4737 110.576 46.279 109.282 45.9022 108.045C45.7451 107.536 45.2866 106.877 44.8344 106.751C44.1623 106.563 43.5468 106.99 43.1134 107.668C42.6235 108.441 41.9829 109.119 41.1978 110.099C40.9654 108.792 40.8021 107.831 40.6262 106.877C40.4127 105.696 40.1928 104.509 39.973 103.328C39.9542 103.228 39.929 103.133 39.8976 103.039C39.3135 101.193 38.3211 100.866 36.6127 101.909C35.4194 102.637 34.1883 103.29 32.9949 104.006C32.4234 104.352 32.0088 104.27 31.5378 103.805C29.2013 101.494 27.675 98.7116 26.7078 95.5963C26.6701 95.4707 26.7517 95.3137 26.7769 95.1881C26.8836 95.119 26.9779 95.0122 27.0532 95.0248C29.2327 95.2886 31.3368 94.6542 33.4723 94.4532C35.4131 94.2711 37.3539 94.0764 39.2884 93.844C40.4252 93.7121 41.2355 94.0826 42.0708 94.918C44.2691 97.1289 46.2476 99.5156 48.1507 101.971C48.4836 102.399 48.7851 102.851 49.1305 103.322V103.347Z" fill="#ED1C24"/>
  <path d="M61.8367 99.3899C59.9461 97.0911 58.0619 95.1566 56.6235 92.8201C57.8232 92.1167 62.7411 91.4383 64.5123 91.7335C63.7586 94.2145 62.9044 96.6326 61.8304 99.3899H61.8367Z" fill="white"/>
  <path d="M78.4624 89.0454C78.8204 88.9198 79.1721 88.7753 79.5364 88.6623C80.6293 88.3294 81.7284 88.0028 82.8213 87.6762C83.0097 87.6197 83.2044 87.5631 83.3991 87.5254C84.5297 87.3056 84.8689 87.494 85.095 88.5995C85.2269 89.2275 85.2834 89.887 85.2897 90.5277C85.3022 91.9032 85.252 93.2787 85.2269 94.9746C83.6755 94.1455 82.7962 92.9647 81.653 92.1545C80.4911 91.3317 79.4422 90.3518 78.343 89.4411C78.3807 89.3092 78.4247 89.171 78.4624 89.0391V89.0454Z" fill="white"/>
  <path d="M68.3439 90.804C70.5673 90.4649 72.797 90.132 75.19 89.7677C75.0267 92.1104 74.5305 94.2711 73.7705 96.6892C71.8109 94.7359 70.0334 92.9709 68.2622 91.206C68.2873 91.0741 68.3187 90.9359 68.3439 90.804Z" fill="white"/>
  <path d="M49.3253 99.5156C47.6985 97.5057 46.2979 95.7785 44.7402 93.8628C47.1709 93.4923 49.363 93.1594 51.8502 92.7762C51.2221 95.163 50.4182 97.2231 49.3253 99.5156Z" fill="white"/>
  <path d="M88.832 115.004C87.4942 116.719 85.9868 117.95 83.6189 118.408C83.6566 117.667 83.6817 117.146 83.7068 116.631C83.7696 115.331 83.8199 114.031 83.9078 112.737C83.9267 112.46 84.0083 112.084 84.1967 111.964C84.3663 111.857 84.7809 111.945 84.9881 112.096C86.2317 113.007 87.4502 113.955 88.8383 115.01L88.832 115.004Z" fill="white"/>
  <path d="M54.0798 119.665C54.9152 118.346 55.7568 117.027 56.6927 115.557C58.5581 117.19 59.5945 119.407 61.5352 120.94C60.1409 121.266 55.2669 120.418 54.0798 119.665Z" fill="white"/>
  <path d="M33.7988 106.324C35.1304 105.482 36.1667 104.829 37.3287 104.094C38.4969 106.274 38.3587 108.522 38.7607 110.658C38.6602 110.721 38.5597 110.784 38.4592 110.846C36.9895 109.421 35.5198 107.995 33.7988 106.324Z" fill="white"/>
  <path d="M68.5446 116.964C69.8197 118.214 70.9942 119.376 72.4137 120.77C70.1777 121.361 68.2494 121.448 66.2898 121.266C66.3275 120.4 67.0184 119.093 68.5446 116.964Z" fill="white"/>
  <path d="M91.9474 110.118C91.6961 109.169 91.4386 108.221 91.1937 107.266C91.1057 106.933 91.0995 106.575 90.999 106.242C90.553 104.741 90.71 104.528 92.2991 104.572C92.7953 104.584 93.2978 104.584 93.7877 104.647C94.4283 104.729 94.667 105.149 94.4157 105.715C93.7625 107.197 93.0654 108.661 92.3808 110.13C92.2363 110.124 92.0856 110.118 91.9411 110.111L91.9474 110.118Z" fill="white"/>
  <path d="M77.1056 115.959C78.3304 117.347 79.3102 118.459 80.4847 119.784C79.1532 120.048 78.1545 120.268 77.1433 120.45C76.6534 120.538 76.3205 120.268 76.3959 119.79C76.5655 118.635 76.8167 117.498 77.1056 115.965V115.959Z" fill="white"/>
  <path d="M47.7048 117.529C48.3957 116.216 48.5465 114.966 49.6017 114.207C50.3554 115.237 50.9709 117.68 50.7699 118.993C49.7712 118.515 48.8228 118.063 47.7111 117.529H47.7048Z" fill="white"/>
  <path d="M44.0555 110.903C44.3005 112.435 44.5454 113.968 44.8218 115.689C43.6724 115.293 42.9124 114.621 42.2215 113.886C42.0582 113.71 42.0582 113.189 42.1964 112.957C42.6486 112.209 43.2013 111.518 43.7101 110.809C43.8231 110.84 43.9362 110.871 44.0493 110.903H44.0555Z" fill="white"/>
  <path d="M37.8123 54.3058C40.689 54.5571 42.8684 54.4566 44.9097 55.3108C45.0039 55.3485 45.0981 55.3987 45.1986 55.3987C47.5728 55.3736 48.6092 57.0317 49.4571 58.8469C50.663 61.4409 51.2597 64.1543 50.7007 67.0246C50.5751 67.6527 50.3866 68.2934 50.0977 68.8586C48.9295 71.1763 47.711 73.4688 46.5051 75.7676C45.2677 78.1167 43.3583 79.7874 41.0281 80.9619C39.4202 81.7721 37.737 82.4379 36.0914 83.1665C34.8038 83.7381 33.4471 83.6627 32.0904 83.5747C31.8015 83.5559 31.4875 83.4491 31.2488 83.2858C29.4462 82.0359 27.6247 80.8049 25.8787 79.4859C24.0823 78.1229 23.2784 76.2198 22.7947 74.0153C22.4053 72.2189 22.242 70.454 22.3048 68.6514C22.4179 65.4858 22.8513 62.3705 24.3398 59.5064C25.4076 57.4463 26.9464 55.9389 29.3143 55.5557C32.3794 55.0595 35.457 54.6513 37.8186 54.3058H37.8123ZM29.3269 65.6114C28.347 65.4858 27.5431 65.6366 26.9024 66.4782C25.9101 67.7909 26.1613 70.0709 27.4803 71.0758C27.9953 71.4652 28.6297 71.7102 29.107 72.131C30.426 73.3181 32.1281 72.847 33.5099 71.8734C34.2071 71.3835 34.5525 69.2732 34.0375 68.2431C33.5979 67.3638 33.1268 66.3714 32.0967 66.0573C31.2111 65.7873 30.2564 65.7433 29.3269 65.6051V65.6114Z" fill="white"/>
  <path d="M27.7253 84.8874C27.3987 84.9816 27.091 85.0758 26.6262 85.214C26.7267 84.7869 26.7895 84.5231 26.8774 84.1526C24.9366 84.0395 24.3651 82.4755 23.5234 81.1942C23.5925 81.1126 23.6616 81.0372 23.7307 80.9556C23.9819 81.144 24.2332 81.3324 24.4844 81.5146C25.8913 82.5258 27.2982 83.5307 28.7114 84.5357C28.8747 84.6487 29.1197 84.699 29.2076 84.8497C29.3207 85.0381 29.4086 85.3647 29.3207 85.5092C29.2265 85.6599 28.8308 85.7981 28.6926 85.7165C28.366 85.5343 28.1148 85.2266 27.7379 84.8748L27.7253 84.8874Z" fill="white"/>
  <path d="M81.1946 77.6581C77.6522 77.7335 75.1775 76.9861 73.2053 74.7815C70.6678 71.9363 67.9482 69.2041 66.1268 65.8438C64.4121 62.6845 63.583 59.2175 64.1734 55.5432C64.4372 53.8976 64.7764 52.3085 65.5992 50.8325C66.064 49.9971 66.6481 49.5323 67.6279 49.2623C70.8563 48.3641 74.003 49.2811 77.1748 49.5135C78.6194 49.6203 80.0326 50.06 81.471 50.2609C85.5849 50.8199 89.2467 52.5409 92.7263 54.6701C94.6985 55.8761 96.118 57.6221 96.8403 59.8644C97.1166 60.7186 97.4118 61.5665 97.7259 62.4082C98.4607 64.3929 97.9834 66.3714 97.6505 68.3373C97.4809 69.3485 96.8277 70.0583 96.1368 70.8371C94.5038 72.6774 92.5567 74.0404 90.4715 75.2588C88.9075 76.1759 87.2431 76.8228 85.4091 77.0301C83.7698 77.2185 82.1367 77.5137 81.1946 77.6581ZM88.4993 65.3916C86.1314 65.58 85.252 66.095 85.0825 69.2857C85.0134 70.5921 86.1816 71.7102 87.4315 71.6599C89.3158 71.5845 91.4576 69.9013 91.4324 68.5132C91.401 66.6603 90.1951 65.379 88.5055 65.3979L88.4993 65.3916Z" fill="white"/>
  <path d="M29.3269 65.6051C30.2502 65.7495 31.2049 65.7872 32.0968 66.0573C33.1268 66.3713 33.5979 67.3575 34.0375 68.2431C34.5526 69.2731 34.2071 71.3835 33.51 71.8734C32.1282 72.8469 30.426 73.318 29.1071 72.1309C28.6297 71.7038 27.9953 71.4652 27.4803 71.0757C26.1613 70.0708 25.9101 67.7846 26.9025 66.4781C27.5431 65.6365 28.3533 65.4858 29.3269 65.6114V65.6051Z" fill="black"/>
  <path d="M88.499 65.3853C90.1886 65.3664 91.3945 66.6477 91.4259 68.5005C91.451 69.8886 89.3092 71.5719 87.425 71.6473C86.1751 71.6975 85.0068 70.5795 85.0759 69.2731C85.2455 66.0824 86.1248 65.5674 88.4927 65.379L88.499 65.3853ZM88.7063 68.174C88.1033 67.9918 87.5757 67.8976 87.224 68.4691C87.1612 68.5696 87.3496 68.9968 87.4815 69.0282C88.0531 69.1663 88.5681 69.0847 88.7063 68.174Z" fill="black"/>
  <path d="M88.7064 68.174C88.562 69.0785 88.0469 69.1664 87.4816 69.0282C87.3497 68.9968 87.1613 68.5697 87.2241 68.4692C87.5759 67.8976 88.1097 67.9919 88.7064 68.174Z" fill="white"/>
  <path d="M87.5756 90.2199C87.5756 88.8004 87.5819 88.8255 88.9637 88.4298C91.4069 87.7264 93.8439 86.9977 96.2809 86.2754C97.4303 85.93 97.8574 86.1624 97.9768 87.3746C98.1526 89.1646 98.3536 90.9673 98.4227 92.7636C98.5232 90.1884 98.2343 87.6007 97.9768 85.0256C97.8574 83.8133 97.4303 83.5872 96.2809 83.9264C93.8439 84.655 91.4069 85.3836 88.9637 86.0807C87.5819 86.4764 87.5756 86.4513 87.5756 87.8708C87.5756 89.8995 87.5568 91.9283 87.563 93.957C87.563 92.7134 87.5756 91.4635 87.5756 90.2199Z" fill="#870B20"/>
  <path d="M27.3546 97.4115C29.4273 97.5811 31.4309 97.0095 33.4722 96.8211C35.413 96.6389 37.3538 96.4442 39.2883 96.2118C40.4252 96.0799 41.2354 96.4505 42.0707 97.2858C44.2691 99.4967 46.2475 101.883 48.1506 104.339C48.4835 104.766 48.785 105.219 49.1305 105.69C49.746 105.595 50.3238 105.508 50.977 105.407C52.1641 102.631 52.5849 99.5407 54.2808 96.7708C54.6953 97.1037 55.0847 97.3235 55.3485 97.6502C57.2014 99.9552 58.9914 102.304 60.882 104.578C61.3216 105.106 62.0502 105.394 62.8291 105.909C64.3679 102.53 64.9206 98.988 66.8049 95.8789C69.38 97.8072 71.4339 99.9741 73.1234 102.474C73.5882 103.152 74.053 103.253 74.769 103.039C75.2652 102.888 75.5102 102.625 75.6106 102.116C76.0252 100.062 76.4586 98.0082 76.9296 95.9606C77.0364 95.4958 77.3442 95.0812 77.6205 94.5222C79.5173 95.4707 80.8112 96.9781 82.2935 98.2154C83.7193 99.4088 84.9503 100.828 86.2567 102.135C87.3119 101.35 87.6134 100.502 87.5883 99.4025C87.5757 98.7995 87.5694 98.1966 87.5632 97.5873C87.4815 98.4352 87.1298 99.1324 86.2504 99.7856C84.944 98.4792 83.713 97.0597 82.2872 95.8664C80.8049 94.629 79.5111 93.1216 77.6142 92.1732C77.3379 92.7322 77.0301 93.1468 76.9233 93.6115C76.446 95.6528 76.0189 97.7067 75.6044 99.7668C75.5039 100.276 75.2589 100.539 74.7627 100.69C74.053 100.904 73.5819 100.803 73.1171 100.125C71.4213 97.6313 69.3737 95.4581 66.7986 93.5299C64.9143 96.6326 64.3616 100.175 62.8228 103.56C62.0439 103.039 61.3091 102.756 60.8757 102.229C58.9852 99.9552 57.1951 97.6062 55.3422 95.3011C55.0784 94.9745 54.689 94.7547 54.2745 94.4218C52.5787 97.1979 52.1578 100.282 50.9707 103.058C50.3175 103.158 49.7397 103.246 49.1242 103.341C48.785 102.87 48.4772 102.417 48.1444 101.99C46.2413 99.5344 44.2628 97.1477 42.0645 94.9368C41.2291 94.0952 40.4189 93.7246 39.282 93.8628C37.3475 94.0952 35.4067 94.2899 33.4659 94.472C31.3304 94.673 29.2263 95.3011 27.0469 95.0436C26.9715 95.0373 26.8836 95.1378 26.7705 95.2069C26.7454 95.3325 26.6637 95.4958 26.7014 95.6152C26.8899 96.2307 27.1097 96.8274 27.3484 97.4115H27.3546Z" fill="#870B20"/>
  <path d="M81.7595 110.689C81.8161 111.556 81.8789 112.423 81.9166 113.29C81.9291 113.038 81.9417 112.793 81.948 112.542C81.9605 111.613 81.9103 110.683 81.8538 109.753C81.7658 110.042 81.7407 110.35 81.7595 110.689Z" fill="#870B20"/>
  <path d="M88.1474 104.547C88.028 104.754 87.984 105.068 87.9903 105.539C87.9903 106.129 88.0971 106.739 88.2478 107.31C88.6938 108.981 89.1586 110.652 89.6171 112.316C89.7364 112.372 89.8495 112.429 89.9688 112.479C90.0693 112.178 90.1824 112.021 90.151 111.901C89.5229 109.584 88.8697 107.272 88.2541 104.955C88.2164 104.817 88.185 104.678 88.1536 104.54L88.1474 104.547Z" fill="#870B20"/>
  <path d="M101.193 117.887C101.105 118.27 100.992 118.635 100.885 119.005C101.186 118.327 101.45 117.623 101.67 116.895C101.413 117.121 101.281 117.498 101.186 117.881L101.193 117.887Z" fill="#FFC34F"/>
  <path d="M61.3847 52.7482C61.1774 53.1125 61.0016 53.5019 60.8822 53.9227C60.4803 55.3673 59.9024 56.7993 59.7705 58.2753C59.5821 60.4108 59.6575 62.5777 59.7705 64.7258C59.8145 65.6491 60.0971 66.6101 60.4803 67.458C61.7804 70.3221 63.7715 72.7276 65.9509 74.9385C67.9922 77.0049 70.2094 78.9017 72.4265 80.786C73.8146 81.9605 75.3785 82.8838 77.3005 82.8838C79.5553 82.8838 81.8164 82.865 84.0713 82.8461C84.266 82.8461 84.4732 82.7896 84.6554 82.7205C86.6778 81.9919 88.7128 81.2947 90.7164 80.5159C93.2288 79.5361 95.358 77.9408 97.3176 76.1256C97.7824 75.6985 98.1781 75.1207 98.4042 74.5303C98.6555 73.8645 98.8879 73.1987 99.114 72.5204C98.8816 73.004 98.5424 73.4688 98.1593 73.8268C96.1996 75.642 94.0704 77.2373 91.5581 78.2171C89.5545 78.996 87.5195 79.6931 85.497 80.4217C85.3086 80.4908 85.1076 80.541 84.9066 80.5473C82.6518 80.5662 80.3907 80.585 78.1358 80.585C76.2139 80.585 74.6437 79.6617 73.2556 78.4872C71.0384 76.6029 68.815 74.7061 66.78 72.6397C64.6005 70.4288 62.6095 68.0232 61.3093 65.1592C60.9262 64.3112 60.6436 63.3503 60.5996 62.427C60.4928 60.2789 60.4175 58.112 60.5996 55.9765C60.6938 54.8899 61.0393 53.8159 61.3721 52.7482H61.3847Z" fill="#FFC34F"/>
  <path d="M54.0799 64.6001C53.9543 64.7383 53.791 64.8702 53.6716 65.0083C53.7093 65.0712 53.747 65.134 53.7784 65.1968C53.8726 65.1968 53.9731 65.1968 54.0673 65.1905C54.0987 65.0209 54.1364 64.8576 54.1678 64.688C54.1364 64.6566 54.105 64.6315 54.0799 64.6001Z" fill="#FFC34F"/>
  <path d="M104.892 129.318C105.501 129.331 106.167 128.684 106.155 128.087C106.136 127.453 105.37 126.762 104.741 126.819C104.283 126.863 103.755 127.572 103.755 128.144C103.755 128.703 104.339 129.306 104.892 129.318Z" fill="#FFC34F"/>
  <path d="M58.5959 51.3664C59.9211 51.7307 60.901 51.0586 62.0441 50.7823C62.3456 50.1542 62.7601 49.5952 63.3128 49.1241C63.4887 48.9734 63.5829 48.7347 63.8153 48.3767C63.7274 48.3767 63.6394 48.3767 63.5515 48.3767C62.0818 48.8729 60.7377 49.6706 59.3873 50.462C59.0984 50.6315 58.9225 50.977 58.5896 51.3601L58.5959 51.3664Z" fill="#FFC34F"/>
  <path d="M7.91548 65.938C8.01597 65.6742 8.1039 65.4104 8.17927 65.1403C8.01597 65.5674 7.86523 65.9945 7.72705 66.4279C7.78986 66.2646 7.85267 66.1013 7.91548 65.938Z" fill="#FFC34F"/>
  <path d="M102.487 121.298C102.882 120.431 103.159 119.514 103.561 118.653C103.68 118.396 103.768 118.132 103.781 117.887C103.636 118.264 103.492 118.635 103.328 118.999C102.223 121.417 101.124 123.848 99.0386 125.638C95.6092 128.577 92.1861 131.517 88.091 133.539C87.846 133.658 87.6576 133.885 87.1426 134.312C87.9842 134.431 88.493 134.563 89.0017 134.569C89.1713 134.569 89.3472 134.569 89.5168 134.569C92.6446 132.679 95.4271 130.304 98.2032 127.924C100.288 126.134 101.388 123.703 102.493 121.285L102.487 121.298Z" fill="#FFC34F"/>
  <path d="M70.6049 28.3155C70.787 28.2904 70.9629 28.2653 71.1073 28.259C76.1697 27.9826 81.251 27.8947 86.2945 28.2653C92.0101 28.6861 97.5875 29.892 101.984 33.9683C104.553 36.3488 107.178 38.7166 109.056 41.7315C109.584 42.5794 109.942 43.5215 110.413 44.4008C112.662 48.6216 114.571 52.9742 115.494 57.6975C115.595 58.2188 115.532 58.7715 115.519 59.3054C115.519 59.6508 115.4 60.0088 115.463 60.3417C115.903 62.5275 115.84 64.7321 115.852 66.9429C115.859 68.5383 116.034 70.1336 116.135 71.729C116.148 71.9299 116.166 72.1309 116.154 72.3319C115.984 76.0879 116.575 79.7999 116.807 83.537C116.87 84.5294 116.845 85.5343 116.876 86.5267C116.889 86.9098 116.945 87.2867 117.008 87.8583C118.013 87.1108 118.126 86.1436 118.22 85.2328C118.113 85.3459 117.994 85.459 117.85 85.5658C117.793 84.9942 117.73 84.611 117.724 84.2342C117.693 83.2355 117.718 82.2369 117.655 81.2445C117.423 77.5137 116.832 73.7954 117.002 70.0394C117.008 69.8384 116.995 69.6374 116.983 69.4364C116.882 67.8411 116.707 66.2457 116.7 64.6504C116.694 62.4395 116.75 60.2349 116.311 58.0492C116.248 57.7226 116.361 57.3583 116.367 57.0129C116.374 56.479 116.443 55.92 116.342 55.405C115.419 50.6817 113.51 46.3291 111.261 42.1083C110.79 41.229 110.432 40.2806 109.904 39.439C108.033 36.4179 105.401 34.0499 102.832 31.6758C98.4354 27.5995 92.858 26.3936 87.1424 25.9728C82.0989 25.5959 77.0176 25.6838 71.9552 25.9665C70.9377 26.023 68.8274 26.582 68.0674 27.0279C68.4003 27.2289 68.6703 27.4362 68.9718 27.5744C69.5183 27.8256 70.0647 28.0706 70.6174 28.3155H70.6049Z" fill="#FFC34F"/>
  <path d="M30.3947 46.0653C31.3494 46.8064 32.1973 46.5866 32.995 46.1155C33.2462 45.9648 33.5352 45.5 33.4723 45.2676C33.3593 44.8468 33.3404 44.4385 33.3718 44.0491C32.7124 44.3318 32.0026 44.3694 31.2301 43.7665C31.519 42.9374 31.7891 42.1084 32.0717 41.2793C31.4499 42.8432 30.9474 44.4574 30.3884 46.059L30.3947 46.0653Z" fill="#FFC34F"/>
  <path d="M86.0309 122.623C87.218 121.788 88.292 120.795 89.4351 119.897C89.8999 119.533 90.4526 119.282 90.9174 118.917C91.3759 118.559 91.8721 118.182 92.1736 117.705C92.9147 116.518 93.5554 115.262 94.24 114.043C95.7788 111.305 97.437 108.629 98.3414 105.614C97.4181 107.731 96.2122 109.722 95.0753 111.751C94.3907 112.975 93.7501 114.225 93.0089 115.412C92.7075 115.89 92.2113 116.267 91.7528 116.625C91.288 116.989 90.7353 117.246 90.2705 117.605C89.1211 118.496 88.0471 119.495 86.8662 120.33C83.6127 122.623 79.9133 123.892 76.0631 124.696C72.6714 125.399 69.2358 125.826 65.7499 125.368C65.1093 125.28 64.4435 125.292 63.7966 125.317C61.4098 125.412 59.1173 124.878 56.8374 124.281C55.0033 123.804 53.163 123.326 51.3416 122.78C50.4371 122.51 49.5767 122.076 48.6911 121.731C43.8108 119.841 39.5775 116.976 35.7838 113.371C32.3356 110.099 29.4904 106.362 26.8462 102.455C25.5586 100.546 24.5222 98.4792 24.0449 96.1741C23.869 95.3325 23.4922 94.5348 23.2409 93.7058C22.3365 93.9005 22.0099 94.5537 22.3239 95.7533C22.5689 96.6703 23.0085 97.5434 23.2032 98.4667C23.6806 100.772 24.7169 102.838 26.0045 104.748C28.6488 108.654 31.494 112.398 34.9422 115.664C38.7359 119.263 42.9629 122.133 47.8494 124.024C48.735 124.369 49.5955 124.796 50.4999 125.072C51.2976 125.311 52.0953 125.531 52.8992 125.751C53.006 125.763 53.094 125.789 53.1756 125.832C54.1115 126.084 55.0536 126.329 55.9894 126.574C58.2694 127.17 60.5619 127.704 62.9487 127.61C63.6019 127.585 64.2614 127.572 64.902 127.66C66.893 127.924 68.8652 127.893 70.8249 127.692C70.8312 127.648 70.8437 127.61 70.85 127.56C70.894 127.604 70.9379 127.635 70.9819 127.679C72.4014 127.528 73.8146 127.29 75.2152 126.994C79.0654 126.19 82.7648 124.922 86.0183 122.629L86.0309 122.623Z" fill="#FFC34F"/>
  <path d="M25.1629 35.4758C25.188 36.1353 25.6779 36.6628 26.262 36.6566C26.8273 36.6566 27.6689 35.8087 27.6187 35.2936C27.581 34.8414 26.8461 34.2259 26.3374 34.2133C25.6967 34.2008 25.1314 34.81 25.1566 35.4758H25.1629Z" fill="#FFC34F"/>
  <path d="M39.4392 138.633C39.1503 138.557 38.8488 138.457 38.6038 138.294C36.349 136.818 34.0942 135.335 31.8582 133.841C31.6635 133.715 31.4688 133.602 31.2803 133.476C29.641 132.415 27.9703 131.347 26.532 130.041C26.2054 129.745 25.8913 129.438 25.5773 129.136C24.7482 128.414 23.9254 127.673 23.1215 126.919C21.903 125.782 20.3704 124.972 18.8882 123.954C18.4673 124.915 18.9698 125.537 19.4472 126.04C21.4947 128.175 23.5109 130.355 25.6966 132.339C27.135 133.646 28.8057 134.714 30.445 135.775C32.4235 137.063 34.4522 138.281 36.4809 139.493C36.9959 139.531 37.511 139.55 38.0323 139.556C39.2005 139.556 40.3688 139.481 41.537 139.437C41.5496 139.361 41.5621 139.28 41.5747 139.204C40.8587 139.016 40.1489 138.834 39.4518 138.639L39.4392 138.633Z" fill="#FFC34F"/>
  <path d="M9.14029 52.5471C9.56111 51.7306 9.86887 50.9141 10.095 50.0033C10.0573 50.085 10.0196 50.1667 9.97564 50.2483C9.56111 51.0585 9.24078 51.8876 9.03979 52.7481C9.0712 52.679 9.1026 52.6099 9.14029 52.5408V52.5471Z" fill="#FFC34F"/>
  <path d="M121.141 83.6941C121.028 82.0799 120.362 80.5034 119.922 78.9206C119.885 78.795 119.64 78.7322 119.294 78.5124C119.257 79.6555 119.294 80.6667 119.206 81.6403C119.64 83.0849 120.192 84.5232 120.299 85.9929C120.701 91.564 119.985 97.1164 119.715 102.681C119.633 104.333 119.753 105.991 119.659 107.637C119.546 109.628 119.326 111.619 119.112 113.604C118.961 114.998 118.855 116.417 118.522 117.768C118.057 119.658 117.448 121.511 116.87 123.37C117.121 122.811 117.347 122.246 117.529 121.656C118.164 119.602 118.848 117.561 119.363 115.475C119.696 114.119 119.803 112.705 119.954 111.311C120.167 109.326 120.387 107.335 120.5 105.344C120.594 103.699 120.481 102.034 120.557 100.389C120.827 94.8301 121.537 89.2778 121.141 83.7004V83.6941Z" fill="#FFC34F"/>
  <path d="M11.8663 46.4611C13.4993 44.1748 15.1638 41.8949 17.0229 39.7908C18.2351 38.4153 19.7865 37.3412 21.2248 36.173C22.079 35.4821 23.0086 34.8791 23.9067 34.2385C24.5788 33.7548 25.2822 33.3968 26.0108 33.1079C26.0234 32.4673 26.5635 31.902 27.1854 31.9145C27.5057 31.9145 27.9202 32.1721 28.1903 32.4735C29.2015 32.2726 30.2379 32.1658 31.2931 32.0967C33.0329 31.9837 34.7727 31.8015 36.6883 31.6194C37.1657 30.8594 37.6681 30.0868 38.1832 29.264C35.9974 29.4587 34.0692 29.6723 32.1284 29.7979C29.503 29.9675 26.953 30.3443 24.7421 31.9334C23.8502 32.5803 22.9144 33.177 22.0602 33.8679C20.6218 35.0298 19.0705 36.1102 17.8582 37.4857C15.9991 39.5898 14.3347 41.8697 12.7016 44.156C11.9542 45.1986 11.257 46.3857 10.9556 47.6105C10.9116 47.78 10.8676 47.9496 10.8174 48.113C11.1251 47.5351 11.4832 46.9761 11.86 46.4485L11.8663 46.4611Z" fill="#FFC34F"/>
  <path d="M70.027 129.852C69.9265 130.436 69.8072 130.713 69.8386 130.977C69.9203 131.623 70.1024 132.258 70.1778 132.905C70.1903 132.993 70.1778 133.068 70.1903 133.156C70.7996 132.597 71.0948 131.78 71.0257 130.794C70.8184 130.505 70.4667 130.273 70.027 129.859V129.852Z" fill="#FFC34F"/>
  <path d="M18.8883 63.5953C18.1723 65.0775 17.7954 66.7294 17.5316 68.3813C17.3871 69.2669 17.2176 70.1776 17.2678 71.0632C17.4814 74.9323 18.2602 78.7071 19.4096 82.4002C20.0502 84.4666 20.8542 86.4765 22.3051 88.1158C23.5173 89.4914 24.9933 90.4586 26.9027 90.7036C31.1611 91.25 35.2814 90.7098 39.3263 89.3406C44.552 87.5694 48.578 84.4415 50.8642 79.3037C51.2097 78.5249 51.4798 77.6958 51.9257 76.9798C52.7171 75.7111 53.2573 74.3607 53.6655 72.9663C53.4017 73.5504 53.1128 74.1283 52.7611 74.681C52.3151 75.3971 52.045 76.2261 51.6996 77.005C49.4134 82.1427 45.3873 85.2706 40.1616 87.0418C36.1167 88.411 31.9965 88.9512 27.738 88.4047C25.8286 88.1598 24.3526 87.1925 23.1404 85.817C21.6895 84.1777 20.8856 82.1616 20.2449 80.1014C19.0955 76.4083 18.3167 72.6335 18.1032 68.7645C18.0529 67.8788 18.2225 66.9681 18.367 66.0825C18.5051 65.2471 18.6684 64.4118 18.8883 63.5953Z" fill="#FFC34F"/>
  <path d="M22.1418 39.2757C22.2171 39.9289 22.7384 40.3246 23.4042 40.2492C23.9946 40.1801 24.4406 39.6839 24.4029 39.1437C24.3589 38.5596 23.6366 37.9127 23.0588 37.9566C22.5061 37.9943 22.0601 38.6287 22.1418 39.2819V39.2757Z" fill="#FFC34F"/>
  <path d="M35.3757 38.3586C35.0428 39.3322 34.4963 40.2743 34.2891 41.2981C34.377 41.0845 34.4649 40.871 34.5403 40.6512C35.0867 39.0496 35.8593 37.5107 36.6884 36.0284C37.5237 34.5461 38.5349 33.1769 39.9733 32.1594C40.6642 31.6695 41.3425 31.4371 42.1967 31.4623C45.356 31.5502 48.5153 31.5753 51.6745 31.6193C52.2712 31.6256 52.8742 31.6193 53.4834 31.6193C54.099 33.3025 54.4632 39.4892 54.1994 43.7728C55.9707 44.3757 56.8249 43.7853 56.7118 42.0455C56.7055 41.9073 56.6992 41.7692 56.693 41.6373C56.2847 41.7692 55.732 41.7189 55.0411 41.4803C55.3049 37.1967 54.9406 31.0037 54.3251 29.3267C53.7158 29.3267 53.1191 29.333 52.5162 29.3267C49.3569 29.2828 46.1976 29.2576 43.0383 29.1697C42.1841 29.1446 41.5058 29.377 40.8149 29.8669C39.3829 30.8844 38.3654 32.2536 37.53 33.7359C36.7009 35.2119 35.9284 36.757 35.3819 38.3586H35.3757Z" fill="#FFC34F"/>
  <path d="M54.6703 130.292C53.9982 129.551 53.2508 128.879 52.4971 128.219C52.2773 128.025 51.9255 127.987 51.4419 128.106C52.6353 129.852 53.7972 131.617 55.0346 133.338C55.7192 134.293 56.5043 135.16 57.371 135.957C58.3634 135.744 59.3621 135.549 60.3733 135.405C58.1185 134.104 56.4038 132.208 54.6703 130.298V130.292Z" fill="#FFC34F"/>
  <path d="M107.009 124.149C107.009 124.777 107.493 125.211 108.19 125.204C108.937 125.192 109.352 124.815 109.339 124.149C109.327 123.433 108.812 122.855 108.184 122.836C107.612 122.818 107.009 123.496 107.009 124.149Z" fill="#FFC34F"/>
  <path d="M66.0325 31.3493C71.3461 33.7109 76.8293 35.6956 81.697 38.968C82.859 39.7531 84.0775 40.4565 85.2583 41.2102C85.6979 41.4929 86.0371 41.8258 85.9303 42.435C85.8926 42.6548 85.968 43.0882 86.0811 43.1196C87.243 43.4274 88.091 44.6647 89.4916 44.2565C90.0066 44.1057 90.5342 44.0115 91.0869 43.8859C91.2188 42.95 90.6787 42.4538 90.1197 42.0142C88.8384 42.2529 88.0156 41.1286 86.9164 40.8334C86.8097 40.802 86.728 40.3749 86.7657 40.1487C86.8222 39.8347 86.7531 39.5898 86.6212 39.3888C84.3413 37.7872 81.9608 36.33 79.461 35.0801C75.7365 33.2272 71.8988 31.6005 68.1178 29.8669C67.8163 29.7288 67.5399 29.5215 67.2133 29.3205C67.2447 29.3017 67.295 29.2766 67.3389 29.2577C67.1819 29.1886 67.0249 29.1195 66.8679 29.0504C63.3631 27.4928 60.1285 28.6736 56.9189 29.2891C56.9629 29.9989 57.0069 30.6898 57.0508 31.3807C59.9463 30.7526 62.8795 29.9423 66.0262 31.343L66.0325 31.3493Z" fill="#FFC34F"/>
</svg>