<svg xmlns="http://www.w3.org/2000/svg" width="125" height="119" viewBox="0 0 125 119" fill="none">
  <path d="M70.231 34.5649C70.9843 34.6779 71.6095 34.8436 72.2385 34.8587C77.44 34.9679 82.6415 35.0093 87.8429 35.1487C91.8391 35.2579 95.8354 35.4312 99.8278 35.6685C101.413 35.7626 102.468 35.3671 103.161 33.8041C104.152 31.563 105.297 29.3785 106.494 27.2391C107.365 25.6836 108.332 24.1582 109.44 22.7646C110.596 21.3107 111.982 21.1977 113.534 22.113C115.651 23.3597 117.779 24.5913 119.903 25.8342C120.25 26.0376 120.6 26.2297 120.928 26.4595C122.622 27.676 122.72 28.4143 120.992 29.6384C118.622 31.3182 117.131 33.6459 115.688 36.0489C115.282 36.7306 114.886 37.4161 114.408 38.2409C115.078 39.1185 115.888 39.9321 116.415 40.9001C119.093 45.8379 121.236 50.9716 122.008 56.6024C122.344 59.0393 122.909 61.4461 123.319 63.8717C123.519 65.0506 123.692 66.2484 123.715 67.4386C123.79 71.1711 123.666 74.9112 123.85 78.6362C124.08 83.2238 124.528 87.8038 124.905 92.3838C125.282 96.9186 124.524 101.288 122.897 105.502C121.801 108.342 119.451 110.203 117.327 112.222C112.784 116.534 107.09 117.653 101.127 118.041C98.9766 118.18 96.8975 117.973 94.7996 117.419C93.1348 116.983 91.3834 116.851 89.6621 116.655C85.0934 116.128 80.5209 115.589 75.9447 115.141C69.0822 114.47 62.2197 114.406 55.3987 115.604C51.5456 116.278 47.8394 115.337 44.103 114.681C43.9072 114.647 43.7226 114.546 43.5305 114.508C37.4891 113.371 33.5155 109.657 30.6907 104.395C29.5344 102.237 28.9581 99.9883 28.5137 97.6004C27.572 92.542 27.7792 87.51 28.3517 82.463C28.5438 80.7605 27.9751 79.4084 27.056 77.9997C24.7434 74.4555 21.7114 71.5478 18.9054 68.4367C18.8188 68.3387 18.7058 68.2634 18.6003 68.1805C15.7529 65.8905 15.832 65.7135 16.8602 62.2973C17.7491 59.3444 19.8094 57.2729 21.6474 55.013C22.8075 53.5893 22.9092 53.2804 22.0994 51.642C19.7416 46.8699 17.3762 42.0978 15.0335 37.3182C14.4761 36.1807 13.96 35.0206 13.5005 33.8417C12.2425 30.6026 10.4045 27.6836 8.66817 24.6968C7.17289 22.1243 5.99022 19.3597 4.82261 16.6139C3.33863 13.1187 1.98647 9.57065 0.634311 6.02264C0.306628 5.16389 0.118302 4.22981 0.0128411 3.31456C-0.134051 2.05279 1.00342 0.376718 2.18985 0.0452698C2.52507 -0.0488917 3.03354 0.00383946 3.2972 0.203462C4.61169 1.20911 6.05424 2.12812 7.11639 3.36729C10.2538 7.03205 14.0278 9.75897 18.4346 11.6535C21.8658 13.1262 25.1916 14.742 28.3404 16.8136C31.3799 18.8135 34.7584 20.2975 37.9825 22.0188C39.0409 22.5838 40.1219 23.1148 41.1162 23.7815C44.0616 25.7627 47.2669 27.2203 50.4872 28.6741C51.8469 29.2881 53.0484 30.2975 54.2536 31.2165C55.2367 31.966 55.6209 32.1242 56.4721 31.2429C57.5305 30.1506 58.4193 28.8964 59.3685 27.6986C59.6133 27.3898 59.7753 27.0056 60.0427 26.7231C61.8732 24.8173 62.3553 24.8286 64.5173 26.4067C65.8016 27.3446 67.1764 28.1657 68.5436 28.9792C70.0201 29.8568 70.6754 31.1299 70.5549 32.8097C70.5172 33.3219 70.3741 33.8304 70.2385 34.5649H70.231ZM111.425 40.9867C110.517 40.482 110.009 40.0451 109.425 39.902C108.265 39.6157 107.074 39.4274 105.884 39.3144C103.835 39.1223 103.526 39.4274 103.579 41.45C103.655 44.433 103.764 47.416 103.854 50.3991C103.888 51.4575 103.511 51.8228 102.091 52.0488C102.031 51.7437 101.877 51.416 101.929 51.1298C102.51 47.9584 101.967 44.7607 102.174 41.5856C102.208 41.062 102.054 40.5272 102.027 39.9923C101.982 39.0959 101.478 38.5799 100.638 38.6214C99.1235 38.7005 97.4286 38.5347 96.1404 39.1562C93.7676 40.3087 91.3872 41.6873 89.4625 43.465C86.9352 45.8002 84.8561 48.6176 82.5586 51.2089C82.0727 51.7588 81.6094 52.8473 80.7093 52.1241C79.9409 51.5102 80.7319 50.7418 81.1688 50.2371C84.3477 46.5648 87.293 42.6477 91.519 40.0338C92.084 39.6835 92.6866 39.3332 92.3891 38.4142C92.0049 38.3615 91.6169 38.2748 91.229 38.2635C88.4305 38.1807 85.632 38.1016 82.8335 38.0413C78.9692 37.9585 75.101 37.8229 71.2667 38.4632C69.327 38.7871 67.4325 39.3709 66.1481 40.9264C63.4852 44.1543 61.1011 47.5893 58.0126 50.497C55.7527 52.6251 53.9712 55.2616 51.9599 57.6571C49.7753 60.2597 47.7904 63.0732 45.3384 65.3971C40.7358 69.7625 36.5626 74.4969 32.427 79.2803C31.8093 79.9959 31.2481 81.0053 31.1878 81.9168C30.992 84.8321 30.9242 87.7737 31.0372 90.6927C31.1163 92.6776 31.6662 94.6362 31.8545 96.6211C32.0353 98.5382 32.7472 100.214 33.685 101.849C35.6549 105.265 38.7208 107.367 42.0089 109.397C46.6454 112.259 51.5305 112.983 56.7922 112.237C58.7056 111.966 60.6265 111.706 62.5549 111.612C64.6754 111.51 66.8073 111.612 68.9353 111.612C71.1312 111.612 73.3308 111.506 75.5229 111.597C77.0445 111.661 78.5586 111.969 80.0765 112.177C82.1217 112.452 84.1669 112.719 86.2045 113.02C89.3006 113.476 92.3778 114.21 95.4851 114.384C103.481 114.824 110.709 112.244 117.493 108.222C118.833 107.427 119.654 106.271 119.952 104.742C120.37 102.583 120.698 100.406 121.218 98.2746C122.186 94.3122 122.001 90.2972 121.587 86.3424C121.059 81.3067 120.585 76.2784 120.434 71.2201C120.366 69.0205 120.445 66.8133 120.291 64.625C120.167 62.9113 119.643 61.2239 119.545 59.5102C119.315 55.5328 118.43 51.7173 116.803 48.1091C116.05 46.4405 115.346 44.6251 113.643 43.6044C113.255 43.3746 112.687 43.45 112.204 43.3822C112.155 43.8191 112.012 44.2711 112.069 44.6929C112.272 46.1355 112.751 47.5667 112.754 49.0055C112.773 53.0695 112.611 57.1373 112.509 61.2051C112.498 61.6005 112.566 62.0939 112.366 62.3689C112.091 62.7493 111.613 63.1636 111.184 63.2088C110.483 63.2804 110.412 62.6288 110.415 62.0714C110.415 61.8717 110.461 61.6759 110.491 61.4762C111.376 55.755 111.293 50.0714 109.914 44.4217C109.617 43.2089 109.692 42.0112 111.429 40.9942L111.425 40.9867ZM68.0615 32.0866C67.7828 31.7363 67.6396 31.3973 67.3873 31.2655C66.2159 30.644 65.037 30.0188 63.8129 29.5141C62.796 29.0922 61.6849 29.499 60.9805 30.369C59.8506 31.7626 58.7433 33.1751 57.5757 34.5348C55.9184 36.4594 55.5192 36.2146 53.602 35.3031C51.0295 34.079 48.6529 32.4519 46.1407 31.0997C43.8657 29.8756 41.5494 28.708 39.1878 27.661C37.8168 27.0546 37.3385 27.4086 36.8187 28.8361C35.6134 32.1468 34.4232 35.4651 33.1765 38.7607C31.8583 42.2485 30.4722 45.7098 29.1276 49.1863C28.6003 50.5497 28.1257 51.932 27.5796 53.288C27.2896 54.0074 26.9958 54.7531 26.54 55.367C25.5909 56.6476 24.2952 57.7248 23.5834 59.1147C22.6568 60.9226 21.4289 62.4442 20.1559 63.9734C19.2632 65.0469 19.2519 65.2954 20.3065 66.2973C21.9487 67.8566 23.6624 69.3369 25.3046 70.8924C26.6605 72.173 27.9072 73.5741 29.2971 74.8095C30.6831 76.0449 31.1991 76.0261 32.4873 74.64C36.1596 70.689 39.8319 66.738 43.3912 62.6853C46.3328 59.3369 49.1124 55.8454 51.9636 52.4141C56.8148 46.5724 61.6811 40.7456 66.4946 34.8737C67.15 34.0752 67.5304 33.047 68.0577 32.0903L68.0615 32.0866ZM21.9901 43.7475C22.1634 43.7739 22.3367 43.804 22.5061 43.8304C22.9242 43.0319 23.4176 42.2598 23.7453 41.4274C24.4496 39.6345 25.1012 37.8191 25.7114 35.9924C26.9958 32.1581 28.2312 28.3088 29.5042 24.4708C29.8169 23.5254 29.4402 22.9491 28.6229 22.531C26.7924 21.5894 24.9807 20.6139 23.1427 19.6949C21.7152 18.9793 21.331 19.1864 20.9318 20.7457C20.8828 20.9378 20.8451 21.1337 20.815 21.3333C20.1182 25.661 19.4214 29.9849 18.7246 34.3125C18.5627 35.3295 18.6455 36.2862 19.2256 37.1863C19.508 37.627 19.67 38.1468 19.8734 38.6364C20.5853 40.3389 21.2896 42.0451 21.9939 43.7513L21.9901 43.7475ZM104.355 35.7589C106.641 36.1732 108.457 36.531 110.28 36.8172C111.534 37.0131 112.939 36.3012 113.274 35.0997C113.907 32.8285 115.432 31.1901 116.916 29.5103C117.926 28.3691 117.873 27.4538 116.442 26.919C115.097 26.4143 113.621 26.2335 112.189 25.9924C110.732 25.7476 109.877 26.516 109.199 27.7702C108.125 29.7476 106.901 31.6421 105.734 33.5668C105.368 34.1732 104.98 34.7683 104.355 35.7589ZM24.9506 50.8737C25.4251 50.1618 25.847 49.6119 26.1709 49.0093C26.4534 48.4857 26.5928 47.8869 26.8451 47.3483C29.7792 41.0809 32.2349 34.6327 34.2123 28.0037C34.7095 26.3314 34.5475 25.4877 33.7302 25.1638C32.7509 24.7721 31.9826 25.2693 31.3799 26.9755C30.3818 29.7965 29.5042 32.6553 28.5626 35.4952C27.9562 37.3219 27.3573 39.1524 26.7057 40.9603C25.9412 43.0884 25.0786 45.1788 24.3442 47.3181C23.9562 48.4443 23.8131 49.627 24.9506 50.8737ZM5.72657 7.87197C5.56838 8.03017 5.40642 8.18459 5.24822 8.34278C7.22938 13.7514 9.46666 19.0546 11.994 24.6101C12.4158 23.9623 12.7359 23.6723 12.8037 23.3371C13.316 20.7269 13.7981 18.113 14.2388 15.4915C14.3668 14.7382 14.1032 14.0904 13.4478 13.5669C11.4215 11.9473 9.45159 10.2524 7.4177 8.6441C6.9469 8.27122 6.2953 8.12433 5.72657 7.87197ZM18.6757 18.9943C18.638 18.5537 18.702 18.0527 18.5325 17.6459C18.3781 17.2731 17.9073 16.7006 17.6926 16.7495C17.2745 16.8399 16.6983 17.2467 16.6079 17.6233C16.2538 19.0998 16.1521 20.6327 15.7981 22.1092C15.2745 24.2937 15.6286 26.6214 14.6455 28.7457C14.4459 29.1826 14.6606 29.9133 14.8979 30.4142C15.09 30.8286 15.5947 31.096 15.96 31.4274C16.2538 31.0244 16.7284 30.6515 16.8075 30.2109C17.4704 26.4896 18.058 22.757 18.6757 18.9981V18.9943Z" fill="black"/>
  <path d="M111.425 40.9904C109.685 42.0074 109.613 43.2051 109.911 44.4179C111.293 50.0676 111.372 55.7512 110.487 61.4724C110.457 61.6683 110.415 61.8679 110.412 62.0675C110.408 62.625 110.479 63.2766 111.18 63.205C111.609 63.1598 112.088 62.7455 112.363 62.3651C112.566 62.0864 112.498 61.5967 112.506 61.2013C112.604 57.1335 112.766 53.0695 112.751 49.0017C112.743 47.5629 112.268 46.1316 112.065 44.6891C112.005 44.2672 112.148 43.8153 112.201 43.3784C112.687 43.4462 113.255 43.3708 113.639 43.6006C115.342 44.6213 116.046 46.433 116.799 48.1053C118.43 51.7135 119.312 55.529 119.541 59.5064C119.639 61.2201 120.167 62.9075 120.287 64.6212C120.445 66.8133 120.363 69.0204 120.43 71.2163C120.585 76.2746 121.056 81.3029 121.583 86.3386C121.997 90.2934 122.182 94.3122 121.214 98.2708C120.694 100.403 120.366 102.58 119.948 104.738C119.651 106.263 118.83 107.423 117.489 108.218C110.702 112.241 103.478 114.821 95.4813 114.38C92.374 114.21 89.2968 113.472 86.2008 113.016C84.1593 112.715 82.1142 112.451 80.0727 112.173C78.5548 111.966 77.0445 111.657 75.5191 111.593C73.327 111.502 71.1274 111.604 68.9315 111.608C66.8035 111.608 64.6717 111.506 62.5512 111.608C60.6227 111.702 58.7018 111.962 56.7885 112.233C51.5305 112.979 46.6454 112.259 42.0051 109.393C38.717 107.363 35.6511 105.261 33.6812 101.845C32.7396 100.214 32.0315 98.5344 31.8507 96.6173C31.6624 94.6324 31.1088 92.67 31.0334 90.6889C30.9167 87.7699 30.9882 84.8283 31.1841 81.913C31.2443 81.0015 31.8055 79.9921 32.4232 79.2765C36.5551 74.4931 40.7321 69.7587 45.3347 65.3933C47.7829 63.0694 49.7716 60.2559 51.9561 57.6532C53.9674 55.2578 55.7489 52.6213 58.0088 50.4932C61.0973 47.5855 63.4777 44.1505 66.1444 40.9226C67.4287 39.3671 69.3233 38.7833 71.263 38.4594C75.0972 37.8191 78.9654 37.9509 82.8298 38.0375C85.6283 38.0978 88.4267 38.1769 91.2252 38.2597C91.6132 38.271 92.0011 38.3577 92.3853 38.4104C92.6828 39.3294 92.0802 39.6797 91.5152 40.03C87.293 42.6477 84.3439 46.561 81.165 50.2333C80.7281 50.738 79.9371 51.5064 80.7055 52.1203C81.6095 52.8435 82.069 51.755 82.5548 51.2051C84.8486 48.6137 86.9277 45.7964 89.4588 43.4612C91.3834 41.6835 93.7638 40.3049 96.1367 39.1524C97.421 38.5272 99.116 38.6967 100.634 38.6176C101.474 38.5724 101.978 39.0921 102.024 39.9885C102.05 40.5196 102.204 41.0545 102.171 41.5818C101.963 44.7607 102.506 47.9584 101.926 51.126C101.873 51.416 102.031 51.7399 102.088 52.045C103.511 51.819 103.884 51.4537 103.85 50.3953C103.76 47.4122 103.651 44.4292 103.575 41.4462C103.523 39.4198 103.835 39.1147 105.881 39.3106C107.071 39.4236 108.261 39.6119 109.421 39.8982C110.001 40.0413 110.513 40.4744 111.421 40.9829L111.425 40.9904ZM72.973 107.081C76.4984 107.114 79.6283 106.504 82.7318 105.664C84.1405 105.284 85.5944 104.983 87.0445 104.858C90.2309 104.587 93.4248 104.391 96.6226 104.286C98.6979 104.218 100.517 103.468 102.306 102.565C104.736 101.333 105.971 99.3442 105.948 96.6022C105.941 95.6041 106.039 94.5909 105.911 93.6041C105.511 90.4855 104.381 87.7473 101.963 85.5514C99.7864 83.574 97.2779 82.316 94.5811 81.2727C91.9183 80.2445 89.3156 80.0901 86.6151 81.1183C84.8109 81.8038 82.9428 82.316 81.1047 82.9074C78.2196 83.8377 75.3647 83.8565 72.4833 82.8057C71.5718 82.4742 70.5135 82.3424 69.5455 82.4177C67.6208 82.5646 65.6886 82.8094 63.8092 83.2275C62.8826 83.4347 61.9184 83.9657 61.2141 84.6173C57.4363 88.1051 55.3836 93.4648 57.4928 98.9337C58.619 101.856 60.2386 104.485 63.3082 105.367C66.5323 106.293 69.7639 107.645 72.9805 107.077L72.973 107.081ZM64.747 74.6023C64.747 74.6588 64.7508 74.7153 64.7545 74.7718C68.7432 74.5722 72.7357 74.4065 76.7244 74.1579C78.3778 74.0562 78.8675 73.2728 78.2422 71.7699C77.5567 70.1202 76.7357 68.527 75.956 66.9187C75.5793 66.1391 75.214 65.3519 74.7733 64.6137C73.1726 61.9395 71.6735 59.19 69.8807 56.6514C68.3967 54.5459 66.5624 52.6853 64.8713 50.7267C63.5267 49.1712 62.7922 49.1486 61.312 50.5648C61.0747 50.7908 60.7583 50.9414 60.5323 51.1787C58.8337 52.9527 56.9278 54.5798 55.5003 56.5497C51.6962 61.7964 50.2424 67.9696 49.0823 74.2106C48.8864 75.2728 49.3497 75.6833 50.4269 75.5402C51.0823 75.4535 51.7301 75.2615 52.3855 75.2276C56.506 75.0053 60.6265 74.8095 64.747 74.6099V74.6023ZM105.865 76.591C105.865 76.591 105.865 76.6098 105.865 76.6211C106.065 76.6324 106.265 76.6513 106.464 76.655C108.698 76.704 109.214 76.075 108.709 73.8905C108.201 71.6908 107.805 69.4536 107.127 67.3067C106.351 64.8434 105.365 62.4442 104.389 60.0525C102.924 56.4555 100.084 53.8642 97.5868 51.028C97.1574 50.5384 96.5548 50.1844 95.9973 49.8265C94.9691 49.1712 94.3853 49.2879 93.583 50.2333C92.6791 51.2992 91.794 52.3802 90.8636 53.4235C89.1687 55.3256 87.6057 57.3293 86.6113 59.6834C85.5755 62.1278 84.585 64.6061 83.7865 67.1334C83.0482 69.4762 82.5887 71.9093 82.0012 74.3048C81.794 75.1598 82.0464 75.7511 82.9428 75.9658C83.5868 76.1202 84.2309 76.3387 84.8863 76.3801C86.6829 76.4931 88.4832 76.5722 90.2798 76.5835C95.4738 76.6098 100.668 76.591 105.862 76.591H105.865Z" fill="#FF9439"/>
  <path d="M68.0616 32.0866C67.5343 33.047 67.1539 34.0715 66.4985 34.87C61.685 40.7419 56.8187 46.5686 51.9675 52.4104C49.1163 55.8416 46.3366 59.3331 43.395 62.6815C39.8357 66.7342 36.1634 70.689 32.4911 74.6363C31.203 76.0186 30.6908 76.0374 29.3009 74.8057C27.9073 73.5666 26.6606 72.1692 25.3085 70.8886C23.6625 69.3331 21.9526 67.8529 20.3104 66.2935C19.2558 65.2917 19.2671 65.0431 20.1597 63.9696C21.429 62.4405 22.6569 60.9188 23.5872 59.1109C24.2991 57.7248 25.5985 56.6476 26.5439 55.3633C26.9996 54.7493 27.2934 53.9998 27.5834 53.2842C28.1296 51.9283 28.6041 50.546 29.1314 49.1825C30.4761 45.7061 31.8621 42.2447 33.1804 38.757C34.4271 35.4613 35.6173 32.143 36.8226 28.8323C37.3423 27.4048 37.8207 27.0508 39.1917 27.6572C41.5532 28.7043 43.8696 29.8681 46.1445 31.096C48.6605 32.4481 51.0334 34.0752 53.6059 35.2993C55.523 36.2108 55.9185 36.4556 57.5795 34.531C58.7509 33.1713 59.8545 31.7589 60.9844 30.3653C61.6887 29.4952 62.7998 29.0884 63.8168 29.5103C65.0409 30.0188 66.2198 30.6402 67.3912 31.2617C67.6435 31.3973 67.7866 31.7363 68.0653 32.0828L68.0616 32.0866Z" fill="#EABFF4"/>
  <path d="M21.99 43.7475C21.2819 42.0413 20.5776 40.3351 19.8695 38.6327C19.6661 38.143 19.5042 37.6232 19.2217 37.1826C18.6454 36.2824 18.5588 35.3219 18.7208 34.3088C19.4176 29.9811 20.1143 25.6572 20.8111 21.3295C20.8413 21.1337 20.8789 20.9378 20.9279 20.742C21.3271 19.1827 21.7113 18.9755 23.1388 19.6911C24.9768 20.6101 26.7923 21.5894 28.619 22.5273C29.4363 22.9453 29.8168 23.5216 29.5004 24.467C28.2273 28.305 26.9919 32.1543 25.7075 35.9886C25.0974 37.8153 24.442 39.6308 23.7414 41.4236C23.4138 42.2598 22.9204 43.0281 22.5023 43.8266C22.329 43.8002 22.1558 43.7701 21.9863 43.7437L21.99 43.7475Z" fill="#EABFF4"/>
  <path d="M104.355 35.7588C104.98 34.7682 105.364 34.1731 105.734 33.5667C106.901 31.6421 108.125 29.7475 109.199 27.7702C109.877 26.5159 110.732 25.7513 112.189 25.9924C113.62 26.2297 115.097 26.4142 116.442 26.9189C117.873 27.4538 117.926 28.3728 116.916 29.5103C115.428 31.1901 113.907 32.8285 113.274 35.0997C112.939 36.3012 111.534 37.0131 110.28 36.8172C108.457 36.5309 106.645 36.1694 104.355 35.7588Z" fill="#8B9463"/>
  <path d="M24.9507 50.8737C23.8132 49.6232 23.9563 48.4443 24.3443 47.3181C25.0787 45.1788 25.9413 43.0884 26.7059 40.9603C27.3574 39.1487 27.9563 37.3219 28.5627 35.4952C29.5043 32.6553 30.3857 29.7966 31.38 26.9755C31.9827 25.2693 32.751 24.7721 33.7303 25.1638C34.5439 25.4877 34.7096 26.3352 34.2124 28.0037C32.235 34.6327 29.7793 41.0809 26.8452 47.3483C26.5929 47.8906 26.4535 48.4857 26.171 49.0093C25.8471 49.6119 25.4253 50.1618 24.9507 50.8737Z" fill="#C998F4"/>
  <path d="M5.72663 7.87196C6.29537 8.12432 6.94696 8.27121 7.41777 8.64409C9.45166 10.2524 11.4215 11.9473 13.4479 13.5669C14.1032 14.0904 14.3631 14.7382 14.2388 15.4915C13.7982 18.113 13.3123 20.7269 12.8038 23.3371C12.736 23.676 12.4196 23.9623 11.994 24.6101C9.46673 19.0546 7.22945 13.7514 5.24829 8.34277C5.40648 8.18458 5.56844 8.03015 5.72663 7.87196Z" fill="#EABFF4"/>
  <path d="M18.6757 18.9905C18.058 22.7532 17.4704 26.4858 16.8075 30.2033C16.7285 30.644 16.2501 31.0168 15.9601 31.4199C15.5948 31.0884 15.0938 30.821 14.898 30.4067C14.6644 29.9095 14.446 29.175 14.6456 28.7381C15.6286 26.6139 15.2708 24.2899 15.7981 22.1016C16.1522 20.6252 16.2539 19.0922 16.6079 17.6158C16.6983 17.2391 17.2746 16.8324 17.6927 16.742C17.9074 16.6968 18.3782 17.2655 18.5326 17.6384C18.7021 18.0452 18.6381 18.5461 18.6757 18.9868V18.9905Z" fill="#C998F4"/>
  <path d="M72.9728 107.081C69.7601 107.649 66.5247 106.297 63.3006 105.371C60.2309 104.485 58.6113 101.86 57.4852 98.9375C55.3797 93.4648 57.4324 88.1051 61.2064 84.6211C61.9108 83.9733 62.875 83.4385 63.8015 83.2313C65.681 82.8132 67.6169 82.5684 69.5378 82.4215C70.5058 82.3462 71.5642 82.478 72.4757 82.8095C75.3608 83.8603 78.212 83.8415 81.0971 82.9112C82.9351 82.3198 84.8033 81.8076 86.6074 81.1221C89.308 80.0938 91.9106 80.2445 94.5735 81.2765C97.2703 82.3198 99.7788 83.5778 101.956 85.5552C104.374 87.7511 105.5 90.4893 105.903 93.6079C106.031 94.591 105.933 95.6041 105.941 96.606C105.963 99.348 104.724 101.337 102.299 102.568C100.513 103.476 98.6902 104.222 96.6149 104.29C93.421 104.395 90.2232 104.595 87.0368 104.862C85.5867 104.986 84.1329 105.284 82.7242 105.668C79.6207 106.508 76.4907 107.114 72.9653 107.084L72.9728 107.081ZM92.5358 101.589C93.6695 101.589 94.8033 101.638 95.9332 101.578C98.1102 101.461 100.137 100.772 101.911 99.5476C102.63 99.0504 103.444 98.2256 103.59 97.4346C104.095 94.6776 103.715 92.0034 101.933 89.687C101.692 89.3744 101.304 89.1333 101.18 88.7868C100.483 86.8923 98.7354 86.1955 97.1837 85.382C95.6018 84.5496 94.4304 85.0806 93.6658 86.7454C93.2552 87.6418 92.9765 88.5985 92.6677 89.5401C91.9746 91.6719 90.7882 93.5137 89.2816 95.1371C88.4379 96.0448 87.6131 96.1352 86.5999 95.4083C85.8052 94.8358 85.0519 94.1239 84.4907 93.3254C83.2628 91.574 82.0312 91.5213 81.421 93.7962C80.954 95.5326 79.3118 95.8075 78.0576 94.5458C76.9314 93.4158 75.8165 92.2708 74.6828 91.1484C73.3307 89.8075 72.6075 89.9017 71.6998 91.6305C71.1461 92.6851 70.728 93.8113 70.261 94.9111C69.9559 95.6305 69.5039 96.3311 68.6829 96.1804C68.1179 96.0749 67.5755 95.5589 67.1424 95.1107C66.8373 94.7943 66.7921 94.2444 66.5247 93.8753C65.4098 92.3235 64.2949 90.7642 63.0746 89.2991C62.8524 89.0317 61.9296 88.945 61.6885 89.1635C60.8787 89.9055 59.8844 90.719 59.5793 91.6983C58.6377 94.7491 59.6923 97.6305 60.9541 100.38C61.8392 102.312 63.6471 103.035 65.6245 103.404C65.8203 103.442 66.0011 103.544 66.1895 103.6C70.4983 104.949 74.8561 105.114 79.1875 103.868C83.5641 102.606 87.9295 101.45 92.5434 101.597L92.5358 101.589ZM83.7073 87.156C84.502 88.5232 85.1498 89.751 85.9069 90.9074C87.0029 92.5872 88.3287 92.5608 89.2063 90.7906C90.2571 88.6663 91.1611 86.4705 92.1328 84.3085C91.1046 83.0807 89.9935 83.5891 89.0029 84.0336C87.5528 84.6852 86.1668 85.4836 84.7694 86.252C84.438 86.4366 84.1743 86.7492 83.7073 87.1522V87.156ZM67.3947 85.8641C66.7092 85.9093 66.31 85.913 65.9145 85.9695C64.6716 86.1465 64.4494 86.6964 65.2252 87.6795C66.0049 88.6663 66.777 89.6607 67.5981 90.6136C68.3213 91.4497 68.9804 91.4836 69.5077 90.5646C70.1254 89.4912 70.5586 88.2934 70.9465 87.1108C71.0218 86.8848 70.551 86.2407 70.2535 86.1804C69.2215 85.9733 68.1555 85.9394 67.3872 85.8678L67.3947 85.8641ZM75.1649 86.8471C75.0482 87.0693 74.9352 87.2916 74.8184 87.51C76.0237 88.6927 77.2026 89.913 78.4681 91.0279C78.6753 91.2087 79.5265 91.0768 79.6659 90.8433C80.1894 89.977 81.1762 89.284 81.0029 88.0561C79.1837 86.527 77.0369 87.5401 75.1612 86.8509L75.1649 86.8471Z" fill="black"/>
  <path d="M64.7471 74.6024C60.6266 74.8058 56.5061 74.9979 52.3856 75.2201C51.7302 75.254 51.0824 75.4461 50.427 75.5327C49.3498 75.6758 48.8865 75.2653 49.0824 74.2031C50.2462 67.9621 51.6963 61.7889 55.5004 56.5422C56.9279 54.5723 58.8337 52.9452 60.5324 51.1712C60.7584 50.9339 61.0748 50.7833 61.3121 50.5573C62.7923 49.1411 63.5268 49.1637 64.8714 50.7193C66.5625 52.6778 68.3968 54.5384 69.8808 56.6439C71.6698 59.1863 73.1727 61.932 74.7734 64.6062C75.2178 65.3482 75.5832 66.1354 75.9561 66.9113C76.732 68.5233 77.5568 70.1128 78.2423 71.7625C78.8675 73.2691 78.3741 74.0487 76.7244 74.1504C72.7357 74.399 68.7433 74.5647 64.7546 74.7643C64.7546 74.7078 64.7508 74.6513 64.7471 74.5948V74.6024ZM64.4345 72.2333C64.4345 72.2596 64.4345 72.2822 64.4345 72.3086C67.4891 72.1542 70.5399 72.0224 73.5907 71.8303C74.7583 71.7587 75.1689 70.9903 74.6905 69.8679C74.457 69.3218 74.103 68.8284 73.8544 68.2898C72.6529 65.7135 71.4853 63.1222 69.7 60.8623C69.1651 60.1881 68.7621 59.4122 68.2763 58.7004C67.7264 57.8944 67.2028 57.062 66.5776 56.32C65.9599 55.5893 65.1727 55.5893 64.5324 56.32C64.0578 56.8623 63.6284 57.4876 63.3497 58.1505C62.2801 60.723 61.2066 63.2992 60.2838 65.9245C59.8281 67.2239 59.6134 68.6288 59.4364 70.0073C59.2405 71.5515 59.6812 72.0676 61.2556 72.2107C62.3064 72.3048 63.3723 72.2295 64.4307 72.2295L64.4345 72.2333ZM61.926 54.5949C61.4025 54.8398 61.1313 54.8925 60.9731 55.0544C58.8111 57.2465 56.9769 59.6382 55.8771 62.5836C54.9242 65.141 54.1633 67.7248 53.8243 70.4291C53.7641 70.9188 53.6285 71.7173 53.8507 71.8566C54.2876 72.1278 54.9769 72.1692 55.5155 72.0676C56.3667 71.9094 56.9467 71.416 56.781 70.3802C56.7208 70.0035 56.8337 69.593 56.9091 69.2088C57.7189 65.1034 59.0484 61.1749 60.8262 57.3897C61.2066 56.5799 61.4853 55.7249 61.9222 54.5987L61.926 54.5949Z" fill="black"/>
  <path d="M105.865 76.591C100.671 76.591 95.4775 76.6061 90.2835 76.5835C88.4832 76.576 86.6828 76.4931 84.89 76.3801C84.2346 76.3387 83.5905 76.1202 82.9465 75.9658C82.0501 75.7473 81.7939 75.156 82.0049 74.3048C82.5887 71.9131 83.0482 69.48 83.7902 67.1335C84.5887 64.6024 85.5792 62.1278 86.615 59.6834C87.6131 57.3331 89.1724 55.3256 90.8673 53.4235C91.7977 52.3802 92.6828 51.2992 93.5867 50.2333C94.3852 49.288 94.9728 49.1674 96.001 49.8266C96.5622 50.1844 97.1611 50.5384 97.5905 51.0281C100.084 53.8642 102.924 56.4518 104.393 60.0525C105.368 62.448 106.355 64.8472 107.131 67.3067C107.809 69.4536 108.204 71.6909 108.713 73.8905C109.218 76.0713 108.702 76.704 106.468 76.6551C106.268 76.6513 106.069 76.6325 105.869 76.6212C105.869 76.6099 105.869 76.6023 105.869 76.591H105.865ZM93.9257 74.2445C93.9257 74.1956 93.9332 74.1428 93.937 74.0939C95.4022 74.1692 96.8636 74.2671 98.3287 74.3123C99.0594 74.3349 99.8089 74.3462 100.521 74.2106C101.534 74.0223 101.809 73.5251 101.624 72.4781C101.553 72.0863 101.462 71.6871 101.312 71.3218C100.43 69.1711 99.5415 67.0242 98.6263 64.8924C97.5114 62.2935 96.0086 59.9696 93.6847 58.2672C91.7148 56.8246 90.5698 57.0054 89.5717 59.1712C88.3476 61.819 87.244 64.5308 86.2308 67.2653C85.7035 68.6852 85.4135 70.2069 85.1386 71.7059C84.8598 73.2276 85.1875 73.6231 86.7468 73.7549C89.1385 73.9583 91.534 74.0863 93.9257 74.2445ZM104.735 73.5929C106.039 73.1636 105.711 72.2257 105.402 71.4686C104.457 69.1334 104.705 66.512 103.5 64.2333C102.517 62.3764 101.843 60.3501 100.826 58.5158C100.171 57.3331 99.1385 56.3576 98.2722 55.2917C96.7317 53.3934 95.8617 53.2427 93.47 54.497C95.1762 56.3011 97.0782 57.9471 98.5095 59.932C99.937 61.9094 101.007 64.1768 102.012 66.4141C103.037 68.689 103.798 71.0845 104.732 73.5929H104.735Z" fill="black"/>
  <path d="M92.5359 101.589C87.922 101.442 83.5566 102.602 79.18 103.86C74.8486 105.107 70.487 104.945 66.1819 103.593C65.9899 103.533 65.8091 103.431 65.617 103.397C63.6434 103.028 61.8355 102.305 60.9466 100.372C59.6848 97.6229 58.6302 94.7416 59.5718 91.6908C59.8731 90.7115 60.8675 89.8979 61.681 89.1559C61.9221 88.9337 62.8449 89.0241 63.0671 89.2915C64.2874 90.7604 65.4023 92.316 66.5172 93.8678C66.7846 94.2369 66.8298 94.7906 67.1349 95.1032C67.568 95.5514 68.1104 96.0674 68.6754 96.1729C69.4964 96.3235 69.9484 95.6229 70.2535 94.9035C70.7168 93.8037 71.1348 92.6738 71.6923 91.623C72.6038 89.8942 73.3269 89.8038 74.6753 91.1409C75.809 92.2633 76.9239 93.4083 78.0501 94.5382C79.3043 95.8 80.9502 95.525 81.4135 93.7887C82.0237 91.5137 83.2591 91.5665 84.4832 93.3179C85.0444 94.1164 85.7977 94.8282 86.5924 95.4007C87.6056 96.1314 88.4304 96.041 89.2741 95.1295C90.7807 93.5062 91.9671 91.6644 92.6602 89.5326C92.9653 88.591 93.2477 87.6343 93.6583 86.7379C94.4229 85.0731 95.5942 84.542 97.1762 85.3744C98.7279 86.1917 100.476 86.8848 101.172 88.7793C101.3 89.1258 101.688 89.3668 101.926 89.6795C103.707 91.9958 104.084 94.67 103.583 97.4271C103.44 98.218 102.626 99.0429 101.903 99.5401C100.129 100.768 98.1027 101.457 95.9257 101.57C94.7958 101.63 93.6621 101.581 92.5283 101.581L92.5359 101.589Z" fill="#ED1C24"/>
  <path d="M83.7073 87.1597C84.1743 86.7567 84.438 86.4441 84.7694 86.2596C86.1668 85.4912 87.5528 84.6927 89.0029 84.0411C89.9897 83.5967 91.1046 83.0882 92.1329 84.3161C91.1649 86.478 90.2572 88.6739 89.2063 90.7981C88.3325 92.5684 87.0067 92.5947 85.9069 90.9149C85.1498 89.7548 84.502 88.527 83.7073 87.1635V87.1597Z" fill="white"/>
  <path d="M67.3947 85.8679C68.1631 85.9394 69.229 85.9733 70.261 86.1805C70.5586 86.2407 71.0256 86.8848 70.954 87.1108C70.5661 88.2935 70.1329 89.4912 69.5152 90.5646C68.9842 91.4837 68.3288 91.4498 67.6056 90.6136C66.7846 89.6645 66.0124 88.6663 65.2328 87.6795C64.4569 86.6965 64.6791 86.1466 65.922 85.9696C66.3138 85.9131 66.7168 85.9131 67.4023 85.8641L67.3947 85.8679Z" fill="white"/>
  <path d="M75.1689 86.8509C77.0446 87.5401 79.1915 86.5307 81.0107 88.0561C81.184 89.284 80.1971 89.9808 79.6736 90.8433C79.5305 91.0806 78.683 91.2124 78.4759 91.0279C77.2066 89.913 76.0314 88.6964 74.8262 87.51C74.9429 87.2878 75.0559 87.0655 75.1727 86.8471L75.1689 86.8509Z" fill="white"/>
  <path d="M64.4343 72.2333C63.376 72.2333 62.3063 72.3124 61.2592 72.2145C59.6848 72.0713 59.2404 71.5553 59.44 70.0111C59.617 68.6363 59.8317 67.2314 60.2875 65.9282C61.2102 63.303 62.2837 60.7268 63.3534 58.1543C63.6283 57.4914 64.0577 56.8661 64.536 56.3238C65.1763 55.5931 65.9635 55.5893 66.5812 56.3238C67.2102 57.0658 67.7337 57.8981 68.2799 58.7042C68.7658 59.416 69.1688 60.1919 69.7036 60.8661C71.4889 63.1222 72.6565 65.7135 73.858 68.2936C74.1104 68.8322 74.4644 69.3256 74.6942 69.8717C75.1687 70.9941 74.762 71.7587 73.5944 71.8341C70.5435 72.0224 67.4889 72.1542 64.4381 72.3124C64.4381 72.286 64.4381 72.2634 64.4381 72.2371L64.4343 72.2333ZM66.7469 66.1203C66.762 64.6665 66.0577 63.8492 64.8223 63.8755C63.504 63.9057 62.1255 65.1637 62.1104 66.3501C62.0954 67.4913 63.2215 68.6288 64.4117 68.6853C65.9296 68.7531 66.7319 67.8755 66.7469 66.1203Z" fill="white"/>
  <path d="M61.926 54.5949C61.4891 55.7173 61.2103 56.5761 60.8299 57.3859C59.0522 61.1712 57.7188 65.0996 56.9128 69.205C56.8375 69.593 56.7245 70.0035 56.7847 70.3764C56.9505 71.4122 56.3704 71.9056 55.5192 72.0638C54.9768 72.1617 54.2914 72.124 53.8544 71.8528C53.6322 71.7135 53.7678 70.915 53.8281 70.4254C54.1671 67.721 54.9279 65.1372 55.8808 62.5798C56.9806 59.6344 58.8149 57.2427 60.9768 55.0507C61.135 54.8887 61.4062 54.8397 61.9297 54.5912L61.926 54.5949Z" fill="#FFC34F"/>
  <path d="M93.9258 74.2445C91.5303 74.0863 89.1349 73.9545 86.7469 73.7549C85.1876 73.6231 84.8599 73.2276 85.1387 71.7059C85.4136 70.2069 85.7036 68.6852 86.2309 67.2653C87.2441 64.5308 88.3477 61.819 89.5718 59.1712C90.5737 57.0054 91.7187 56.8247 93.6848 58.2672C96.0087 59.9696 97.5115 62.2898 98.6264 64.8924C99.5416 67.028 100.43 69.1749 101.312 71.3218C101.463 71.6871 101.553 72.0864 101.624 72.4781C101.809 73.5251 101.538 74.0223 100.521 74.2106C99.809 74.3425 99.0595 74.3349 98.3288 74.3123C96.8636 74.2671 95.3985 74.1692 93.9371 74.0939C93.9371 74.1428 93.9296 74.1956 93.9258 74.2445ZM94.8448 68.2822C94.6791 66.5384 93.6885 65.5139 92.2912 65.6419C90.4531 65.8114 89.4927 66.8924 89.6396 68.625C89.7337 69.7361 91.1386 70.6325 92.6301 70.5308C94.0501 70.4366 94.9578 69.5101 94.8448 68.2822Z" fill="white"/>
  <path d="M104.736 73.5968C103.798 71.0883 103.041 68.6928 102.016 66.4179C101.007 64.1806 99.9371 61.9132 98.5134 59.9358C97.0821 57.9509 95.1763 56.3049 93.4739 54.5008C95.8656 53.2466 96.7356 53.3935 98.2761 55.2955C99.1424 56.3614 100.174 57.3369 100.83 58.5196C101.847 60.3539 102.525 62.3765 103.504 64.2371C104.709 66.5158 104.461 69.141 105.406 71.4725C105.715 72.2295 106.043 73.1674 104.739 73.5968H104.736Z" fill="#FFC34F"/>
  <path d="M66.7431 66.1203C66.728 67.8717 65.9258 68.7531 64.4079 68.6853C63.2177 68.6326 62.0915 67.4913 62.1066 66.3501C62.1217 65.1636 63.5002 63.9056 64.8184 63.8755C66.0538 63.8454 66.7582 64.6665 66.7431 66.1203Z" fill="black"/>
  <path d="M94.8447 68.2823C94.9614 69.5101 94.05 70.4367 92.63 70.5309C91.1385 70.6325 89.7336 69.7361 89.6394 68.625C89.4925 66.8925 90.453 65.8115 92.291 65.642C93.6884 65.5102 94.679 66.5384 94.8447 68.2823Z" fill="black"/>
  <path d="M60.0051 93.5476C60.3064 92.5683 61.3008 91.7548 62.1143 91.0128C62.3554 90.7906 63.2782 90.881 63.5004 91.1484C64.7207 92.6173 65.8356 94.1729 66.9505 95.7246C67.2179 96.0938 67.2631 96.6474 67.5682 96.96C68.0013 97.4082 68.5437 97.9243 69.1087 98.0297C69.9298 98.1804 70.3817 97.4798 70.6868 96.7604C71.1501 95.6606 71.5682 94.5307 72.1256 93.4798C73.0371 91.751 73.7602 91.6606 75.1086 92.9977C76.2423 94.1201 77.3572 95.2651 78.4834 96.3951C79.7376 97.6568 81.3836 97.3819 81.8468 95.6455C82.457 93.3706 83.6924 93.4233 84.9165 95.1747C85.4777 95.9732 86.231 96.6851 87.0257 97.2576C88.0389 97.9883 88.8637 97.8979 89.7074 96.9864C91.214 95.363 92.4005 93.5213 93.0935 91.3894C93.3986 90.4478 93.681 89.4911 94.0916 88.5947C94.8562 86.9299 96.0275 86.3989 97.6095 87.2313C99.1612 88.0486 100.909 88.7416 101.606 90.6361C101.734 90.9827 102.122 91.2237 102.359 91.5363C102.969 92.3273 103.402 93.1634 103.704 94.026C103.512 92.493 102.965 91.0279 101.93 89.6832C101.689 89.3706 101.301 89.1296 101.176 88.783C100.48 86.8885 98.7319 86.1917 97.1801 85.3782C95.5982 84.5458 94.4268 85.0769 93.6622 86.7416C93.2517 87.638 92.973 88.5947 92.6641 89.5363C91.9711 91.6682 90.7846 93.51 89.2781 95.1333C88.4344 96.041 87.6095 96.1314 86.5963 95.4045C85.8016 94.832 85.0483 94.1201 84.4871 93.3216C83.2593 91.5702 82.0276 91.5175 81.4175 93.7924C80.9504 95.5288 79.3082 95.8037 78.054 94.542C76.9278 93.412 75.813 92.267 74.6793 91.1446C73.3271 89.8038 72.6039 89.8979 71.6962 91.6267C71.1425 92.6813 70.7245 93.8075 70.2574 94.9073C69.9523 95.6267 69.5004 96.3273 68.6793 96.1766C68.1143 96.0711 67.5719 95.5551 67.1388 95.1069C66.8337 94.7906 66.7885 94.2406 66.5211 93.8715C65.4062 92.3198 64.2914 90.7604 63.071 89.2953C62.8488 89.0279 61.926 88.9412 61.685 89.1597C60.8752 89.9017 59.8808 90.7152 59.5758 91.6945C58.9694 93.6644 59.1991 95.5627 59.7716 97.4045C59.5795 96.1502 59.5983 94.8659 60.0051 93.5514V93.5476Z" fill="#870B20"/>
  <path d="M107.056 35.902C108.223 33.9773 109.447 32.0828 110.521 30.1054C111.199 28.8512 112.054 28.0866 113.511 28.3277C114.762 28.5348 116.042 28.7156 117.244 29.0885C117.888 28.1431 117.688 27.386 116.438 26.919C115.093 26.4143 113.617 26.2335 112.186 25.9925C110.728 25.7476 109.873 26.516 109.195 27.7702C108.122 29.7476 106.897 31.6421 105.73 33.5668C105.364 34.1732 104.977 34.7683 104.351 35.7589C105.255 35.9208 106.073 36.0753 106.856 36.2184C106.92 36.1129 106.988 36.0075 107.052 35.902H107.056Z" fill="#6C7249"/>
</svg>