<svg xmlns="http://www.w3.org/2000/svg" width="125" height="116" viewBox="0 0 125 116" fill="none">
  <path d="M22.2691 46.3492C22.5417 47.2798 21.9777 47.7451 21.597 48.248C20.4596 49.7378 19.2094 51.1384 18.0955 52.6424C16.9582 54.1792 15.9336 55.796 14.8573 57.3752C14.3685 58.0849 13.8092 58.7523 13.3862 59.4995C12.4275 61.1962 11.3747 62.8647 10.6462 64.6647C9.61222 67.2121 9.17043 69.9333 8.95893 72.6828C8.92603 73.1434 9.16102 73.3972 9.58872 73.463C10.0211 73.5288 10.3078 73.7355 10.618 74.0551C11.1867 74.6426 12.0844 74.3418 12.263 73.5429C12.3429 73.181 12.3288 72.7956 12.3241 72.4196C12.31 70.4362 12.7189 68.5516 13.5742 66.7562C14.8949 63.9785 16.1169 61.1539 17.5128 58.4139C18.5467 56.3788 19.7781 54.4424 20.9484 52.4779C21.8884 50.8987 22.8189 49.3101 23.8341 47.7827C24.8493 46.2505 25.9679 44.7888 27.0348 43.2896C28.1251 41.7621 29.1591 40.1923 30.3059 38.7119C31.1284 37.6497 32.0919 36.6909 32.9942 35.6898C35.3677 33.0579 37.2712 30.0828 39.3438 27.2253C40.5517 25.5615 42.0275 24.1751 44.0578 23.5641C45.4537 23.1411 46.8684 22.7275 48.3018 22.4784C49.0068 22.3562 49.7917 22.5489 50.5108 22.7181C52.1181 23.0941 53.7114 23.5406 55.3094 23.9589C57.2692 24.4665 59.2338 24.9599 61.1937 25.4816C63.4402 26.0785 65.7056 26.6284 67.9239 27.3287C71.3596 28.4097 74.8704 28.9126 78.4564 28.9643C79.6596 28.9831 80.8581 29.0254 82.0612 29.0254C84.054 29.0254 85.9152 28.4567 87.7152 27.6624C89.5012 26.8775 91.2589 26.0268 93.0402 25.2278C93.6559 24.9552 94.2857 24.6685 94.939 24.5323C98.807 23.7333 102.633 23.6675 106.289 25.4628C108.174 26.3887 110.04 27.3428 111.882 28.3439C112.902 28.8985 113.518 29.8431 114.025 30.8724C114.899 32.6537 115.708 34.4772 116.742 36.1645C117.56 37.4946 118.213 38.8576 118.547 40.3662C118.753 41.3109 118.843 42.2791 119.012 43.4165C118.923 43.3084 118.96 43.393 119.021 43.4212C120.318 43.9946 120.488 43.8771 120.572 42.4859C120.774 39.2147 119.914 36.1692 118.631 33.213C118.053 31.8782 117.099 30.7925 116.07 29.8102C114.796 28.5977 113.386 27.5261 112.042 26.3793C111.45 25.8764 110.886 25.3453 110.402 24.6168C110.745 24.6591 111.088 24.6873 111.426 24.7437C111.76 24.8001 112.098 24.8424 112.413 24.9505C113.297 25.256 114.176 25.585 115.055 25.9187C116.808 26.5814 118.232 27.7564 119.534 29.0395C121.813 31.2907 122.955 34.0825 123.11 37.2878C123.162 38.3359 123.463 39.4027 123.345 40.4226C123.185 41.8655 122.744 43.2755 122.419 44.6995C122.335 45.0614 122.227 45.4186 122.137 45.7805C121.677 47.6323 121.08 49.4417 120.436 51.2418C119.628 53.4931 118.89 55.7772 118.297 58.0896C117 63.1561 117.085 68.3589 116.967 73.5382C116.902 76.5367 116.624 79.5305 116.455 82.5291C116.408 83.3516 116.469 84.1881 116.366 85.0059C116.112 87.0175 115.929 89.0525 115.449 91.0124C115.017 92.7796 114.58 94.5749 113.706 96.2152C113.231 97.0988 112.982 98.0998 112.512 98.9881C111.407 101.098 109.856 102.884 108.216 104.586C107.286 105.549 106.322 106.508 105.26 107.316C104.287 108.059 103.192 108.661 102.097 109.22C98.5062 111.053 94.6194 111.579 90.6433 111.65C88.0771 111.697 85.5721 111.325 83.0529 110.794C77.8877 109.709 72.9246 108.054 68.0414 106.104C65.8231 105.22 63.5295 104.727 61.1279 104.741C59.7743 104.75 58.4066 104.769 57.0765 104.581C54.736 104.247 52.433 104.562 50.116 104.746C48.6167 104.863 47.1175 104.948 45.6229 105.075C44.6876 105.154 43.757 105.291 42.8264 105.38C38.0372 105.826 33.2433 106.353 28.4353 105.906C26.0525 105.685 23.6743 105.225 21.3338 104.699C19.4585 104.276 17.7665 103.359 16.1968 102.217C14.1288 100.713 12.0562 99.209 10.3642 97.2774C8.75683 95.4444 7.16357 93.5879 5.7207 91.6281C5.00161 90.6505 4.51282 89.4614 4.10863 88.3052C3.18745 85.6733 2.76915 82.9192 2.46836 80.1556C2.29446 78.567 2.58586 77.0114 2.98535 75.4745C3.33315 74.1303 3.63864 72.7721 4.00523 71.4373C4.79952 68.561 6.01679 65.8726 7.65235 63.3676C9.46182 60.5946 11.4922 58.0097 13.7669 55.5939C16.3096 52.8915 18.7441 50.0809 21.2351 47.3268C21.55 46.979 21.9307 46.6829 22.2785 46.3633L22.2691 46.3492ZM48.9551 70.8498C48.941 70.925 48.9316 71.0049 48.9175 71.0801C48.4052 71.0096 47.8647 71.019 47.3853 70.8545C45.5336 70.2059 43.6348 69.8252 41.6985 69.5056C39.2075 69.092 36.7683 69.1249 34.3243 69.7547C33.671 69.9239 32.9989 70.0085 32.3362 70.1542C31.4245 70.3516 30.4798 70.4738 29.6056 70.7887C27.3403 71.6112 25.183 72.6123 23.5004 74.4499C21.7615 76.3534 20.6429 78.6235 19.8016 80.9734C18.7159 84.0095 18.448 87.2102 19.1765 90.4061C19.6747 92.5869 20.5395 94.6031 22.02 96.3374C23.2278 97.7474 24.666 98.88 26.123 100.008C28.6092 101.93 31.3963 103.016 34.5264 103.176C36.585 103.284 38.6529 103.34 40.7162 103.326C41.5246 103.321 42.3658 103.162 43.1413 102.908C45.3174 102.203 47.4605 101.404 49.6225 100.657C51.7234 99.9328 53.6973 98.9411 55.6196 97.8366C58.0447 96.4408 60.578 95.3081 63.4167 95.1671C64.4883 95.1154 65.5928 95.2376 66.6455 95.4632C69.0284 95.9708 71.134 97.1693 73.1972 98.3912C76.1723 100.144 79.0815 102.005 82.0236 103.82C83.4947 104.727 85.0081 105.549 86.6765 106.066C88.2933 106.569 89.9477 106.86 91.6161 107.138C94.4596 107.608 96.9223 106.724 99.0796 105.056C101.66 103.063 103.512 100.407 105.091 97.5734C105.697 96.4831 106.101 95.3034 106.167 94.0438C106.27 92.0981 106.364 90.1476 106.416 88.2018C106.454 86.7825 106.035 85.4477 105.349 84.221C104.762 83.1776 103.972 82.2424 103.441 81.1755C102.769 79.8266 101.824 78.7644 100.649 77.8574C98.4451 76.156 96.0387 74.9011 93.2799 74.4123C92.1754 74.2149 91.0569 74.1115 89.9383 73.9987C89.4871 73.9517 89.0406 73.9658 88.6975 73.3971C89.0406 73.2514 89.3414 73.1434 89.6234 73.0024C90.0558 72.7815 90.554 72.617 90.8783 72.288C91.6443 71.5219 92.4198 70.7323 93.0214 69.8393C94.5442 67.5646 95.5782 65.0219 96.7296 62.5545C97.0116 61.9482 96.6403 61.3654 96.0058 61.3419C95.3902 61.3184 94.5865 62.0046 94.6993 62.6109C94.9061 63.706 94.1494 64.2934 93.6512 65.1441C93.2799 64.6318 93.4068 64.2135 93.4914 63.7718C93.6935 62.7425 93.8721 61.7085 94.0131 60.6698C94.2199 59.1141 93.8439 57.5961 93.5478 56.0968C93.1248 53.9302 92.7535 51.7212 91.5174 49.8083C90.4459 48.1446 89.2004 46.6218 87.2734 45.9215C83.7579 44.6431 80.1437 44.0369 76.4307 44.9251C74.908 45.2917 73.3288 45.6113 72.1068 46.7158C71.2139 47.5195 70.3491 48.3514 69.5078 49.2114C68.9344 49.7989 68.4362 50.4616 67.8863 51.0726C67.2236 51.8058 66.6738 51.6977 66.3166 50.8C66.0816 50.2078 65.8842 49.5874 65.5505 49.047C64.9442 48.0647 64.3708 47.0119 63.5671 46.2035C62.4015 45.0285 60.9587 44.1872 59.3842 43.6092C58.9659 43.4541 58.5758 43.2238 58.1763 43.017C56.2024 41.9971 54.2237 40.9913 51.9207 40.9725C51.5495 40.9725 51.1735 40.8926 50.8069 40.8127C47.0892 40.0043 44.0625 41.4378 41.487 43.91C38.8315 46.4526 37.8727 49.8083 37.5766 53.3615C37.3181 56.4211 38.479 59.194 39.6211 61.92C41.0593 65.3462 43.4985 67.9594 46.718 69.8205C47.4182 70.2247 48.1937 70.5067 48.9363 70.8451L48.9551 70.8498ZM8.78503 80.4846C8.72393 81.6784 9.57932 82.6278 10.6885 82.5432C10.8436 82.5291 11.1162 82.2142 11.1021 82.0544C11.0128 80.7572 10.101 80.1603 8.78033 80.4846H8.78503ZM10.7026 87.4452C11.2384 87.417 11.6332 86.9987 11.5909 86.5052C11.5486 86.0352 11.1679 85.6921 10.6885 85.6968C10.1856 85.6968 9.82371 86.101 9.82371 86.6603C9.82371 87.1397 10.1997 87.4781 10.6979 87.4499L10.7026 87.4452ZM115.67 48.3843C115.731 48.4454 115.788 48.5018 115.849 48.5629C116.23 48.295 116.643 48.06 116.972 47.7404C117.113 47.6088 117.179 47.2469 117.094 47.0777C117.005 46.8897 116.704 46.697 116.497 46.7017C116.309 46.7017 116.042 46.932 115.966 47.1247C115.811 47.5242 115.764 47.9613 115.67 48.3843ZM113.339 50.5039C113.254 50.6402 113.034 50.847 112.996 51.082C112.916 51.5849 113.32 52.0596 113.724 52.0032C114.119 51.9515 114.303 51.6883 114.303 51.3029C114.303 50.8799 113.922 50.5039 113.334 50.4992L113.339 50.5039Z" fill="#FF9439"/>
  <path d="M10.8484 91.9852C11.3842 91.957 11.7789 91.5387 11.7366 91.0452C11.6943 90.5753 11.3137 90.2322 10.8343 90.2369C10.3314 90.2369 9.96948 90.6411 9.96948 91.2003C9.96948 91.6797 10.3455 92.0181 10.8437 91.9899L10.8484 91.9852Z" fill="#FFC34F"/>
  <path d="M8.93073 85.0293C8.88843 85.8283 9.26442 86.5098 9.84721 86.8529C9.83311 86.7918 9.82371 86.726 9.82371 86.6555C9.82371 86.0962 10.1856 85.6967 10.6885 85.692C10.8107 85.692 10.9282 85.7155 11.0363 85.7531C10.6791 85.0575 9.92241 84.7849 8.93543 85.0246L8.93073 85.0293Z" fill="#FFC34F"/>
  <path d="M96.161 65.8866C95.5453 65.8631 94.7416 66.5493 94.8544 67.1556C95.0612 68.2506 94.3045 68.8381 93.8063 69.6888C93.6277 69.4397 93.5666 69.2141 93.5572 68.9979C93.3833 69.2846 93.2094 69.5619 93.0214 69.8392C92.4245 70.7322 91.6444 71.5218 90.8783 72.2879C90.5493 72.6169 90.0511 72.7814 89.6234 73.0023C89.3414 73.1479 89.0359 73.256 88.6975 73.397C89.0406 73.9657 89.4871 73.9516 89.9383 73.9986C91.0193 74.1067 92.1002 74.2101 93.1671 74.3934C93.1671 74.3934 93.1718 74.3887 93.1765 74.384C94.6993 72.1093 95.7333 69.5666 96.8847 67.0992C97.1667 66.4929 96.7954 65.9101 96.161 65.8866Z" fill="#FFC34F"/>
  <path d="M112.033 26.3746C113.372 27.5167 114.787 28.5882 116.06 29.8055C116.794 30.5058 117.489 31.2625 118.039 32.1226C118.612 32.5737 119.153 33.0672 119.675 33.5795C121.822 35.6992 122.95 38.3076 123.204 41.2827C123.256 40.996 123.308 40.7093 123.34 40.4179C123.453 39.3933 123.157 38.3311 123.106 37.2831C122.95 34.0777 121.808 31.286 119.529 29.0347C118.232 27.7517 116.803 26.5767 115.05 25.914C114.176 25.5803 113.297 25.2513 112.409 24.9458C112.094 24.8377 111.751 24.7907 111.422 24.739C111.083 24.6826 110.74 24.6544 110.397 24.6121C110.881 25.3359 111.445 25.8717 112.037 26.3746H112.033Z" fill="#FFC34F"/>
  <path d="M99.2394 109.596C101.82 107.603 103.671 104.948 105.251 102.114C105.857 101.023 106.261 99.8435 106.327 98.5839C106.43 96.6381 106.524 94.6877 106.576 92.7419C106.595 92.0651 106.505 91.4071 106.336 90.768C106.289 91.8583 106.238 92.9487 106.181 94.0391C106.115 95.2987 105.711 96.4783 105.105 97.5687C103.526 100.398 101.674 103.058 99.0937 105.051C96.9365 106.719 94.4737 107.603 91.6303 107.133C89.9618 106.856 88.3075 106.564 86.686 106.061C85.0175 105.544 83.5042 104.722 82.0331 103.815C79.091 102.005 76.1817 100.144 73.2067 98.3865C71.1387 97.1692 69.0332 95.966 66.655 95.4584C65.6022 95.2329 64.4978 95.1107 63.4262 95.1624C60.5874 95.3034 58.0542 96.436 55.629 97.8319C53.7068 98.9364 51.7328 99.9281 49.632 100.652C47.47 101.399 45.3268 102.198 43.1508 102.903C42.3753 103.152 41.5387 103.317 40.7256 103.321C38.6624 103.335 36.5991 103.274 34.5359 103.171C31.4057 103.011 28.6187 101.926 26.1324 100.003C24.6708 98.8753 23.2373 97.7426 22.0294 96.3326C20.549 94.6031 19.6842 92.5868 19.186 90.4014C19.1249 90.1241 19.0779 89.8515 19.0309 89.5742C18.8429 91.346 18.9275 93.1414 19.3364 94.9415C19.8346 97.1222 20.6994 99.1385 22.1798 100.873C23.3877 102.283 24.8259 103.415 26.2828 104.543C26.9361 105.046 27.6129 105.493 28.3038 105.878C28.3414 105.878 28.379 105.888 28.4166 105.892C33.2246 106.339 38.0232 105.812 42.8077 105.366C43.743 105.277 44.6689 105.14 45.6041 105.06C47.0987 104.933 48.6027 104.849 50.0972 104.731C50.4826 104.703 50.8633 104.666 51.2487 104.633C52.8091 103.989 54.3037 103.218 55.77 102.377C58.1952 100.981 60.7284 99.8482 63.5672 99.7072C64.6388 99.6555 65.7432 99.7777 66.796 100.003C69.1789 100.511 71.2844 101.709 73.3477 102.931C76.3227 104.684 79.2319 106.546 82.1741 108.36C83.6452 109.267 85.1585 110.089 86.827 110.606C88.3357 111.072 89.8772 111.358 91.4329 111.621C93.2941 111.556 95.127 111.377 96.9224 111.001C97.7308 110.639 98.4969 110.164 99.2347 109.596H99.2394Z" fill="#FFC34F"/>
  <path d="M47.3853 70.8544C47.8647 71.0236 48.4052 71.0095 48.9175 71.08C48.9316 71.0048 48.941 70.9249 48.9551 70.8497C48.2125 70.5113 47.437 70.234 46.7367 69.8251C43.5173 67.9639 41.0734 65.3508 39.6399 61.9246C38.9443 60.2655 38.244 58.5876 37.8586 56.8393C37.8116 57.1965 37.774 57.549 37.7458 57.9108C37.4873 60.9705 38.6482 63.7434 39.7903 66.4694C40.2462 67.5503 40.8102 68.5467 41.4588 69.4679C41.5434 69.482 41.6233 69.4914 41.7078 69.5055C43.6442 69.8251 45.543 70.2105 47.3947 70.8544H47.3853Z" fill="#FFC34F"/>
  <path d="M119.148 47.9518C119.073 47.8625 119.097 47.9189 119.148 47.9518V47.9518Z" fill="#FFC34F"/>
  <path d="M21.3761 51.8574C21.691 51.5096 22.0716 51.2135 22.4194 50.8939C22.692 51.8245 22.128 52.2898 21.7474 52.7927C20.61 54.2826 19.3598 55.6831 18.2459 57.1871C18.1472 57.3187 18.0532 57.4597 17.9545 57.5913C17.8088 57.8639 17.6537 58.1365 17.5127 58.4138C16.1169 61.1538 14.8949 63.9785 13.5742 66.7561C12.7188 68.5515 12.3099 70.4361 12.324 72.4195C12.324 72.7955 12.3428 73.1809 12.2629 73.5428C12.0844 74.3418 11.1867 74.6425 10.618 74.0551C10.3078 73.7355 10.0211 73.5287 9.5887 73.4629C9.35841 74.7036 9.20801 75.9585 9.11401 77.2275C9.08111 77.6881 9.31611 77.9419 9.7438 78.0077C10.1762 78.0735 10.4629 78.2803 10.7731 78.5999C11.3418 79.1873 12.2394 78.8866 12.418 78.0876C12.4979 77.7257 12.4838 77.3403 12.4791 76.9643C12.465 74.9809 12.8739 73.0963 13.7293 71.3009C15.05 68.5233 16.272 65.6986 17.6678 62.9586C18.7018 60.9235 19.9332 58.9872 21.1035 57.0226C22.0434 55.4434 22.974 53.8549 23.9892 52.3274C25.0044 50.7952 26.123 49.3336 27.1898 47.8343C28.2802 46.3068 29.3142 44.7371 30.461 43.2566C31.2835 42.1944 32.2469 41.2356 33.1493 40.2345C35.5228 37.6026 37.4262 34.6276 39.4989 31.77C40.7068 30.1063 42.1825 28.7198 44.2129 28.1088C45.6088 27.6858 47.0234 27.2722 48.4569 27.0231C49.1619 26.9009 49.9468 27.0936 50.6659 27.2628C52.2732 27.6388 53.8665 28.0853 55.4645 28.5036C57.4243 29.0112 59.3889 29.5047 61.3487 30.0264C63.5953 30.6232 65.8606 31.1731 68.079 31.8734C71.5146 32.9544 75.0255 33.4573 78.6115 33.509C79.8147 33.5278 81.0131 33.5701 82.2163 33.5701C84.2091 33.5748 86.0702 33.0014 87.8703 32.2071C89.6563 31.4222 91.414 30.5715 93.1953 29.7726C93.811 29.5 94.4408 29.2133 95.0941 29.077C98.9621 28.278 102.788 28.2122 106.444 30.0076C108.329 30.9334 110.195 31.8875 112.037 32.8886C113.057 33.4432 113.673 34.3879 114.18 35.4171C115.055 37.1984 115.863 39.022 116.897 40.7092C117.715 42.0393 118.368 43.4023 118.702 44.9109C118.908 45.8556 118.998 46.8238 119.167 47.9612C119.167 47.9612 119.172 47.9659 119.176 47.9659C120.474 48.5393 120.643 48.4218 120.727 47.0306C120.807 45.7287 120.713 44.4598 120.497 43.219C120.365 43.8958 120.041 43.8723 119.026 43.4211C119.026 43.4211 119.021 43.4211 119.017 43.4164C118.847 42.279 118.758 41.3108 118.551 40.3661C118.218 38.8575 117.564 37.4992 116.747 36.1644C116.225 35.3137 115.76 34.4208 115.313 33.5231C114.298 32.6348 113.231 31.7982 112.202 30.924C111.61 30.4212 111.046 29.8901 110.561 29.1616C110.905 29.2039 111.248 29.2321 111.586 29.2885C111.92 29.3449 112.258 29.3872 112.573 29.4953C112.855 29.594 113.142 29.6974 113.424 29.8008C113.024 29.2086 112.54 28.6963 111.892 28.3438C110.049 27.3427 108.179 26.3839 106.299 25.4627C102.647 23.6674 98.8164 23.7332 94.9483 24.5322C94.2951 24.6685 93.6653 24.9505 93.0496 25.2278C91.2683 26.0267 89.5106 26.8727 87.7246 27.6623C85.9245 28.4519 84.0634 29.03 82.0706 29.0253C80.8674 29.0253 79.669 28.9783 78.4658 28.9642C74.8798 28.9125 71.3689 28.4096 67.9333 27.3286C65.715 26.6283 63.4496 26.0831 61.203 25.4816C59.2479 24.9599 57.2786 24.4664 55.3188 23.9588C53.7208 23.5452 52.1275 23.094 50.5202 22.718C49.8011 22.5488 49.0115 22.3561 48.3112 22.4783C46.8777 22.7274 45.4631 23.141 44.0672 23.564C42.0415 24.175 40.5611 25.5614 39.3532 27.2252C37.2805 30.0828 35.3771 33.0578 33.0036 35.6897C32.1012 36.6908 31.1378 37.6449 30.3153 38.7118C29.1685 40.1969 28.1345 41.762 27.0441 43.2895C25.9773 44.7888 24.8587 46.2504 23.8435 47.7826C22.9223 49.1738 22.0716 50.6072 21.2163 52.0407C21.2727 51.9796 21.3291 51.9185 21.3808 51.8574H21.3761ZM118.998 43.407C118.923 43.3177 118.946 43.3741 118.998 43.407V43.407Z" fill="#FFC34F"/>
  <path d="M3.12635 80.0099C3.47414 78.6657 3.77963 77.3074 4.14623 75.9727C4.94051 73.0963 6.15779 70.408 7.79335 67.9029C8.92133 66.1734 10.148 64.519 11.4593 62.9304C12.0609 61.7696 12.7424 60.6416 13.3862 59.5042C13.8092 58.7569 14.3685 58.0895 14.8573 57.3799C15.9383 55.8007 16.9629 54.1839 18.0955 52.647C19.2094 51.1431 20.4596 49.7378 21.597 48.2526C21.9824 47.7497 22.5464 47.2845 22.2691 46.3539C21.9213 46.6735 21.5406 46.9696 21.2257 47.3174C18.7347 50.0715 16.3049 52.882 13.7575 55.5845C11.4828 58.0002 9.45242 60.5852 7.64295 63.3581C6.00739 65.8632 4.79011 68.5515 3.99583 71.4279C3.62454 72.7673 3.32374 74.1209 2.97595 75.4651C2.57646 77.002 2.28507 78.5576 2.45896 80.1462C2.52946 80.7854 2.60466 81.4246 2.69396 82.0637C2.79735 81.3729 2.95245 80.6914 3.12635 80.0099Z" fill="#FFC34F"/>
  <path d="M93.5055 63.7716C93.4209 64.2134 93.294 64.6317 93.6653 65.144C93.8392 64.8432 94.046 64.5753 94.234 64.3121C94.234 63.3768 94.0789 62.4557 93.8956 61.5392C93.7781 62.2865 93.6512 63.029 93.5102 63.7716H93.5055Z" fill="#FFC34F"/>
  <path d="M113.875 56.548C114.27 56.4963 114.453 56.2331 114.453 55.8477C114.453 55.4247 114.072 55.0487 113.485 55.044C113.4 55.1803 113.179 55.3871 113.142 55.6221C113.062 56.125 113.466 56.5997 113.87 56.5433L113.875 56.548Z" fill="#FFC34F"/>
  <path d="M117.118 52.2804C117.259 52.1488 117.325 51.7869 117.24 51.6177C117.151 51.4297 116.85 51.237 116.643 51.2417C116.455 51.2417 116.187 51.472 116.112 51.6647C115.957 52.0642 115.91 52.5013 115.816 52.9243C115.877 52.9854 115.933 53.0418 115.995 53.1028C116.375 52.835 116.789 52.6 117.118 52.2804Z" fill="#FFC34F"/>
  <path d="M80.7687 24.2174C81.5066 24.1751 82.1223 24.2456 82.6769 24.0952C85.0973 23.4325 87.5319 22.7886 89.91 21.9896C94.248 20.5327 98.6753 19.9922 103.23 20.2554C106.369 20.4387 109.415 21.0966 112.282 22.3421C114.787 23.4278 117.216 24.6968 119.327 26.5062C123.317 29.9325 125.343 34.2282 124.953 39.4921C124.75 42.2556 124.299 45.0051 123.81 47.7357C123.336 50.3488 122.603 52.9197 122.095 55.5281C121.479 58.6912 121.019 61.8871 120.422 65.0548C119.454 70.1777 119.444 75.3664 119.284 80.541C119.209 82.9427 119.129 85.3443 118.965 87.7413C118.899 88.6672 118.612 89.5742 118.387 90.486C118.058 91.8349 117.738 93.1838 117.343 94.5091C117.122 95.2517 116.803 95.9755 116.455 96.6758C115.28 99.0257 113.959 101.291 112.404 103.415C111.041 105.281 109.335 106.799 107.521 108.209C106.458 109.037 105.344 109.821 104.395 110.766C102.83 112.317 101.016 113.276 98.9009 113.873C95.6204 114.803 92.2929 115.372 88.8995 115.193C86.1595 115.048 83.4477 114.535 80.9661 113.257C77.9817 111.725 74.8985 110.47 71.6133 109.746C68.3892 109.037 65.1932 108.148 61.9362 107.636C59.6144 107.269 57.2175 107.377 54.8581 107.312C53.5469 107.274 52.2309 107.279 50.9149 107.312C48.4757 107.368 46.027 107.359 43.5972 107.551C41.736 107.697 39.903 108.205 38.0419 108.379C36.1384 108.552 34.2209 108.543 32.308 108.567C30.132 108.595 27.9512 108.609 25.7751 108.552C23.7918 108.496 21.7849 108.731 19.8345 108.228C18.4903 107.88 17.2307 107.316 16.0745 106.508C14.3826 105.324 12.5778 104.294 10.9563 103.025C9.88006 102.184 8.92598 101.122 8.1317 100.003C7.15882 98.6357 6.41623 97.1035 5.55615 95.6512C5.02036 94.7488 4.44697 93.8653 3.90178 92.9676C3.62919 92.5211 3.3237 92.0793 3.1263 91.5952C2.07822 89.0244 1.03954 86.4394 0.541353 83.69C0.118361 81.3635 -0.229432 79.0183 0.18886 76.6495C0.447354 75.1737 0.68235 73.6839 1.06304 72.241C1.76333 69.5949 2.52471 66.963 3.3472 64.3546C3.64799 63.4005 4.12738 62.4793 4.65377 61.6239C6.96612 57.8875 9.59337 54.3767 12.6201 51.1901C13.4943 50.269 14.5236 49.4935 15.5199 48.6992C17.8605 46.8239 20.3373 45.0991 22.5463 43.0781C24.1913 41.5694 25.6529 39.7976 26.9172 37.9505C29.0745 34.7922 31.2458 31.6526 33.6005 28.6353C34.2867 27.7517 34.9634 26.8258 35.4475 25.8248C36.2089 24.2409 37.4544 23.1458 38.7563 22.0789C40.1098 20.9744 41.6796 20.2601 43.3011 19.6397C45.0024 18.9911 46.7884 19.0945 48.5415 19.1556C49.8057 19.1979 51.0888 19.4188 52.3202 19.7196C55.0884 20.4011 57.8144 21.247 60.5873 21.9097C63.4684 22.6006 66.3823 23.1646 69.2868 23.7709C69.5688 23.832 69.8837 23.8273 70.1704 23.7803C70.5417 23.7145 70.7767 23.4889 70.7062 23.0612C70.5182 21.952 70.8049 20.918 71.0681 19.8512C71.4065 18.4741 71.5287 17.0406 71.8483 15.6589C72.1256 14.4557 72.5251 13.2807 72.9152 12.1057C73.1549 11.3772 73.4463 10.6629 73.7565 9.95788C74.6165 8.01682 75.3873 6.01935 76.4119 4.16759C77.1451 2.84222 78.2402 1.70954 79.166 0.487567C79.6454 -0.14692 80.2752 -0.0388195 80.9097 0.130377C82.3197 0.515769 83.7344 0.901162 85.1349 1.32415C86.6436 1.78474 88.1476 2.26413 89.6327 2.78582C90.5633 3.11481 90.6949 3.42971 90.709 4.38379C90.7184 4.99478 90.3894 5.32377 89.9664 5.67626C88.7633 6.68674 87.5366 7.68312 86.4321 8.797C85.7835 9.45029 85.2759 10.2728 84.8247 11.0859C83.2738 13.887 81.9719 16.7962 81.1259 19.8935C80.7546 21.2423 80.6559 22.6053 80.7875 24.2174H80.7687ZM22.269 46.3539C21.9212 46.6735 21.5405 46.9696 21.2256 47.3174C18.7347 50.0716 16.3048 52.8821 13.7575 55.5845C11.4827 58.0003 9.45237 60.5852 7.64291 63.3582C6.00734 65.8632 4.79006 68.5516 3.99578 71.4279C3.62449 72.7674 3.3237 74.121 2.9759 75.4651C2.57641 77.002 2.28502 78.5577 2.45891 80.1462C2.75971 82.9098 3.178 85.6639 4.09918 88.2959C4.50337 89.452 4.98746 90.6458 5.71125 91.6187C7.15882 93.5786 8.75208 95.435 10.3548 97.268C12.0467 99.1996 14.1194 100.704 16.1873 102.208C17.7571 103.35 19.4491 104.266 21.3243 104.689C23.6649 105.216 26.0383 105.676 28.4259 105.897C33.2339 106.344 38.0325 105.817 42.817 105.371C43.7523 105.281 44.6782 105.145 45.6134 105.065C47.108 104.938 48.612 104.854 50.1065 104.736C52.4236 104.553 54.7265 104.243 57.0671 104.572C58.3972 104.76 59.7695 104.741 61.1184 104.731C63.5201 104.717 65.8136 105.206 68.032 106.094C72.9152 108.045 77.883 109.699 83.0435 110.785C85.5626 111.316 88.0677 111.683 90.6338 111.64C94.6052 111.57 98.492 111.043 102.087 109.21C103.183 108.651 104.278 108.05 105.251 107.307C106.313 106.499 107.276 105.54 108.207 104.576C109.847 102.875 111.398 101.084 112.502 98.9788C112.968 98.0905 113.222 97.0894 113.696 96.2058C114.575 94.5655 115.012 92.7702 115.44 91.003C115.919 89.0432 116.103 87.0081 116.356 84.9965C116.46 84.1835 116.399 83.3469 116.446 82.5197C116.615 79.5211 116.892 76.5273 116.958 73.5288C117.075 68.3448 116.991 63.1467 118.288 58.0802C118.88 55.7631 119.618 53.479 120.426 51.2324C121.07 49.4324 121.672 47.6276 122.128 45.7711C122.217 45.4093 122.325 45.0521 122.41 44.6902C122.734 43.2661 123.176 41.8561 123.336 40.4132C123.449 39.3887 123.152 38.3265 123.101 37.2784C122.946 34.0731 121.804 31.2813 119.524 29.0301C118.227 27.747 116.798 26.572 115.045 25.9093C114.171 25.5757 113.292 25.2467 112.404 24.9412C112.089 24.8331 111.746 24.7861 111.417 24.7344C111.078 24.678 110.735 24.6498 110.392 24.6075C110.876 25.3313 111.44 25.8671 112.032 26.3699C113.372 27.512 114.787 28.5836 116.06 29.8009C117.09 30.7785 118.044 31.8641 118.622 33.2036C119.905 36.1598 120.765 39.2054 120.563 42.4765C120.478 43.8677 120.309 43.9899 119.012 43.4118C118.951 43.3836 118.913 43.299 119.002 43.4071C118.833 42.2697 118.744 41.3015 118.537 40.3569C118.203 38.8482 117.55 37.4899 116.732 36.1551C115.698 34.4726 114.89 32.6443 114.016 30.863C113.508 29.8338 112.893 28.8891 111.873 28.3345C110.03 27.3334 108.16 26.3793 106.28 25.4535C102.628 23.6581 98.7975 23.7239 94.9295 24.5229C94.2762 24.6592 93.6464 24.9412 93.0308 25.2185C91.2495 26.0175 89.4917 26.8634 87.7058 27.653C85.9104 28.4426 84.0445 29.0207 82.0518 29.016C80.8486 29.016 79.6501 28.969 78.447 28.9549C74.8609 28.9032 71.3501 28.4003 67.9145 27.3193C65.6961 26.619 63.4308 26.0738 61.1842 25.4723C59.2243 24.9506 57.2598 24.4571 55.2999 23.9495C53.702 23.5359 52.1087 23.0847 50.5013 22.7087C49.7822 22.5395 48.9927 22.3468 48.2924 22.469C46.8589 22.7181 45.4442 23.1317 44.0484 23.5547C42.0227 24.1657 40.5422 25.5522 39.3344 27.2159C37.2617 30.0735 35.3582 33.0485 32.9848 35.6805C32.0824 36.6815 31.1189 37.6356 30.2964 38.7025C29.1497 40.1877 28.1157 41.7527 27.0253 43.2802C25.9584 44.7795 24.8399 46.2411 23.8247 47.7733C22.8095 49.3055 21.8789 50.8893 20.9389 52.4685C19.7734 54.4331 18.542 56.3694 17.5033 58.4045C16.1074 61.1445 14.8855 63.9692 13.5648 66.7468C12.7094 68.5422 12.3005 70.4268 12.3146 72.4102C12.3146 72.7862 12.3334 73.1716 12.2535 73.5335C12.0749 74.3325 11.1772 74.6332 10.6085 74.0458C10.2984 73.7262 10.0117 73.5194 9.57927 73.4536C9.15158 73.3878 8.91658 73.134 8.94948 72.6734C9.15628 69.924 9.60277 67.2027 10.6367 64.6553C11.3652 62.86 12.4133 61.1868 13.3768 59.4902C13.7998 58.7429 14.3591 58.0755 14.8479 57.3658C15.9288 55.7866 16.9534 54.1699 18.0861 52.633C19.2 51.129 20.4501 49.7238 21.5875 48.2386C21.9729 47.7357 22.5369 47.2704 22.2596 46.3398L22.269 46.3539ZM87.8609 4.42139C87.1136 4.15349 86.6013 3.9185 86.0608 3.7916C84.6743 3.46731 83.2738 3.21351 81.8873 2.89392C80.1107 2.48503 78.8652 3.07252 78.0475 4.72688C77.8501 5.12637 77.6292 5.52586 77.3707 5.89246C75.9842 7.83822 75.0489 10.0096 74.4097 12.2843C73.9773 13.8259 73.8129 15.4474 73.4886 17.0218C73.028 19.2543 73.2348 21.5055 73.2771 23.7521C73.2865 24.1563 73.4745 24.396 73.8316 24.4994C75.1946 24.8895 76.567 24.9506 77.9347 24.5041C78.3906 24.3537 78.6632 24.0482 78.7196 23.5171C78.7853 22.892 78.9263 22.2669 79.0767 21.6512C79.5749 19.6538 80.0308 17.6422 80.6277 15.673C80.9708 14.5356 81.4972 13.4405 82.0424 12.383C82.6064 11.2926 83.2597 10.2446 83.9505 9.22939C84.4252 8.52911 85.0127 7.90402 85.5626 7.25543C85.9762 6.77134 86.4227 6.32015 86.8269 5.83136C87.1512 5.43657 87.4285 5.00418 87.8562 4.41199L87.8609 4.42139Z" fill="black"/>
  <path d="M87.8609 4.41668C87.4332 5.00886 87.1559 5.44126 86.8316 5.83605C86.4274 6.32484 85.9763 6.77603 85.5674 7.26012C85.0175 7.90871 84.43 8.52909 83.9553 9.23408C83.2691 10.2493 82.6111 11.2973 82.0471 12.3877C81.4973 13.4452 80.9756 14.5403 80.6325 15.6776C80.0356 17.6469 79.5797 19.6585 79.0815 21.6559C78.9264 22.2716 78.7901 22.892 78.7243 23.5218C78.6679 24.0482 78.3953 24.3584 77.9394 24.5088C76.5764 24.9553 75.2041 24.8942 73.8364 24.5041C73.4839 24.4007 73.2912 24.161 73.2818 23.7568C73.2395 21.5102 73.0327 19.259 73.4933 17.0265C73.8176 15.4521 73.9821 13.8353 74.4145 12.289C75.0537 10.0143 75.989 7.84291 77.3754 5.89715C77.6339 5.53525 77.8548 5.13576 78.0522 4.73157C78.8747 3.07721 80.1155 2.48972 81.892 2.89861C83.2785 3.2182 84.6791 3.47199 86.0656 3.79629C86.6013 3.92319 87.1136 4.15818 87.8656 4.42608L87.8609 4.41668Z" fill="#8B9463"/>
  <path d="M48.9504 70.8498C48.2078 70.5114 47.4323 70.2341 46.7321 69.8252C43.5126 67.9641 41.0687 65.3509 39.6352 61.9247C38.4931 59.1987 37.3322 56.4258 37.5907 53.3662C37.8868 49.813 38.8456 46.4573 41.5011 43.9147C44.0813 41.4425 47.1033 40.009 50.821 40.8174C51.1876 40.8973 51.5636 40.9725 51.9348 40.9772C54.2425 40.996 56.2165 41.9971 58.1904 43.0217C58.5899 43.2285 58.98 43.4588 59.3983 43.6139C60.9728 44.1919 62.4156 45.0332 63.5812 46.2082C64.3849 47.0166 64.9583 48.0647 65.5646 49.0516C65.8936 49.5874 66.0957 50.2125 66.3307 50.8047C66.6878 51.7024 67.2377 51.8105 67.9004 51.0773C68.4503 50.4663 68.9485 49.8036 69.5219 49.2161C70.3632 48.3561 71.228 47.5242 72.1209 46.7205C73.3429 45.616 74.9221 45.2964 76.4448 44.9298C80.1578 44.0368 83.7673 44.6478 87.2875 45.9262C89.2145 46.6265 90.46 48.1493 91.5315 49.813C92.7676 51.7259 93.1389 53.9348 93.5619 56.1015C93.8533 57.6008 94.234 59.1188 94.0272 60.6745C93.8862 61.7132 93.7076 62.7472 93.5055 63.7764C93.4209 64.2182 93.294 64.6365 93.6653 65.1488C94.1635 64.2981 94.9155 63.7106 94.7134 62.6156C94.6006 62.0093 95.3996 61.3231 96.0199 61.3466C96.6544 61.3701 97.0304 61.9529 96.7437 62.5592C95.5922 65.0313 94.5583 67.5693 93.0355 69.844C92.4386 70.737 91.6584 71.5266 90.8924 72.2927C90.5634 72.6217 90.0652 72.7862 89.6375 73.007C89.3555 73.1527 89.05 73.2608 88.7116 73.4018C89.0547 73.9705 89.5012 73.9564 89.9524 74.0034C91.0663 74.1162 92.1895 74.2196 93.294 74.417C96.0528 74.9058 98.4639 76.1607 100.663 77.862C101.838 78.7691 102.783 79.8266 103.455 81.1802C103.986 82.2471 104.781 83.1823 105.363 84.2257C106.05 85.4477 106.468 86.7825 106.43 88.2065C106.383 90.157 106.285 92.1028 106.181 94.0485C106.115 95.3081 105.711 96.4878 105.105 97.5781C103.526 100.407 101.674 103.068 99.0937 105.06C96.9364 106.729 94.4737 107.612 91.6302 107.142C89.9618 106.865 88.3074 106.574 86.6906 106.071C85.0222 105.554 83.5088 104.731 82.0377 103.824C79.0956 102.015 76.1864 100.154 73.2113 98.3959C71.1434 97.1786 69.0378 95.9755 66.6596 95.4679C65.6069 95.2423 64.5024 95.1201 63.4308 95.1718C60.5921 95.3128 58.0588 96.4455 55.6337 97.8413C53.7114 98.9458 51.7374 99.9375 49.6366 100.661C47.4746 101.409 45.3315 102.208 43.1554 102.913C42.3799 103.162 41.5434 103.326 40.7303 103.331C38.667 103.345 36.6038 103.284 34.5405 103.18C31.4104 103.021 28.6233 101.935 26.1371 100.013C24.6754 98.8847 23.2372 97.752 22.0341 96.3421C20.5536 94.6125 19.6888 92.5962 19.1906 90.4108C18.4574 87.2102 18.73 84.0142 19.8157 80.9781C20.657 78.6281 21.7709 76.3581 23.5145 74.4546C25.1971 72.617 27.3544 71.6112 29.6197 70.7934C30.4892 70.4785 31.4339 70.3563 32.3503 70.1589C33.013 70.0179 33.6851 69.9286 34.3384 69.7594C36.7824 69.1296 39.2169 69.0967 41.7126 69.5103C43.6489 69.8299 45.5477 70.2153 47.3994 70.8592C47.8788 71.0284 48.4193 71.0143 48.9316 71.0848C48.9457 71.0096 48.9551 70.9297 48.9692 70.8545L48.9504 70.8498ZM90.6761 69.3505C90.5117 69.6043 90.3472 69.8581 90.1404 70.1824C90.9958 70.1824 90.6433 69.6701 90.6715 69.3458C91.0318 69.3458 91.2245 69.2111 91.2495 68.9416C91.0521 69.0826 90.8641 69.2189 90.6761 69.3505ZM86.8081 91.708C87.5413 91.8067 87.9408 92.0793 88.204 92.5916C89.0876 94.3305 89.9759 96.0648 90.8783 97.7943C91.3482 98.692 91.8135 99.5897 92.354 100.445C92.6548 100.92 93.1154 100.835 93.2658 100.323C93.4632 99.6414 93.7217 98.9505 93.7546 98.2549C93.8345 96.4784 94.4032 94.8146 94.798 93.1085C94.8826 92.7419 94.9531 92.3707 95.0847 92.0182C95.3808 91.2427 95.8132 91.0876 96.457 91.5905C97.1385 92.1169 97.8294 92.6621 98.384 93.3106C99.4274 94.5373 100.386 95.8345 101.364 97.1175C101.876 97.7943 102.186 97.8131 102.586 97.0659C102.938 96.4079 103.192 95.6935 103.502 95.012C104.179 93.5268 104.635 91.9853 104.607 90.3403C104.56 87.7365 104.108 85.255 102.337 83.1964C101.528 82.2565 101.458 82.233 100.353 82.7875C99.183 83.3797 98.0503 84.0424 96.8659 84.6064C95.1787 85.4148 93.4632 86.1621 91.7571 86.9235C91.4892 87.0457 91.1931 87.1538 90.9065 87.182C89.9383 87.2713 89.4777 86.8389 89.4307 85.8472C89.3555 84.3103 89.3038 82.7735 89.1863 81.2366C89.1299 80.5175 89.1675 79.7373 88.4484 79.1216C88.2087 79.4036 87.969 79.6386 87.7904 79.9112C86.4556 81.904 85.1303 83.9014 83.8002 85.8989C83.5229 86.3172 83.1281 86.4911 82.6346 86.4018C82.1787 86.3172 82.1176 85.9506 82.0283 85.5652C81.6523 83.9249 81.2481 82.2894 80.8393 80.6538C80.7594 80.3295 80.6325 80.0052 80.4727 79.7091C79.8805 78.614 79.1896 78.3602 77.9817 78.5858C75.9232 78.9759 73.8505 79.3096 71.7825 79.6527C70.0201 79.9441 68.2576 79.7044 66.4951 79.6574C64.0183 79.5963 61.6684 78.9524 59.356 78.1722C57.4384 77.5284 55.5773 76.7106 53.6738 76.0197C52.5458 75.6108 51.3803 75.2959 50.2382 74.9293C49.6695 74.746 49.2089 74.8447 48.8705 75.3711C48.7295 75.592 48.5321 75.7753 48.3817 75.9868C47.3853 77.3921 46.389 78.8067 45.3926 80.2167C44.9414 80.8559 44.462 81.481 44.0437 82.139C43.4656 83.0366 42.4034 83.0555 41.924 82.0732C41.299 80.7948 40.7914 79.46 40.2321 78.1535C39.8044 77.1571 39.3861 76.1513 38.9443 75.1643C38.8832 75.0327 38.6858 74.9622 38.4978 74.8259C38.3897 75.0374 38.2957 75.1549 38.2628 75.2912C37.6518 77.8056 37.0455 80.3154 36.4534 82.8346C36.303 83.4831 35.8565 83.7933 35.2408 83.5536C35.0105 83.4643 34.7896 83.2857 34.6251 83.093C34.094 82.4633 33.5817 81.8194 33.0882 81.1567C31.9039 79.5681 30.7618 77.9373 29.5398 76.3769C29.1591 75.8928 28.5998 75.5121 28.0546 75.2113C27.7867 75.0656 27.2603 75.075 27.016 75.2489C25.5308 76.3252 24.0503 77.4015 23.0539 79.0229C22.1516 80.4893 21.7568 82.1296 21.1928 83.7134C20.9672 84.3432 20.7933 85.0106 20.7228 85.6733C20.4972 87.84 20.845 89.9549 21.5688 91.9853C22.02 93.2589 22.6873 94.448 23.6602 95.4256C24.243 96.0131 24.4827 95.9896 25.0326 95.3645C25.2065 95.1671 25.371 94.9603 25.5308 94.7535C27.3826 92.3518 29.239 89.9549 31.0767 87.5438C31.3493 87.1914 31.6595 87.0739 32.0543 87.2149C32.7357 87.4593 33.6334 88.794 33.6804 89.4943C33.7979 91.2521 33.9389 93.0145 34.094 94.7676C34.1175 95.0261 34.2632 95.2705 34.3572 95.5478C34.5499 95.4397 34.6439 95.4209 34.6768 95.3692C35.9176 93.3623 37.1442 91.3508 38.3991 89.3533C38.5824 89.0619 38.8644 88.7235 39.1652 88.6436C39.6211 88.5214 39.9078 88.935 40.0958 89.311C40.4154 89.9502 40.6974 90.6035 40.9982 91.2521C41.8723 93.1179 42.7888 94.9697 43.6207 96.8544C44.1988 98.1609 44.509 98.3442 45.8391 97.8789C48.0997 97.0894 50.3651 96.3092 52.6351 95.5431C53.6315 95.2047 54.642 94.918 55.6337 94.5796C57.4431 93.9639 59.2197 93.2448 61.0527 92.7184C64.0982 91.8443 67.1108 92.1545 69.9402 93.5409C72.9387 95.012 75.8574 96.6523 78.5457 98.6638C79.5656 99.4252 80.5291 100.266 81.5113 101.08C82.3526 101.785 82.9025 101.648 83.2832 100.614C83.4383 100.191 83.5511 99.7542 83.7156 99.3359C84.2232 98.0528 84.7402 96.7745 85.2619 95.4961C85.7695 94.2553 86.2864 93.0192 86.8222 91.7174L86.8081 91.708ZM57.9742 48.6334C57.3491 48.8871 56.9684 48.6287 56.6536 48.2245C54.9381 46.0155 52.5599 45.1601 49.8904 44.8875C49.4862 44.8452 49.0538 44.7888 48.6637 44.8734C45.6981 45.5126 43.4938 47.1999 42.1026 49.8835C41.5904 50.8752 41.2144 51.9562 40.876 53.0231C40.4859 54.2403 40.1569 55.5563 40.5705 56.7783C41.2191 58.6864 42.0462 60.5429 42.8969 62.3806C43.3951 63.4521 44.2834 64.2887 45.2845 64.8809C47.5545 66.2204 49.9468 67.2497 52.6069 67.621C55.2295 67.9876 57.241 67.057 58.792 65.0219C59.7179 63.8093 60.6109 62.5592 61.3958 61.2526C62.3874 59.5982 63.1911 57.8264 62.8715 55.8242C62.7023 54.762 62.3592 53.7186 61.9879 52.7035C61.2219 50.5885 59.9952 48.779 58.2374 47.3503C57.9977 47.1529 57.7439 46.9837 57.4102 47.3503C57.5841 47.7545 57.7674 48.1775 57.9695 48.638L57.9742 48.6334ZM79.6173 47.8438C78.9452 47.8438 78.3436 47.8203 77.7467 47.8438C76.1441 47.9143 74.6777 48.4313 73.6014 49.6109C72.4217 50.9081 71.2374 52.2664 70.3585 53.775C68.3187 57.2765 68.361 60.9236 70.194 64.519C70.6264 65.3697 71.228 66.1546 71.8436 66.8925C72.793 68.0392 74.1701 68.4857 75.519 68.9745C78.0898 69.9004 80.6936 69.8863 83.2456 69.0262C84.947 68.4528 86.512 67.6633 87.6212 66.0324C89.144 63.7952 90.0558 61.4124 90.1545 58.7334C90.2297 56.6937 89.8114 54.7009 89.2615 52.7458C89.2145 52.5719 89.1017 52.4074 88.9842 52.2664C88.4625 51.6272 87.9408 50.988 87.405 50.3629C86.841 49.7049 86.2019 49.1785 85.37 48.8213C83.4947 48.0177 81.5583 47.731 79.6126 47.8391L79.6173 47.8438ZM63.2663 65.8679C63.4308 66.0183 63.5295 66.1264 63.647 66.211C64.681 66.9301 64.6857 67.4471 63.6611 68.138C62.8245 68.7066 62.0067 69.3082 61.1514 69.844C59.8495 70.6571 58.5617 71.5642 56.9872 71.7005C55.6854 71.8133 54.3741 71.7569 53.0628 71.7569C52.6774 71.7569 52.292 71.7099 51.9066 71.6864C51.8831 71.7804 51.8597 71.8744 51.8362 71.9684C52.3672 72.194 52.8889 72.4384 53.4294 72.6405C54.6561 73.1011 55.911 73.5005 57.1235 73.9893C59.5957 74.9857 62.0866 75.9163 64.6951 76.485C67.1719 77.0208 69.6817 77.1618 72.182 76.7717C75.0678 76.3205 77.9394 75.7659 80.8111 75.2348C81.1777 75.169 81.6335 75.169 81.845 74.605C81.5442 74.5345 81.3045 74.4452 81.0602 74.4311C77.695 74.2854 74.438 73.6086 71.3078 72.3585C69.5971 71.677 67.8863 70.9579 66.763 69.3834C66.0957 68.4481 65.2497 67.6257 64.9207 66.4742C64.8408 66.1875 64.6998 65.9102 64.5447 65.6564C64.164 65.0407 63.8585 65.0783 63.2569 65.8632L63.2663 65.8679ZM90.7138 76.5837C90.6809 76.8234 90.6198 77.0067 90.6386 77.1806C90.8783 79.413 91.1038 81.6455 91.3952 83.8732C91.4892 84.5923 91.8981 84.7709 92.6219 84.5641C93.0872 84.4278 93.5619 84.3056 93.999 84.1082C95.987 83.2058 97.7871 81.9228 99.8739 81.2084C100.024 81.1567 100.132 80.9734 100.25 80.8653C99.0091 78.7973 93.4256 76.2782 90.7138 76.5884V76.5837ZM34.3948 100.135C34.9306 100.243 35.3113 100.356 35.6967 100.389C37.2194 100.52 38.6764 100.13 40.1334 99.7777C40.8243 99.6132 41.5105 99.397 42.1825 99.1714C42.6196 99.0257 42.9157 98.7531 42.6666 98.2361C41.6938 96.2058 40.7538 94.166 39.7292 92.1639C39.2874 91.2991 38.9067 91.3273 38.3897 92.1968C37.5484 93.6114 36.7072 95.0308 35.9599 96.4972C35.3865 97.6204 34.9541 98.8189 34.3901 100.135H34.3948ZM86.7564 95.2846C86.4744 96.0695 86.2911 96.5865 86.1031 97.1035C85.5627 98.5792 84.9987 100.046 84.4958 101.531C84.1856 102.433 84.3031 102.607 85.0833 103.049C87.0807 104.182 89.2474 104.708 91.5127 104.896C91.8135 104.919 92.3399 104.835 92.401 104.67C92.5044 104.384 92.401 103.951 92.2459 103.66C91.5926 102.443 90.9158 101.239 90.1921 100.06C89.3931 98.7531 88.5471 97.47 87.6964 96.1964C87.5037 95.9097 87.1935 95.7029 86.7611 95.2893L86.7564 95.2846ZM29.3377 73.7449C30.085 74.6238 30.7195 75.3053 31.2788 76.0432C32.3597 77.4767 33.3937 78.943 34.47 80.3812C34.6345 80.5974 35.0058 80.9076 35.1327 80.8465C35.3865 80.729 35.6168 80.4141 35.7061 80.1321C35.9082 79.4929 36.021 78.8255 36.1573 78.1675C36.5427 76.344 36.9469 74.5204 37.2946 72.6875C37.4591 71.8227 37.257 71.6488 36.3547 71.5924C34.7003 71.489 33.1728 71.9966 31.6783 72.6029C30.9263 72.9084 30.2166 73.3078 29.3377 73.7402V73.7449ZM43.5032 80.1744C44.1142 79.3519 44.6453 78.6328 45.1764 77.9137C45.9331 76.8939 46.6945 75.8787 47.4417 74.8494C47.7895 74.37 47.7096 74.0363 47.1879 73.7637C46.9577 73.6462 46.6992 73.5804 46.4454 73.5099C45.1811 73.1528 43.9309 72.7486 42.6525 72.4713C41.6938 72.2598 40.7115 72.006 39.6822 72.1329C39.6916 72.3162 39.6681 72.4337 39.7057 72.5324C40.5799 74.7648 41.4635 76.9926 42.347 79.2156C42.4034 79.3566 42.4833 79.4835 42.5444 79.6198C42.7465 80.0381 43.0661 80.2402 43.5079 80.1791L43.5032 80.1744ZM31.8099 91.7738C30.6396 92.3988 26.3486 96.4502 25.888 97.3761C27.1805 98.5604 28.8066 99.2184 30.4281 99.8388C31.0814 100.088 31.8287 100.389 32.5477 100.017C32.5759 99.8905 32.6135 99.8153 32.6088 99.7448C32.4537 97.5077 32.3034 95.2705 32.1248 93.0333C32.0919 92.6197 31.9227 92.2156 31.8099 91.7691V91.7738ZM96.0904 96.1165C95.9212 97.0048 95.7615 97.8084 95.6158 98.6074C95.3526 100.078 95.1411 101.559 94.8215 103.016C94.5395 104.285 94.6617 104.492 95.9448 104.346C96.269 104.308 96.6168 104.214 96.8988 104.05C97.5098 103.693 98.0926 103.279 98.6801 102.884C99.418 102.386 100.076 101.86 99.5919 100.812C99.5261 100.666 99.6389 100.445 99.6248 100.257C99.606 99.9986 99.6248 99.6978 99.4932 99.5004C98.901 98.598 98.2994 97.6956 97.6273 96.8497C97.2889 96.4173 96.8048 96.093 96.0904 96.1165ZM87.969 76.2688C87.6024 76.2688 87.2405 76.2171 86.8974 76.2782C85.3136 76.5602 83.7344 76.8516 82.1599 77.1759C81.5489 77.3028 81.4643 77.4908 81.657 78.1581C82.0424 79.4882 82.4419 80.8136 82.8602 82.1343C82.9448 82.3975 83.1234 82.6278 83.2597 82.8816C84.5569 82.0356 87.8515 77.4673 87.9737 76.2688H87.969ZM81.0602 71.0707C81.4032 71.301 81.5395 71.4608 81.6899 71.4796C82.4654 71.5877 83.255 71.7569 84.0305 71.7287C85.9809 71.6582 87.4144 70.3657 88.7821 69.2471C89.9524 68.293 90.7607 66.869 91.0333 65.2757C91.1132 64.7963 91.0897 64.284 91.2495 63.8422C91.8887 62.0939 92.0297 60.275 92.0814 58.442C92.119 57.0556 91.5832 55.8007 91.2354 54.4941C91.1414 54.6868 91.0803 54.8983 91.1508 55.044C91.6349 56.0075 91.4328 57.0274 91.4187 58.0238C91.3858 59.9742 91.2965 61.9247 90.4835 63.7435C90.225 64.3216 89.8443 64.8433 89.5905 65.4214C88.2416 68.5421 85.6755 70.0132 82.5171 70.7041C82.0941 70.7981 81.6805 70.9156 81.0602 71.0754V71.0707ZM66.857 59.7439C66.1944 60.2703 66.1756 60.8108 66.232 61.3137C66.3119 62.0187 66.4622 62.719 66.6455 63.4051C66.998 64.7258 67.6137 65.929 68.5255 66.9442C68.8686 67.3249 69.207 67.8043 69.7099 67.9265C69.1365 66.6058 68.6759 65.2569 67.985 64.0396C67.2471 62.7378 67.5761 61.1868 66.8523 59.7392L66.857 59.7439ZM63.6517 59.6499C63.1676 60.6275 62.7775 61.5017 62.3169 62.3383C61.8704 63.1467 61.1702 63.814 60.8177 64.8339C63.3415 63.8986 64.5635 61.6474 63.6517 59.6546V59.6499ZM61.4522 48.0788C62.7117 50.7953 64.1311 53.4461 64.4601 56.4916C64.8784 54.9453 64.3943 53.4461 63.976 52.0549C63.5342 50.5791 62.9138 49.0281 61.4522 48.0741V48.0788ZM54.7078 69.8252L54.6843 70.0837C55.3611 70.3093 56.0097 70.2341 56.6301 69.8252H54.7078Z" fill="black"/>
  <path d="M8.78027 80.4846C10.1009 80.1603 11.008 80.7572 11.102 82.0544C11.1114 82.2142 10.8435 82.5291 10.6884 82.5432C9.57926 82.6325 8.71918 81.6784 8.78497 80.4846H8.78027Z" fill="black"/>
  <path d="M10.6978 87.4452C10.1949 87.4734 9.81895 87.135 9.82365 86.6556C9.82365 86.0963 10.1855 85.6968 10.6884 85.6921C11.1678 85.6921 11.5485 86.0305 11.5908 86.5005C11.6331 86.994 11.2383 87.4123 10.7025 87.4405L10.6978 87.4452Z" fill="black"/>
  <path d="M115.666 48.3796C115.76 47.9566 115.807 47.5195 115.962 47.12C116.037 46.9273 116.309 46.697 116.493 46.697C116.7 46.697 117 46.885 117.09 47.073C117.169 47.2422 117.104 47.6041 116.967 47.7357C116.634 48.0553 116.225 48.2903 115.844 48.5582C115.783 48.4971 115.727 48.4407 115.666 48.3796Z" fill="black"/>
  <path d="M113.339 50.4993C113.927 50.4993 114.307 50.88 114.307 51.303C114.307 51.6884 114.124 51.9516 113.729 52.0033C113.325 52.055 112.921 51.5803 113.001 51.0821C113.038 50.8471 113.259 50.6403 113.344 50.504L113.339 50.4993Z" fill="black"/>
  <path d="M86.8127 91.7033C86.2722 93.0052 85.7553 94.2413 85.2524 95.4821C84.7307 96.7604 84.2137 98.0388 83.7061 99.3219C83.5416 99.7402 83.4288 100.177 83.2737 100.6C82.893 101.634 82.3431 101.771 81.5019 101.066C80.5243 100.248 79.5561 99.4112 78.5362 98.6498C75.8479 96.6429 72.9339 94.998 69.9307 93.5269C67.106 92.1404 64.0934 91.8302 61.0432 92.7044C59.2102 93.2308 57.4336 93.9499 55.6242 94.5656C54.6278 94.904 53.6173 95.1954 52.6256 95.5291C50.3556 96.2999 48.0902 97.08 45.8296 97.8649C44.4995 98.3302 44.1893 98.1469 43.6112 96.8403C42.7793 94.9557 41.8676 93.1039 40.9887 91.2381C40.6879 90.5942 40.4059 89.9362 40.0863 89.297C39.8983 88.921 39.6163 88.5074 39.1557 88.6296C38.8549 88.7095 38.5729 89.0479 38.3896 89.3393C37.1348 91.3368 35.9081 93.3483 34.6673 95.3552C34.6344 95.4116 34.5404 95.4304 34.3477 95.5338C34.249 95.2612 34.108 95.0121 34.0845 94.7536C33.9294 92.9958 33.7931 91.2381 33.6709 89.4803C33.6239 88.78 32.7216 87.4452 32.0448 87.2008C31.65 87.0598 31.3398 87.1773 31.0672 87.5298C29.2295 89.9409 27.3731 92.3378 25.5213 94.7395C25.3615 94.9463 25.197 95.1531 25.0231 95.3505C24.4732 95.9756 24.2335 95.9991 23.6507 95.4116C22.6826 94.434 22.0152 93.2402 21.5593 91.9712C20.8355 89.9362 20.4877 87.8259 20.7133 85.6593C20.7838 84.9966 20.9577 84.3292 21.1833 83.6994C21.7473 82.1155 22.1421 80.4753 23.0444 79.0089C24.0408 77.3874 25.5213 76.3112 27.0065 75.2349C27.2462 75.061 27.7772 75.0516 28.0451 75.1973C28.5903 75.4981 29.1496 75.8788 29.5303 76.3629C30.757 77.9232 31.8944 79.5494 33.0787 81.1427C33.5722 81.8006 34.0892 82.4445 34.6156 83.079C34.7754 83.2717 35.001 83.4503 35.2313 83.5396C35.847 83.7746 36.2888 83.4691 36.4439 82.8205C37.0361 80.3014 37.6423 77.7916 38.2533 75.2772C38.2862 75.1409 38.3802 75.0234 38.4883 74.8119C38.6763 74.9482 38.8784 75.014 38.9348 75.1503C39.3813 76.142 39.7996 77.1431 40.2226 78.1394C40.7819 79.4507 41.2895 80.7808 41.9146 82.0591C42.394 83.0414 43.4608 83.0273 44.0342 82.1249C44.4572 81.467 44.9319 80.8419 45.3831 80.2027C46.3795 78.7927 47.3711 77.3827 48.3722 75.9728C48.5226 75.7566 48.72 75.5733 48.861 75.3571C49.1994 74.8307 49.66 74.732 50.2287 74.9153C51.3708 75.2819 52.5363 75.5968 53.6643 76.0057C55.5678 76.6966 57.4289 77.5143 59.3465 78.1582C61.6589 78.9384 64.0088 79.5776 66.4857 79.6434C68.2481 79.6904 70.0106 79.9301 71.7731 79.6387C73.841 79.2956 75.9137 78.9619 77.9722 78.5718C79.1801 78.3415 79.871 78.6 80.4632 79.6951C80.623 79.9912 80.7452 80.3155 80.8298 80.6398C81.2387 82.2753 81.6429 83.9109 82.0188 85.5512C82.1081 85.9366 82.1692 86.3032 82.6251 86.3878C83.1186 86.4818 83.5134 86.3032 83.7907 85.8849C85.1208 83.8874 86.4461 81.8899 87.7809 79.8972C87.9642 79.6246 88.1992 79.3943 88.4389 79.1076C89.158 79.7186 89.1251 80.5035 89.1768 81.2226C89.2943 82.7547 89.346 84.2963 89.4212 85.8332C89.4682 86.8249 89.9288 87.2572 90.897 87.1679C91.1883 87.1397 91.4797 87.0316 91.7476 86.9094C93.4537 86.1481 95.1692 85.3961 96.8564 84.5924C98.0361 84.0284 99.1735 83.361 100.344 82.7735C101.453 82.2142 101.519 82.2424 102.327 83.1824C104.099 85.241 104.545 87.7272 104.597 90.3263C104.625 91.9712 104.169 93.5128 103.493 94.998C103.183 95.6795 102.929 96.3939 102.576 97.0518C102.172 97.8038 101.867 97.7803 101.354 97.1035C100.377 95.8205 99.4179 94.5233 98.3745 93.2966C97.8199 92.648 97.1243 92.1028 96.4475 91.5765C95.8037 91.0783 95.3713 91.2287 95.0752 92.0041C94.9436 92.3519 94.8731 92.7279 94.7885 93.0945C94.3937 94.8006 93.825 96.4643 93.7451 98.2409C93.7122 98.9365 93.4537 99.6274 93.2563 100.309C93.1059 100.821 92.6453 100.906 92.3445 100.431C91.804 99.5757 91.3387 98.678 90.8688 97.7803C89.9664 96.0508 89.0781 94.3165 88.1945 92.5775C87.9313 92.0652 87.5318 91.7926 86.7986 91.694L86.8127 91.7033Z" fill="#ED1C24"/>
  <path d="M57.9788 48.6287C57.7767 48.1634 57.5934 47.7404 57.4195 47.3409C57.7532 46.9743 58.0023 47.1482 58.2467 47.3409C60.0045 48.7697 61.2312 50.5838 61.9972 52.6941C62.3638 53.7093 62.7116 54.7526 62.8808 55.8148C63.2004 57.817 62.3967 59.5888 61.4051 61.2432C60.6202 62.5498 59.7225 63.8 58.8013 65.0125C57.2503 67.0476 55.2388 67.9782 52.6162 67.6116C49.9561 67.2403 47.5638 66.211 45.2938 64.8715C44.2927 64.2793 43.4044 63.4475 42.9062 62.3712C42.0556 60.5382 41.2284 58.6818 40.5798 56.7689C40.1662 55.5469 40.4952 54.231 40.8853 53.0137C41.2284 51.9421 41.5997 50.8658 42.112 49.8741C43.4984 47.1905 45.7027 45.4985 48.673 44.864C49.0631 44.7794 49.4908 44.8358 49.8997 44.8781C52.5645 45.1507 54.9474 46.0061 56.6628 48.2151C56.9777 48.6193 57.3631 48.8778 57.9835 48.624L57.9788 48.6287ZM42.7887 53.8691C41.7407 53.6764 41.5903 53.9114 42.0227 54.8137C42.455 55.7208 43.5407 56.2848 44.5183 56.1062C45.2891 55.9699 45.7215 55.2273 45.4254 54.5035C45.2985 54.1934 45.1199 53.902 44.9319 53.6247C44.5841 53.0983 44.3726 53.0701 43.8274 53.3756C43.4937 53.5636 43.1365 53.7046 42.7887 53.8644V53.8691Z" fill="white"/>
  <path d="M79.6172 47.8438C81.563 47.731 83.4994 48.0177 85.3746 48.8261C86.2065 49.1833 86.8457 49.7097 87.4097 50.3677C87.9455 50.9927 88.4719 51.6319 88.9888 52.2711C89.1063 52.4121 89.2144 52.5766 89.2661 52.7505C89.816 54.7104 90.2343 56.6984 90.1591 58.7382C90.0604 61.4171 89.1439 63.8 87.6259 66.0371C86.5167 67.668 84.9516 68.4576 83.2503 69.031C80.6982 69.8911 78.0992 69.9052 75.5236 68.9793C74.1747 68.4952 72.7977 68.044 71.8483 66.8972C71.2326 66.1546 70.631 65.3744 70.1986 64.5238C68.3657 60.9283 68.3234 57.2812 70.3631 53.7798C71.242 52.2711 72.4217 50.9175 73.6061 49.6157C74.6776 48.436 76.1487 47.919 77.7514 47.8485C78.353 47.825 78.9546 47.8485 79.6219 47.8485L79.6172 47.8438ZM83.2879 66.0512C83.2362 66.8126 83.8518 67.2497 84.538 66.9395C85.1208 66.681 85.6754 65.3791 85.4404 64.7964C85.3041 64.458 85.0832 64.2136 84.6696 64.3217C83.8942 64.5285 83.3443 65.2241 83.2879 66.0512Z" fill="white"/>
  <path d="M63.271 65.8679C63.8726 65.083 64.1734 65.0501 64.5588 65.6611C64.7186 65.9149 64.8549 66.1922 64.9347 66.4789C65.2637 67.6351 66.1097 68.4576 66.7771 69.3882C67.9004 70.9626 69.6112 71.6817 71.3219 72.3632C74.4521 73.6134 77.7044 74.2902 81.0742 74.4359C81.3186 74.4453 81.5583 74.5393 81.8591 74.6098C81.6476 75.1737 81.1917 75.1737 80.8251 75.2395C77.9535 75.7706 75.0818 76.3252 72.1961 76.7764C69.6911 77.1665 67.186 77.0255 64.7092 76.4897C62.096 75.921 59.6098 74.9857 57.1376 73.9941C55.9203 73.5053 54.6702 73.1058 53.4435 72.6452C52.903 72.4431 52.3813 72.1987 51.8502 71.9731C51.8737 71.8791 51.8972 71.7851 51.9207 71.6911C52.3061 71.7146 52.6915 71.7616 53.0769 71.7616C54.3835 71.7616 55.6994 71.818 57.0013 71.7052C58.5805 71.5689 59.8683 70.6618 61.1654 69.8488C62.0255 69.313 62.8386 68.7067 63.6752 68.1427C64.6998 67.4518 64.6951 66.9348 63.6611 66.2157C63.5436 66.1358 63.4449 66.023 63.2804 65.8726L63.271 65.8679Z" fill="#FF9439"/>
  <path d="M90.7137 76.579C93.4256 76.2688 99.0137 78.7927 100.25 80.856C100.132 80.9688 100.024 81.1473 99.8738 81.199C97.7871 81.9134 95.987 83.1965 93.999 84.0989C93.5619 84.2963 93.0872 84.4232 92.6219 84.5548C91.8934 84.7663 91.4892 84.5877 91.3952 83.8639C91.1038 81.6361 90.8782 79.4037 90.6385 77.1712C90.6197 76.9973 90.6808 76.814 90.7137 76.5743V76.579Z" fill="white"/>
  <path d="M34.3948 100.135C34.9541 98.819 35.3865 97.6205 35.9645 96.4972C36.7118 95.0309 37.5578 93.6115 38.3944 92.1968C38.9114 91.3273 39.2921 91.2991 39.7339 92.1639C40.7537 94.1661 41.6984 96.2105 42.6713 98.2362C42.9204 98.7532 42.6243 99.0258 42.1872 99.1715C41.5104 99.3971 40.8289 99.6133 40.1381 99.7778C38.6811 100.126 37.2241 100.516 35.7013 100.389C35.316 100.356 34.9353 100.243 34.3995 100.135H34.3948Z" fill="white"/>
  <path d="M86.7564 95.2847C87.1888 95.6983 87.499 95.9051 87.6917 96.1918C88.5471 97.4654 89.3884 98.7438 90.1874 100.055C90.9065 101.235 91.5879 102.438 92.2412 103.655C92.401 103.951 92.4997 104.379 92.3963 104.666C92.3399 104.83 91.8135 104.915 91.508 104.891C89.2427 104.708 87.076 104.177 85.0786 103.044C84.2984 102.602 84.1809 102.429 84.4911 101.526C84.9987 100.041 85.5627 98.5746 86.0984 97.0989C86.2864 96.5819 86.4697 96.0649 86.7517 95.28L86.7564 95.2847Z" fill="white"/>
  <path d="M29.3376 73.745C30.2165 73.3126 30.9309 72.9084 31.6782 72.6076C33.1728 72.0013 34.7002 71.4985 36.3546 71.5972C37.2523 71.6536 37.4591 71.8227 37.2946 72.6922C36.9515 74.5252 36.5426 76.3488 36.1572 78.1723C36.0162 78.8303 35.9034 79.4977 35.706 80.1369C35.6167 80.4189 35.3864 80.7338 35.1326 80.8513C35.0057 80.9077 34.6344 80.6022 34.4699 80.386C33.3937 78.9478 32.3644 77.4814 31.2787 76.048C30.7194 75.3101 30.0849 74.6286 29.3376 73.7497V73.745Z" fill="white"/>
  <path d="M43.5032 80.1744C43.0661 80.2355 42.7418 80.0381 42.5397 79.6151C42.4739 79.4788 42.394 79.3519 42.3423 79.2109C41.4588 76.9832 40.5799 74.7554 39.701 72.5277C39.6634 72.4337 39.6869 72.3115 39.6775 72.1282C40.7068 72.006 41.6891 72.2598 42.6478 72.4666C43.9262 72.7438 45.1811 73.1527 46.4407 73.5052C46.6944 73.5757 46.9529 73.6368 47.1832 73.759C47.7049 74.0316 47.7895 74.3653 47.437 74.8447C46.6945 75.874 45.9284 76.8892 45.1717 77.909C44.6406 78.6281 44.1095 79.3472 43.4985 80.1697L43.5032 80.1744Z" fill="white"/>
  <path d="M31.8051 91.7738C31.9179 92.2203 32.087 92.6244 32.1199 93.038C32.2985 95.2752 32.4489 97.5123 32.604 99.7495C32.6087 99.82 32.5711 99.8952 32.5429 100.022C31.8192 100.393 31.0766 100.093 30.4233 99.8435C28.8018 99.2231 27.1757 98.5604 25.8832 97.3807C26.3438 96.4549 30.6395 92.4036 31.8051 91.7785V91.7738Z" fill="white"/>
  <path d="M96.0857 96.1212C96.8001 96.1024 97.2842 96.422 97.6226 96.8543C98.29 97.7003 98.8963 98.6027 99.4884 99.5051C99.62 99.7025 99.6012 100.008 99.62 100.262C99.6341 100.445 99.5167 100.666 99.5872 100.816C100.071 101.864 99.4133 102.396 98.6754 102.889C98.0879 103.284 97.5051 103.702 96.8941 104.055C96.6121 104.219 96.269 104.313 95.94 104.351C94.657 104.501 94.5347 104.29 94.8167 103.021C95.141 101.564 95.3478 100.078 95.611 98.6121C95.7567 97.8084 95.9165 97.0094 96.0857 96.1212Z" fill="white"/>
  <path d="M87.9643 76.2735C87.8421 77.472 84.5475 82.0403 83.2503 82.8863C83.114 82.6325 82.9307 82.4022 82.8508 82.139C82.4372 80.8183 82.033 79.4929 81.6476 78.1629C81.455 77.4955 81.5396 77.3075 82.1505 77.1806C83.725 76.8563 85.3042 76.5602 86.888 76.2829C87.2311 76.2218 87.593 76.2735 87.9596 76.2735H87.9643Z" fill="white"/>
  <path d="M81.0554 71.0755C81.6758 70.9157 82.0941 70.7935 82.5124 70.7042C85.6707 70.0133 88.2369 68.5422 89.5857 65.4215C89.8348 64.8434 90.2202 64.3217 90.4787 63.7436C91.2918 61.9248 91.3811 59.9743 91.414 58.0238C91.4281 57.0275 91.6302 56.0076 91.1461 55.0441C91.0756 54.8984 91.1367 54.6869 91.2307 54.4942C91.5832 55.8008 92.1143 57.0557 92.0767 58.4421C92.025 60.2751 91.884 62.094 91.2448 63.8423C91.0803 64.2888 91.1085 64.8011 91.0286 65.2758C90.756 66.8691 89.9476 68.2931 88.7774 69.2472C87.405 70.3658 85.9762 71.6583 84.0258 71.7288C83.2503 71.757 82.4654 71.5878 81.6852 71.4797C81.5301 71.4562 81.3985 71.3011 81.0554 71.0708V71.0755Z" fill="white"/>
  <path d="M66.8523 59.7487C67.576 61.1915 67.247 62.7472 67.9849 64.0491C68.6758 65.2664 69.1364 66.6152 69.7098 67.9359C69.2069 67.809 68.8685 67.3296 68.5254 66.9536C67.6136 65.9384 66.998 64.7353 66.6455 63.4146C66.4622 62.7284 66.3118 62.0281 66.2319 61.3231C66.1755 60.8156 66.1943 60.2751 66.857 59.7534L66.8523 59.7487Z" fill="white"/>
  <path d="M63.6469 59.6547C64.554 61.6522 63.3367 63.9034 60.8129 64.834C61.1654 63.8188 61.8656 63.1467 62.3121 62.3383C62.7727 61.5018 63.1628 60.6323 63.6469 59.65V59.6547Z" fill="white"/>
  <path d="M61.4474 48.0835C62.9138 49.0329 63.5294 50.5838 63.9712 52.0643C64.3895 53.4555 64.8736 54.9547 64.4553 56.501C64.1263 53.4555 62.7023 50.8047 61.4474 48.0882V48.0835Z" fill="white"/>
  <path d="M54.7077 69.8252H56.63C56.0096 70.2341 55.361 70.3093 54.6842 70.0837L54.7077 69.8252Z" fill="white"/>
  <path d="M90.6621 69.3411C90.6433 69.6701 91.0005 70.1871 90.1404 70.1824C90.3472 69.8581 90.5117 69.6043 90.6762 69.3505L90.6621 69.3411Z" fill="white"/>
  <path d="M90.6761 69.3506C90.8641 69.2143 91.0521 69.0827 91.2495 68.9417C91.2276 69.2143 91.0333 69.349 90.6667 69.3459L90.6761 69.3506Z" fill="white"/>
  <path d="M42.7888 53.869C43.1366 53.7045 43.4938 53.5635 43.8275 53.3802C44.3727 53.0747 44.5842 53.1029 44.932 53.6293C45.12 53.9066 45.2986 54.198 45.4255 54.5082C45.7215 55.232 45.2892 55.9746 44.5184 56.1109C43.5408 56.2848 42.4551 55.7208 42.0227 54.8184C41.5903 53.916 41.7454 53.681 42.7888 53.8737V53.869Z" fill="black"/>
  <path d="M83.2926 66.0512C83.349 65.224 83.8989 64.5284 84.6744 64.3216C85.0927 64.2088 85.3089 64.4579 85.4452 64.7963C85.6802 65.3791 85.1256 66.681 84.5428 66.9395C83.8519 67.2497 83.2409 66.8126 83.2926 66.0512Z" fill="black"/>
  <path d="M21.188 87.5298C21.752 85.946 22.1468 84.3057 23.0492 82.8393C24.0456 81.2179 25.526 80.1416 27.0112 79.0653C27.2509 78.8914 27.782 78.882 28.0499 79.0277C28.5951 79.3285 29.1543 79.7092 29.535 80.1933C30.7617 81.7537 31.8991 83.3798 33.0835 84.9731C33.577 85.6311 34.0939 86.275 34.6203 86.9094C34.7801 87.1021 35.0057 87.2854 35.236 87.37C35.8517 87.605 36.2935 87.2995 36.4486 86.651C37.0408 84.1318 37.6471 81.6221 38.2581 79.1076C38.291 78.9713 38.385 78.8538 38.4931 78.6423C38.6811 78.7786 38.8832 78.8444 38.9395 78.9807C39.386 79.9724 39.8043 80.9735 40.2273 81.9699C40.7866 83.2811 41.2942 84.6112 41.9193 85.8896C42.3987 86.8718 43.4656 86.8577 44.0389 85.9554C44.4619 85.2974 44.9366 84.6723 45.3878 84.0331C46.3842 82.6231 47.3759 81.2132 48.377 79.8032C48.5274 79.587 48.7247 79.4037 48.8657 79.1875C49.2041 78.6611 49.6647 78.5624 50.2334 78.7457C51.3755 79.1123 52.5411 79.4272 53.669 79.8361C55.5725 80.527 57.4337 81.3448 59.3512 81.9886C61.6636 82.7688 64.0135 83.408 66.4904 83.4738C68.2528 83.5208 70.0153 83.7605 71.7778 83.4691C73.8457 83.126 75.9184 82.7923 77.9769 82.4022C79.1848 82.1719 79.8757 82.4304 80.4679 83.5255C80.6277 83.8216 80.7499 84.1459 80.8345 84.4702C81.2434 86.1058 81.6476 87.7413 82.0236 89.3816C82.1129 89.767 82.174 90.1336 82.6299 90.2182C83.1233 90.3122 83.5181 90.1336 83.7954 89.7153C85.1255 87.7178 86.4509 85.7204 87.7856 83.7276C87.9689 83.455 88.2039 83.2247 88.4436 82.938C89.1627 83.549 89.1298 84.3339 89.1815 85.053C89.299 86.5852 89.3507 88.1267 89.4259 89.6636C89.4729 90.6553 89.9335 91.0877 90.9017 90.9984C91.1931 90.9702 91.4845 90.8621 91.7524 90.7399C93.4584 89.9785 95.1739 89.2265 96.8612 88.4228C98.0455 87.8588 99.1782 87.1914 100.348 86.6039C101.458 86.0447 101.523 86.0729 102.332 87.0128C103.624 88.5121 104.212 90.2417 104.451 92.0746C104.555 91.506 104.611 90.9232 104.597 90.331C104.55 87.7272 104.099 85.2457 102.327 83.1871C101.519 82.2471 101.448 82.2236 100.344 82.7782C99.1735 83.3704 98.0408 84.0331 96.8565 84.5971C95.1692 85.4055 93.4537 86.1528 91.7477 86.9141C91.4798 87.0363 91.1837 87.1444 90.897 87.1726C89.9288 87.2619 89.4682 86.8295 89.4212 85.8379C89.346 84.301 89.2943 82.7641 89.1768 81.2273C89.1204 80.5082 89.158 79.728 88.4389 79.1123C88.1992 79.3943 87.9595 79.6293 87.7809 79.9019C86.4462 81.8947 85.1208 83.8921 83.7907 85.8896C83.5134 86.3079 83.1186 86.4818 82.6252 86.3925C82.1693 86.3079 82.1082 85.9413 82.0189 85.5559C81.6429 83.9156 81.2387 82.28 80.8298 80.6445C80.7499 80.3202 80.623 79.9959 80.4632 79.6998C79.871 78.6047 79.1801 78.3509 77.9723 78.5765C75.9137 78.9666 73.841 79.3003 71.7731 79.6434C70.0106 79.9348 68.2481 79.6951 66.4857 79.6481C64.0088 79.587 61.6589 78.9431 59.3465 78.1629C57.429 77.519 55.5678 76.7013 53.6643 76.0104C52.5364 75.6015 51.3708 75.2866 50.2287 74.92C49.66 74.7367 49.1994 74.8354 48.861 75.3618C48.7201 75.5827 48.5226 75.766 48.3723 75.9775C47.3759 77.3827 46.3795 78.7974 45.3831 80.2074C44.9319 80.8466 44.4525 81.4717 44.0342 82.1296C43.4562 83.0273 42.394 83.0461 41.9146 82.0638C41.2895 80.7855 40.7819 79.4507 40.2226 78.1441C39.7949 77.1477 39.3766 76.142 38.9348 75.155C38.8737 75.0234 38.6764 74.9529 38.4884 74.8166C38.3803 75.0281 38.2863 75.1456 38.2534 75.2819C37.6424 77.7963 37.0361 80.3061 36.4439 82.8252C36.2935 83.4738 35.847 83.784 35.2313 83.5443C35.001 83.455 34.7801 83.2764 34.6156 83.0837C34.0845 82.4539 33.5723 81.8101 33.0788 81.1474C31.8944 79.5588 30.7523 77.9279 29.5303 76.3676C29.1496 75.8835 28.5904 75.5028 28.0452 75.202C27.7773 75.0563 27.2509 75.0657 27.0065 75.2396C25.5213 76.3159 24.0408 77.3921 23.0445 79.0136C22.1421 80.48 21.7473 82.1202 21.1833 83.7041C20.9577 84.3339 20.7838 85.0013 20.7133 85.664C20.5958 86.7731 20.6334 87.8729 20.7932 88.9492C20.8825 88.4651 21.0188 87.9904 21.1833 87.5298H21.188Z" fill="#870B20"/>
  <path d="M76.2474 18.2203C76.5717 16.6458 76.7362 15.029 77.1686 13.4828C77.8078 11.208 78.743 9.03667 80.1295 7.09091C80.388 6.72902 80.6089 6.32952 80.8063 5.92533C81.6288 4.27097 82.8696 3.68348 84.6461 4.09237C85.6378 4.31797 86.6389 4.52006 87.6353 4.73156C87.7058 4.62816 87.7763 4.52946 87.8609 4.41666C87.1136 4.14877 86.6013 3.91377 86.0608 3.78688C84.6743 3.46258 83.2737 3.20879 81.8873 2.88919C80.1107 2.4803 78.8652 3.06779 78.0475 4.72216C77.8501 5.12165 77.6292 5.52114 77.3707 5.88773C75.9842 7.83349 75.0489 10.0048 74.4097 12.2796C73.9773 13.8212 73.8128 15.4426 73.4885 17.0171C73.028 19.2496 73.2348 21.5008 73.2771 23.7474C73.2865 24.1516 73.4744 24.3913 73.8316 24.4947C74.5648 24.7014 75.298 24.8142 76.0312 24.8095C75.9842 22.61 75.7915 20.4057 76.2427 18.2203H76.2474Z" fill="#6C7249"/>
</svg>