<svg xmlns="http://www.w3.org/2000/svg" width="125" height="111" viewBox="0 0 125 111" fill="none">
  <path d="M90.7405 63.6339C92.2096 65.2372 93.6825 66.8406 95.1593 68.4516C96.218 67.8916 96.6092 67.1244 96.6437 66.1271C96.7128 64.2783 96.7933 62.4294 96.8815 60.5806C96.8892 60.4348 96.989 60.2929 97.0887 60.0436C98.132 60.8683 98.6 61.973 99.137 63.0201C99.5704 63.8678 100.111 64.0673 100.855 63.4958C101.097 63.3116 101.266 62.8974 101.285 62.579C101.412 60.4463 101.507 58.3136 101.58 56.181C101.657 53.9639 101.722 51.7507 101.734 49.5336C101.738 48.8585 102.041 48.6168 102.628 48.4826C103.997 48.1681 105.263 48.3752 106.463 49.0963C106.912 49.3648 107.38 49.6026 107.833 49.8673C108.98 50.5424 109.72 51.4898 109.789 52.863C109.82 53.5074 109.789 54.1557 109.846 54.8001C110.004 56.484 110.107 58.1794 110.406 59.8364C110.594 60.8874 111.151 61.8694 111.434 62.9089C111.718 63.9522 111.952 65.0262 112.063 66.1003C112.313 68.5245 112.221 70.9333 111.323 73.2501C111.281 73.3613 111.293 73.5033 111.231 73.5992C109.862 75.6781 108.584 77.8454 106.08 78.8081C104.956 79.2416 104.71 79.1802 104.538 78.0065C104.327 76.5719 104.227 75.122 104.097 73.6797C104.031 72.9663 104.001 72.249 103.943 71.3974C104.212 71.4396 104.526 71.3898 104.691 71.524C105.907 72.5175 107.138 73.4956 108.27 74.5811C108.788 75.0798 109.187 75.3138 109.931 74.8036C109.804 74.5006 109.751 74.1208 109.536 73.883C108.803 73.0852 108.044 72.3065 107.242 71.5777C106.084 70.519 104.879 69.5141 103.694 68.4822C103.544 68.3518 103.425 68.1715 103.257 68.0718C102.812 67.8033 102.355 68.0143 102.271 68.536C102.221 68.8505 102.213 69.1842 102.24 69.5026C102.397 71.3399 102.14 73.2118 102.67 75.0222C102.773 75.3828 102.731 75.7855 102.754 76.1653C102.67 76.2113 102.585 76.2573 102.501 76.3034C102.29 76.1154 102.056 75.9543 101.876 75.7395C100.756 74.4239 99.6663 73.0813 98.5156 71.7925C98.32 71.5739 97.8175 71.4089 97.5797 71.5125C97.3342 71.6161 97.1424 72.0649 97.1002 72.3832C96.9314 73.7373 96.8355 75.0989 96.7013 76.453C96.6783 76.6754 96.6015 76.8979 96.5095 77.3007C95.5429 76.8941 94.6683 76.5374 93.8014 76.1576C93.3948 75.9773 93.0266 75.7165 92.6162 75.5516C91.6419 75.1565 91.2737 75.3828 91.1663 76.4146C91.0397 77.6574 90.8978 78.904 90.8287 80.1507C90.7942 80.7644 90.5717 81.2132 90.1383 81.6274C89.1487 82.5748 88.2204 83.5913 87.2039 84.5042C86.4598 85.1717 85.6619 85.8199 84.7951 86.307C82.3593 87.6764 78.5197 86.3416 76.9317 84.1015C75.4933 82.0724 75.0215 79.8169 75.4703 77.4426C75.804 75.6897 76.7361 74.1669 77.9175 72.7898C79.191 71.3054 80.8634 70.4462 82.5128 69.5217C82.6547 69.4412 82.8273 69.3952 82.9309 69.2801C83.8361 68.2981 84.7644 68.5513 85.7272 69.1804C87.1464 70.1048 88.5886 70.9832 89.9925 71.9306C90.5449 72.3065 91.0397 72.2451 91.5844 72.0035C91.9257 71.85 92.06 71.6046 91.9871 71.2287C91.7033 69.7289 91.4463 68.2252 91.1471 66.7293C91.0397 66.1808 90.8402 65.6476 90.6945 65.1029C90.5832 64.6887 90.495 64.2668 90.3953 63.8448C90.5065 63.7758 90.6216 63.7029 90.7328 63.6339H90.7405Z" fill="#ED1C24"/>
  <path d="M104.227 79.6942L103.272 70.7607H105.14L110.79 76.0502L107.372 79.4256L104.227 79.6942Z" fill="white"/>
  <path d="M20.7224 36.1237C20.7723 36.2503 20.872 36.3692 20.8452 36.4613C20.5997 37.3895 20.3273 38.3101 20.078 39.2345C19.9208 39.8214 20.1969 40.3354 20.7109 40.4581C21.2019 40.5771 21.6507 40.2203 21.7504 39.5798C21.969 38.1337 22.2912 36.7336 23.1044 35.4793C23.8217 34.3746 24.6809 33.5269 25.9582 32.9976C29.1381 31.6742 32.4368 30.769 35.7701 29.9788C35.9926 29.9251 36.2304 29.9366 36.6639 29.906C36.591 30.3317 36.5718 30.6578 36.4797 30.9685C36.1767 31.9696 35.843 32.9592 35.5285 33.9565C35.4671 34.1483 35.4019 34.3593 35.4287 34.5472C35.4556 34.7659 35.5361 35.1149 35.6704 35.1571C35.8929 35.2262 36.3148 35.184 36.4145 35.0344C36.7828 34.4705 37.1778 33.876 37.339 33.2354C37.6803 31.8776 38.3055 30.677 39.0765 29.5377C39.253 29.2769 39.4563 28.9739 39.7248 28.8435C40.9522 28.2451 42.2142 27.7119 43.4455 27.1289C45.2598 26.2697 47.3234 26.005 48.9958 24.7929C49.6441 24.3249 50.3652 24.2444 51.1784 24.4822C52.9659 25 54.5347 25.8516 55.7736 27.2478C56.1227 27.6429 56.4717 27.7963 56.9244 27.5048C57.4844 27.1481 57.5227 26.5842 56.9781 26.1162C55.8465 25.1381 54.6536 24.2482 53.2535 23.669C52.8738 23.5118 52.5362 23.2509 52.0338 22.9479C54.1818 21.4443 56.1572 20.0672 58.1288 18.6787C58.6505 18.3105 59.1836 18.2337 59.8357 18.2951C61.4007 18.4409 62.9503 18.5905 64.4961 18.9549C65.7811 19.2579 66.9434 19.699 67.9752 20.5083C68.1286 20.6311 68.3204 20.7232 68.5084 20.7807C69.0262 20.9303 69.5824 20.7117 69.7473 20.2859C69.9544 19.7489 69.6207 19.4152 69.2026 19.2234C67.2234 18.3181 65.2671 17.3477 63.0462 17.1674C62.8621 17.1521 62.6857 17.0562 62.3366 16.9449C62.6358 16.7224 62.7816 16.546 62.9695 16.4808C64.3849 16.009 65.785 15.4643 67.2349 15.1383C68.4853 14.8583 69.7934 14.7317 71.0783 14.724C75.7043 14.6972 80.265 15.3301 84.7068 16.5844C87.5337 17.3822 90.3147 18.3718 92.8424 19.9483C94.5378 21.007 95.9532 22.384 97.3265 23.8033C98.5309 25.0499 99.7161 26.3195 100.859 27.6237C102.773 29.8101 104.722 31.9428 106.954 33.83C108.546 35.1763 110.134 36.607 111.392 38.2526C113.172 40.5771 114.664 43.1278 116.256 45.5981C117.748 47.9149 118.791 50.4465 119.674 53.0471C120.088 54.2669 120.56 55.4713 120.897 56.7103C121.116 57.5158 121.139 58.375 121.246 59.2074C121.595 61.9269 121.921 64.6542 122.305 67.3699C122.662 69.9015 122.804 72.4331 122.439 74.9685C122.347 75.6014 122.098 76.2075 121.91 76.825C120.932 80.0739 119.812 83.2729 118.151 86.2457C116.923 88.4397 115.466 90.465 113.444 92.0146C111.292 93.6602 109.033 95.1255 106.594 96.326C103.349 97.9256 99.8734 98.5623 96.3253 98.919C95.3625 99.0149 94.3959 99.0686 93.4293 99.1338C90.9706 99.3064 88.5234 99.176 86.0608 99.0303C81.0705 98.7387 76.0955 97.9831 71.0745 98.4856C69.3484 98.6582 67.5993 98.6927 65.8962 98.9881C64.3159 99.2604 62.7931 99.8549 61.2243 100.208C58.7655 100.76 56.4909 101.781 54.2086 102.793C52.0568 103.748 49.7975 104.304 47.5229 104.853C44.6768 105.54 41.7501 105.428 38.8733 105.812C37.8031 105.954 36.7022 105.866 35.6167 105.885C34.0249 105.912 32.4752 105.628 30.9869 105.087C28.9156 104.335 26.8136 104.243 24.6694 104.584C23.7642 104.73 22.8704 104.945 21.9652 105.106C21.6507 105.16 21.3208 105.16 21.0024 105.152C18.2982 105.091 16.1272 104.005 14.4931 101.827C13.4038 100.377 12.2185 98.9996 11.1714 97.519C10.573 96.6713 10.105 95.7161 9.6946 94.7572C9.12691 93.4262 8.53621 92.0798 8.18715 90.6798C7.43151 87.6726 6.23475 84.7881 5.81665 81.6888C5.61719 80.2158 5.2106 78.7736 4.8999 77.316C4.89223 77.2776 4.87688 77.2393 4.87305 77.1971C4.50098 72.8243 3.87576 68.4592 4.59304 64.0596C4.81935 62.6672 4.93442 61.2595 5.17224 59.871C5.46375 58.1564 5.99693 56.5146 6.73723 54.9343C7.98769 52.2723 9.10006 49.5374 10.4771 46.9444C11.4744 45.0687 12.8284 43.3887 13.9868 41.5974C15.571 39.1387 17.9799 37.6696 20.3734 36.1736C20.4616 36.1199 20.5997 36.1429 20.7301 36.1276L20.7224 36.1237ZM38.4628 56.7947C37.9488 56.7486 37.5001 56.7985 37.1241 56.6604C34.6999 55.7552 32.1185 55.8434 29.6176 55.4522C29.2685 55.3985 28.8926 55.479 28.532 55.4982C27.1282 55.5826 25.7243 55.6938 24.3204 55.7552C22.0649 55.8549 19.8786 56.2193 18.1256 57.7689C16.4762 59.2265 15.3255 61.0715 14.309 63.0201C12.8169 65.8816 13.0355 68.8313 13.6454 71.8385C13.7452 72.3257 13.7298 72.8665 13.6454 73.3613C13.4345 74.5888 13.0471 75.7894 12.9166 77.0206C12.6136 79.8207 13.6148 82.3293 14.8844 84.7459C15.0148 84.9914 15.1913 85.233 15.4022 85.4095C16.6373 86.4374 17.884 87.4578 19.1421 88.4589C19.7596 88.9499 20.4769 89.1723 21.2786 89.1762C22.5291 89.18 23.7834 89.1608 25.0223 89.2797C27.1512 89.483 29.2647 89.8129 31.3897 90.0431C33.5991 90.2809 35.6934 89.9357 37.7647 89.0381C39.4985 88.2863 41.3933 88.0063 43.3036 88.0254C44.8647 88.0408 46.3607 87.8107 47.6533 86.8325C48.0369 86.541 48.4511 86.2802 48.8577 86.0193C49.8742 85.3711 50.6069 84.5081 51.0825 83.3842C51.3778 82.6861 51.8727 82.0762 52.2562 81.4164C52.7165 80.6186 53.1423 79.7977 53.5988 78.9961C54.2355 77.8837 54.9067 76.7867 55.5358 75.6666C55.8887 75.0414 56.418 74.9647 57.0701 74.9724C58.5622 74.9877 60.062 75.0184 61.5388 74.8765C66.0918 74.4392 69.2602 72.1416 70.8405 67.7688C71.1397 66.9403 71.5424 66.1347 71.972 65.3638C72.7315 63.9982 73.1995 62.5368 73.3414 61.0063C73.445 59.917 73.6061 58.8698 73.9475 57.8265C74.2582 56.8791 74.2812 55.8242 74.6609 54.9151C75.8347 52.1304 75.6582 49.4683 74.0165 46.9751C73.3184 45.9126 72.4707 44.8693 71.4734 44.1021C69.4826 42.5717 67.1889 41.5283 64.7608 40.8609C63.4298 40.4965 62.0604 40.4773 60.7064 40.9453C59.4943 41.3634 58.2554 41.3595 57.0509 40.8609C55.8849 40.3738 54.6881 40.0707 53.407 40.1436C52.8047 40.1781 52.1949 40.1705 51.5926 40.136C48.6775 39.971 46.4182 41.4248 44.5579 43.3618C43.1271 44.8539 41.9265 46.6261 41.1632 48.6168C41.0328 48.9544 40.8909 49.2957 40.6952 49.5988C39.3297 51.7123 38.5779 54.0214 38.459 56.7908L38.4628 56.7947ZM101.511 81.52C102.846 81.3704 104.112 81.3359 105.324 81.0674C106.41 80.8257 107.541 80.4843 108.469 79.8975C109.996 78.9309 111.434 77.7993 112.785 76.5987C113.609 75.8661 114.196 74.911 114.465 73.7411C114.695 72.7438 114.488 71.8194 114.392 70.8719C114.154 68.5475 113.928 66.223 113.579 63.9138C113.279 61.9576 112.961 60.0129 113.003 58.0259C113.022 57.2204 112.938 56.4111 112.95 55.6056C112.973 54.1978 112.62 52.8975 111.933 51.6778C111.381 50.6996 110.913 49.6601 110.28 48.7357C109.003 46.8715 107.092 46.0162 104.944 45.506C102.792 44.9959 101.105 45.9011 99.7276 47.2858C98.7879 48.2294 98.1435 49.5144 97.5413 50.7342C96.7434 52.3414 95.7423 53.6839 94.043 54.3935C92.7811 54.9228 91.5191 55.4637 90.2418 55.9546C88.673 56.5607 87.4263 57.5541 86.663 59.0424C86.08 60.1816 85.6542 61.4014 85.1364 62.579C84.8295 63.2771 84.584 64.0366 84.1237 64.6273C82.881 66.223 81.4426 67.6115 79.6014 68.5475C77.3421 69.6982 75.6275 71.4511 74.5228 73.7142C74.0012 74.7844 73.7672 76.0003 73.4143 77.1549C72.7008 79.4755 73.142 81.7041 74.0741 83.8483C74.4039 84.6078 75.01 85.2522 75.4779 85.9541C76.3295 87.2315 77.4917 88.1712 78.8496 88.8195C79.6321 89.1954 80.545 89.5713 81.3735 89.5214C83.3489 89.3987 85.355 88.9959 86.9891 87.8452C88.7957 86.5755 90.541 85.1563 92.0753 83.576C94.277 81.3052 96.8661 80.8372 99.8043 81.2898C100.399 81.3819 100.997 81.4548 101.511 81.5238V81.52ZM33.9098 38.1912C33.5109 38.2027 33.1925 38.6438 33.227 39.1425C33.2615 39.6948 33.6489 40.1436 34.0632 40.1129C34.5619 40.0784 34.9493 39.6603 34.9378 39.1617C34.9301 38.6937 34.3816 38.1759 33.9098 38.1912ZM77.415 23.0515C77.4303 22.2421 77.181 21.9122 76.7054 21.8892C76.1876 21.8624 76.0034 22.1616 75.9958 22.6372C75.9842 23.2433 76.3218 23.7496 76.7553 23.6268C77.0583 23.5424 77.2807 23.178 77.415 23.0553V23.0515ZM34.7537 43.404C35.0413 42.8018 35.0068 42.2725 34.4775 41.9004C34.3125 41.7853 33.8177 41.8275 33.7487 41.9503C33.5914 42.2303 33.4917 42.6369 33.5646 42.9399C33.7218 43.569 34.2588 43.4309 34.7498 43.404H34.7537ZM58.8461 28.6517C58.8806 29.0774 58.8269 29.5301 58.9803 29.8983C59.0647 30.1016 59.4943 30.255 59.7666 30.2512C59.9047 30.2512 60.1311 29.8638 60.1579 29.6336C60.2461 28.8435 59.9584 28.6248 58.8461 28.6517ZM19.4336 48.8853C19.5448 48.7357 19.844 48.5056 19.8977 48.2256C19.9783 47.8113 19.4068 47.2666 19.0002 47.2896C18.5284 47.3127 18.4401 47.6617 18.4478 48.0453C18.4555 48.5631 18.7892 48.916 19.4336 48.8892V48.8853ZM19.8901 44.9882C20.032 44.7772 20.3312 44.4972 20.4041 44.1712C20.5076 43.7109 20.1931 43.427 19.7213 43.381C19.2687 43.335 18.9158 43.638 18.9004 44.0599C18.8889 44.4704 19.3109 44.9652 19.8901 44.992V44.9882ZM62.6243 32.1154C62.7509 31.9543 63.0539 31.7356 63.0999 31.471C63.169 31.049 62.6933 30.6424 62.2637 30.6655C61.7612 30.6885 61.5963 31.0107 61.6078 31.4671C61.6193 32.0233 62.0259 32.0578 62.6243 32.1192V32.1154ZM80.4299 25.4642C80.6754 25.4642 80.9631 25.2954 80.9477 24.8274C80.9324 24.3748 80.7483 24.0334 80.2305 24.0334C79.797 24.0334 79.5707 24.2751 79.5362 24.7047C79.4978 25.1918 79.7433 25.4527 80.4299 25.4642Z" fill="#FF9439"/>
  <path d="M34.8649 27.7886C34.7038 26.9678 34.5773 26.1814 34.397 25.4105C33.9367 23.4581 33.4496 21.5095 32.9778 19.5571C32.8358 18.9702 32.7131 18.3757 32.5903 17.785C32.0342 15.1306 31.8922 12.4341 31.8961 9.7337C31.8961 8.26076 31.7311 6.84536 31.2402 5.46065C31.1481 5.19598 31.0791 4.91597 31.0484 4.63979C30.9103 3.43153 31.1558 3.27043 32.3257 2.89453C33.5761 2.49177 34.7499 1.83586 35.9658 1.31803C36.3954 1.13392 36.8557 1.03035 37.3007 0.884589C37.9489 0.669786 38.5972 0.458814 39.2416 0.232504C40.3309 -0.147236 40.4767 -0.131889 41.1556 0.811708C42.1184 2.15423 43.0428 3.52359 43.9787 4.88529C46.3684 8.37967 48.7542 11.8779 51.1516 15.3646C51.4009 15.7252 51.7231 16.0435 52.0453 16.3427C53.0925 17.3132 53.2881 17.3438 54.5961 16.6994C55.5742 16.2161 56.5332 15.7021 57.5036 15.2112C59.7936 14.0566 62.2561 13.4621 64.7455 12.9442C65.5357 12.7793 66.3105 12.5607 67.0892 12.3458C68.3972 11.9815 69.7129 11.9393 71.0439 12.1924C71.2011 12.2231 71.3622 12.2768 71.5195 12.2768C74.4462 12.3037 77.2425 13.182 80.1039 13.6193C80.3418 13.6577 80.5796 13.7382 80.8174 13.7497C84.5726 13.884 87.9596 15.3454 91.3619 16.7071C93.4409 17.5395 95.0941 19.0738 96.8892 20.3741C100.821 23.2202 103.97 26.8259 107.1 30.4737C108.278 31.8469 109.586 33.1088 110.886 34.3708C112.873 36.304 114.434 38.5403 115.8 40.9338C117.019 43.0703 118.243 45.203 119.516 47.305C121.127 49.9632 122.155 52.8016 122.531 55.9009C122.646 56.8369 123.057 57.7536 123.414 58.6435C124.806 62.1264 125.236 65.7243 124.883 69.445C124.775 70.5689 124.829 71.712 124.668 72.8243C124.461 74.2551 124.15 75.6743 123.816 77.0858C123.229 79.5676 122.305 81.9419 121.181 84.2165C120.061 86.4835 118.776 88.666 117.552 90.8793C117.437 91.0864 117.284 91.2859 117.1 91.4316C115.201 92.9314 113.36 94.5156 111.373 95.8849C109.355 97.2773 107.207 98.4587 104.848 99.2565C101.853 100.273 98.7726 100.86 95.6695 101.362C95.236 101.431 94.7872 101.428 94.3423 101.439C93.8973 101.451 93.4486 101.382 93.0113 101.439C89.8429 101.88 86.7551 101.22 83.6482 100.81C79.8354 100.304 76.0035 100.154 72.1677 100.327C69.2142 100.457 66.3412 101.052 63.591 102.222C59.8473 103.813 56.1036 105.405 52.3177 106.886C48.7082 108.297 44.9875 109.356 41.1326 109.889C40.2158 110.016 39.3221 110.33 38.4053 110.426C34.7038 110.814 30.987 110.975 27.3008 110.43C23.887 109.928 20.5921 108.923 17.7421 106.886C15.0878 104.987 12.4986 103 9.92481 100.998C9.33794 100.542 8.90067 99.878 8.45188 99.2642C7.28581 97.6647 6.37674 95.9118 5.55205 94.1166C4.08295 90.9215 2.97057 87.615 2.21493 84.1705C1.77381 82.1606 1.6549 80.0969 1.17927 78.1215C0.788019 76.5067 0.753506 74.8496 0.300886 73.2616C-0.12872 71.7542 0.00168915 70.216 0.0899117 68.6894C0.170463 67.2817 0.220327 65.8547 0.496502 64.4777C0.860899 62.6711 1.42859 60.9066 1.9119 59.123C2.03848 58.6589 2.15355 58.1871 2.29548 57.7306C2.66371 56.5415 3.00509 55.3371 3.4347 54.1672C4.24404 51.9769 5.11093 49.8059 5.94713 47.6272C7.15539 44.4742 9.16916 41.8774 11.5358 39.5222C11.7046 39.3534 11.8887 39.1693 12.1035 39.0734C13.8603 38.2756 15.2182 36.9293 16.6719 35.7172C18.3788 34.2941 20.2775 33.1817 22.2875 32.2496C25.6553 30.6885 29.1036 29.3344 32.6709 28.2873C33.3536 28.0878 34.0633 27.9728 34.8726 27.7925L34.8649 27.7886ZM20.7225 36.1199C20.5882 36.1352 20.454 36.1122 20.3658 36.1659C17.9722 37.658 15.5634 39.131 13.9792 41.5897C12.8247 43.381 11.4668 45.0649 10.4695 46.9368C9.09245 49.5297 7.98391 52.2646 6.72962 54.9267C5.98548 56.507 5.45615 58.1525 5.16463 59.8633C4.92681 61.2518 4.81557 62.6634 4.58543 64.0519C3.86814 68.4516 4.49337 72.8167 4.86544 77.1894C4.86544 77.2278 4.88462 77.27 4.89229 77.3083C5.20299 78.7659 5.61341 80.2082 5.80904 81.6811C6.22713 84.7804 7.42389 87.6687 8.17953 90.6721C8.52859 92.0684 9.11931 93.4147 9.687 94.7496C10.0974 95.7085 10.5654 96.6636 11.1638 97.5113C12.2109 98.9919 13.3962 100.369 14.4855 101.819C16.1196 103.994 18.2906 105.083 20.9948 105.144C21.317 105.152 21.6431 105.152 21.9576 105.098C22.8628 104.937 23.7566 104.723 24.6618 104.577C26.806 104.232 28.9118 104.327 30.9793 105.079C32.4638 105.62 34.0134 105.904 35.6091 105.877C36.6946 105.858 37.7955 105.946 38.8656 105.804C41.7425 105.417 44.6691 105.532 47.5153 104.845C49.7899 104.297 52.0492 103.741 54.201 102.785C56.4795 101.773 58.7579 100.753 61.2166 100.2C62.7855 99.8473 64.3083 99.2566 65.8886 98.9804C67.5917 98.685 69.3408 98.6505 71.0669 98.4779C76.0879 97.9754 81.0629 98.7311 86.0532 99.0226C88.5158 99.1645 90.963 99.2949 93.4217 99.1261C94.3883 99.0571 95.3549 99.0073 96.3177 98.9114C99.8658 98.5546 103.341 97.914 106.586 96.3184C109.026 95.1178 111.285 93.6564 113.437 92.007C115.458 90.4573 116.92 88.4321 118.143 86.238C119.804 83.2653 120.924 80.0663 121.902 76.8174C122.086 76.1998 122.34 75.5899 122.432 74.9608C122.796 72.4254 122.654 69.8938 122.297 67.3622C121.914 64.6465 121.588 61.9193 121.239 59.1997C121.131 58.3635 121.108 57.5081 120.89 56.7026C120.552 55.4637 120.08 54.2592 119.666 53.0395C118.784 50.4388 117.74 47.911 116.248 45.5904C114.656 43.1202 113.164 40.5694 111.385 38.2449C110.123 36.5994 108.538 35.1686 106.947 33.8223C104.714 31.9389 102.766 29.8024 100.852 27.616C99.7085 26.3119 98.5233 25.0422 97.3188 23.7956C95.9456 22.3725 94.5302 20.9955 92.8348 19.9407C90.3071 18.3642 87.5261 17.3745 84.6992 16.5767C80.2574 15.3262 75.6966 14.6895 71.0707 14.7163C69.7857 14.724 68.4777 14.8506 67.2273 15.1306C65.7774 15.4567 64.3773 16.0013 62.9619 16.4731C62.774 16.5345 62.6282 16.7109 62.329 16.9372C62.6781 17.0485 62.8545 17.1444 63.0386 17.1597C65.2595 17.34 67.2196 18.3105 69.195 19.2157C69.6131 19.4075 69.943 19.7412 69.7397 20.2782C69.5786 20.704 69.0224 20.9226 68.5007 20.773C68.3128 20.7193 68.121 20.6234 67.9676 20.5007C66.9358 19.6913 65.7735 19.2464 64.4885 18.9472C62.9427 18.5866 61.3969 18.437 59.8281 18.2874C59.176 18.2261 58.6467 18.3028 58.1212 18.671C56.1534 20.0596 54.1742 21.4366 52.0261 22.9402C52.5286 23.2433 52.8662 23.5041 53.2459 23.6614C54.646 24.2406 55.8389 25.1304 56.9704 26.1086C57.5113 26.5765 57.4768 27.1366 56.9167 27.4971C56.4603 27.7886 56.1151 27.6352 55.766 27.2401C54.5271 25.8439 52.9582 24.9924 51.1708 24.4745C50.3576 24.2405 49.6365 24.3173 48.9882 24.7852C47.312 25.9935 45.2522 26.2582 43.4379 27.1212C42.2028 27.7081 40.9446 28.2374 39.7172 28.8358C39.4525 28.9662 39.2454 29.2692 39.0689 29.5301C38.298 30.6693 37.6689 31.8699 37.3313 33.2277C37.1702 33.8683 36.7752 34.4629 36.4069 35.0267C36.3072 35.1763 35.8853 35.2185 35.6628 35.1495C35.5285 35.1073 35.448 34.762 35.4211 34.5396C35.3981 34.3478 35.4633 34.1407 35.5209 33.9489C35.8354 32.9516 36.1691 31.9619 36.4721 30.9608C36.5642 30.6539 36.5872 30.3241 36.6562 29.8983C36.2228 29.9328 35.985 29.9213 35.7625 29.9712C32.4254 30.7652 29.1305 31.6666 25.9506 32.9899C24.6772 33.5193 23.8179 34.367 23.0968 35.4717C22.2798 36.726 21.9614 38.126 21.7428 39.5721C21.6469 40.2127 21.1943 40.5694 20.7033 40.4505C20.1893 40.3277 19.9093 39.8138 20.0704 39.2269C20.3197 38.3025 20.5921 37.3819 20.8376 36.4536C20.8606 36.3654 20.7608 36.2426 20.7148 36.1161L20.7225 36.1199ZM36.5527 4.05677C35.9543 4.23322 35.8085 4.58611 36.0809 5.13846C36.2765 5.53354 36.5028 5.91711 36.6486 6.33138C37.4081 8.52927 38.1791 10.7272 38.881 12.9442C39.863 16.0435 40.7835 19.1658 41.7501 22.2728C42.0302 23.1742 42.2066 24.137 42.9546 24.9809C43.6488 24.4707 44.3086 23.9835 44.9223 23.5309C44.0785 21.498 43.2806 19.6108 42.5096 17.7159C41.3435 14.8544 40.2005 11.9776 39.0268 9.11996C38.5396 7.93855 38.0218 6.76481 37.4809 5.60641C37.247 5.10776 36.9171 4.65515 36.5565 4.05293L36.5527 4.05677ZM34.5389 5.84423C34.4315 5.86724 34.3241 5.89025 34.2129 5.91327C34.1553 6.13574 34.0556 6.35438 34.0441 6.58069C33.9866 7.7084 34.117 8.78625 34.4814 9.88711C35.2063 12.062 35.774 14.2906 36.3801 16.5038C36.7828 17.9767 37.2431 19.4458 37.4848 20.9456C37.7456 22.5682 38.3555 24.0296 39.1418 25.4296C39.5292 26.1239 39.6481 26.1124 40.6838 25.7557C40.5917 25.4603 40.515 25.1535 40.4038 24.8619C39.6673 22.9095 38.8541 20.9801 38.2059 19.0009C37.5308 16.9372 36.9746 14.8314 36.4453 12.7256C36.0425 11.1299 35.8085 9.48821 35.4096 7.89254C35.2332 7.18292 34.8304 6.52699 34.5312 5.84423H34.5389ZM48.1405 20.4547C47.2046 18.8168 46.3262 17.3323 45.4939 15.8249C43.8253 12.7985 42.1989 9.74903 40.5227 6.72645C40.189 6.1204 39.7133 5.59107 39.3029 5.02721C39.23 5.07707 39.1533 5.1231 39.0804 5.17297C41.5123 10.7156 43.9442 16.2622 46.3838 21.824C47.335 21.6936 47.7339 21.0607 48.1405 20.4547ZM39.418 2.74492C39.6673 3.15152 39.8322 3.49291 40.0624 3.78442C42.594 6.98729 44.2933 10.6888 46.3147 14.1985C47.2353 15.798 48.2134 17.363 49.1608 18.9472C49.437 19.4113 49.8014 19.5302 50.277 19.2617C50.6146 19.0699 50.9445 18.8628 51.3702 18.6058C50.7488 17.7619 50.231 16.9526 49.6058 16.243C47.661 14.0297 46.0922 11.5595 44.4812 9.10847C43.1809 7.12538 41.8575 5.15763 40.5342 3.18989C40.3424 2.90604 40.1851 2.51863 39.4218 2.74111L39.418 2.74492ZM42.2258 107.227C42.126 107.189 42.0225 107.105 41.9266 107.116C40.2887 107.281 38.6508 107.454 37.013 107.63C35.5707 107.787 34.1515 107.902 32.7054 107.469C30.1853 106.713 27.6192 106.18 24.961 106.66C24.4739 106.748 23.9944 106.871 23.4459 106.989C23.9829 107.734 24.4547 107.998 26.5413 108.282C31.827 109.003 37.0782 108.95 42.2258 107.223V107.227ZM35.8162 21.5977C35.6551 21.9813 35.5515 22.104 35.5784 22.1846C36.0962 23.692 36.6217 25.1957 37.1779 26.6878C37.2163 26.7913 37.5039 26.8028 37.6727 26.8565C37.7149 26.6801 37.8377 26.473 37.7878 26.3311C37.6382 25.9206 37.4004 25.5447 37.2316 25.1381C36.779 24.0372 36.3455 22.9287 35.8124 21.5977H35.8162Z" fill="black"/>
  <path d="M36.5527 4.06061C36.9133 4.65899 37.2431 5.11544 37.4771 5.61409C38.018 6.77249 38.5358 7.94238 39.0229 9.12764C40.1967 11.9891 41.3397 14.8621 42.5058 17.7236C43.2806 19.6185 44.0746 21.5056 44.9185 23.5386C44.3048 23.9912 43.645 24.4745 42.9508 24.9885C42.2028 24.1485 42.0263 23.1857 41.7463 22.2805C40.7759 19.1735 39.8591 16.0512 38.8772 12.9519C38.1752 10.7348 37.4042 8.53692 36.6448 6.33903C36.5028 5.92477 36.2727 5.5412 36.0771 5.14611C35.8047 4.59376 35.9505 4.24087 36.5489 4.06442L36.5527 4.06061Z" fill="#8B9463"/>
  <path d="M34.535 5.84805C34.8342 6.52698 35.2331 7.18291 35.4134 7.89636C35.8123 9.49587 36.0463 11.1337 36.4491 12.7294C36.9784 14.8352 37.5346 16.9411 38.2097 19.0047C38.8579 20.9878 39.6711 22.9134 40.4076 24.8658C40.5188 25.1573 40.5955 25.4603 40.6876 25.7595C39.6481 26.1162 39.533 26.1277 39.1456 25.4335C38.3593 24.0296 37.7494 22.572 37.4886 20.9494C37.2469 19.4497 36.7866 17.9806 36.3839 16.5076C35.7778 14.2944 35.2101 12.0658 34.4852 9.89094C34.1208 8.79007 33.9865 7.71223 34.0479 6.58451C34.0594 6.36204 34.1591 6.13957 34.2167 5.91709C34.3241 5.89408 34.4315 5.87107 34.5427 5.84805H34.535Z" fill="#6C7249"/>
  <path d="M48.1405 20.4585C47.7378 21.0646 47.335 21.6974 46.3838 21.8279C43.9442 16.266 41.5123 10.7195 39.0804 5.17683C39.1533 5.12696 39.23 5.08093 39.3029 5.03107C39.7134 5.59492 40.1851 6.12426 40.5227 6.73031C42.1989 9.75289 43.8253 12.8023 45.4939 15.8287C46.3262 17.3362 47.2008 18.8206 48.1405 20.4585Z" fill="#6C7249"/>
  <path d="M39.4141 2.74495C40.1736 2.52247 40.3347 2.9099 40.5265 3.19375C41.8498 5.1615 43.1731 7.12924 44.4735 9.11233C46.0845 11.5634 47.6533 14.0336 49.5981 16.2468C50.2233 16.9603 50.7411 17.7696 51.3625 18.6097C50.9367 18.8628 50.6069 19.0738 50.2693 19.2656C49.7975 19.5341 49.4331 19.4152 49.1531 18.951C48.2057 17.3669 47.2276 15.8019 46.307 14.2024C44.2855 10.6926 42.5863 6.99115 40.0547 3.78829C39.8245 3.49677 39.6596 3.15538 39.4103 2.74879L39.4141 2.74495Z" fill="#8B9463"/>
  <path d="M42.2219 107.231C37.0743 108.953 31.8232 109.007 26.5375 108.29C24.4508 108.006 23.9752 107.741 23.442 106.997C23.9944 106.874 24.4738 106.756 24.9571 106.667C27.6153 106.188 30.1815 106.721 32.7016 107.477C34.1438 107.91 35.563 107.791 37.0091 107.638C38.647 107.461 40.2849 107.289 41.9227 107.124C42.0186 107.116 42.1222 107.197 42.2219 107.235V107.231Z" fill="#FFC34F"/>
  <path d="M35.8124 21.6015C36.3456 22.9325 36.779 24.0411 37.2317 25.1419C37.3966 25.5485 37.6382 25.9244 37.7878 26.3349C37.8377 26.4768 37.715 26.6839 37.6728 26.8603C37.5002 26.8066 37.2163 26.7952 37.178 26.6916C36.6218 25.1995 36.0963 23.6958 35.5784 22.1884C35.5516 22.1078 35.6552 21.9851 35.8163 21.6015H35.8124Z" fill="#8B9463"/>
  <path d="M38.4629 56.7908C38.5818 54.0214 39.3374 51.7123 40.6991 49.5987C40.8947 49.2957 41.0405 48.9543 41.1671 48.6168C41.9266 46.626 43.1272 44.8539 44.5617 43.3618C46.4221 41.4209 48.6813 39.971 51.5965 40.1359C52.1987 40.1704 52.8086 40.1743 53.4108 40.1436C54.692 40.0707 55.8888 40.3776 57.0548 40.8609C58.2593 41.3634 59.4982 41.3634 60.7103 40.9453C62.0643 40.4773 63.4337 40.4965 64.7647 40.8609C67.1927 41.5245 69.4827 42.5716 71.4773 44.1021C72.4746 44.8692 73.3223 45.9126 74.0204 46.9751C75.6621 49.4722 75.8385 52.1303 74.6648 54.9151C74.2812 55.8242 74.2582 56.879 73.9514 57.8265C73.61 58.8698 73.445 59.9131 73.3453 61.0063C73.2034 62.5368 72.7316 63.9982 71.9759 65.3637C71.5463 66.1385 71.1436 66.9402 70.8444 67.7688C69.264 72.1415 66.0957 74.4392 61.5426 74.8764C60.062 75.0184 58.5623 74.9838 57.074 74.9723C56.4219 74.9647 55.8926 75.0414 55.5397 75.6666C54.9106 76.7866 54.2394 77.8798 53.6026 78.996C53.1423 79.7977 52.7204 80.6186 52.2601 81.4164C51.8804 82.08 51.3817 82.6899 51.0864 83.3842C50.6107 84.5119 49.8781 85.3711 48.8616 86.0193C48.455 86.2802 48.0446 86.5371 47.6572 86.8325C46.3646 87.8145 44.8724 88.0408 43.3074 88.0254C41.3972 88.0101 39.4985 88.2901 37.7686 89.0381C35.6973 89.9356 33.603 90.2808 31.3936 90.043C29.2685 89.8129 27.155 89.483 25.0262 89.2797C23.7872 89.1608 22.5291 89.18 21.2825 89.1761C20.4808 89.1761 19.7635 88.9498 19.146 88.4589C17.8878 87.4577 16.6412 86.4374 15.4061 85.4094C15.1951 85.233 15.0148 84.9913 14.8883 84.7458C13.6186 82.3293 12.6175 79.8207 12.9205 77.0206C13.0548 75.7893 13.4383 74.5849 13.6493 73.3613C13.7337 72.8665 13.749 72.3295 13.6493 71.8385C13.0394 68.8313 12.8208 65.8816 14.3129 63.0201C15.3294 61.0715 16.4801 59.2265 18.1295 57.7689C19.8824 56.2193 22.0688 55.851 24.3242 55.7551C25.7281 55.6938 27.132 55.5864 28.5359 55.4982C28.8965 55.4751 29.2685 55.3946 29.6214 55.4521C32.1262 55.8434 34.7038 55.7513 37.128 56.6604C37.5039 56.8023 37.9489 56.7486 38.4667 56.7946L38.4629 56.7908ZM32.7706 84.7573C34.4008 84.6653 36.3378 84.6078 38.2634 84.4198C39.0421 84.3431 39.8552 84.0976 40.5418 83.7217C42.7244 82.5211 44.8839 81.2822 46.9131 79.8092C47.7684 79.1917 48.3975 78.4821 48.8501 77.5615C49.4638 76.3148 49.9049 75.0337 49.7515 73.6106C49.7016 73.1311 49.7323 72.644 49.717 72.1569C49.6288 69.6636 48.6276 67.5309 46.9667 65.7435C44.8801 63.4996 42.3715 61.8195 39.4717 60.7877C38.1522 60.3159 36.7981 59.9016 35.4288 59.6139C34.5734 59.4375 33.6605 59.518 32.7744 59.541C30.8335 59.5909 28.908 59.7213 27.297 61.0178C27.1781 61.1137 27.0016 61.1406 26.8482 61.1981C26.0925 61.4781 25.3446 61.7735 24.5851 62.0381C23.1313 62.5406 22.1494 63.5878 21.3937 64.8612C19.9438 67.3008 19.9131 70.005 19.9783 72.7207C19.9783 72.8013 20.0128 72.878 20.0282 72.9586C20.592 75.5093 21.6239 77.8606 23.1198 79.9972C24.6119 82.1299 26.4799 83.8329 29.1113 84.4006C30.2045 84.6384 31.3514 84.6269 32.7859 84.7573H32.7706ZM53.8635 46.7526C53.4185 46.7526 52.9736 46.7181 52.5324 46.7565C48.9729 47.0633 45.9349 48.3483 44.0899 51.5972C43.3995 52.8131 42.9315 54.1595 42.406 55.4636C42.0915 56.2384 42.1912 56.3228 42.8855 56.8368C43.6258 57.3892 44.3239 57.9914 45.0105 58.6089C45.5782 59.1191 46.0768 59.7137 46.6522 60.2161C49.1723 62.4255 50.9636 65.0991 51.8842 68.3288C52.1719 69.3338 52.402 70.3579 52.6437 71.3782C52.7434 71.8002 52.8853 72.1607 53.3878 72.1914C55.8389 72.3372 58.2209 72.1108 60.4495 70.964C62.609 69.8516 64.2967 68.1868 65.8195 66.3495C66.3259 65.7396 66.8092 65.03 67.047 64.2859C67.8717 61.7236 67.7412 59.1191 67.1275 56.5261C67.0623 56.2538 66.9396 55.9891 66.8015 55.7475C65.8119 53.9945 64.8261 52.2493 63.3378 50.8224C60.6758 48.2677 57.6954 46.534 53.8635 46.7526ZM60.3919 42.4144C60.6221 42.7174 60.7026 42.9245 60.8522 43.0089C62.1065 43.73 63.3608 44.4627 64.6419 45.1339C68.4278 47.117 71.3392 49.8519 72.5475 54.1019C72.6472 54.451 72.885 54.7578 73.0615 55.0839C73.5256 54.2669 73.8056 53.5189 73.9437 52.7441C74.3464 50.4426 73.8823 48.4058 72.2291 46.6222C70.0849 44.3092 67.3231 43.1547 64.4233 42.2724C63.1613 41.8889 61.8342 42.0883 60.3919 42.4144ZM28.2214 86.7788C28.2406 86.6714 28.2636 86.5602 28.2827 86.4528C27.8033 86.1843 27.3123 85.9388 26.8482 85.6472C25.9621 85.0949 24.9687 84.6384 24.2399 83.9211C22.7823 82.4827 21.4091 80.9446 20.1241 79.3528C18.7931 77.6995 17.9646 75.7702 17.6002 73.6682C17.1974 71.3552 16.8982 69.0499 18.1257 66.8443C18.4248 66.3035 18.5207 65.6476 18.7125 65.0454C18.6243 65.0185 18.5399 64.9917 18.4517 64.9648C18.1333 65.6974 17.7804 66.4147 17.5043 67.1589C17.0018 68.5091 16.6911 69.9513 16.0275 71.2133C15.4329 72.3525 15.479 73.3153 15.9891 74.3931C17.1897 76.9362 18.3289 79.51 19.5641 82.0378C20.4463 83.8444 21.3362 85.6549 22.951 86.9859C23.4305 87.381 23.8678 87.592 24.4738 87.4807C25.4251 87.3081 26.384 87.1739 27.3353 87.0051C27.6345 86.9514 27.926 86.8517 28.2252 86.7711L28.2214 86.7788ZM62.7624 46.112C68.1555 50.6804 70.1539 56.4111 69.406 63.5226C70.8214 61.9077 71.9069 60.5038 71.9261 58.4287C71.9452 56.5914 71.3047 54.9381 70.6679 53.3348C69.5019 50.4004 67.3538 48.2447 64.4617 46.8869C63.8978 46.6222 63.3301 46.369 62.7624 46.112ZM21.2173 87.381C21.1943 87.2659 21.2096 87.1163 21.1444 87.0473C19.8441 85.7278 19.2457 83.9864 18.3903 82.4022C17.7306 81.1748 17.2856 79.8322 16.6796 78.5741C16.1848 77.5499 15.7053 76.499 14.8039 75.4211C13.8756 78.3977 14.5776 80.9063 15.8702 83.3151C16.8829 85.2061 19.798 87.3848 21.2173 87.3772V87.381ZM26.572 57.6385C26.572 57.5465 26.572 57.4544 26.572 57.3623C26.2843 57.2933 25.9966 57.1552 25.7128 57.1705C24.6656 57.2319 23.6031 57.2473 22.5828 57.4621C21.4091 57.7076 20.1816 58.0183 19.2841 58.8583C16.645 61.3247 14.8461 64.2552 14.6121 67.9682C14.5852 68.4247 14.4587 68.931 15.0916 69.3798C15.3102 68.8581 15.571 68.417 15.6861 67.9375C16.2193 65.7051 17.2166 63.7412 18.6512 61.9307C20.4271 59.6906 22.6941 58.4172 25.452 57.8955C25.8279 57.8226 26.1999 57.7191 26.572 57.6308V57.6385ZM45.2522 45.786C45.6051 45.786 45.7355 45.8282 45.8199 45.7783C47.638 44.758 49.5904 44.2249 51.6464 43.8796C53.9095 43.4999 56.0652 43.9103 58.2247 44.3629C59.3064 44.5892 60.3344 45.0917 61.3854 45.4676C60.3459 44.5662 59.1952 43.9065 58.0866 43.1815C57.3156 42.6752 56.4948 42.376 55.5857 42.3952C54.1396 42.4297 52.6974 42.5218 51.2513 42.5985C48.8309 42.7289 47.1164 44.152 45.2522 45.7822V45.786ZM60.6336 73.181C64.8913 73.5991 68.6005 70.6149 69.1835 66.8443C66.6787 69.514 64.3312 72.2412 60.6336 73.181ZM49.9663 81.6389C49.6556 81.9419 49.3526 82.2488 49.0304 82.5441C48.6468 82.8932 48.3016 83.3189 47.8566 83.5568C46.307 84.3815 44.719 85.1371 43.1502 85.9311C43.0389 85.9886 42.9737 86.1382 42.8587 86.284C46.0232 86.8555 48.8118 85.0719 49.9663 81.6427V81.6389ZM29 88.2249C31.0445 88.9729 34.8266 88.7811 36.0732 87.895C35.7663 87.8298 35.54 87.7147 35.3406 87.7493C33.8906 88.0101 32.4561 87.7109 31.0138 87.6725C30.7338 87.6649 30.4346 87.6342 30.1738 87.707C29.8247 87.8068 29.4987 87.9986 29.0039 88.2249H29Z" fill="black"/>
  <path d="M101.511 81.5162C100.997 81.4472 100.399 81.3743 99.8044 81.2822C96.87 80.8296 94.2771 81.2976 92.0753 83.5683C90.541 85.1487 88.7957 86.5679 86.9891 87.8375C85.3551 88.9883 83.349 89.3948 81.3735 89.5138C80.545 89.5636 79.6321 89.1877 78.8496 88.8118C77.4917 88.1636 76.3295 87.2238 75.478 85.9465C75.01 85.2446 74.404 84.6002 74.0741 83.8407C73.142 81.6965 72.7009 79.4679 73.4143 77.1473C73.7672 75.9927 74.0012 74.7806 74.5229 73.7066C75.6276 71.4435 77.3422 69.6867 79.6014 68.5398C81.4426 67.6039 82.881 66.2115 84.1238 64.6196C84.5841 64.0328 84.8296 63.2695 85.1364 62.5714C85.6542 61.3976 86.08 60.174 86.663 59.0348C87.4264 57.5465 88.673 56.553 90.2418 55.947C91.5191 55.456 92.7773 54.9152 94.0431 54.3858C95.7423 53.6762 96.7435 52.3337 97.5413 50.7265C98.1473 49.5106 98.7918 48.2218 99.7277 47.2782C101.105 45.8935 102.792 44.9882 104.944 45.4984C107.092 46.0085 108.999 46.8639 110.28 48.7281C110.913 49.6525 111.381 50.692 111.933 51.6701C112.623 52.8899 112.973 54.1902 112.95 55.5979C112.938 56.4035 113.019 57.2128 113.003 58.0183C112.961 60.0052 113.279 61.95 113.579 63.9062C113.932 66.2115 114.158 68.5398 114.392 70.8643C114.488 71.8117 114.695 72.7361 114.465 73.7334C114.196 74.8995 113.609 75.8584 112.785 76.5911C111.431 77.7917 109.992 78.9232 108.469 79.8898C107.541 80.4767 106.41 80.8181 105.324 81.0597C104.112 81.3321 102.846 81.3666 101.511 81.5124V81.5162ZM90.7405 63.63C90.6292 63.6991 90.5142 63.772 90.4029 63.841C90.5026 64.2591 90.5909 64.681 90.7021 65.0991C90.8479 65.6438 91.0435 66.1731 91.1547 66.7255C91.4539 68.2214 91.7109 69.7251 91.9948 71.2248C92.0676 71.6046 91.9334 71.8462 91.592 71.9997C91.0473 72.2452 90.5564 72.3027 90.0002 71.9268C88.6001 70.9794 87.154 70.101 85.7348 69.1765C84.772 68.5475 83.8438 68.2943 82.9385 69.2763C82.835 69.3875 82.6624 69.4374 82.5204 69.5179C80.871 70.4423 79.1987 71.3054 77.9252 72.786C76.7399 74.163 75.8078 75.6897 75.478 77.4388C75.0254 79.817 75.4972 82.0685 76.9394 84.0977C78.5274 86.3377 82.367 87.6726 84.8027 86.3032C85.6696 85.8161 86.4674 85.1678 87.2116 84.5004C88.2319 83.5875 89.1563 82.5672 90.1459 81.6236C90.5794 81.2093 90.8057 80.7644 90.8364 80.1468C90.9054 78.9002 91.0473 77.6536 91.1739 76.4108C91.2775 75.3828 91.6496 75.1565 92.6238 75.5478C93.0343 75.7127 93.4025 75.9735 93.8091 76.1538C94.676 76.5374 95.5505 76.8941 96.5171 77.2969C96.6092 76.8941 96.6859 76.6755 96.7089 76.4491C96.8432 75.0913 96.9391 73.7296 97.1078 72.3794C97.1462 72.061 97.3418 71.6122 97.5873 71.5087C97.8251 71.409 98.3276 71.57 98.5232 71.7887C99.674 73.0775 100.763 74.42 101.883 75.7357C102.064 75.9467 102.298 76.1116 102.509 76.2995C102.593 76.2535 102.677 76.2075 102.762 76.1615C102.739 75.7779 102.781 75.3751 102.677 75.0184C102.148 73.2041 102.405 71.3361 102.248 69.4987C102.221 69.1804 102.229 68.8467 102.278 68.5321C102.363 68.0105 102.819 67.7995 103.264 68.068C103.433 68.1677 103.552 68.348 103.702 68.4784C104.883 69.5102 106.091 70.5152 107.25 71.5739C108.051 72.3027 108.811 73.0813 109.543 73.8792C109.758 74.1132 109.816 74.4929 109.938 74.7998C109.191 75.3099 108.795 75.0721 108.278 74.5773C107.15 73.4918 105.915 72.5137 104.699 71.5202C104.534 71.386 104.223 71.432 103.951 71.3936C104.008 72.2452 104.039 72.9624 104.104 73.6759C104.235 75.1181 104.334 76.5681 104.545 78.0026C104.718 79.1764 104.963 79.2378 106.087 78.8043C108.592 77.8377 109.869 75.6705 111.239 73.5953C111.3 73.4994 111.289 73.3575 111.331 73.2463C112.228 70.9295 112.32 68.5206 112.071 66.0964C111.96 65.0224 111.726 63.9484 111.442 62.9051C111.158 61.8617 110.602 60.8836 110.414 59.8326C110.115 58.1717 110.011 56.4763 109.854 54.7963C109.793 54.1557 109.831 53.5036 109.797 52.8592C109.728 51.486 108.987 50.5347 107.84 49.8635C107.388 49.5988 106.92 49.361 106.471 49.0925C105.274 48.3714 104.005 48.1681 102.635 48.4788C102.044 48.613 101.745 48.8585 101.741 49.5298C101.726 51.7468 101.661 53.9639 101.588 56.1771C101.515 58.3098 101.419 60.4425 101.293 62.5752C101.273 62.8936 101.105 63.3078 100.863 63.4919C100.119 64.0635 99.5781 63.864 99.1446 63.0163C98.6076 61.9691 98.1358 60.8644 97.0963 60.0397C96.9966 60.2891 96.8969 60.431 96.8892 60.5768C96.801 62.4256 96.7243 64.2744 96.6514 66.1233C96.613 67.1206 96.2218 67.8877 95.167 68.4478C93.6902 66.8367 92.2211 65.2334 90.7481 63.63H90.7405ZM95.0135 57.1092C93.8283 57.2397 92.7773 57.2588 91.7761 57.4967C90.9016 57.7038 89.9733 57.9493 89.3558 58.7625C89.4095 58.9312 89.421 59.1115 89.513 59.2266C91.1241 61.1866 92.7389 63.1429 94.3691 65.0799C94.4957 65.2295 94.768 65.2641 95.1708 65.4367C95.0596 62.5522 95.7538 59.8288 95.0135 57.1054V57.1092ZM85.3742 66.8789C86.08 67.6806 89.256 69.4565 90.0309 69.5333C90.0731 67.9874 88.5042 61.9346 87.8291 61.1483C86.6861 62.9242 86.8894 65.241 85.3742 66.8789ZM99.7046 60.0896C99.7967 59.5564 99.8964 59.2534 99.8926 58.9542C99.8696 56.7142 99.8351 54.4702 99.7775 52.2301C99.7737 52.023 99.5589 51.8197 99.3326 51.4208C98.9874 52.8937 98.5501 54.0329 97.4492 54.7771C97.081 55.0264 97.0772 55.387 97.2459 55.7399C97.875 57.0364 98.5156 58.3252 99.1676 59.6063C99.2329 59.7329 99.3863 59.8096 99.7046 60.0896ZM102.278 79.0766C101.3 77.6919 100.395 76.3302 99.0679 75.3444C98.9145 75.2294 98.646 75.2754 98.4504 75.2486C98.3583 76.2765 98.2739 77.2086 98.1934 78.1024C99.4477 79.092 100.836 79.0997 102.282 79.0728L102.278 79.0766ZM95.0058 79.0766L95.0557 78.7775C94.5417 78.5435 94.0392 78.2711 93.5061 78.0909C93.2874 78.018 92.8693 78.0602 92.7734 78.2021C92.6238 78.4284 92.5816 78.8158 92.6699 79.0728C92.7312 79.2454 93.1071 79.4334 93.3219 79.4103C93.8896 79.3566 94.4458 79.1917 95.0058 79.0728V79.0766Z" fill="black"/>
  <path d="M33.9098 38.1913C34.3778 38.1759 34.9263 38.6938 34.9378 39.1617C34.9493 39.6604 34.5619 40.0785 34.0632 40.113C33.649 40.1437 33.2616 39.6949 33.227 39.1425C33.1964 38.6439 33.5109 38.2066 33.9098 38.1913Z" fill="black"/>
  <path d="M77.415 23.0514C77.2846 23.1742 77.0583 23.5348 76.7553 23.623C76.3218 23.7457 75.9843 23.2394 75.9958 22.6333C76.0034 22.1577 76.1837 21.8585 76.7054 21.8854C77.181 21.9122 77.4303 22.2383 77.415 23.0476V23.0514Z" fill="black"/>
  <path d="M34.7537 43.404C34.2627 43.4308 33.7257 43.5651 33.5685 42.9399C33.4917 42.6369 33.5915 42.2303 33.7526 41.9502C33.8216 41.8275 34.3164 41.7853 34.4814 41.9004C35.0069 42.2686 35.0452 42.7979 34.7575 43.404H34.7537Z" fill="black"/>
  <path d="M58.8462 28.6517C59.9586 28.6286 60.2424 28.8434 60.158 29.6336C60.1312 29.8638 59.9048 30.2512 59.7668 30.2512C59.4944 30.2512 59.0648 30.1016 58.9804 29.8983C58.827 29.53 58.8807 29.0774 58.8462 28.6517Z" fill="black"/>
  <path d="M19.4336 48.8854C18.7854 48.9122 18.4555 48.5632 18.4478 48.0415C18.4402 47.6579 18.5284 47.3089 19.0002 47.2859C19.4029 47.2628 19.9783 47.8075 19.8977 48.2218C19.844 48.5018 19.5449 48.732 19.4336 48.8816V48.8854Z" fill="black"/>
  <path d="M19.8901 44.992C19.3109 44.9652 18.889 44.4704 18.9005 44.0599C18.912 43.6418 19.2687 43.3388 19.7214 43.381C20.1932 43.427 20.5077 43.7147 20.4041 44.1712C20.3312 44.501 20.0321 44.7772 19.8901 44.9882V44.992Z" fill="black"/>
  <path d="M62.6282 32.1154C62.0298 32.054 61.6232 32.0195 61.6117 31.4633C61.604 31.0069 61.7651 30.6885 62.2676 30.6617C62.6934 30.6425 63.1729 31.0452 63.1038 31.4672C63.0616 31.7318 62.7548 31.9505 62.6282 32.1116V32.1154Z" fill="black"/>
  <path d="M80.4338 25.468C79.751 25.4565 79.5017 25.1956 79.54 24.7085C79.5746 24.2789 79.8009 24.0334 80.2343 24.0372C80.7483 24.0372 80.9363 24.3825 80.9516 24.8313C80.9669 25.2954 80.6793 25.4642 80.4338 25.468Z" fill="black"/>
  <path d="M32.7745 84.7573C31.3399 84.6269 30.193 84.6384 29.0998 84.4006C26.4685 83.8329 24.6043 82.1299 23.1084 79.9972C21.6124 77.8645 20.5806 75.5093 20.0167 72.9586C19.9976 72.878 19.9669 72.8013 19.9669 72.7207C19.9017 70.005 19.9324 67.3008 21.3823 64.8612C22.1418 63.5878 23.1199 62.5444 24.5736 62.0381C25.3331 61.7735 26.0849 61.4819 26.8367 61.1981C26.9863 61.1406 27.1628 61.1137 27.2855 61.0178C28.8965 59.7213 30.8221 59.5909 32.763 59.541C33.6491 59.518 34.5658 59.4375 35.4173 59.6139C36.7867 59.8978 38.1407 60.3159 39.4602 60.7877C42.3601 61.8195 44.8687 63.4996 46.9553 65.7435C48.62 67.531 49.6173 69.6636 49.7056 72.1569C49.7209 72.6402 49.6902 73.1273 49.7401 73.6106C49.8935 75.0375 49.4524 76.3148 48.8387 77.5615C48.386 78.4821 47.757 79.1917 46.9016 79.8092C44.8763 81.2783 42.713 82.5173 40.5304 83.7217C39.8476 84.0976 39.0306 84.3431 38.252 84.4198C36.3264 84.6078 34.3932 84.6653 32.7592 84.7573H32.7745ZM37.6191 75.4134C37.6152 73.8293 36.242 72.3256 34.4584 71.9382C33.2194 71.6697 31.8884 72.4522 31.5202 73.6682C30.9755 75.4595 32.1378 77.5615 33.9559 78.0563C35.7626 78.5511 37.6267 77.2047 37.6229 75.4134H37.6191Z" fill="white"/>
  <path d="M53.8673 46.7565C57.6954 46.5378 60.6797 48.2678 63.3417 50.8262C64.83 52.2531 65.8119 53.9984 66.8054 55.7513C66.9435 55.9968 67.0662 56.2615 67.1314 56.53C67.7451 59.123 67.8756 61.7275 67.0509 64.2897C66.8131 65.0339 66.3298 65.7435 65.8234 66.3534C64.3006 68.1907 62.6167 69.8593 60.4534 70.9678C58.2248 72.1147 55.8428 72.3372 53.3917 72.1952C52.8892 72.1646 52.7473 71.804 52.6476 71.3821C52.4059 70.3617 52.1758 69.3376 51.8881 68.3327C50.9675 65.1029 49.1762 62.4294 46.6561 60.22C46.0807 59.7175 45.5859 59.123 45.0144 58.6128C44.3278 57.9953 43.6259 57.393 42.8894 56.8407C42.1951 56.3229 42.0954 56.2423 42.4099 55.4675C42.9354 54.1633 43.4034 52.817 44.0938 51.601C45.935 48.3521 48.9729 47.071 52.5363 46.7603C52.9775 46.7219 53.4224 46.7565 53.8673 46.7565ZM57.8259 65.2372C57.8182 63.8141 57.1661 62.6864 56.0576 62.1762C54.3852 61.4052 52.6668 62.556 52.7972 64.378C52.9122 66.0005 53.7408 66.714 55.2252 67.1244C56.6982 67.5348 57.8335 66.7216 57.822 65.2372H57.8259Z" fill="white"/>
  <path d="M60.392 42.4182C61.8342 42.0883 63.1614 41.8927 64.4234 42.2763C67.3232 43.1585 70.085 44.3131 72.2292 46.626C73.8824 48.4096 74.3465 50.4464 73.9437 52.7479C73.8095 53.5227 73.5256 54.2669 73.0615 55.0877C72.8889 54.7617 72.6472 54.4548 72.5475 54.1058C71.3392 49.8557 68.4279 47.1208 64.642 45.1377C63.3609 44.4665 62.1066 43.7339 60.8523 43.0127C60.7027 42.9245 60.6221 42.7212 60.392 42.4182Z" fill="#FFC34F"/>
  <path d="M28.2253 86.7827C27.9299 86.8632 27.6384 86.963 27.3354 87.0167C26.3841 87.1816 25.4252 87.3197 24.4739 87.4923C23.864 87.6035 23.4306 87.3926 22.9511 86.9975C21.3363 85.6665 20.4464 83.856 19.5641 82.0493C18.3329 79.5216 17.1898 76.9478 15.9892 74.4047C15.479 73.3268 15.433 72.3641 16.0276 71.2248C16.6873 69.9629 17.0018 68.5206 17.5043 67.1704C17.7805 66.4225 18.1334 65.7052 18.4518 64.9764C18.54 65.0032 18.6244 65.0301 18.7126 65.0569C18.5208 65.6591 18.4288 66.315 18.1257 66.8559C16.8983 69.0615 17.1975 71.3668 17.6002 73.6797C17.9646 75.7817 18.7931 77.7149 20.1242 79.3643C21.4091 80.96 22.7823 82.4943 24.2399 83.9327C24.9687 84.65 25.9622 85.1065 26.8482 85.6588C27.3124 85.9503 27.8033 86.1958 28.2828 86.4643C28.2636 86.5717 28.2406 86.683 28.2214 86.7904L28.2253 86.7827Z" fill="#FFC34F"/>
  <path d="M62.7625 46.1159C63.3301 46.3729 63.8979 46.6299 64.4617 46.8907C67.3539 48.2447 69.5019 50.4004 70.668 53.3386C71.3047 54.942 71.9453 56.5952 71.9261 58.4325C71.9069 60.5077 70.8214 61.9154 69.406 63.5264C70.154 56.4149 68.1517 50.6843 62.7625 46.1159Z" fill="#FFC34F"/>
  <path d="M21.2211 87.3811C19.8019 87.3887 16.8867 85.21 15.8741 83.319C14.5814 80.9101 13.8795 78.4015 14.8077 75.425C15.7091 76.5028 16.1886 77.5538 16.6834 78.578C17.2933 79.8361 17.7344 81.1786 18.3942 82.4061C19.2457 83.9864 19.8479 85.7278 21.1482 87.0512C21.2135 87.1202 21.1981 87.266 21.2211 87.3849V87.3811Z" fill="#FFC34F"/>
  <path d="M26.5758 57.6385C26.2038 57.7267 25.8317 57.8303 25.4558 57.9032C22.6979 58.4248 20.431 59.6945 18.655 61.9384C17.2204 63.7489 16.2231 65.7128 15.6899 67.9452C15.5749 68.4208 15.314 68.8658 15.0954 69.3875C14.4625 68.9387 14.5891 68.4285 14.6159 67.9759C14.8499 64.2629 16.6489 61.3323 19.2879 58.8659C20.1855 58.0259 21.4129 57.7152 22.5867 57.4697C23.607 57.2549 24.6695 57.2396 25.7166 57.1782C25.9966 57.1629 26.2882 57.301 26.5758 57.37C26.5758 57.4621 26.5758 57.5541 26.5758 57.6462V57.6385Z" fill="#FFC34F"/>
  <path d="M45.256 45.786C47.124 44.1558 48.8386 42.7328 51.2551 42.6024C52.6973 42.5256 54.1434 42.4336 55.5895 42.3991C56.4948 42.376 57.3156 42.6791 58.0904 43.1854C59.199 43.9104 60.3535 44.5701 61.3892 45.4715C60.3382 45.0956 59.3102 44.5931 58.2285 44.3668C56.069 43.9142 53.9133 43.4999 51.6502 43.8835C49.5942 44.2287 47.6418 44.7657 45.8237 45.7822C45.7393 45.8282 45.6089 45.7899 45.256 45.7899V45.786Z" fill="#FFC34F"/>
  <path d="M60.6375 73.181C64.3351 72.2413 66.6826 69.5141 69.1874 66.8444C68.6043 70.6149 64.8951 73.5991 60.6375 73.181Z" fill="#FFC34F"/>
  <path d="M49.9702 81.6389C48.8118 85.0719 46.0271 86.8517 42.8625 86.2802C42.9815 86.1344 43.0428 85.981 43.154 85.9273C44.7229 85.1333 46.3109 84.3815 47.8605 83.553C48.3055 83.3151 48.6545 82.8894 49.0343 82.5403C49.3526 82.2488 49.6595 81.9381 49.9702 81.6351V81.6389Z" fill="#FFC34F"/>
  <path d="M29.0039 88.2249C29.5026 87.9986 29.8248 87.8068 30.1739 87.707C30.4385 87.6341 30.7339 87.6648 31.0139 87.6725C32.4561 87.7109 33.8907 88.0101 35.3406 87.7492C35.5401 87.7147 35.7702 87.8298 36.0733 87.895C34.8228 88.7849 31.0446 88.9728 29.0001 88.2249H29.0039Z" fill="#FFC34F"/>
  <path d="M95.0136 57.1092C95.7577 59.8288 95.0635 62.556 95.1709 65.4405C94.7681 65.2679 94.4996 65.2372 94.3692 65.0838C92.7351 63.1429 91.1203 61.1866 89.5131 59.2304C89.4211 59.1153 89.4095 58.935 89.3558 58.7663C89.9734 57.9531 90.9016 57.7076 91.7762 57.5005C92.7773 57.2626 93.8283 57.2435 95.0136 57.1131V57.1092Z" fill="white"/>
  <path d="M85.3743 66.8788C86.8894 65.241 86.6861 62.9242 87.8292 61.1482C88.5043 61.9345 90.0731 67.9874 90.0309 69.5332C89.2522 69.4565 86.0762 67.6843 85.3743 66.8788Z" fill="white"/>
  <path d="M99.7047 60.0934C99.3902 59.8134 99.2329 59.7367 99.1677 59.6101C98.5157 58.3251 97.8751 57.0363 97.246 55.7437C97.0734 55.3908 97.0811 55.0302 97.4493 54.7809C98.5502 54.0367 98.9875 52.8975 99.3327 51.4246C99.559 51.8235 99.7699 52.0268 99.7776 52.2339C99.839 54.474 99.8735 56.7141 99.8927 58.958C99.8927 59.2572 99.7968 59.5602 99.7047 60.0934Z" fill="white"/>
  <path d="M102.278 79.0805C100.836 79.1074 99.4439 79.0997 98.1896 78.1101C98.2701 77.2163 98.3545 76.2842 98.4466 75.2563C98.6422 75.2831 98.9107 75.2371 99.0641 75.3522C100.391 76.3379 101.297 77.6996 102.275 79.0843L102.278 79.0805Z" fill="white"/>
  <path d="M95.0058 79.0843C94.4458 79.2032 93.8858 79.3682 93.3219 79.4219C93.1071 79.441 92.7312 79.2569 92.6698 79.0843C92.5816 78.8273 92.6238 78.4399 92.7734 78.2136C92.8655 78.0717 93.2874 78.0295 93.506 78.1024C94.0392 78.2826 94.5417 78.5511 95.0557 78.7889L95.0058 79.0881V79.0843Z" fill="white"/>
  <path d="M37.619 75.4173C37.6228 77.2086 35.7586 78.5511 33.952 78.0601C32.1377 77.5653 30.9716 75.4633 31.5163 73.672C31.8845 72.4599 33.2155 71.6774 34.4545 71.9421C36.2419 72.3257 37.6113 73.8331 37.6152 75.4173H37.619Z" fill="black"/>
  <path d="M57.8258 65.2334C57.8334 66.7178 56.6981 67.531 55.229 67.1205C53.7445 66.7063 52.916 65.9967 52.8009 64.3741C52.6705 62.5522 54.3889 61.4053 56.0613 62.1724C57.1699 62.6826 57.8181 63.8103 57.8296 65.2334H57.8258Z" fill="black"/>
  <path d="M112.788 76.5949C111.434 77.7955 109.996 78.9271 108.473 79.8937C107.545 80.4806 106.413 80.822 105.328 81.0636C104.116 81.336 102.85 81.3705 101.515 81.5162C101.001 81.4472 100.403 81.3743 99.8082 81.2822C96.8738 80.8296 94.2809 81.2976 92.0791 83.5684C90.5448 85.1487 88.7996 86.5679 86.9929 87.8376C85.3589 88.9883 83.3528 89.3949 81.3773 89.5138C80.5488 89.5637 79.6359 89.1877 78.8534 88.8118C77.4955 88.1636 76.3333 87.2238 75.4818 85.9465C75.0138 85.2446 74.4078 84.6002 74.0779 83.8407C73.6022 82.7475 73.257 81.6313 73.1266 80.4959C72.9233 82.2987 73.3414 84.0478 74.0779 85.7432C74.4078 86.5065 75.0138 87.1471 75.4818 87.8491C76.3333 89.1264 77.4955 90.0661 78.8534 90.7144C79.6359 91.0903 80.5488 91.4662 81.3773 91.4163C83.3528 91.2936 85.3589 90.8908 86.9929 89.7401C88.7996 88.4705 90.5448 87.0512 92.0791 85.4709C94.2809 83.2001 96.87 82.7322 99.8082 83.1848C100.403 83.2768 101.001 83.3497 101.515 83.4188C102.85 83.2692 104.116 83.2346 105.328 82.9661C106.413 82.7245 107.545 82.3831 108.473 81.7962C110 80.8296 111.438 79.6981 112.788 78.4975C113.613 77.7649 114.2 76.8097 114.468 75.6398C114.63 74.9341 114.576 74.2666 114.495 73.5992C114.488 73.6452 114.48 73.6913 114.468 73.7411C114.2 74.9072 113.613 75.8662 112.788 76.5988V76.5949Z" fill="#FFC34F"/>
  <path d="M33.5684 44.8387C33.7257 45.4677 34.2627 45.3296 34.7537 45.3028C35.0414 44.7006 35.0068 44.1713 34.4775 43.7992C34.3126 43.6841 33.8177 43.7263 33.7487 43.849C33.5914 44.1291 33.4917 44.5357 33.5646 44.8387H33.5684Z" fill="#FFC34F"/>
  <path d="M80.4338 27.3667C80.6793 27.3667 80.967 27.198 80.9517 26.73C80.9363 26.2774 80.7522 25.936 80.2344 25.936C79.8009 25.936 79.5746 26.1777 79.5401 26.6073C79.5017 27.0944 79.7472 27.3552 80.4338 27.3667Z" fill="#FFC34F"/>
  <path d="M33.7525 41.9464C33.8254 41.8314 34.2742 41.793 34.4545 41.8889C34.746 41.724 34.9416 41.4133 34.934 41.0565C34.9263 40.6461 34.5005 40.1935 34.0786 40.1053C34.0709 40.1053 34.0671 40.1053 34.0594 40.1053C34.0019 40.1091 33.9443 40.1053 33.8868 40.0899C33.4956 40.1168 33.1925 40.5464 33.2232 41.0374C33.2501 41.4478 33.4687 41.8007 33.7525 41.9426V41.9464Z" fill="#FFC34F"/>
  <path d="M19.4336 50.7879C19.5449 50.6383 19.844 50.4082 19.8977 50.1282C19.9783 49.7139 19.4029 49.1692 19.0002 49.1922C18.5284 49.2152 18.4402 49.5643 18.4478 49.9479C18.4555 50.4657 18.7892 50.8186 19.4336 50.7917V50.7879Z" fill="#FFC34F"/>
  <path d="M65.2557 17.5932C65.9078 17.3784 66.5675 17.179 67.2349 17.0294C68.4854 16.7494 69.7934 16.6228 71.0784 16.6151C75.7043 16.5882 80.265 17.2211 84.7068 18.4754C87.5338 19.2733 90.3147 20.2629 92.8425 21.8394C94.5379 22.8981 95.9533 24.2751 97.3265 25.6943C98.5309 26.941 99.7162 28.2106 100.859 29.5148C102.773 31.7011 104.722 33.8338 106.954 35.721C108.546 37.0674 110.134 38.4981 111.392 40.1437C113.172 42.4681 114.664 45.0189 116.256 47.4891C117.748 49.8059 118.791 52.3375 119.674 54.9382C120.088 56.158 120.56 57.3624 120.897 58.6013C121.116 59.4068 121.139 60.2661 121.246 61.0984C121.595 63.818 121.921 66.5452 122.305 69.2609C122.47 70.4347 122.585 71.6084 122.631 72.7783C122.7 70.9717 122.562 69.165 122.305 67.3584C121.921 64.6427 121.595 61.9155 121.246 59.1959C121.139 58.3597 121.116 57.5043 120.897 56.6988C120.56 55.4599 120.088 54.2554 119.674 53.0357C118.791 50.435 117.748 47.9072 116.256 45.5866C114.664 43.1164 113.172 40.5656 111.392 38.2411C110.13 36.5956 108.546 35.1648 106.954 33.8185C104.722 31.9351 102.773 29.7986 100.859 27.6122C99.7162 26.3081 98.5309 25.0384 97.3265 23.7918C95.9533 22.3687 94.5379 20.9917 92.8425 19.9369C90.3147 18.3604 87.5338 17.3707 84.7068 16.5729C80.265 15.3224 75.7043 14.6857 71.0784 14.7125C69.7934 14.7202 68.4854 14.8468 67.2349 15.1268C65.785 15.4529 64.385 15.9975 62.9696 16.4693C62.7816 16.5307 62.6359 16.7072 62.3367 16.9335C62.6857 17.0447 62.8622 17.1406 63.0463 17.1559C63.8096 17.2173 64.5422 17.3784 65.2557 17.5932Z" fill="#FFC34F"/>
  <path d="M19.8901 46.8908C20.0321 46.6798 20.3312 46.3998 20.4041 46.0738C20.5077 45.6135 20.1932 45.3296 19.7214 45.2836C19.2687 45.2376 18.9158 45.5406 18.9005 45.9625C18.889 46.373 19.3109 46.8678 19.8901 46.8946V46.8908Z" fill="#FFC34F"/>
  <path d="M13.6456 71.8385C13.4423 70.8297 13.2812 69.8286 13.2159 68.8351C13.1009 70.3848 13.2965 71.9574 13.6072 73.5454C13.6187 73.484 13.634 73.4227 13.6456 73.3613C13.7299 72.8665 13.7453 72.3295 13.6456 71.8385Z" fill="#FFC34F"/>
  <path d="M53.5451 23.7879C55.1255 22.6832 56.6329 21.6284 58.1365 20.5697C58.6582 20.2015 59.1914 20.1248 59.8434 20.1861C61.4084 20.3319 62.9581 20.4815 64.5039 20.8459C65.7889 21.1489 66.9511 21.59 67.9829 22.3994C68.1364 22.5221 68.3281 22.6142 68.5161 22.6717C69.0339 22.8213 69.5901 22.6027 69.7551 22.1769C69.9622 21.6399 69.6285 21.3062 69.2104 21.1144C67.2311 20.2091 65.2749 19.2387 63.054 19.0584C62.8698 19.0431 62.6934 18.9472 62.3444 18.8359C62.4594 18.7516 62.5477 18.6749 62.6282 18.6058C61.7038 18.4716 60.7755 18.3795 59.8434 18.2913C59.1914 18.2299 58.662 18.3066 58.1365 18.6748C56.1688 20.0634 54.1895 21.4404 52.0415 22.9441C52.544 23.2471 52.8815 23.5079 53.2613 23.6652C53.3572 23.7035 53.4531 23.7495 53.5451 23.7917V23.7879Z" fill="#FFC34F"/>
  <path d="M20.3274 40.2472C20.243 40.5425 20.1624 40.8379 20.0819 41.1332C19.9246 41.7201 20.2008 42.2341 20.7148 42.3568C21.2058 42.4757 21.6545 42.119 21.7543 41.4785C21.9729 40.0324 22.2951 38.6323 23.1083 37.378C23.8256 36.2733 24.6848 35.4256 25.9621 34.8963C29.142 33.5729 32.4407 32.6677 35.774 31.8775C35.9006 31.8468 36.0386 31.8392 36.2074 31.8315C36.2995 31.5438 36.3915 31.2561 36.4798 30.9646C36.5718 30.6578 36.5948 30.3279 36.6639 29.9021C36.2304 29.9367 35.9926 29.9251 35.7702 29.975C32.433 30.769 29.1381 31.6704 25.9583 32.9938C24.6848 33.5231 23.8256 34.3708 23.1045 35.4755C22.2874 36.7298 21.9691 38.1298 21.7504 39.5759C21.6545 40.2165 21.2019 40.5732 20.7109 40.4543C20.5575 40.4159 20.4271 40.3431 20.3235 40.2472H20.3274Z" fill="#FFC34F"/>
  <path d="M35.7472 35.1649C35.6743 35.3912 35.5976 35.6213 35.5286 35.8476C35.4672 36.0394 35.402 36.2504 35.4288 36.4383C35.4557 36.657 35.5362 37.006 35.6705 37.0482C35.8929 37.1173 36.3149 37.0751 36.4146 36.9255C36.7828 36.3616 37.1779 35.7671 37.339 35.1265C37.6804 33.7687 38.3056 32.5681 39.0766 31.4288C39.2531 31.168 39.4564 30.865 39.7249 30.7346C40.9523 30.1362 42.2143 29.603 43.4456 29.02C45.2599 28.1608 47.3235 27.8961 48.9959 26.684C49.6442 26.216 50.3653 26.1355 51.1785 26.3733C52.9659 26.8911 54.5348 27.7427 55.7737 29.1389C56.1228 29.534 56.4718 29.6874 56.9244 29.3959C57.4845 29.0392 57.5228 28.4753 56.9781 28.0073C56.8324 27.8808 56.6866 27.758 56.5409 27.6353C56.2609 27.6659 56.0154 27.5125 55.7737 27.2364C55.5474 26.9794 55.3057 26.7492 55.0564 26.5267C54.4887 26.1547 53.8942 25.821 53.2575 25.5563C52.8777 25.399 52.5402 25.1382 52.0377 24.8352C52.0645 24.816 52.0875 24.8006 52.1144 24.7815C51.8075 24.6664 51.5007 24.559 51.1785 24.4669C50.3653 24.2329 49.6442 24.3097 48.9959 24.7776C47.3197 25.9859 45.2599 26.2506 43.4456 27.1136C42.2104 27.7005 40.9523 28.2298 39.7249 28.8282C39.4602 28.9586 39.2531 29.2616 39.0766 29.5225C38.3056 30.6617 37.6766 31.8623 37.339 33.2201C37.1779 33.8607 36.7828 34.4552 36.4146 35.0191C36.3264 35.1534 35.9812 35.1994 35.7472 35.161V35.1649Z" fill="#FFC34F"/>
  <path d="M4.58925 65.9544C4.81556 64.5621 4.93064 63.1543 5.16845 61.7658C5.45997 60.0512 5.99314 58.4095 6.73344 56.8292C7.9839 54.1671 9.09627 51.4323 10.4733 48.8393C11.4706 46.9636 12.8246 45.2835 13.983 43.4922C15.5672 41.0335 17.9761 39.5644 20.3696 38.0684C20.3811 38.0608 20.3964 38.0569 20.4118 38.0531C20.5614 37.5238 20.711 36.9906 20.8529 36.4574C20.8759 36.3692 20.7762 36.2465 20.7301 36.1199C20.5959 36.1352 20.4616 36.1122 20.3734 36.1659C17.9799 37.658 15.571 39.131 13.9869 41.5897C12.8323 43.381 11.4744 45.0649 10.4771 46.9367C9.10011 49.5297 7.99157 52.2646 6.73728 54.9266C5.99314 56.507 5.4638 58.1525 5.17228 59.8633C4.93446 61.2518 4.82324 62.6634 4.59309 64.0519C4.30157 65.8432 4.23252 67.6268 4.27855 69.4105C4.30924 68.2597 4.40514 67.109 4.59309 65.9544H4.58925Z" fill="#FFC34F"/>
  <path d="M62.6283 34.018C62.7548 33.8569 63.0579 33.6382 63.1039 33.3736C63.1729 32.9516 62.6973 32.545 62.2677 32.568C61.7652 32.5911 61.6003 32.9133 61.6118 33.3697C61.6233 33.9259 62.0299 33.9604 62.6283 34.0218V34.018Z" fill="#FFC34F"/>
  <path d="M14.8844 86.6446C15.0148 86.8901 15.1913 87.1317 15.4023 87.3082C16.6374 88.3362 17.884 89.3565 19.1421 90.3576C19.7597 90.8486 20.477 91.0711 21.2786 91.0749C22.5291 91.0788 23.7834 91.0596 25.0223 91.1785C27.1512 91.3818 29.2647 91.7117 31.3897 91.9418C33.5991 92.1796 35.6934 91.8344 37.7647 90.9368C39.4985 90.185 41.3934 89.905 43.3036 89.9242C44.8647 89.9395 46.3607 89.7094 47.6534 88.7313C48.0369 88.4398 48.4512 88.1789 48.8578 87.9181C49.8742 87.2698 50.6069 86.4068 51.0825 85.2829C51.3779 84.5848 51.8727 83.9749 52.2563 83.3152C52.7166 82.5173 53.1423 81.6965 53.5988 80.8948C54.2355 79.7824 54.9068 78.6854 55.5358 77.5653C55.8887 76.9401 56.4181 76.8634 57.0701 76.8711C58.5623 76.8864 60.062 76.9171 61.5388 76.7752C66.0919 76.3379 69.2602 74.0403 70.8405 69.6675C71.1397 68.839 71.5425 68.0335 71.9721 67.2625C72.7316 65.897 73.1995 64.4355 73.3414 62.9051C73.445 61.8157 73.6061 60.7686 73.9475 59.7252C74.2582 58.7778 74.2812 57.723 74.661 56.8139C75.3015 55.2988 75.5355 53.8182 75.3552 52.3836C75.2517 53.2159 75.0215 54.0598 74.661 54.9152C74.2774 55.8242 74.2544 56.8791 73.9475 57.8265C73.6061 58.8699 73.4412 59.9132 73.3414 61.0064C73.1995 62.5368 72.7277 63.9983 71.9721 65.3638C71.5425 66.1386 71.1397 66.9403 70.8405 67.7688C69.2602 72.1416 66.0919 74.4392 61.5388 74.8765C60.0582 75.0184 58.5584 74.9839 57.0701 74.9724C56.4181 74.9647 55.8887 75.0414 55.5358 75.6667C54.9068 76.7829 54.2355 77.8799 53.5988 78.9961C53.1385 79.7978 52.7166 80.6186 52.2563 81.4165C51.8765 82.0801 51.3779 82.6899 51.0825 83.3842C50.6069 84.5119 49.8742 85.3711 48.8578 86.0194C48.4512 86.2802 48.0369 86.5372 47.6534 86.8326C46.3607 87.8145 44.8686 88.0408 43.3036 88.0255C41.3934 88.0101 39.4947 88.2902 37.7647 89.0381C35.6934 89.9357 33.5991 90.2809 31.3897 90.0431C29.2647 89.813 27.1512 89.4831 25.0223 89.2798C23.7834 89.1609 22.5253 89.18 21.2786 89.1762C20.477 89.1762 19.7597 88.9499 19.1421 88.4589C17.884 87.4578 16.6374 86.4375 15.4023 85.4095C15.1913 85.233 15.011 84.9914 14.8844 84.7459C13.9178 82.9086 13.1123 81.0175 12.9128 78.9846C12.6328 81.7578 13.6263 84.2473 14.8844 86.6446Z" fill="#FFC34F"/>
  <path d="M76.7592 25.5255C77.0622 25.4412 77.2847 25.0768 77.4189 24.954C77.4343 24.1447 77.1849 23.8148 76.7093 23.7918C76.1915 23.7649 76.0073 24.0641 75.9997 24.5397C75.9882 25.1458 76.3257 25.6521 76.7592 25.5294V25.5255Z" fill="#FFC34F"/>
  <path d="M58.9804 31.8008C59.0648 32.0041 59.4944 32.1576 59.7668 32.1537C59.9048 32.1537 60.1312 31.7663 60.158 31.5361C60.2462 30.746 59.9586 30.5273 58.8462 30.5542C58.8807 30.98 58.827 31.4326 58.9804 31.8008Z" fill="#FFC34F"/>
  <path d="M91.1547 66.7256C91.1662 66.7832 91.1777 66.8407 91.1892 66.8982C92.5126 68.3405 93.8321 69.7789 95.1631 71.2288C96.2218 70.6688 96.613 69.9016 96.6475 68.9043C96.7166 67.0555 96.7971 65.2066 96.8853 63.3578C96.893 63.212 96.9927 63.0701 97.0925 62.8208C98.1358 63.6455 98.6038 64.7502 99.1408 65.7973C99.5742 66.645 100.115 66.8445 100.859 66.273C101.101 66.0889 101.27 65.6746 101.289 65.3562C101.415 63.2236 101.511 61.0909 101.584 58.9582C101.661 56.7411 101.726 54.5279 101.738 52.3108C101.741 51.6357 102.044 51.3941 102.631 51.2598C104.001 50.9453 105.266 51.1524 106.467 51.8735C106.916 52.142 107.384 52.3799 107.836 52.6445C108.983 53.3196 109.724 54.267 109.793 55.6403C109.823 56.2847 109.793 56.9329 109.85 57.5773C110.007 59.2612 110.111 60.9566 110.41 62.6137C110.598 63.6647 111.154 64.6466 111.438 65.6861C111.722 66.7294 111.956 67.8035 112.067 68.8775C112.094 69.1306 112.113 69.3876 112.133 69.6408C112.228 68.4709 112.19 67.2856 112.067 66.0965C111.956 65.0225 111.722 63.9485 111.438 62.9052C111.154 61.8619 110.598 60.8837 110.41 59.8327C110.111 58.1719 110.007 56.4764 109.85 54.7964C109.789 54.1558 109.827 53.5037 109.793 52.8593C109.724 51.4861 108.983 50.5349 107.836 49.8636C107.384 49.5989 106.916 49.3611 106.467 49.0926C105.27 48.3715 104.001 48.1682 102.631 48.4789C102.041 48.6131 101.741 48.8586 101.738 49.5299C101.722 51.747 101.657 53.964 101.584 56.1773C101.511 58.31 101.415 60.4426 101.289 62.5753C101.27 62.8937 101.101 63.3079 100.859 63.492C100.115 64.0636 99.5742 63.8641 99.1408 63.0164C98.6038 61.9693 98.132 60.8645 97.0925 60.0399C96.9927 60.2892 96.893 60.4311 96.8853 60.5769C96.7971 62.4257 96.7204 64.2746 96.6475 66.1234C96.6092 67.1207 96.2179 67.8878 95.1631 68.4479C93.6863 66.8368 92.2172 65.2335 90.7443 63.6302C90.6331 63.6992 90.518 63.7721 90.4067 63.8411C90.5065 64.2592 90.5947 64.6811 90.7059 65.0992C90.8517 65.6439 91.0473 66.1733 91.1586 66.7256H91.1547Z" fill="#870B20"/>
  <path d="M75.478 80.2237C75.8117 78.4707 76.7438 76.9479 77.9252 75.5709C79.1987 74.0865 80.871 73.2272 82.5204 72.3028C82.6623 72.2223 82.835 72.1762 82.9385 72.0612C83.8438 71.0792 84.772 71.3324 85.7348 71.9614C87.154 72.8858 88.5963 73.7642 90.0002 74.7117C90.5525 75.0876 91.0473 75.0262 91.592 74.7845C91.9334 74.6311 92.0676 74.3856 91.9948 74.0097C91.8682 73.3346 91.7454 72.6595 91.6227 71.9844C91.6112 71.9883 91.6035 71.9998 91.592 72.0036C91.0473 72.2491 90.5563 72.3066 90.0002 71.9307C88.6001 70.9833 87.154 70.1049 85.7348 69.1805C84.772 68.5514 83.8438 68.2983 82.9385 69.2802C82.835 69.3915 82.6623 69.4413 82.5204 69.5219C80.871 70.4463 79.1987 71.3094 77.9252 72.79C76.7399 74.167 75.8078 75.6936 75.478 77.4428C75.2785 78.4937 75.2708 79.5217 75.4358 80.5152C75.4511 80.4154 75.4588 80.3196 75.478 80.2237Z" fill="#870B20"/>
</svg>